*
%FSLAX26Y26*%
%MOIN*%
%ADD10C,0.005906*%
%IPPOS*%
%LNdnc-lb-rs.gbx*%
%LPD*%
G75*
G54D10*
X449213Y465354D03*
X465551Y428898D03*
X490945Y449685D03*
X491339Y531496D03*
X525157Y454291D03*
X565748Y422441D03*
X600787Y452756D03*
X601575Y468504D03*
X616260Y488386D03*
X620827Y508976D03*
X725827Y478701D03*
X741024Y667992D03*
X747047Y683898D03*
X748228Y435236D03*
X449213Y1055906D03*
X465551Y1019449D03*
X490945Y1040236D03*
X491339Y1122047D03*
X525157Y1044843D03*
X565748Y1012992D03*
X600787Y1043307D03*
X601575Y1059055D03*
X616260Y1078937D03*
X620827Y1099528D03*
X725827Y1069252D03*
X741024Y1258543D03*
X747047Y1274449D03*
X748228Y1025787D03*
X449213Y1646457D03*
X465551Y1610000D03*
X490945Y1630787D03*
X491339Y1712598D03*
X525157Y1635394D03*
X565748Y1603543D03*
X600787Y1633858D03*
X601575Y1649606D03*
X616260Y1669488D03*
X620827Y1690079D03*
X725827Y1659803D03*
X741024Y1849094D03*
X747047Y1865000D03*
X748228Y1616339D03*
X449213Y2237008D03*
X465551Y2200551D03*
X490945Y2221339D03*
X491339Y2303150D03*
X525157Y2225945D03*
X565748Y2194094D03*
X600787Y2224409D03*
X601575Y2240157D03*
X616260Y2260039D03*
X620827Y2280630D03*
X725827Y2250354D03*
X741024Y2439646D03*
X747047Y2455551D03*
X748228Y2206890D03*
X449213Y2827559D03*
X465551Y2791102D03*
X490945Y2811890D03*
X491339Y2893701D03*
X525157Y2816496D03*
X565748Y2784646D03*
X600787Y2814961D03*
X601575Y2830709D03*
X616260Y2850591D03*
X620827Y2871181D03*
X725827Y2840906D03*
X741024Y3030197D03*
X747047Y3046102D03*
X748228Y2797441D03*
X1039764Y465354D03*
X1056102Y428898D03*
X1081496Y449685D03*
X1081890Y531496D03*
X1115709Y454291D03*
X1156299Y422441D03*
X1191339Y452756D03*
X1192126Y468504D03*
X1206811Y488386D03*
X1211378Y508976D03*
X1316378Y478701D03*
X1331575Y667992D03*
X1337598Y683898D03*
X1338780Y435236D03*
X1039764Y1055906D03*
X1056102Y1019449D03*
X1081496Y1040236D03*
X1081890Y1122047D03*
X1115709Y1044843D03*
X1156299Y1012992D03*
X1191339Y1043307D03*
X1192126Y1059055D03*
X1206811Y1078937D03*
X1211378Y1099528D03*
X1316378Y1069252D03*
X1331575Y1258543D03*
X1337598Y1274449D03*
X1338780Y1025787D03*
X1039764Y1646457D03*
X1056102Y1610000D03*
X1081496Y1630787D03*
X1081890Y1712598D03*
X1115709Y1635394D03*
X1156299Y1603543D03*
X1191339Y1633858D03*
X1192126Y1649606D03*
X1206811Y1669488D03*
X1211378Y1690079D03*
X1316378Y1659803D03*
X1331575Y1849094D03*
X1337598Y1865000D03*
X1338780Y1616339D03*
X1039764Y2237008D03*
X1056102Y2200551D03*
X1081496Y2221339D03*
X1081890Y2303150D03*
X1115709Y2225945D03*
X1156299Y2194094D03*
X1191339Y2224409D03*
X1192126Y2240157D03*
X1206811Y2260039D03*
X1211378Y2280630D03*
X1316378Y2250354D03*
X1331575Y2439646D03*
X1337598Y2455551D03*
X1338780Y2206890D03*
X1039764Y2827559D03*
X1056102Y2791102D03*
X1081496Y2811890D03*
X1081890Y2893701D03*
X1115709Y2816496D03*
X1156299Y2784646D03*
X1191339Y2814961D03*
X1192126Y2830709D03*
X1206811Y2850591D03*
X1211378Y2871181D03*
X1316378Y2840906D03*
X1331575Y3030197D03*
X1337598Y3046102D03*
X1338780Y2797441D03*
X1630315Y465354D03*
X1646654Y428898D03*
X1672047Y449685D03*
X1672441Y531496D03*
X1706260Y454291D03*
X1746850Y422441D03*
X1781890Y452756D03*
X1782677Y468504D03*
X1797362Y488386D03*
X1801929Y508976D03*
X1906929Y478701D03*
X1922126Y667992D03*
X1928150Y683898D03*
X1929331Y435236D03*
X1630315Y1055906D03*
X1646654Y1019449D03*
X1672047Y1040236D03*
X1672441Y1122047D03*
X1706260Y1044843D03*
X1746850Y1012992D03*
X1781890Y1043307D03*
X1782677Y1059055D03*
X1797362Y1078937D03*
X1801929Y1099528D03*
X1906929Y1069252D03*
X1922126Y1258543D03*
X1928150Y1274449D03*
X1929331Y1025787D03*
X1630315Y1646457D03*
X1646654Y1610000D03*
X1672047Y1630787D03*
X1672441Y1712598D03*
X1706260Y1635394D03*
X1746850Y1603543D03*
X1781890Y1633858D03*
X1782677Y1649606D03*
X1797362Y1669488D03*
X1801929Y1690079D03*
X1906929Y1659803D03*
X1922126Y1849094D03*
X1928150Y1865000D03*
X1929331Y1616339D03*
X1630315Y2237008D03*
X1646654Y2200551D03*
X1672047Y2221339D03*
X1672441Y2303150D03*
X1706260Y2225945D03*
X1746850Y2194094D03*
X1781890Y2224409D03*
X1782677Y2240157D03*
X1797362Y2260039D03*
X1801929Y2280630D03*
X1906929Y2250354D03*
X1922126Y2439646D03*
X1928150Y2455551D03*
X1929331Y2206890D03*
X1630315Y2827559D03*
X1646654Y2791102D03*
X1672047Y2811890D03*
X1672441Y2893701D03*
X1706260Y2816496D03*
X1746850Y2784646D03*
X1781890Y2814961D03*
X1782677Y2830709D03*
X1797362Y2850591D03*
X1801929Y2871181D03*
X1906929Y2840906D03*
X1922126Y3030197D03*
X1928150Y3046102D03*
X1929331Y2797441D03*
X2220866Y465354D03*
X2237205Y428898D03*
X2262598Y449685D03*
X2262992Y531496D03*
X2296811Y454291D03*
X2337402Y422441D03*
X2372441Y452756D03*
X2373228Y468504D03*
X2387913Y488386D03*
X2392480Y508976D03*
X2497480Y478701D03*
X2512677Y667992D03*
X2518701Y683898D03*
X2519882Y435236D03*
X2220866Y1055906D03*
X2237205Y1019449D03*
X2262598Y1040236D03*
X2262992Y1122047D03*
X2296811Y1044843D03*
X2337402Y1012992D03*
X2372441Y1043307D03*
X2373228Y1059055D03*
X2387913Y1078937D03*
X2392480Y1099528D03*
X2497480Y1069252D03*
X2512677Y1258543D03*
X2518701Y1274449D03*
X2519882Y1025787D03*
X2220866Y1646457D03*
X2237205Y1610000D03*
X2262598Y1630787D03*
X2262992Y1712598D03*
X2296811Y1635394D03*
X2337402Y1603543D03*
X2372441Y1633858D03*
X2373228Y1649606D03*
X2387913Y1669488D03*
X2392480Y1690079D03*
X2497480Y1659803D03*
X2512677Y1849094D03*
X2518701Y1865000D03*
X2519882Y1616339D03*
X2220866Y2237008D03*
X2237205Y2200551D03*
X2262598Y2221339D03*
X2262992Y2303150D03*
X2296811Y2225945D03*
X2337402Y2194094D03*
X2372441Y2224409D03*
X2373228Y2240157D03*
X2387913Y2260039D03*
X2392480Y2280630D03*
X2497480Y2250354D03*
X2512677Y2439646D03*
X2518701Y2455551D03*
X2519882Y2206890D03*
X2220866Y2827559D03*
X2237205Y2791102D03*
X2262598Y2811890D03*
X2262992Y2893701D03*
X2296811Y2816496D03*
X2337402Y2784646D03*
X2372441Y2814961D03*
X2373228Y2830709D03*
X2387913Y2850591D03*
X2392480Y2871181D03*
X2497480Y2840906D03*
X2512677Y3030197D03*
X2518701Y3046102D03*
X2519882Y2797441D03*
X2811417Y465354D03*
X2827756Y428898D03*
X2853150Y449685D03*
X2853543Y531496D03*
X2887362Y454291D03*
X2927953Y422441D03*
X2962992Y452756D03*
X2963780Y468504D03*
X2978465Y488386D03*
X2983031Y508976D03*
X3088031Y478701D03*
X3103228Y667992D03*
X3109252Y683898D03*
X3110433Y435236D03*
X2811417Y1055906D03*
X2827756Y1019449D03*
X2853150Y1040236D03*
X2853543Y1122047D03*
X2887362Y1044843D03*
X2927953Y1012992D03*
X2962992Y1043307D03*
X2963780Y1059055D03*
X2978465Y1078937D03*
X2983031Y1099528D03*
X3088031Y1069252D03*
X3103228Y1258543D03*
X3109252Y1274449D03*
X3110433Y1025787D03*
X2811417Y1646457D03*
X2827756Y1610000D03*
X2853150Y1630787D03*
X2853543Y1712598D03*
X2887362Y1635394D03*
X2927953Y1603543D03*
X2962992Y1633858D03*
X2963780Y1649606D03*
X2978465Y1669488D03*
X2983031Y1690079D03*
X3088031Y1659803D03*
X3103228Y1849094D03*
X3109252Y1865000D03*
X3110433Y1616339D03*
X2811417Y2237008D03*
X2827756Y2200551D03*
X2853150Y2221339D03*
X2853543Y2303150D03*
X2887362Y2225945D03*
X2927953Y2194094D03*
X2962992Y2224409D03*
X2963780Y2240157D03*
X2978465Y2260039D03*
X2983031Y2280630D03*
X3088031Y2250354D03*
X3103228Y2439646D03*
X3109252Y2455551D03*
X3110433Y2206890D03*
X2811417Y2827559D03*
X2827756Y2791102D03*
X2853150Y2811890D03*
X2853543Y2893701D03*
X2887362Y2816496D03*
X2927953Y2784646D03*
X2962992Y2814961D03*
X2963780Y2830709D03*
X2978465Y2850591D03*
X2983031Y2871181D03*
X3088031Y2840906D03*
X3103228Y3030197D03*
X3109252Y3046102D03*
X3110433Y2797441D03*
X449213Y465354D03*
X465551Y428898D03*
X490945Y449685D03*
X491339Y531496D03*
X525157Y454291D03*
X565748Y422441D03*
X600787Y452756D03*
X601575Y468504D03*
X616260Y488386D03*
X620827Y508976D03*
X725827Y478701D03*
X741024Y667992D03*
X747047Y683898D03*
X748228Y435236D03*
X449213Y1055906D03*
X465551Y1019449D03*
X490945Y1040236D03*
X491339Y1122047D03*
X525157Y1044843D03*
X565748Y1012992D03*
X600787Y1043307D03*
X601575Y1059055D03*
X616260Y1078937D03*
X620827Y1099528D03*
X725827Y1069252D03*
X741024Y1258543D03*
X747047Y1274449D03*
X748228Y1025787D03*
X449213Y1646457D03*
X465551Y1610000D03*
X490945Y1630787D03*
X491339Y1712598D03*
X525157Y1635394D03*
X565748Y1603543D03*
X600787Y1633858D03*
X601575Y1649606D03*
X616260Y1669488D03*
X620827Y1690079D03*
X725827Y1659803D03*
X741024Y1849094D03*
X747047Y1865000D03*
X748228Y1616339D03*
X449213Y2237008D03*
X465551Y2200551D03*
X490945Y2221339D03*
X491339Y2303150D03*
X525157Y2225945D03*
X565748Y2194094D03*
X600787Y2224409D03*
X601575Y2240157D03*
X616260Y2260039D03*
X620827Y2280630D03*
X725827Y2250354D03*
X741024Y2439646D03*
X747047Y2455551D03*
X748228Y2206890D03*
X449213Y2827559D03*
X465551Y2791102D03*
X490945Y2811890D03*
X491339Y2893701D03*
X525157Y2816496D03*
X565748Y2784646D03*
X600787Y2814961D03*
X601575Y2830709D03*
X616260Y2850591D03*
X620827Y2871181D03*
X725827Y2840906D03*
X741024Y3030197D03*
X747047Y3046102D03*
X748228Y2797441D03*
X1039764Y465354D03*
X1056102Y428898D03*
X1081496Y449685D03*
X1081890Y531496D03*
X1115709Y454291D03*
X1156299Y422441D03*
X1191339Y452756D03*
X1192126Y468504D03*
X1206811Y488386D03*
X1211378Y508976D03*
X1316378Y478701D03*
X1331575Y667992D03*
X1337598Y683898D03*
X1338780Y435236D03*
X1039764Y1055906D03*
X1056102Y1019449D03*
X1081496Y1040236D03*
X1081890Y1122047D03*
X1115709Y1044843D03*
X1156299Y1012992D03*
X1191339Y1043307D03*
X1192126Y1059055D03*
X1206811Y1078937D03*
X1211378Y1099528D03*
X1316378Y1069252D03*
X1331575Y1258543D03*
X1337598Y1274449D03*
X1338780Y1025787D03*
X1039764Y1646457D03*
X1056102Y1610000D03*
X1081496Y1630787D03*
X1081890Y1712598D03*
X1115709Y1635394D03*
X1156299Y1603543D03*
X1191339Y1633858D03*
X1192126Y1649606D03*
X1206811Y1669488D03*
X1211378Y1690079D03*
X1316378Y1659803D03*
X1331575Y1849094D03*
X1337598Y1865000D03*
X1338780Y1616339D03*
X1039764Y2237008D03*
X1056102Y2200551D03*
X1081496Y2221339D03*
X1081890Y2303150D03*
X1115709Y2225945D03*
X1156299Y2194094D03*
X1191339Y2224409D03*
X1192126Y2240157D03*
X1206811Y2260039D03*
X1211378Y2280630D03*
X1316378Y2250354D03*
X1331575Y2439646D03*
X1337598Y2455551D03*
X1338780Y2206890D03*
X1039764Y2827559D03*
X1056102Y2791102D03*
X1081496Y2811890D03*
X1081890Y2893701D03*
X1115709Y2816496D03*
X1156299Y2784646D03*
X1191339Y2814961D03*
X1192126Y2830709D03*
X1206811Y2850591D03*
X1211378Y2871181D03*
X1316378Y2840906D03*
X1331575Y3030197D03*
X1337598Y3046102D03*
X1338780Y2797441D03*
X1630315Y465354D03*
X1646654Y428898D03*
X1672047Y449685D03*
X1672441Y531496D03*
X1706260Y454291D03*
X1746850Y422441D03*
X1781890Y452756D03*
X1782677Y468504D03*
X1797362Y488386D03*
X1801929Y508976D03*
X1906929Y478701D03*
X1922126Y667992D03*
X1928150Y683898D03*
X1929331Y435236D03*
X1630315Y1055906D03*
X1646654Y1019449D03*
X1672047Y1040236D03*
X1672441Y1122047D03*
X1706260Y1044843D03*
X1746850Y1012992D03*
X1781890Y1043307D03*
X1782677Y1059055D03*
X1797362Y1078937D03*
X1801929Y1099528D03*
X1906929Y1069252D03*
X1922126Y1258543D03*
X1928150Y1274449D03*
X1929331Y1025787D03*
X1630315Y1646457D03*
X1646654Y1610000D03*
X1672047Y1630787D03*
X1672441Y1712598D03*
X1706260Y1635394D03*
X1746850Y1603543D03*
X1781890Y1633858D03*
X1782677Y1649606D03*
X1797362Y1669488D03*
X1801929Y1690079D03*
X1906929Y1659803D03*
X1922126Y1849094D03*
X1928150Y1865000D03*
X1929331Y1616339D03*
X1630315Y2237008D03*
X1646654Y2200551D03*
X1672047Y2221339D03*
X1672441Y2303150D03*
X1706260Y2225945D03*
X1746850Y2194094D03*
X1781890Y2224409D03*
X1782677Y2240157D03*
X1797362Y2260039D03*
X1801929Y2280630D03*
X1906929Y2250354D03*
X1922126Y2439646D03*
X1928150Y2455551D03*
X1929331Y2206890D03*
X1630315Y2827559D03*
X1646654Y2791102D03*
X1672047Y2811890D03*
X1672441Y2893701D03*
X1706260Y2816496D03*
X1746850Y2784646D03*
X1781890Y2814961D03*
X1782677Y2830709D03*
X1797362Y2850591D03*
X1801929Y2871181D03*
X1906929Y2840906D03*
X1922126Y3030197D03*
X1928150Y3046102D03*
X1929331Y2797441D03*
X2220866Y465354D03*
X2237205Y428898D03*
X2262598Y449685D03*
X2262992Y531496D03*
X2296811Y454291D03*
X2337402Y422441D03*
X2372441Y452756D03*
X2373228Y468504D03*
X2387913Y488386D03*
X2392480Y508976D03*
X2497480Y478701D03*
X2512677Y667992D03*
X2518701Y683898D03*
X2519882Y435236D03*
X2220866Y1055906D03*
X2237205Y1019449D03*
X2262598Y1040236D03*
X2262992Y1122047D03*
X2296811Y1044843D03*
X2337402Y1012992D03*
X2372441Y1043307D03*
X2373228Y1059055D03*
X2387913Y1078937D03*
X2392480Y1099528D03*
X2497480Y1069252D03*
X2512677Y1258543D03*
X2518701Y1274449D03*
X2519882Y1025787D03*
X2220866Y1646457D03*
X2237205Y1610000D03*
X2262598Y1630787D03*
X2262992Y1712598D03*
X2296811Y1635394D03*
X2337402Y1603543D03*
X2372441Y1633858D03*
X2373228Y1649606D03*
X2387913Y1669488D03*
X2392480Y1690079D03*
X2497480Y1659803D03*
X2512677Y1849094D03*
X2518701Y1865000D03*
X2519882Y1616339D03*
X2220866Y2237008D03*
X2237205Y2200551D03*
X2262598Y2221339D03*
X2262992Y2303150D03*
X2296811Y2225945D03*
X2337402Y2194094D03*
X2372441Y2224409D03*
X2373228Y2240157D03*
X2387913Y2260039D03*
X2392480Y2280630D03*
X2497480Y2250354D03*
X2512677Y2439646D03*
X2518701Y2455551D03*
X2519882Y2206890D03*
X2220866Y2827559D03*
X2237205Y2791102D03*
X2262598Y2811890D03*
X2262992Y2893701D03*
X2296811Y2816496D03*
X2337402Y2784646D03*
X2372441Y2814961D03*
X2373228Y2830709D03*
X2387913Y2850591D03*
X2392480Y2871181D03*
X2497480Y2840906D03*
X2512677Y3030197D03*
X2518701Y3046102D03*
X2519882Y2797441D03*
X2811417Y465354D03*
X2827756Y428898D03*
X2853150Y449685D03*
X2853543Y531496D03*
X2887362Y454291D03*
X2927953Y422441D03*
X2962992Y452756D03*
X2963780Y468504D03*
X2978465Y488386D03*
X2983031Y508976D03*
X3088031Y478701D03*
X3103228Y667992D03*
X3109252Y683898D03*
X3110433Y435236D03*
X2811417Y1055906D03*
X2827756Y1019449D03*
X2853150Y1040236D03*
X2853543Y1122047D03*
X2887362Y1044843D03*
X2927953Y1012992D03*
X2962992Y1043307D03*
X2963780Y1059055D03*
X2978465Y1078937D03*
X2983031Y1099528D03*
X3088031Y1069252D03*
X3103228Y1258543D03*
X3109252Y1274449D03*
X3110433Y1025787D03*
X2811417Y1646457D03*
X2827756Y1610000D03*
X2853150Y1630787D03*
X2853543Y1712598D03*
X2887362Y1635394D03*
X2927953Y1603543D03*
X2962992Y1633858D03*
X2963780Y1649606D03*
X2978465Y1669488D03*
X2983031Y1690079D03*
X3088031Y1659803D03*
X3103228Y1849094D03*
X3109252Y1865000D03*
X3110433Y1616339D03*
X2811417Y2237008D03*
X2827756Y2200551D03*
X2853150Y2221339D03*
X2853543Y2303150D03*
X2887362Y2225945D03*
X2927953Y2194094D03*
X2962992Y2224409D03*
X2963780Y2240157D03*
X2978465Y2260039D03*
X2983031Y2280630D03*
X3088031Y2250354D03*
X3103228Y2439646D03*
X3109252Y2455551D03*
X3110433Y2206890D03*
X2811417Y2827559D03*
X2827756Y2791102D03*
X2853150Y2811890D03*
X2853543Y2893701D03*
X2887362Y2816496D03*
X2927953Y2784646D03*
X2962992Y2814961D03*
X2963780Y2830709D03*
X2978465Y2850591D03*
X2983031Y2871181D03*
X3088031Y2840906D03*
X3103228Y3030197D03*
X3109252Y3046102D03*
X3110433Y2797441D03*
X449213Y465354D03*
X465551Y428898D03*
X490945Y449685D03*
X491339Y531496D03*
X525157Y454291D03*
X565748Y422441D03*
X600787Y452756D03*
X601575Y468504D03*
X616260Y488386D03*
X620827Y508976D03*
X725827Y478701D03*
X741024Y667992D03*
X747047Y683898D03*
X748228Y435236D03*
X449213Y1055906D03*
X465551Y1019449D03*
X490945Y1040236D03*
X491339Y1122047D03*
X525157Y1044843D03*
X565748Y1012992D03*
X600787Y1043307D03*
X601575Y1059055D03*
X616260Y1078937D03*
X620827Y1099528D03*
X725827Y1069252D03*
X741024Y1258543D03*
X747047Y1274449D03*
X748228Y1025787D03*
X449213Y1646457D03*
X465551Y1610000D03*
X490945Y1630787D03*
X491339Y1712598D03*
X525157Y1635394D03*
X565748Y1603543D03*
X600787Y1633858D03*
X601575Y1649606D03*
X616260Y1669488D03*
X620827Y1690079D03*
X725827Y1659803D03*
X741024Y1849094D03*
X747047Y1865000D03*
X748228Y1616339D03*
X449213Y2237008D03*
X465551Y2200551D03*
X490945Y2221339D03*
X491339Y2303150D03*
X525157Y2225945D03*
X565748Y2194094D03*
X600787Y2224409D03*
X601575Y2240157D03*
X616260Y2260039D03*
X620827Y2280630D03*
X725827Y2250354D03*
X741024Y2439646D03*
X747047Y2455551D03*
X748228Y2206890D03*
X449213Y2827559D03*
X465551Y2791102D03*
X490945Y2811890D03*
X491339Y2893701D03*
X525157Y2816496D03*
X565748Y2784646D03*
X600787Y2814961D03*
X601575Y2830709D03*
X616260Y2850591D03*
X620827Y2871181D03*
X725827Y2840906D03*
X741024Y3030197D03*
X747047Y3046102D03*
X748228Y2797441D03*
X1039764Y465354D03*
X1056102Y428898D03*
X1081496Y449685D03*
X1081890Y531496D03*
X1115709Y454291D03*
X1156299Y422441D03*
X1191339Y452756D03*
X1192126Y468504D03*
X1206811Y488386D03*
X1211378Y508976D03*
X1316378Y478701D03*
X1331575Y667992D03*
X1337598Y683898D03*
X1338780Y435236D03*
X1039764Y1055906D03*
X1056102Y1019449D03*
X1081496Y1040236D03*
X1081890Y1122047D03*
X1115709Y1044843D03*
X1156299Y1012992D03*
X1191339Y1043307D03*
X1192126Y1059055D03*
X1206811Y1078937D03*
X1211378Y1099528D03*
X1316378Y1069252D03*
X1331575Y1258543D03*
X1337598Y1274449D03*
X1338780Y1025787D03*
X1039764Y1646457D03*
X1056102Y1610000D03*
X1081496Y1630787D03*
X1081890Y1712598D03*
X1115709Y1635394D03*
X1156299Y1603543D03*
X1191339Y1633858D03*
X1192126Y1649606D03*
X1206811Y1669488D03*
X1211378Y1690079D03*
X1316378Y1659803D03*
X1331575Y1849094D03*
X1337598Y1865000D03*
X1338780Y1616339D03*
X1039764Y2237008D03*
X1056102Y2200551D03*
X1081496Y2221339D03*
X1081890Y2303150D03*
X1115709Y2225945D03*
X1156299Y2194094D03*
X1191339Y2224409D03*
X1192126Y2240157D03*
X1206811Y2260039D03*
X1211378Y2280630D03*
X1316378Y2250354D03*
X1331575Y2439646D03*
X1337598Y2455551D03*
X1338780Y2206890D03*
X1039764Y2827559D03*
X1056102Y2791102D03*
X1081496Y2811890D03*
X1081890Y2893701D03*
X1115709Y2816496D03*
X1156299Y2784646D03*
X1191339Y2814961D03*
X1192126Y2830709D03*
X1206811Y2850591D03*
X1211378Y2871181D03*
X1316378Y2840906D03*
X1331575Y3030197D03*
X1337598Y3046102D03*
X1338780Y2797441D03*
X1630315Y465354D03*
X1646654Y428898D03*
X1672047Y449685D03*
X1672441Y531496D03*
X1706260Y454291D03*
X1746850Y422441D03*
X1781890Y452756D03*
X1782677Y468504D03*
X1797362Y488386D03*
X1801929Y508976D03*
X1906929Y478701D03*
X1922126Y667992D03*
X1928150Y683898D03*
X1929331Y435236D03*
X1630315Y1055906D03*
X1646654Y1019449D03*
X1672047Y1040236D03*
X1672441Y1122047D03*
X1706260Y1044843D03*
X1746850Y1012992D03*
X1781890Y1043307D03*
X1782677Y1059055D03*
X1797362Y1078937D03*
X1801929Y1099528D03*
X1906929Y1069252D03*
X1922126Y1258543D03*
X1928150Y1274449D03*
X1929331Y1025787D03*
X1630315Y1646457D03*
X1646654Y1610000D03*
X1672047Y1630787D03*
X1672441Y1712598D03*
X1706260Y1635394D03*
X1746850Y1603543D03*
X1781890Y1633858D03*
X1782677Y1649606D03*
X1797362Y1669488D03*
X1801929Y1690079D03*
X1906929Y1659803D03*
X1922126Y1849094D03*
X1928150Y1865000D03*
X1929331Y1616339D03*
X1630315Y2237008D03*
X1646654Y2200551D03*
X1672047Y2221339D03*
X1672441Y2303150D03*
X1706260Y2225945D03*
X1746850Y2194094D03*
X1781890Y2224409D03*
X1782677Y2240157D03*
X1797362Y2260039D03*
X1801929Y2280630D03*
X1906929Y2250354D03*
X1922126Y2439646D03*
X1928150Y2455551D03*
X1929331Y2206890D03*
X1630315Y2827559D03*
X1646654Y2791102D03*
X1672047Y2811890D03*
X1672441Y2893701D03*
X1706260Y2816496D03*
X1746850Y2784646D03*
X1781890Y2814961D03*
X1782677Y2830709D03*
X1797362Y2850591D03*
X1801929Y2871181D03*
X1906929Y2840906D03*
X1922126Y3030197D03*
X1928150Y3046102D03*
X1929331Y2797441D03*
X2220866Y465354D03*
X2237205Y428898D03*
X2262598Y449685D03*
X2262992Y531496D03*
X2296811Y454291D03*
X2337402Y422441D03*
X2372441Y452756D03*
X2373228Y468504D03*
X2387913Y488386D03*
X2392480Y508976D03*
X2497480Y478701D03*
X2512677Y667992D03*
X2518701Y683898D03*
X2519882Y435236D03*
X2220866Y1055906D03*
X2237205Y1019449D03*
X2262598Y1040236D03*
X2262992Y1122047D03*
X2296811Y1044843D03*
X2337402Y1012992D03*
X2372441Y1043307D03*
X2373228Y1059055D03*
X2387913Y1078937D03*
X2392480Y1099528D03*
X2497480Y1069252D03*
X2512677Y1258543D03*
X2518701Y1274449D03*
X2519882Y1025787D03*
X2220866Y1646457D03*
X2237205Y1610000D03*
X2262598Y1630787D03*
X2262992Y1712598D03*
X2296811Y1635394D03*
X2337402Y1603543D03*
X2372441Y1633858D03*
X2373228Y1649606D03*
X2387913Y1669488D03*
X2392480Y1690079D03*
X2497480Y1659803D03*
X2512677Y1849094D03*
X2518701Y1865000D03*
X2519882Y1616339D03*
X2220866Y2237008D03*
X2237205Y2200551D03*
X2262598Y2221339D03*
X2262992Y2303150D03*
X2296811Y2225945D03*
X2337402Y2194094D03*
X2372441Y2224409D03*
X2373228Y2240157D03*
X2387913Y2260039D03*
X2392480Y2280630D03*
X2497480Y2250354D03*
X2512677Y2439646D03*
X2518701Y2455551D03*
X2519882Y2206890D03*
X2220866Y2827559D03*
X2237205Y2791102D03*
X2262598Y2811890D03*
X2262992Y2893701D03*
X2296811Y2816496D03*
X2337402Y2784646D03*
X2372441Y2814961D03*
X2373228Y2830709D03*
X2387913Y2850591D03*
X2392480Y2871181D03*
X2497480Y2840906D03*
X2512677Y3030197D03*
X2518701Y3046102D03*
X2519882Y2797441D03*
X2811417Y465354D03*
X2827756Y428898D03*
X2853150Y449685D03*
X2853543Y531496D03*
X2887362Y454291D03*
X2927953Y422441D03*
X2962992Y452756D03*
X2963780Y468504D03*
X2978465Y488386D03*
X2983031Y508976D03*
X3088031Y478701D03*
X3103228Y667992D03*
X3109252Y683898D03*
X3110433Y435236D03*
X2811417Y1055906D03*
X2827756Y1019449D03*
X2853150Y1040236D03*
X2853543Y1122047D03*
X2887362Y1044843D03*
X2927953Y1012992D03*
X2962992Y1043307D03*
X2963780Y1059055D03*
X2978465Y1078937D03*
X2983031Y1099528D03*
X3088031Y1069252D03*
X3103228Y1258543D03*
X3109252Y1274449D03*
X3110433Y1025787D03*
X2811417Y1646457D03*
X2827756Y1610000D03*
X2853150Y1630787D03*
X2853543Y1712598D03*
X2887362Y1635394D03*
X2927953Y1603543D03*
X2962992Y1633858D03*
X2963780Y1649606D03*
X2978465Y1669488D03*
X2983031Y1690079D03*
X3088031Y1659803D03*
X3103228Y1849094D03*
X3109252Y1865000D03*
X3110433Y1616339D03*
X2811417Y2237008D03*
X2827756Y2200551D03*
X2853150Y2221339D03*
X2853543Y2303150D03*
X2887362Y2225945D03*
X2927953Y2194094D03*
X2962992Y2224409D03*
X2963780Y2240157D03*
X2978465Y2260039D03*
X2983031Y2280630D03*
X3088031Y2250354D03*
X3103228Y2439646D03*
X3109252Y2455551D03*
X3110433Y2206890D03*
X2811417Y2827559D03*
X2827756Y2791102D03*
X2853150Y2811890D03*
X2853543Y2893701D03*
X2887362Y2816496D03*
X2927953Y2784646D03*
X2962992Y2814961D03*
X2963780Y2830709D03*
X2978465Y2850591D03*
X2983031Y2871181D03*
X3088031Y2840906D03*
X3103228Y3030197D03*
X3109252Y3046102D03*
X3110433Y2797441D03*
M02*
