*
%FSLAX26Y26*%
%MOIN*%
%ADD10C,0.059055*%
%ADD11C,0.078780*%
%ADD12C,0.009843*%
%ADD13C,0.019685*%
%ADD14C,0.041338*%
%ADD15C,0.118110*%
%IPPOS*%
%LNdnc.gbx*%
%LPD*%
G75*
G54D10*
X452756Y364173D02*
X816929D01*
Y452756D02*
Y728346D01*
Y816929D02*
X364173D01*
Y728346D02*
Y364173D01*
X1043307D02*
X1407480D01*
Y452756D02*
Y728346D01*
Y816929D02*
X954724D01*
Y728346D02*
Y364173D01*
X1633858D02*
X1998031D01*
Y452756D02*
Y728346D01*
Y816929D02*
X1545276D01*
Y728346D02*
Y364173D01*
X2224409D02*
X2588583D01*
Y452756D02*
Y728346D01*
Y816929D02*
X2135827D01*
Y728346D02*
Y364173D01*
X2814961D02*
X3179134D01*
Y452756D02*
Y728346D01*
Y816929D02*
X2726378D01*
Y728346D02*
Y364173D01*
X2814961Y954724D02*
X3179134D01*
Y1043307D02*
Y1318898D01*
Y1407480D02*
X2726378D01*
Y1318898D02*
Y954724D01*
X2224409D02*
X2588583D01*
Y1043307D02*
Y1318898D01*
Y1407480D02*
X2135827D01*
Y1318898D02*
Y954724D01*
X1633858D02*
X1998031D01*
Y1043307D02*
Y1318898D01*
Y1407480D02*
X1545276D01*
Y1318898D02*
Y954724D01*
X1043307D02*
X1407480D01*
Y1043307D02*
Y1318898D01*
Y1407480D02*
X954724D01*
Y1318898D02*
Y954724D01*
X452756D02*
X816929D01*
Y1043307D02*
Y1318898D01*
Y1407480D02*
X364173D01*
Y1318898D02*
Y954724D01*
X452756Y1545276D02*
X816929D01*
Y1633858D02*
Y1909449D01*
Y1998031D02*
X364173D01*
Y1909449D02*
Y1545276D01*
X1043307D02*
X1407480D01*
Y1633858D02*
Y1909449D01*
Y1998031D02*
X954724D01*
Y1909449D02*
Y1545276D01*
X1633858D02*
X1998031D01*
Y1633858D02*
Y1909449D01*
Y1998031D02*
X1545276D01*
Y1909449D02*
Y1545276D01*
X2224409D02*
X2588583D01*
Y1633858D02*
Y1909449D01*
Y1998031D02*
X2135827D01*
Y1909449D02*
Y1545276D01*
X2814961D02*
X3179134D01*
Y1633858D02*
Y1909449D01*
Y1998031D02*
X2726378D01*
Y1909449D02*
Y1545276D01*
X2814961Y2135827D02*
X3179134D01*
Y2224409D02*
Y2500000D01*
Y2588583D02*
X2726378D01*
Y2500000D02*
Y2135827D01*
X2224409D02*
X2588583D01*
Y2224409D02*
Y2500000D01*
Y2588583D02*
X2135827D01*
Y2500000D02*
Y2135827D01*
X1633858D02*
X1998031D01*
Y2224409D02*
Y2500000D01*
Y2588583D02*
X1545276D01*
Y2500000D02*
Y2135827D01*
X1043307D02*
X1407480D01*
Y2224409D02*
Y2500000D01*
Y2588583D02*
X954724D01*
Y2500000D02*
Y2135827D01*
X452756D02*
X816929D01*
Y2224409D02*
Y2500000D01*
Y2588583D02*
X364173D01*
Y2500000D02*
Y2135827D01*
X452756Y2726378D02*
X816929D01*
Y2814961D02*
Y3090551D01*
Y3179134D02*
X364173D01*
Y3090551D02*
Y2726378D01*
X1043307D02*
X1407480D01*
Y2814961D02*
Y3090551D01*
Y3179134D02*
X954724D01*
Y3090551D02*
Y2726378D01*
X1633858D02*
X1998031D01*
Y2814961D02*
Y3090551D01*
Y3179134D02*
X1545276D01*
Y3090551D02*
Y2726378D01*
X2224409D02*
X2588583D01*
Y2814961D02*
Y3090551D01*
Y3179134D02*
X2135827D01*
Y3090551D02*
Y2726378D01*
X2814961D02*
X3179134D01*
Y2814961D02*
Y3090551D01*
Y3179134D02*
X2726378D01*
Y3090551D02*
Y2726378D01*
G54D11*
X3582697Y-39370D02*
Y3582697D01*
X-39390D01*
Y-39390D01*
X3582677D01*
G54D12*
X412205Y772441D03*
X412598Y445669D03*
X482442Y563188D03*
X484646Y722047D03*
X487795Y419685D03*
X504442Y560888D03*
X520866Y607874D03*
X527953Y500000D03*
X542342Y479688D03*
X548942Y698588D03*
X556299Y553937D03*
X564742Y479888D03*
X570842Y699088D03*
X592126Y674803D03*
X592642Y697888D03*
X605742Y628388D03*
X611417Y551575D03*
X629942Y622988D03*
X630315Y581496D03*
X633242Y728388D03*
X672442Y671888D03*
X693542Y419088D03*
X696063Y692520D03*
X705842Y480988D03*
Y437588D03*
X705942Y459288D03*
X754042Y514488D03*
X759449Y720079D03*
G54D13*
X393701Y708661D03*
Y669291D03*
Y629921D03*
Y590551D03*
Y551181D03*
Y511811D03*
Y472441D03*
X472441Y787402D03*
Y393701D03*
X511811Y787402D03*
Y393701D03*
X551181Y787402D03*
Y393701D03*
X590551Y787402D03*
Y393701D03*
X629921Y787402D03*
Y393701D03*
X669291Y787402D03*
Y393701D03*
X708661Y787402D03*
X708702Y393687D03*
X748072D03*
X787402Y708661D03*
Y669291D03*
Y629921D03*
Y590551D03*
Y551181D03*
Y511811D03*
Y472441D03*
G54D14*
X714173Y590931D03*
G54D12*
X412205Y1362992D03*
X412598Y1036220D03*
X482442Y1153739D03*
X484646Y1312598D03*
X487795Y1010236D03*
X504442Y1151439D03*
X520866Y1198425D03*
X527953Y1090551D03*
X542342Y1070239D03*
X548942Y1289139D03*
X556299Y1144488D03*
X564742Y1070439D03*
X570842Y1289639D03*
X592126Y1265354D03*
X592642Y1288439D03*
X605742Y1218939D03*
X611417Y1142126D03*
X629942Y1213539D03*
X630315Y1172047D03*
X633242Y1318939D03*
X672442Y1262439D03*
X693542Y1009639D03*
X696063Y1283071D03*
X705842Y1071539D03*
Y1028139D03*
X705942Y1049839D03*
X754042Y1105039D03*
X759449Y1310630D03*
G54D13*
X393701Y1299213D03*
Y1259843D03*
Y1220472D03*
Y1181102D03*
Y1141732D03*
Y1102362D03*
Y1062992D03*
X472441Y1377953D03*
Y984252D03*
X511811Y1377953D03*
Y984252D03*
X551181Y1377953D03*
Y984252D03*
X590551Y1377953D03*
Y984252D03*
X629921Y1377953D03*
Y984252D03*
X669291Y1377953D03*
Y984252D03*
X708661Y1377953D03*
X708702Y984239D03*
X748072D03*
X787402Y1299213D03*
Y1259843D03*
Y1220472D03*
Y1181102D03*
Y1141732D03*
Y1102362D03*
Y1062992D03*
G54D14*
X714173Y1181483D03*
G54D12*
X412205Y1953543D03*
X412598Y1626772D03*
X482442Y1744291D03*
X484646Y1903150D03*
X487795Y1600787D03*
X504442Y1741991D03*
X520866Y1788976D03*
X527953Y1681102D03*
X542342Y1660791D03*
X548942Y1879691D03*
X556299Y1735039D03*
X564742Y1660991D03*
X570842Y1880191D03*
X592126Y1855906D03*
X592642Y1878991D03*
X605742Y1809491D03*
X611417Y1732677D03*
X629942Y1804091D03*
X630315Y1762598D03*
X633242Y1909491D03*
X672442Y1852991D03*
X693542Y1600191D03*
X696063Y1873622D03*
X705842Y1662091D03*
Y1618691D03*
X705942Y1640391D03*
X754042Y1695591D03*
X759449Y1901181D03*
G54D13*
X393701Y1889764D03*
Y1850394D03*
Y1811024D03*
Y1771654D03*
Y1732283D03*
Y1692913D03*
Y1653543D03*
X472441Y1968504D03*
Y1574803D03*
X511811Y1968504D03*
Y1574803D03*
X551181Y1968504D03*
Y1574803D03*
X590551Y1968504D03*
Y1574803D03*
X629921Y1968504D03*
Y1574803D03*
X669291Y1968504D03*
Y1574803D03*
X708661Y1968504D03*
X708702Y1574790D03*
X748072D03*
X787402Y1889764D03*
Y1850394D03*
Y1811024D03*
Y1771654D03*
Y1732283D03*
Y1692913D03*
Y1653543D03*
G54D14*
X714173Y1772034D03*
G54D12*
X412205Y2544094D03*
X412598Y2217323D03*
X482442Y2334842D03*
X484646Y2493701D03*
X487795Y2191339D03*
X504442Y2332542D03*
X520866Y2379528D03*
X527953Y2271654D03*
X542342Y2251342D03*
X548942Y2470242D03*
X556299Y2325591D03*
X564742Y2251542D03*
X570842Y2470742D03*
X592126Y2446457D03*
X592642Y2469542D03*
X605742Y2400042D03*
X611417Y2323228D03*
X629942Y2394642D03*
X630315Y2353150D03*
X633242Y2500042D03*
X672442Y2443542D03*
X693542Y2190742D03*
X696063Y2464173D03*
X705842Y2252642D03*
Y2209242D03*
X705942Y2230942D03*
X754042Y2286142D03*
X759449Y2491732D03*
G54D13*
X393701Y2480315D03*
Y2440945D03*
Y2401575D03*
Y2362205D03*
Y2322835D03*
Y2283465D03*
Y2244094D03*
X472441Y2559055D03*
Y2165354D03*
X511811Y2559055D03*
Y2165354D03*
X551181Y2559055D03*
Y2165354D03*
X590551Y2559055D03*
Y2165354D03*
X629921Y2559055D03*
Y2165354D03*
X669291Y2559055D03*
Y2165354D03*
X708661Y2559055D03*
X708702Y2165341D03*
X748072D03*
X787402Y2480315D03*
Y2440945D03*
Y2401575D03*
Y2362205D03*
Y2322835D03*
Y2283465D03*
Y2244094D03*
G54D14*
X714173Y2362585D03*
G54D12*
X412205Y3134646D03*
X412598Y2807874D03*
X482442Y2925393D03*
X484646Y3084252D03*
X487795Y2781890D03*
X504442Y2923093D03*
X520866Y2970079D03*
X527953Y2862205D03*
X542342Y2841893D03*
X548942Y3060793D03*
X556299Y2916142D03*
X564742Y2842093D03*
X570842Y3061293D03*
X592126Y3037008D03*
X592642Y3060093D03*
X605742Y2990593D03*
X611417Y2913780D03*
X629942Y2985193D03*
X630315Y2943701D03*
X633242Y3090593D03*
X672442Y3034093D03*
X693542Y2781293D03*
X696063Y3054724D03*
X705842Y2843193D03*
Y2799793D03*
X705942Y2821493D03*
X754042Y2876693D03*
X759449Y3082283D03*
G54D13*
X393701Y3070866D03*
Y3031496D03*
Y2992126D03*
Y2952756D03*
Y2913386D03*
Y2874016D03*
Y2834646D03*
X472441Y3149606D03*
Y2755906D03*
X511811Y3149606D03*
Y2755906D03*
X551181Y3149606D03*
Y2755906D03*
X590551Y3149606D03*
Y2755906D03*
X629921Y3149606D03*
Y2755906D03*
X669291Y3149606D03*
Y2755906D03*
X708661Y3149606D03*
X708702Y2755892D03*
X748072D03*
X787402Y3070866D03*
Y3031496D03*
Y2992126D03*
Y2952756D03*
Y2913386D03*
Y2874016D03*
Y2834646D03*
G54D14*
X714173Y2953136D03*
G54D12*
X1002756Y772441D03*
X1003150Y445669D03*
X1072993Y563188D03*
X1075197Y722047D03*
X1078346Y419685D03*
X1094993Y560888D03*
X1111417Y607874D03*
X1118504Y500000D03*
X1132893Y479688D03*
X1139493Y698588D03*
X1146850Y553937D03*
X1155293Y479888D03*
X1161393Y699088D03*
X1182677Y674803D03*
X1183193Y697888D03*
X1196293Y628388D03*
X1201969Y551575D03*
X1220493Y622988D03*
X1220866Y581496D03*
X1223793Y728388D03*
X1262993Y671888D03*
X1284093Y419088D03*
X1286614Y692520D03*
X1296393Y480988D03*
Y437588D03*
X1296493Y459288D03*
X1344593Y514488D03*
X1350000Y720079D03*
G54D13*
X984252Y708661D03*
Y669291D03*
Y629921D03*
Y590551D03*
Y551181D03*
Y511811D03*
Y472441D03*
X1062992Y787402D03*
Y393701D03*
X1102362Y787402D03*
Y393701D03*
X1141732Y787402D03*
Y393701D03*
X1181102Y787402D03*
Y393701D03*
X1220472Y787402D03*
Y393701D03*
X1259843Y787402D03*
Y393701D03*
X1299213Y787402D03*
X1299254Y393687D03*
X1338624D03*
X1377953Y708661D03*
Y669291D03*
Y629921D03*
Y590551D03*
Y551181D03*
Y511811D03*
Y472441D03*
G54D14*
X1304724Y590931D03*
G54D12*
X1002756Y1362992D03*
X1003150Y1036220D03*
X1072993Y1153739D03*
X1075197Y1312598D03*
X1078346Y1010236D03*
X1094993Y1151439D03*
X1111417Y1198425D03*
X1118504Y1090551D03*
X1132893Y1070239D03*
X1139493Y1289139D03*
X1146850Y1144488D03*
X1155293Y1070439D03*
X1161393Y1289639D03*
X1182677Y1265354D03*
X1183193Y1288439D03*
X1196293Y1218939D03*
X1201969Y1142126D03*
X1220493Y1213539D03*
X1220866Y1172047D03*
X1223793Y1318939D03*
X1262993Y1262439D03*
X1284093Y1009639D03*
X1286614Y1283071D03*
X1296393Y1071539D03*
Y1028139D03*
X1296493Y1049839D03*
X1344593Y1105039D03*
X1350000Y1310630D03*
G54D13*
X984252Y1299213D03*
Y1259843D03*
Y1220472D03*
Y1181102D03*
Y1141732D03*
Y1102362D03*
Y1062992D03*
X1062992Y1377953D03*
Y984252D03*
X1102362Y1377953D03*
Y984252D03*
X1141732Y1377953D03*
Y984252D03*
X1181102Y1377953D03*
Y984252D03*
X1220472Y1377953D03*
Y984252D03*
X1259843Y1377953D03*
Y984252D03*
X1299213Y1377953D03*
X1299254Y984239D03*
X1338624D03*
X1377953Y1299213D03*
Y1259843D03*
Y1220472D03*
Y1181102D03*
Y1141732D03*
Y1102362D03*
Y1062992D03*
G54D14*
X1304724Y1181483D03*
G54D12*
X1002756Y1953543D03*
X1003150Y1626772D03*
X1072993Y1744291D03*
X1075197Y1903150D03*
X1078346Y1600787D03*
X1094993Y1741991D03*
X1111417Y1788976D03*
X1118504Y1681102D03*
X1132893Y1660791D03*
X1139493Y1879691D03*
X1146850Y1735039D03*
X1155293Y1660991D03*
X1161393Y1880191D03*
X1182677Y1855906D03*
X1183193Y1878991D03*
X1196293Y1809491D03*
X1201969Y1732677D03*
X1220493Y1804091D03*
X1220866Y1762598D03*
X1223793Y1909491D03*
X1262993Y1852991D03*
X1284093Y1600191D03*
X1286614Y1873622D03*
X1296393Y1662091D03*
Y1618691D03*
X1296493Y1640391D03*
X1344593Y1695591D03*
X1350000Y1901181D03*
G54D13*
X984252Y1889764D03*
Y1850394D03*
Y1811024D03*
Y1771654D03*
Y1732283D03*
Y1692913D03*
Y1653543D03*
X1062992Y1968504D03*
Y1574803D03*
X1102362Y1968504D03*
Y1574803D03*
X1141732Y1968504D03*
Y1574803D03*
X1181102Y1968504D03*
Y1574803D03*
X1220472Y1968504D03*
Y1574803D03*
X1259843Y1968504D03*
Y1574803D03*
X1299213Y1968504D03*
X1299254Y1574790D03*
X1338624D03*
X1377953Y1889764D03*
Y1850394D03*
Y1811024D03*
Y1771654D03*
Y1732283D03*
Y1692913D03*
Y1653543D03*
G54D14*
X1304724Y1772034D03*
G54D12*
X1002756Y2544094D03*
X1003150Y2217323D03*
X1072993Y2334842D03*
X1075197Y2493701D03*
X1078346Y2191339D03*
X1094993Y2332542D03*
X1111417Y2379528D03*
X1118504Y2271654D03*
X1132893Y2251342D03*
X1139493Y2470242D03*
X1146850Y2325591D03*
X1155293Y2251542D03*
X1161393Y2470742D03*
X1182677Y2446457D03*
X1183193Y2469542D03*
X1196293Y2400042D03*
X1201969Y2323228D03*
X1220493Y2394642D03*
X1220866Y2353150D03*
X1223793Y2500042D03*
X1262993Y2443542D03*
X1284093Y2190742D03*
X1286614Y2464173D03*
X1296393Y2252642D03*
Y2209242D03*
X1296493Y2230942D03*
X1344593Y2286142D03*
X1350000Y2491732D03*
G54D13*
X984252Y2480315D03*
Y2440945D03*
Y2401575D03*
Y2362205D03*
Y2322835D03*
Y2283465D03*
Y2244094D03*
X1062992Y2559055D03*
Y2165354D03*
X1102362Y2559055D03*
Y2165354D03*
X1141732Y2559055D03*
Y2165354D03*
X1181102Y2559055D03*
Y2165354D03*
X1220472Y2559055D03*
Y2165354D03*
X1259843Y2559055D03*
Y2165354D03*
X1299213Y2559055D03*
X1299254Y2165341D03*
X1338624D03*
X1377953Y2480315D03*
Y2440945D03*
Y2401575D03*
Y2362205D03*
Y2322835D03*
Y2283465D03*
Y2244094D03*
G54D14*
X1304724Y2362585D03*
G54D12*
X1002756Y3134646D03*
X1003150Y2807874D03*
X1072993Y2925393D03*
X1075197Y3084252D03*
X1078346Y2781890D03*
X1094993Y2923093D03*
X1111417Y2970079D03*
X1118504Y2862205D03*
X1132893Y2841893D03*
X1139493Y3060793D03*
X1146850Y2916142D03*
X1155293Y2842093D03*
X1161393Y3061293D03*
X1182677Y3037008D03*
X1183193Y3060093D03*
X1196293Y2990593D03*
X1201969Y2913780D03*
X1220493Y2985193D03*
X1220866Y2943701D03*
X1223793Y3090593D03*
X1262993Y3034093D03*
X1284093Y2781293D03*
X1286614Y3054724D03*
X1296393Y2843193D03*
Y2799793D03*
X1296493Y2821493D03*
X1344593Y2876693D03*
X1350000Y3082283D03*
G54D13*
X984252Y3070866D03*
Y3031496D03*
Y2992126D03*
Y2952756D03*
Y2913386D03*
Y2874016D03*
Y2834646D03*
X1062992Y3149606D03*
Y2755906D03*
X1102362Y3149606D03*
Y2755906D03*
X1141732Y3149606D03*
Y2755906D03*
X1181102Y3149606D03*
Y2755906D03*
X1220472Y3149606D03*
Y2755906D03*
X1259843Y3149606D03*
Y2755906D03*
X1299213Y3149606D03*
X1299254Y2755892D03*
X1338624D03*
X1377953Y3070866D03*
Y3031496D03*
Y2992126D03*
Y2952756D03*
Y2913386D03*
Y2874016D03*
Y2834646D03*
G54D14*
X1304724Y2953136D03*
G54D12*
X1593307Y772441D03*
X1593701Y445669D03*
X1663544Y563188D03*
X1665748Y722047D03*
X1668898Y419685D03*
X1685544Y560888D03*
X1701969Y607874D03*
X1709055Y500000D03*
X1723444Y479688D03*
X1730044Y698588D03*
X1737402Y553937D03*
X1745844Y479888D03*
X1751944Y699088D03*
X1773228Y674803D03*
X1773744Y697888D03*
X1786844Y628388D03*
X1792520Y551575D03*
X1811044Y622988D03*
X1811417Y581496D03*
X1814344Y728388D03*
X1853544Y671888D03*
X1874644Y419088D03*
X1877165Y692520D03*
X1886944Y480988D03*
Y437588D03*
X1887044Y459288D03*
X1935144Y514488D03*
X1940551Y720079D03*
G54D13*
X1574803Y708661D03*
Y669291D03*
Y629921D03*
Y590551D03*
Y551181D03*
Y511811D03*
Y472441D03*
X1653543Y787402D03*
Y393701D03*
X1692913Y787402D03*
Y393701D03*
X1732283Y787402D03*
Y393701D03*
X1771654Y787402D03*
Y393701D03*
X1811024Y787402D03*
Y393701D03*
X1850394Y787402D03*
Y393701D03*
X1889764Y787402D03*
X1889805Y393687D03*
X1929175D03*
X1968504Y708661D03*
Y669291D03*
Y629921D03*
Y590551D03*
Y551181D03*
Y511811D03*
Y472441D03*
G54D14*
X1895276Y590931D03*
G54D12*
X1593307Y1362992D03*
X1593701Y1036220D03*
X1663544Y1153739D03*
X1665748Y1312598D03*
X1668898Y1010236D03*
X1685544Y1151439D03*
X1701969Y1198425D03*
X1709055Y1090551D03*
X1723444Y1070239D03*
X1730044Y1289139D03*
X1737402Y1144488D03*
X1745844Y1070439D03*
X1751944Y1289639D03*
X1773228Y1265354D03*
X1773744Y1288439D03*
X1786844Y1218939D03*
X1792520Y1142126D03*
X1811044Y1213539D03*
X1811417Y1172047D03*
X1814344Y1318939D03*
X1853544Y1262439D03*
X1874644Y1009639D03*
X1877165Y1283071D03*
X1886944Y1071539D03*
Y1028139D03*
X1887044Y1049839D03*
X1935144Y1105039D03*
X1940551Y1310630D03*
G54D13*
X1574803Y1299213D03*
Y1259843D03*
Y1220472D03*
Y1181102D03*
Y1141732D03*
Y1102362D03*
Y1062992D03*
X1653543Y1377953D03*
Y984252D03*
X1692913Y1377953D03*
Y984252D03*
X1732283Y1377953D03*
Y984252D03*
X1771654Y1377953D03*
Y984252D03*
X1811024Y1377953D03*
Y984252D03*
X1850394Y1377953D03*
Y984252D03*
X1889764Y1377953D03*
X1889805Y984239D03*
X1929175D03*
X1968504Y1299213D03*
Y1259843D03*
Y1220472D03*
Y1181102D03*
Y1141732D03*
Y1102362D03*
Y1062992D03*
G54D14*
X1895276Y1181483D03*
G54D12*
X1593307Y1953543D03*
X1593701Y1626772D03*
X1663544Y1744291D03*
X1665748Y1903150D03*
X1668898Y1600787D03*
X1685544Y1741991D03*
X1701969Y1788976D03*
X1709055Y1681102D03*
X1723444Y1660791D03*
X1730044Y1879691D03*
X1737402Y1735039D03*
X1745844Y1660991D03*
X1751944Y1880191D03*
X1773228Y1855906D03*
X1773744Y1878991D03*
X1786844Y1809491D03*
X1792520Y1732677D03*
X1811044Y1804091D03*
X1811417Y1762598D03*
X1814344Y1909491D03*
X1853544Y1852991D03*
X1874644Y1600191D03*
X1877165Y1873622D03*
X1886944Y1662091D03*
Y1618691D03*
X1887044Y1640391D03*
X1935144Y1695591D03*
X1940551Y1901181D03*
G54D13*
X1574803Y1889764D03*
Y1850394D03*
Y1811024D03*
Y1771654D03*
Y1732283D03*
Y1692913D03*
Y1653543D03*
X1653543Y1968504D03*
Y1574803D03*
X1692913Y1968504D03*
Y1574803D03*
X1732283Y1968504D03*
Y1574803D03*
X1771654Y1968504D03*
Y1574803D03*
X1811024Y1968504D03*
Y1574803D03*
X1850394Y1968504D03*
Y1574803D03*
X1889764Y1968504D03*
X1889805Y1574790D03*
X1929175D03*
X1968504Y1889764D03*
Y1850394D03*
Y1811024D03*
Y1771654D03*
Y1732283D03*
Y1692913D03*
Y1653543D03*
G54D14*
X1895276Y1772034D03*
G54D12*
X1593307Y2544094D03*
X1593701Y2217323D03*
X1663544Y2334842D03*
X1665748Y2493701D03*
X1668898Y2191339D03*
X1685544Y2332542D03*
X1701969Y2379528D03*
X1709055Y2271654D03*
X1723444Y2251342D03*
X1730044Y2470242D03*
X1737402Y2325591D03*
X1745844Y2251542D03*
X1751944Y2470742D03*
X1773228Y2446457D03*
X1773744Y2469542D03*
X1786844Y2400042D03*
X1792520Y2323228D03*
X1811044Y2394642D03*
X1811417Y2353150D03*
X1814344Y2500042D03*
X1853544Y2443542D03*
X1874644Y2190742D03*
X1877165Y2464173D03*
X1886944Y2252642D03*
Y2209242D03*
X1887044Y2230942D03*
X1935144Y2286142D03*
X1940551Y2491732D03*
G54D13*
X1574803Y2480315D03*
Y2440945D03*
Y2401575D03*
Y2362205D03*
Y2322835D03*
Y2283465D03*
Y2244094D03*
X1653543Y2559055D03*
Y2165354D03*
X1692913Y2559055D03*
Y2165354D03*
X1732283Y2559055D03*
Y2165354D03*
X1771654Y2559055D03*
Y2165354D03*
X1811024Y2559055D03*
Y2165354D03*
X1850394Y2559055D03*
Y2165354D03*
X1889764Y2559055D03*
X1889805Y2165341D03*
X1929175D03*
X1968504Y2480315D03*
Y2440945D03*
Y2401575D03*
Y2362205D03*
Y2322835D03*
Y2283465D03*
Y2244094D03*
G54D14*
X1895276Y2362585D03*
G54D12*
X1593307Y3134646D03*
X1593701Y2807874D03*
X1663544Y2925393D03*
X1665748Y3084252D03*
X1668898Y2781890D03*
X1685544Y2923093D03*
X1701969Y2970079D03*
X1709055Y2862205D03*
X1723444Y2841893D03*
X1730044Y3060793D03*
X1737402Y2916142D03*
X1745844Y2842093D03*
X1751944Y3061293D03*
X1773228Y3037008D03*
X1773744Y3060093D03*
X1786844Y2990593D03*
X1792520Y2913780D03*
X1811044Y2985193D03*
X1811417Y2943701D03*
X1814344Y3090593D03*
X1853544Y3034093D03*
X1874644Y2781293D03*
X1877165Y3054724D03*
X1886944Y2843193D03*
Y2799793D03*
X1887044Y2821493D03*
X1935144Y2876693D03*
X1940551Y3082283D03*
G54D13*
X1574803Y3070866D03*
Y3031496D03*
Y2992126D03*
Y2952756D03*
Y2913386D03*
Y2874016D03*
Y2834646D03*
X1653543Y3149606D03*
Y2755906D03*
X1692913Y3149606D03*
Y2755906D03*
X1732283Y3149606D03*
Y2755906D03*
X1771654Y3149606D03*
Y2755906D03*
X1811024Y3149606D03*
Y2755906D03*
X1850394Y3149606D03*
Y2755906D03*
X1889764Y3149606D03*
X1889805Y2755892D03*
X1929175D03*
X1968504Y3070866D03*
Y3031496D03*
Y2992126D03*
Y2952756D03*
Y2913386D03*
Y2874016D03*
Y2834646D03*
G54D14*
X1895276Y2953136D03*
G54D12*
X2183858Y772441D03*
X2184252Y445669D03*
X2254095Y563188D03*
X2256299Y722047D03*
X2259449Y419685D03*
X2276095Y560888D03*
X2292520Y607874D03*
X2299606Y500000D03*
X2313995Y479688D03*
X2320595Y698588D03*
X2327953Y553937D03*
X2336395Y479888D03*
X2342495Y699088D03*
X2363780Y674803D03*
X2364295Y697888D03*
X2377395Y628388D03*
X2383071Y551575D03*
X2401595Y622988D03*
X2401969Y581496D03*
X2404895Y728388D03*
X2444095Y671888D03*
X2465195Y419088D03*
X2467717Y692520D03*
X2477495Y480988D03*
Y437588D03*
X2477595Y459288D03*
X2525695Y514488D03*
X2531102Y720079D03*
G54D13*
X2165354Y708661D03*
Y669291D03*
Y629921D03*
Y590551D03*
Y551181D03*
Y511811D03*
Y472441D03*
X2244094Y787402D03*
Y393701D03*
X2283465Y787402D03*
Y393701D03*
X2322835Y787402D03*
Y393701D03*
X2362205Y787402D03*
Y393701D03*
X2401575Y787402D03*
Y393701D03*
X2440945Y787402D03*
Y393701D03*
X2480315Y787402D03*
X2480356Y393687D03*
X2519726D03*
X2559055Y708661D03*
Y669291D03*
Y629921D03*
Y590551D03*
Y551181D03*
Y511811D03*
Y472441D03*
G54D14*
X2485827Y590931D03*
G54D12*
X2183858Y1362992D03*
X2184252Y1036220D03*
X2254095Y1153739D03*
X2256299Y1312598D03*
X2259449Y1010236D03*
X2276095Y1151439D03*
X2292520Y1198425D03*
X2299606Y1090551D03*
X2313995Y1070239D03*
X2320595Y1289139D03*
X2327953Y1144488D03*
X2336395Y1070439D03*
X2342495Y1289639D03*
X2363780Y1265354D03*
X2364295Y1288439D03*
X2377395Y1218939D03*
X2383071Y1142126D03*
X2401595Y1213539D03*
X2401969Y1172047D03*
X2404895Y1318939D03*
X2444095Y1262439D03*
X2465195Y1009639D03*
X2467717Y1283071D03*
X2477495Y1071539D03*
Y1028139D03*
X2477595Y1049839D03*
X2525695Y1105039D03*
X2531102Y1310630D03*
G54D13*
X2165354Y1299213D03*
Y1259843D03*
Y1220472D03*
Y1181102D03*
Y1141732D03*
Y1102362D03*
Y1062992D03*
X2244094Y1377953D03*
Y984252D03*
X2283465Y1377953D03*
Y984252D03*
X2322835Y1377953D03*
Y984252D03*
X2362205Y1377953D03*
Y984252D03*
X2401575Y1377953D03*
Y984252D03*
X2440945Y1377953D03*
Y984252D03*
X2480315Y1377953D03*
X2480356Y984239D03*
X2519726D03*
X2559055Y1299213D03*
Y1259843D03*
Y1220472D03*
Y1181102D03*
Y1141732D03*
Y1102362D03*
Y1062992D03*
G54D14*
X2485827Y1181483D03*
G54D12*
X2183858Y1953543D03*
X2184252Y1626772D03*
X2254095Y1744291D03*
X2256299Y1903150D03*
X2259449Y1600787D03*
X2276095Y1741991D03*
X2292520Y1788976D03*
X2299606Y1681102D03*
X2313995Y1660791D03*
X2320595Y1879691D03*
X2327953Y1735039D03*
X2336395Y1660991D03*
X2342495Y1880191D03*
X2363780Y1855906D03*
X2364295Y1878991D03*
X2377395Y1809491D03*
X2383071Y1732677D03*
X2401595Y1804091D03*
X2401969Y1762598D03*
X2404895Y1909491D03*
X2444095Y1852991D03*
X2465195Y1600191D03*
X2467717Y1873622D03*
X2477495Y1662091D03*
Y1618691D03*
X2477595Y1640391D03*
X2525695Y1695591D03*
X2531102Y1901181D03*
G54D13*
X2165354Y1889764D03*
Y1850394D03*
Y1811024D03*
Y1771654D03*
Y1732283D03*
Y1692913D03*
Y1653543D03*
X2244094Y1968504D03*
Y1574803D03*
X2283465Y1968504D03*
Y1574803D03*
X2322835Y1968504D03*
Y1574803D03*
X2362205Y1968504D03*
Y1574803D03*
X2401575Y1968504D03*
Y1574803D03*
X2440945Y1968504D03*
Y1574803D03*
X2480315Y1968504D03*
X2480356Y1574790D03*
X2519726D03*
X2559055Y1889764D03*
Y1850394D03*
Y1811024D03*
Y1771654D03*
Y1732283D03*
Y1692913D03*
Y1653543D03*
G54D14*
X2485827Y1772034D03*
G54D12*
X2183858Y2544094D03*
X2184252Y2217323D03*
X2254095Y2334842D03*
X2256299Y2493701D03*
X2259449Y2191339D03*
X2276095Y2332542D03*
X2292520Y2379528D03*
X2299606Y2271654D03*
X2313995Y2251342D03*
X2320595Y2470242D03*
X2327953Y2325591D03*
X2336395Y2251542D03*
X2342495Y2470742D03*
X2363780Y2446457D03*
X2364295Y2469542D03*
X2377395Y2400042D03*
X2383071Y2323228D03*
X2401595Y2394642D03*
X2401969Y2353150D03*
X2404895Y2500042D03*
X2444095Y2443542D03*
X2465195Y2190742D03*
X2467717Y2464173D03*
X2477495Y2252642D03*
Y2209242D03*
X2477595Y2230942D03*
X2525695Y2286142D03*
X2531102Y2491732D03*
G54D13*
X2165354Y2480315D03*
Y2440945D03*
Y2401575D03*
Y2362205D03*
Y2322835D03*
Y2283465D03*
Y2244094D03*
X2244094Y2559055D03*
Y2165354D03*
X2283465Y2559055D03*
Y2165354D03*
X2322835Y2559055D03*
Y2165354D03*
X2362205Y2559055D03*
Y2165354D03*
X2401575Y2559055D03*
Y2165354D03*
X2440945Y2559055D03*
Y2165354D03*
X2480315Y2559055D03*
X2480356Y2165341D03*
X2519726D03*
X2559055Y2480315D03*
Y2440945D03*
Y2401575D03*
Y2362205D03*
Y2322835D03*
Y2283465D03*
Y2244094D03*
G54D14*
X2485827Y2362585D03*
G54D12*
X2183858Y3134646D03*
X2184252Y2807874D03*
X2254095Y2925393D03*
X2256299Y3084252D03*
X2259449Y2781890D03*
X2276095Y2923093D03*
X2292520Y2970079D03*
X2299606Y2862205D03*
X2313995Y2841893D03*
X2320595Y3060793D03*
X2327953Y2916142D03*
X2336395Y2842093D03*
X2342495Y3061293D03*
X2363780Y3037008D03*
X2364295Y3060093D03*
X2377395Y2990593D03*
X2383071Y2913780D03*
X2401595Y2985193D03*
X2401969Y2943701D03*
X2404895Y3090593D03*
X2444095Y3034093D03*
X2465195Y2781293D03*
X2467717Y3054724D03*
X2477495Y2843193D03*
Y2799793D03*
X2477595Y2821493D03*
X2525695Y2876693D03*
X2531102Y3082283D03*
G54D13*
X2165354Y3070866D03*
Y3031496D03*
Y2992126D03*
Y2952756D03*
Y2913386D03*
Y2874016D03*
Y2834646D03*
X2244094Y3149606D03*
Y2755906D03*
X2283465Y3149606D03*
Y2755906D03*
X2322835Y3149606D03*
Y2755906D03*
X2362205Y3149606D03*
Y2755906D03*
X2401575Y3149606D03*
Y2755906D03*
X2440945Y3149606D03*
Y2755906D03*
X2480315Y3149606D03*
X2480356Y2755892D03*
X2519726D03*
X2559055Y3070866D03*
Y3031496D03*
Y2992126D03*
Y2952756D03*
Y2913386D03*
Y2874016D03*
Y2834646D03*
G54D14*
X2485827Y2953136D03*
G54D12*
X2774409Y772441D03*
X2774803Y445669D03*
X2844646Y563188D03*
X2846850Y722047D03*
X2850000Y419685D03*
X2866646Y560888D03*
X2883071Y607874D03*
X2890157Y500000D03*
X2904546Y479688D03*
X2911146Y698588D03*
X2918504Y553937D03*
X2926946Y479888D03*
X2933046Y699088D03*
X2954331Y674803D03*
X2954846Y697888D03*
X2967946Y628388D03*
X2973622Y551575D03*
X2992146Y622988D03*
X2992520Y581496D03*
X2995446Y728388D03*
X3034646Y671888D03*
X3055746Y419088D03*
X3058268Y692520D03*
X3068046Y480988D03*
Y437588D03*
X3068146Y459288D03*
X3116246Y514488D03*
X3121654Y720079D03*
G54D13*
X2755906Y708661D03*
Y669291D03*
Y629921D03*
Y590551D03*
Y551181D03*
Y511811D03*
Y472441D03*
X2834646Y787402D03*
Y393701D03*
X2874016Y787402D03*
Y393701D03*
X2913386Y787402D03*
Y393701D03*
X2952756Y787402D03*
Y393701D03*
X2992126Y787402D03*
Y393701D03*
X3031496Y787402D03*
Y393701D03*
X3070866Y787402D03*
X3070907Y393687D03*
X3110277D03*
X3149606Y708661D03*
Y669291D03*
Y629921D03*
Y590551D03*
Y551181D03*
Y511811D03*
Y472441D03*
G54D14*
X3076378Y590931D03*
G54D12*
X2774409Y1362992D03*
X2774803Y1036220D03*
X2844646Y1153739D03*
X2846850Y1312598D03*
X2850000Y1010236D03*
X2866646Y1151439D03*
X2883071Y1198425D03*
X2890157Y1090551D03*
X2904546Y1070239D03*
X2911146Y1289139D03*
X2918504Y1144488D03*
X2926946Y1070439D03*
X2933046Y1289639D03*
X2954331Y1265354D03*
X2954846Y1288439D03*
X2967946Y1218939D03*
X2973622Y1142126D03*
X2992146Y1213539D03*
X2992520Y1172047D03*
X2995446Y1318939D03*
X3034646Y1262439D03*
X3055746Y1009639D03*
X3058268Y1283071D03*
X3068046Y1071539D03*
Y1028139D03*
X3068146Y1049839D03*
X3116246Y1105039D03*
X3121654Y1310630D03*
G54D13*
X2755906Y1299213D03*
Y1259843D03*
Y1220472D03*
Y1181102D03*
Y1141732D03*
Y1102362D03*
Y1062992D03*
X2834646Y1377953D03*
Y984252D03*
X2874016Y1377953D03*
Y984252D03*
X2913386Y1377953D03*
Y984252D03*
X2952756Y1377953D03*
Y984252D03*
X2992126Y1377953D03*
Y984252D03*
X3031496Y1377953D03*
Y984252D03*
X3070866Y1377953D03*
X3070907Y984239D03*
X3110277D03*
X3149606Y1299213D03*
Y1259843D03*
Y1220472D03*
Y1181102D03*
Y1141732D03*
Y1102362D03*
Y1062992D03*
G54D14*
X3076378Y1181483D03*
G54D12*
X2774409Y1953543D03*
X2774803Y1626772D03*
X2844646Y1744291D03*
X2846850Y1903150D03*
X2850000Y1600787D03*
X2866646Y1741991D03*
X2883071Y1788976D03*
X2890157Y1681102D03*
X2904546Y1660791D03*
X2911146Y1879691D03*
X2918504Y1735039D03*
X2926946Y1660991D03*
X2933046Y1880191D03*
X2954331Y1855906D03*
X2954846Y1878991D03*
X2967946Y1809491D03*
X2973622Y1732677D03*
X2992146Y1804091D03*
X2992520Y1762598D03*
X2995446Y1909491D03*
X3034646Y1852991D03*
X3055746Y1600191D03*
X3058268Y1873622D03*
X3068046Y1662091D03*
Y1618691D03*
X3068146Y1640391D03*
X3116246Y1695591D03*
X3121654Y1901181D03*
G54D13*
X2755906Y1889764D03*
Y1850394D03*
Y1811024D03*
Y1771654D03*
Y1732283D03*
Y1692913D03*
Y1653543D03*
X2834646Y1968504D03*
Y1574803D03*
X2874016Y1968504D03*
Y1574803D03*
X2913386Y1968504D03*
Y1574803D03*
X2952756Y1968504D03*
Y1574803D03*
X2992126Y1968504D03*
Y1574803D03*
X3031496Y1968504D03*
Y1574803D03*
X3070866Y1968504D03*
X3070907Y1574790D03*
X3110277D03*
X3149606Y1889764D03*
Y1850394D03*
Y1811024D03*
Y1771654D03*
Y1732283D03*
Y1692913D03*
Y1653543D03*
G54D14*
X3076378Y1772034D03*
G54D12*
X2774409Y2544094D03*
X2774803Y2217323D03*
X2844646Y2334842D03*
X2846850Y2493701D03*
X2850000Y2191339D03*
X2866646Y2332542D03*
X2883071Y2379528D03*
X2890157Y2271654D03*
X2904546Y2251342D03*
X2911146Y2470242D03*
X2918504Y2325591D03*
X2926946Y2251542D03*
X2933046Y2470742D03*
X2954331Y2446457D03*
X2954846Y2469542D03*
X2967946Y2400042D03*
X2973622Y2323228D03*
X2992146Y2394642D03*
X2992520Y2353150D03*
X2995446Y2500042D03*
X3034646Y2443542D03*
X3055746Y2190742D03*
X3058268Y2464173D03*
X3068046Y2252642D03*
Y2209242D03*
X3068146Y2230942D03*
X3116246Y2286142D03*
X3121654Y2491732D03*
G54D13*
X2755906Y2480315D03*
Y2440945D03*
Y2401575D03*
Y2362205D03*
Y2322835D03*
Y2283465D03*
Y2244094D03*
X2834646Y2559055D03*
Y2165354D03*
X2874016Y2559055D03*
Y2165354D03*
X2913386Y2559055D03*
Y2165354D03*
X2952756Y2559055D03*
Y2165354D03*
X2992126Y2559055D03*
Y2165354D03*
X3031496Y2559055D03*
Y2165354D03*
X3070866Y2559055D03*
X3070907Y2165341D03*
X3110277D03*
X3149606Y2480315D03*
Y2440945D03*
Y2401575D03*
Y2362205D03*
Y2322835D03*
Y2283465D03*
Y2244094D03*
G54D14*
X3076378Y2362585D03*
G54D12*
X2774409Y3134646D03*
X2774803Y2807874D03*
X2844646Y2925393D03*
X2846850Y3084252D03*
X2850000Y2781890D03*
X2866646Y2923093D03*
X2883071Y2970079D03*
X2890157Y2862205D03*
X2904546Y2841893D03*
X2911146Y3060793D03*
X2918504Y2916142D03*
X2926946Y2842093D03*
X2933046Y3061293D03*
X2954331Y3037008D03*
X2954846Y3060093D03*
X2967946Y2990593D03*
X2973622Y2913780D03*
X2992146Y2985193D03*
X2992520Y2943701D03*
X2995446Y3090593D03*
X3034646Y3034093D03*
X3055746Y2781293D03*
X3058268Y3054724D03*
X3068046Y2843193D03*
Y2799793D03*
X3068146Y2821493D03*
X3116246Y2876693D03*
X3121654Y3082283D03*
G54D13*
X2755906Y3070866D03*
Y3031496D03*
Y2992126D03*
Y2952756D03*
Y2913386D03*
Y2874016D03*
Y2834646D03*
X2834646Y3149606D03*
Y2755906D03*
X2874016Y3149606D03*
Y2755906D03*
X2913386Y3149606D03*
Y2755906D03*
X2952756Y3149606D03*
Y2755906D03*
X2992126Y3149606D03*
Y2755906D03*
X3031496Y3149606D03*
Y2755906D03*
X3070866Y3149606D03*
X3070907Y2755892D03*
X3110277D03*
X3149606Y3070866D03*
Y3031496D03*
Y2992126D03*
Y2952756D03*
Y2913386D03*
Y2874016D03*
Y2834646D03*
G54D14*
X3076378Y2953136D03*
G54D15*
X196850Y3346457D03*
G54D15*
X3346457D03*
G54D15*
Y196850D03*
X196850D03*
M02*
