G04 #@! TF.FileFunction,Paste,Bot*
%FSLAX46Y46*%
G04 Gerber Fmt 4.6, Leading zero omitted, Abs format (unit mm)*
G04 Created by KiCad (PCBNEW 4.0.7) date 03/09/18 11:46:10*
%MOMM*%
%LPD*%
G01*
G04 APERTURE LIST*
%ADD10C,0.100000*%
%ADD11C,0.010000*%
%ADD12R,0.500000X0.600000*%
%ADD13R,0.600000X0.500000*%
%ADD14R,0.350000X0.300000*%
%ADD15R,0.250000X0.300000*%
%ADD16R,1.300000X0.700000*%
%ADD17R,0.700000X1.300000*%
%ADD18C,0.230000*%
%ADD19C,0.200000*%
%ADD20R,0.300000X0.350000*%
%ADD21R,0.280000X0.430000*%
%ADD22R,2.700000X0.800000*%
%ADD23R,0.750000X0.800000*%
%ADD24R,0.600000X0.400000*%
%ADD25R,0.430000X0.280000*%
%ADD26R,0.563000X0.225000*%
%ADD27R,0.225000X0.563000*%
%ADD28C,2.200000*%
%ADD29C,5.000000*%
G04 APERTURE END LIST*
D10*
D11*
X-10000000Y134000000D02*
X100000000Y134000000D01*
X-10000000Y-44000000D02*
X100000000Y-44000000D01*
X100000000Y-44000000D02*
X100000000Y134000000D01*
X-10000000Y-44000000D02*
X-10000000Y134000000D01*
D12*
X74531980Y14998400D03*
X75431980Y14998400D03*
D13*
X78816560Y13535320D03*
X77716560Y13535320D03*
D14*
X76580000Y14770000D03*
X76580000Y14210000D03*
D12*
X76589800Y15395820D03*
X76589800Y16495820D03*
D15*
X77920080Y16527480D03*
X78470080Y16527480D03*
D14*
X71710000Y16570000D03*
X71710000Y16010000D03*
D16*
X76030000Y17280000D03*
X76030000Y19180000D03*
D12*
X77030000Y11830000D03*
X77030000Y10730000D03*
D17*
X75050000Y12990000D03*
X76950000Y12990000D03*
D18*
X75940000Y11500000D03*
X75540000Y11500000D03*
X76340000Y11500000D03*
X75940000Y11900000D03*
X75958000Y11100000D03*
X75940000Y10700000D03*
X75540000Y10700000D03*
X75540000Y11100000D03*
X76340000Y11100000D03*
X76340000Y10700000D03*
X76340000Y11900000D03*
X75540000Y11900000D03*
D12*
X79343160Y12127020D03*
X79343160Y11027020D03*
D19*
X78705000Y11755000D03*
X78355000Y11755000D03*
X78705000Y11405000D03*
X78355000Y11405000D03*
X78705000Y11055000D03*
X78355000Y11055000D03*
X78705000Y10705000D03*
X78355000Y10705000D03*
D13*
X76000000Y14010000D03*
X74900000Y14010000D03*
D20*
X71420000Y10750000D03*
X70860000Y10750000D03*
D21*
X73106540Y14795200D03*
X73626540Y14795200D03*
X73450000Y10990000D03*
X72930000Y10990000D03*
X74890000Y11080000D03*
X74370000Y11080000D03*
D22*
X73480000Y19110000D03*
X73480000Y16910000D03*
D23*
X71000000Y15140000D03*
X71000000Y16640000D03*
D24*
X71290000Y17500000D03*
X71290000Y18400000D03*
X77580000Y19020000D03*
X77580000Y18120000D03*
D25*
X73020000Y13670000D03*
X73020000Y13150000D03*
D26*
X70831500Y11900000D03*
X70831500Y12300000D03*
X70831500Y12700000D03*
X70831500Y13100000D03*
D27*
X71000000Y13668500D03*
X71400000Y13668500D03*
X71800000Y13668500D03*
X72200000Y13668500D03*
D26*
X72368500Y13100000D03*
X72368500Y12700000D03*
X72368500Y12300000D03*
X72368500Y11900000D03*
D27*
X72200000Y11331500D03*
X71800000Y11331500D03*
X71400000Y11331500D03*
X71000000Y11331500D03*
D26*
X55831500Y11900000D03*
X55831500Y12300000D03*
X55831500Y12700000D03*
X55831500Y13100000D03*
D27*
X56000000Y13668500D03*
X56400000Y13668500D03*
X56800000Y13668500D03*
X57200000Y13668500D03*
D26*
X57368500Y13100000D03*
X57368500Y12700000D03*
X57368500Y12300000D03*
X57368500Y11900000D03*
D27*
X57200000Y11331500D03*
X56800000Y11331500D03*
X56400000Y11331500D03*
X56000000Y11331500D03*
D25*
X58020000Y13670000D03*
X58020000Y13150000D03*
D24*
X62580000Y19020000D03*
X62580000Y18120000D03*
X56290000Y17500000D03*
X56290000Y18400000D03*
D23*
X56000000Y15140000D03*
X56000000Y16640000D03*
D22*
X58480000Y19110000D03*
X58480000Y16910000D03*
D21*
X59890000Y11080000D03*
X59370000Y11080000D03*
X58450000Y10990000D03*
X57930000Y10990000D03*
X58106540Y14795200D03*
X58626540Y14795200D03*
D20*
X56420000Y10750000D03*
X55860000Y10750000D03*
D13*
X61000000Y14010000D03*
X59900000Y14010000D03*
D19*
X63705000Y11755000D03*
X63355000Y11755000D03*
X63705000Y11405000D03*
X63355000Y11405000D03*
X63705000Y11055000D03*
X63355000Y11055000D03*
X63705000Y10705000D03*
X63355000Y10705000D03*
D12*
X64343160Y12127020D03*
X64343160Y11027020D03*
D18*
X60940000Y11500000D03*
X60540000Y11500000D03*
X61340000Y11500000D03*
X60940000Y11900000D03*
X60958000Y11100000D03*
X60940000Y10700000D03*
X60540000Y10700000D03*
X60540000Y11100000D03*
X61340000Y11100000D03*
X61340000Y10700000D03*
X61340000Y11900000D03*
X60540000Y11900000D03*
D17*
X60050000Y12990000D03*
X61950000Y12990000D03*
D12*
X62030000Y11830000D03*
X62030000Y10730000D03*
D16*
X61030000Y17280000D03*
X61030000Y19180000D03*
D14*
X56710000Y16570000D03*
X56710000Y16010000D03*
D15*
X62920080Y16527480D03*
X63470080Y16527480D03*
D12*
X61589800Y15395820D03*
X61589800Y16495820D03*
D14*
X61580000Y14770000D03*
X61580000Y14210000D03*
D13*
X63816560Y13535320D03*
X62716560Y13535320D03*
D12*
X59531980Y14998400D03*
X60431980Y14998400D03*
X44531980Y14998400D03*
X45431980Y14998400D03*
D13*
X48816560Y13535320D03*
X47716560Y13535320D03*
D14*
X46580000Y14770000D03*
X46580000Y14210000D03*
D12*
X46589800Y15395820D03*
X46589800Y16495820D03*
D15*
X47920080Y16527480D03*
X48470080Y16527480D03*
D14*
X41710000Y16570000D03*
X41710000Y16010000D03*
D16*
X46030000Y17280000D03*
X46030000Y19180000D03*
D12*
X47030000Y11830000D03*
X47030000Y10730000D03*
D17*
X45050000Y12990000D03*
X46950000Y12990000D03*
D18*
X45940000Y11500000D03*
X45540000Y11500000D03*
X46340000Y11500000D03*
X45940000Y11900000D03*
X45958000Y11100000D03*
X45940000Y10700000D03*
X45540000Y10700000D03*
X45540000Y11100000D03*
X46340000Y11100000D03*
X46340000Y10700000D03*
X46340000Y11900000D03*
X45540000Y11900000D03*
D12*
X49343160Y12127020D03*
X49343160Y11027020D03*
D19*
X48705000Y11755000D03*
X48355000Y11755000D03*
X48705000Y11405000D03*
X48355000Y11405000D03*
X48705000Y11055000D03*
X48355000Y11055000D03*
X48705000Y10705000D03*
X48355000Y10705000D03*
D13*
X46000000Y14010000D03*
X44900000Y14010000D03*
D20*
X41420000Y10750000D03*
X40860000Y10750000D03*
D21*
X43106540Y14795200D03*
X43626540Y14795200D03*
X43450000Y10990000D03*
X42930000Y10990000D03*
X44890000Y11080000D03*
X44370000Y11080000D03*
D22*
X43480000Y19110000D03*
X43480000Y16910000D03*
D23*
X41000000Y15140000D03*
X41000000Y16640000D03*
D24*
X41290000Y17500000D03*
X41290000Y18400000D03*
X47580000Y19020000D03*
X47580000Y18120000D03*
D25*
X43020000Y13670000D03*
X43020000Y13150000D03*
D26*
X40831500Y11900000D03*
X40831500Y12300000D03*
X40831500Y12700000D03*
X40831500Y13100000D03*
D27*
X41000000Y13668500D03*
X41400000Y13668500D03*
X41800000Y13668500D03*
X42200000Y13668500D03*
D26*
X42368500Y13100000D03*
X42368500Y12700000D03*
X42368500Y12300000D03*
X42368500Y11900000D03*
D27*
X42200000Y11331500D03*
X41800000Y11331500D03*
X41400000Y11331500D03*
X41000000Y11331500D03*
D26*
X25831500Y11900000D03*
X25831500Y12300000D03*
X25831500Y12700000D03*
X25831500Y13100000D03*
D27*
X26000000Y13668500D03*
X26400000Y13668500D03*
X26800000Y13668500D03*
X27200000Y13668500D03*
D26*
X27368500Y13100000D03*
X27368500Y12700000D03*
X27368500Y12300000D03*
X27368500Y11900000D03*
D27*
X27200000Y11331500D03*
X26800000Y11331500D03*
X26400000Y11331500D03*
X26000000Y11331500D03*
D25*
X28020000Y13670000D03*
X28020000Y13150000D03*
D24*
X32580000Y19020000D03*
X32580000Y18120000D03*
X26290000Y17500000D03*
X26290000Y18400000D03*
D23*
X26000000Y15140000D03*
X26000000Y16640000D03*
D22*
X28480000Y19110000D03*
X28480000Y16910000D03*
D21*
X29890000Y11080000D03*
X29370000Y11080000D03*
X28450000Y10990000D03*
X27930000Y10990000D03*
X28106540Y14795200D03*
X28626540Y14795200D03*
D20*
X26420000Y10750000D03*
X25860000Y10750000D03*
D13*
X31000000Y14010000D03*
X29900000Y14010000D03*
D19*
X33705000Y11755000D03*
X33355000Y11755000D03*
X33705000Y11405000D03*
X33355000Y11405000D03*
X33705000Y11055000D03*
X33355000Y11055000D03*
X33705000Y10705000D03*
X33355000Y10705000D03*
D12*
X34343160Y12127020D03*
X34343160Y11027020D03*
D18*
X30940000Y11500000D03*
X30540000Y11500000D03*
X31340000Y11500000D03*
X30940000Y11900000D03*
X30958000Y11100000D03*
X30940000Y10700000D03*
X30540000Y10700000D03*
X30540000Y11100000D03*
X31340000Y11100000D03*
X31340000Y10700000D03*
X31340000Y11900000D03*
X30540000Y11900000D03*
D17*
X30050000Y12990000D03*
X31950000Y12990000D03*
D12*
X32030000Y11830000D03*
X32030000Y10730000D03*
D16*
X31030000Y17280000D03*
X31030000Y19180000D03*
D14*
X26710000Y16570000D03*
X26710000Y16010000D03*
D15*
X32920080Y16527480D03*
X33470080Y16527480D03*
D12*
X31589800Y15395820D03*
X31589800Y16495820D03*
D14*
X31580000Y14770000D03*
X31580000Y14210000D03*
D13*
X33816560Y13535320D03*
X32716560Y13535320D03*
D12*
X29531980Y14998400D03*
X30431980Y14998400D03*
X14531980Y14998400D03*
X15431980Y14998400D03*
D13*
X18816560Y13535320D03*
X17716560Y13535320D03*
D14*
X16580000Y14770000D03*
X16580000Y14210000D03*
D12*
X16589800Y15395820D03*
X16589800Y16495820D03*
D15*
X17920080Y16527480D03*
X18470080Y16527480D03*
D14*
X11710000Y16570000D03*
X11710000Y16010000D03*
D16*
X16030000Y17280000D03*
X16030000Y19180000D03*
D12*
X17030000Y11830000D03*
X17030000Y10730000D03*
D17*
X15050000Y12990000D03*
X16950000Y12990000D03*
D18*
X15940000Y11500000D03*
X15540000Y11500000D03*
X16340000Y11500000D03*
X15940000Y11900000D03*
X15958000Y11100000D03*
X15940000Y10700000D03*
X15540000Y10700000D03*
X15540000Y11100000D03*
X16340000Y11100000D03*
X16340000Y10700000D03*
X16340000Y11900000D03*
X15540000Y11900000D03*
D12*
X19343160Y12127020D03*
X19343160Y11027020D03*
D19*
X18705000Y11755000D03*
X18355000Y11755000D03*
X18705000Y11405000D03*
X18355000Y11405000D03*
X18705000Y11055000D03*
X18355000Y11055000D03*
X18705000Y10705000D03*
X18355000Y10705000D03*
D13*
X16000000Y14010000D03*
X14900000Y14010000D03*
D20*
X11420000Y10750000D03*
X10860000Y10750000D03*
D21*
X13106540Y14795200D03*
X13626540Y14795200D03*
X13450000Y10990000D03*
X12930000Y10990000D03*
X14890000Y11080000D03*
X14370000Y11080000D03*
D22*
X13480000Y19110000D03*
X13480000Y16910000D03*
D23*
X11000000Y15140000D03*
X11000000Y16640000D03*
D24*
X11290000Y17500000D03*
X11290000Y18400000D03*
X17580000Y19020000D03*
X17580000Y18120000D03*
D25*
X13020000Y13670000D03*
X13020000Y13150000D03*
D26*
X10831500Y11900000D03*
X10831500Y12300000D03*
X10831500Y12700000D03*
X10831500Y13100000D03*
D27*
X11000000Y13668500D03*
X11400000Y13668500D03*
X11800000Y13668500D03*
X12200000Y13668500D03*
D26*
X12368500Y13100000D03*
X12368500Y12700000D03*
X12368500Y12300000D03*
X12368500Y11900000D03*
D27*
X12200000Y11331500D03*
X11800000Y11331500D03*
X11400000Y11331500D03*
X11000000Y11331500D03*
D26*
X10831500Y26900000D03*
X10831500Y27300000D03*
X10831500Y27700000D03*
X10831500Y28100000D03*
D27*
X11000000Y28668500D03*
X11400000Y28668500D03*
X11800000Y28668500D03*
X12200000Y28668500D03*
D26*
X12368500Y28100000D03*
X12368500Y27700000D03*
X12368500Y27300000D03*
X12368500Y26900000D03*
D27*
X12200000Y26331500D03*
X11800000Y26331500D03*
X11400000Y26331500D03*
X11000000Y26331500D03*
D25*
X13020000Y28670000D03*
X13020000Y28150000D03*
D24*
X17580000Y34020000D03*
X17580000Y33120000D03*
X11290000Y32500000D03*
X11290000Y33400000D03*
D23*
X11000000Y30140000D03*
X11000000Y31640000D03*
D22*
X13480000Y34110000D03*
X13480000Y31910000D03*
D21*
X14890000Y26080000D03*
X14370000Y26080000D03*
X13450000Y25990000D03*
X12930000Y25990000D03*
X13106540Y29795200D03*
X13626540Y29795200D03*
D20*
X11420000Y25750000D03*
X10860000Y25750000D03*
D13*
X16000000Y29010000D03*
X14900000Y29010000D03*
D19*
X18705000Y26755000D03*
X18355000Y26755000D03*
X18705000Y26405000D03*
X18355000Y26405000D03*
X18705000Y26055000D03*
X18355000Y26055000D03*
X18705000Y25705000D03*
X18355000Y25705000D03*
D12*
X19343160Y27127020D03*
X19343160Y26027020D03*
D18*
X15940000Y26500000D03*
X15540000Y26500000D03*
X16340000Y26500000D03*
X15940000Y26900000D03*
X15958000Y26100000D03*
X15940000Y25700000D03*
X15540000Y25700000D03*
X15540000Y26100000D03*
X16340000Y26100000D03*
X16340000Y25700000D03*
X16340000Y26900000D03*
X15540000Y26900000D03*
D17*
X15050000Y27990000D03*
X16950000Y27990000D03*
D12*
X17030000Y26830000D03*
X17030000Y25730000D03*
D16*
X16030000Y32280000D03*
X16030000Y34180000D03*
D14*
X11710000Y31570000D03*
X11710000Y31010000D03*
D15*
X17920080Y31527480D03*
X18470080Y31527480D03*
D12*
X16589800Y30395820D03*
X16589800Y31495820D03*
D14*
X16580000Y29770000D03*
X16580000Y29210000D03*
D13*
X18816560Y28535320D03*
X17716560Y28535320D03*
D12*
X14531980Y29998400D03*
X15431980Y29998400D03*
X29531980Y29998400D03*
X30431980Y29998400D03*
D13*
X33816560Y28535320D03*
X32716560Y28535320D03*
D14*
X31580000Y29770000D03*
X31580000Y29210000D03*
D12*
X31589800Y30395820D03*
X31589800Y31495820D03*
D15*
X32920080Y31527480D03*
X33470080Y31527480D03*
D14*
X26710000Y31570000D03*
X26710000Y31010000D03*
D16*
X31030000Y32280000D03*
X31030000Y34180000D03*
D12*
X32030000Y26830000D03*
X32030000Y25730000D03*
D17*
X30050000Y27990000D03*
X31950000Y27990000D03*
D18*
X30940000Y26500000D03*
X30540000Y26500000D03*
X31340000Y26500000D03*
X30940000Y26900000D03*
X30958000Y26100000D03*
X30940000Y25700000D03*
X30540000Y25700000D03*
X30540000Y26100000D03*
X31340000Y26100000D03*
X31340000Y25700000D03*
X31340000Y26900000D03*
X30540000Y26900000D03*
D12*
X34343160Y27127020D03*
X34343160Y26027020D03*
D19*
X33705000Y26755000D03*
X33355000Y26755000D03*
X33705000Y26405000D03*
X33355000Y26405000D03*
X33705000Y26055000D03*
X33355000Y26055000D03*
X33705000Y25705000D03*
X33355000Y25705000D03*
D13*
X31000000Y29010000D03*
X29900000Y29010000D03*
D20*
X26420000Y25750000D03*
X25860000Y25750000D03*
D21*
X28106540Y29795200D03*
X28626540Y29795200D03*
X28450000Y25990000D03*
X27930000Y25990000D03*
X29890000Y26080000D03*
X29370000Y26080000D03*
D22*
X28480000Y34110000D03*
X28480000Y31910000D03*
D23*
X26000000Y30140000D03*
X26000000Y31640000D03*
D24*
X26290000Y32500000D03*
X26290000Y33400000D03*
X32580000Y34020000D03*
X32580000Y33120000D03*
D25*
X28020000Y28670000D03*
X28020000Y28150000D03*
D26*
X25831500Y26900000D03*
X25831500Y27300000D03*
X25831500Y27700000D03*
X25831500Y28100000D03*
D27*
X26000000Y28668500D03*
X26400000Y28668500D03*
X26800000Y28668500D03*
X27200000Y28668500D03*
D26*
X27368500Y28100000D03*
X27368500Y27700000D03*
X27368500Y27300000D03*
X27368500Y26900000D03*
D27*
X27200000Y26331500D03*
X26800000Y26331500D03*
X26400000Y26331500D03*
X26000000Y26331500D03*
D26*
X40831500Y26900000D03*
X40831500Y27300000D03*
X40831500Y27700000D03*
X40831500Y28100000D03*
D27*
X41000000Y28668500D03*
X41400000Y28668500D03*
X41800000Y28668500D03*
X42200000Y28668500D03*
D26*
X42368500Y28100000D03*
X42368500Y27700000D03*
X42368500Y27300000D03*
X42368500Y26900000D03*
D27*
X42200000Y26331500D03*
X41800000Y26331500D03*
X41400000Y26331500D03*
X41000000Y26331500D03*
D25*
X43020000Y28670000D03*
X43020000Y28150000D03*
D24*
X47580000Y34020000D03*
X47580000Y33120000D03*
X41290000Y32500000D03*
X41290000Y33400000D03*
D23*
X41000000Y30140000D03*
X41000000Y31640000D03*
D22*
X43480000Y34110000D03*
X43480000Y31910000D03*
D21*
X44890000Y26080000D03*
X44370000Y26080000D03*
X43450000Y25990000D03*
X42930000Y25990000D03*
X43106540Y29795200D03*
X43626540Y29795200D03*
D20*
X41420000Y25750000D03*
X40860000Y25750000D03*
D13*
X46000000Y29010000D03*
X44900000Y29010000D03*
D19*
X48705000Y26755000D03*
X48355000Y26755000D03*
X48705000Y26405000D03*
X48355000Y26405000D03*
X48705000Y26055000D03*
X48355000Y26055000D03*
X48705000Y25705000D03*
X48355000Y25705000D03*
D12*
X49343160Y27127020D03*
X49343160Y26027020D03*
D18*
X45940000Y26500000D03*
X45540000Y26500000D03*
X46340000Y26500000D03*
X45940000Y26900000D03*
X45958000Y26100000D03*
X45940000Y25700000D03*
X45540000Y25700000D03*
X45540000Y26100000D03*
X46340000Y26100000D03*
X46340000Y25700000D03*
X46340000Y26900000D03*
X45540000Y26900000D03*
D17*
X45050000Y27990000D03*
X46950000Y27990000D03*
D12*
X47030000Y26830000D03*
X47030000Y25730000D03*
D16*
X46030000Y32280000D03*
X46030000Y34180000D03*
D14*
X41710000Y31570000D03*
X41710000Y31010000D03*
D15*
X47920080Y31527480D03*
X48470080Y31527480D03*
D12*
X46589800Y30395820D03*
X46589800Y31495820D03*
D14*
X46580000Y29770000D03*
X46580000Y29210000D03*
D13*
X48816560Y28535320D03*
X47716560Y28535320D03*
D12*
X44531980Y29998400D03*
X45431980Y29998400D03*
X59531980Y29998400D03*
X60431980Y29998400D03*
D13*
X63816560Y28535320D03*
X62716560Y28535320D03*
D14*
X61580000Y29770000D03*
X61580000Y29210000D03*
D12*
X61589800Y30395820D03*
X61589800Y31495820D03*
D15*
X62920080Y31527480D03*
X63470080Y31527480D03*
D14*
X56710000Y31570000D03*
X56710000Y31010000D03*
D16*
X61030000Y32280000D03*
X61030000Y34180000D03*
D12*
X62030000Y26830000D03*
X62030000Y25730000D03*
D17*
X60050000Y27990000D03*
X61950000Y27990000D03*
D18*
X60940000Y26500000D03*
X60540000Y26500000D03*
X61340000Y26500000D03*
X60940000Y26900000D03*
X60958000Y26100000D03*
X60940000Y25700000D03*
X60540000Y25700000D03*
X60540000Y26100000D03*
X61340000Y26100000D03*
X61340000Y25700000D03*
X61340000Y26900000D03*
X60540000Y26900000D03*
D12*
X64343160Y27127020D03*
X64343160Y26027020D03*
D19*
X63705000Y26755000D03*
X63355000Y26755000D03*
X63705000Y26405000D03*
X63355000Y26405000D03*
X63705000Y26055000D03*
X63355000Y26055000D03*
X63705000Y25705000D03*
X63355000Y25705000D03*
D13*
X61000000Y29010000D03*
X59900000Y29010000D03*
D20*
X56420000Y25750000D03*
X55860000Y25750000D03*
D21*
X58106540Y29795200D03*
X58626540Y29795200D03*
X58450000Y25990000D03*
X57930000Y25990000D03*
X59890000Y26080000D03*
X59370000Y26080000D03*
D22*
X58480000Y34110000D03*
X58480000Y31910000D03*
D23*
X56000000Y30140000D03*
X56000000Y31640000D03*
D24*
X56290000Y32500000D03*
X56290000Y33400000D03*
X62580000Y34020000D03*
X62580000Y33120000D03*
D25*
X58020000Y28670000D03*
X58020000Y28150000D03*
D26*
X55831500Y26900000D03*
X55831500Y27300000D03*
X55831500Y27700000D03*
X55831500Y28100000D03*
D27*
X56000000Y28668500D03*
X56400000Y28668500D03*
X56800000Y28668500D03*
X57200000Y28668500D03*
D26*
X57368500Y28100000D03*
X57368500Y27700000D03*
X57368500Y27300000D03*
X57368500Y26900000D03*
D27*
X57200000Y26331500D03*
X56800000Y26331500D03*
X56400000Y26331500D03*
X56000000Y26331500D03*
D26*
X70831500Y26900000D03*
X70831500Y27300000D03*
X70831500Y27700000D03*
X70831500Y28100000D03*
D27*
X71000000Y28668500D03*
X71400000Y28668500D03*
X71800000Y28668500D03*
X72200000Y28668500D03*
D26*
X72368500Y28100000D03*
X72368500Y27700000D03*
X72368500Y27300000D03*
X72368500Y26900000D03*
D27*
X72200000Y26331500D03*
X71800000Y26331500D03*
X71400000Y26331500D03*
X71000000Y26331500D03*
D25*
X73020000Y28670000D03*
X73020000Y28150000D03*
D24*
X77580000Y34020000D03*
X77580000Y33120000D03*
X71290000Y32500000D03*
X71290000Y33400000D03*
D23*
X71000000Y30140000D03*
X71000000Y31640000D03*
D22*
X73480000Y34110000D03*
X73480000Y31910000D03*
D21*
X74890000Y26080000D03*
X74370000Y26080000D03*
X73450000Y25990000D03*
X72930000Y25990000D03*
X73106540Y29795200D03*
X73626540Y29795200D03*
D20*
X71420000Y25750000D03*
X70860000Y25750000D03*
D13*
X76000000Y29010000D03*
X74900000Y29010000D03*
D19*
X78705000Y26755000D03*
X78355000Y26755000D03*
X78705000Y26405000D03*
X78355000Y26405000D03*
X78705000Y26055000D03*
X78355000Y26055000D03*
X78705000Y25705000D03*
X78355000Y25705000D03*
D12*
X79343160Y27127020D03*
X79343160Y26027020D03*
D18*
X75940000Y26500000D03*
X75540000Y26500000D03*
X76340000Y26500000D03*
X75940000Y26900000D03*
X75958000Y26100000D03*
X75940000Y25700000D03*
X75540000Y25700000D03*
X75540000Y26100000D03*
X76340000Y26100000D03*
X76340000Y25700000D03*
X76340000Y26900000D03*
X75540000Y26900000D03*
D17*
X75050000Y27990000D03*
X76950000Y27990000D03*
D12*
X77030000Y26830000D03*
X77030000Y25730000D03*
D16*
X76030000Y32280000D03*
X76030000Y34180000D03*
D14*
X71710000Y31570000D03*
X71710000Y31010000D03*
D15*
X77920080Y31527480D03*
X78470080Y31527480D03*
D12*
X76589800Y30395820D03*
X76589800Y31495820D03*
D14*
X76580000Y29770000D03*
X76580000Y29210000D03*
D13*
X78816560Y28535320D03*
X77716560Y28535320D03*
D12*
X74531980Y29998400D03*
X75431980Y29998400D03*
X74531980Y44998400D03*
X75431980Y44998400D03*
D13*
X78816560Y43535320D03*
X77716560Y43535320D03*
D14*
X76580000Y44770000D03*
X76580000Y44210000D03*
D12*
X76589800Y45395820D03*
X76589800Y46495820D03*
D15*
X77920080Y46527480D03*
X78470080Y46527480D03*
D14*
X71710000Y46570000D03*
X71710000Y46010000D03*
D16*
X76030000Y47280000D03*
X76030000Y49180000D03*
D12*
X77030000Y41830000D03*
X77030000Y40730000D03*
D17*
X75050000Y42990000D03*
X76950000Y42990000D03*
D18*
X75940000Y41500000D03*
X75540000Y41500000D03*
X76340000Y41500000D03*
X75940000Y41900000D03*
X75958000Y41100000D03*
X75940000Y40700000D03*
X75540000Y40700000D03*
X75540000Y41100000D03*
X76340000Y41100000D03*
X76340000Y40700000D03*
X76340000Y41900000D03*
X75540000Y41900000D03*
D12*
X79343160Y42127020D03*
X79343160Y41027020D03*
D19*
X78705000Y41755000D03*
X78355000Y41755000D03*
X78705000Y41405000D03*
X78355000Y41405000D03*
X78705000Y41055000D03*
X78355000Y41055000D03*
X78705000Y40705000D03*
X78355000Y40705000D03*
D13*
X76000000Y44010000D03*
X74900000Y44010000D03*
D20*
X71420000Y40750000D03*
X70860000Y40750000D03*
D21*
X73106540Y44795200D03*
X73626540Y44795200D03*
X73450000Y40990000D03*
X72930000Y40990000D03*
X74890000Y41080000D03*
X74370000Y41080000D03*
D22*
X73480000Y49110000D03*
X73480000Y46910000D03*
D23*
X71000000Y45140000D03*
X71000000Y46640000D03*
D24*
X71290000Y47500000D03*
X71290000Y48400000D03*
X77580000Y49020000D03*
X77580000Y48120000D03*
D25*
X73020000Y43670000D03*
X73020000Y43150000D03*
D26*
X70831500Y41900000D03*
X70831500Y42300000D03*
X70831500Y42700000D03*
X70831500Y43100000D03*
D27*
X71000000Y43668500D03*
X71400000Y43668500D03*
X71800000Y43668500D03*
X72200000Y43668500D03*
D26*
X72368500Y43100000D03*
X72368500Y42700000D03*
X72368500Y42300000D03*
X72368500Y41900000D03*
D27*
X72200000Y41331500D03*
X71800000Y41331500D03*
X71400000Y41331500D03*
X71000000Y41331500D03*
D26*
X55831500Y41900000D03*
X55831500Y42300000D03*
X55831500Y42700000D03*
X55831500Y43100000D03*
D27*
X56000000Y43668500D03*
X56400000Y43668500D03*
X56800000Y43668500D03*
X57200000Y43668500D03*
D26*
X57368500Y43100000D03*
X57368500Y42700000D03*
X57368500Y42300000D03*
X57368500Y41900000D03*
D27*
X57200000Y41331500D03*
X56800000Y41331500D03*
X56400000Y41331500D03*
X56000000Y41331500D03*
D25*
X58020000Y43670000D03*
X58020000Y43150000D03*
D24*
X62580000Y49020000D03*
X62580000Y48120000D03*
X56290000Y47500000D03*
X56290000Y48400000D03*
D23*
X56000000Y45140000D03*
X56000000Y46640000D03*
D22*
X58480000Y49110000D03*
X58480000Y46910000D03*
D21*
X59890000Y41080000D03*
X59370000Y41080000D03*
X58450000Y40990000D03*
X57930000Y40990000D03*
X58106540Y44795200D03*
X58626540Y44795200D03*
D20*
X56420000Y40750000D03*
X55860000Y40750000D03*
D13*
X61000000Y44010000D03*
X59900000Y44010000D03*
D19*
X63705000Y41755000D03*
X63355000Y41755000D03*
X63705000Y41405000D03*
X63355000Y41405000D03*
X63705000Y41055000D03*
X63355000Y41055000D03*
X63705000Y40705000D03*
X63355000Y40705000D03*
D12*
X64343160Y42127020D03*
X64343160Y41027020D03*
D18*
X60940000Y41500000D03*
X60540000Y41500000D03*
X61340000Y41500000D03*
X60940000Y41900000D03*
X60958000Y41100000D03*
X60940000Y40700000D03*
X60540000Y40700000D03*
X60540000Y41100000D03*
X61340000Y41100000D03*
X61340000Y40700000D03*
X61340000Y41900000D03*
X60540000Y41900000D03*
D17*
X60050000Y42990000D03*
X61950000Y42990000D03*
D12*
X62030000Y41830000D03*
X62030000Y40730000D03*
D16*
X61030000Y47280000D03*
X61030000Y49180000D03*
D14*
X56710000Y46570000D03*
X56710000Y46010000D03*
D15*
X62920080Y46527480D03*
X63470080Y46527480D03*
D12*
X61589800Y45395820D03*
X61589800Y46495820D03*
D14*
X61580000Y44770000D03*
X61580000Y44210000D03*
D13*
X63816560Y43535320D03*
X62716560Y43535320D03*
D12*
X59531980Y44998400D03*
X60431980Y44998400D03*
X44531980Y44998400D03*
X45431980Y44998400D03*
D13*
X48816560Y43535320D03*
X47716560Y43535320D03*
D14*
X46580000Y44770000D03*
X46580000Y44210000D03*
D12*
X46589800Y45395820D03*
X46589800Y46495820D03*
D15*
X47920080Y46527480D03*
X48470080Y46527480D03*
D14*
X41710000Y46570000D03*
X41710000Y46010000D03*
D16*
X46030000Y47280000D03*
X46030000Y49180000D03*
D12*
X47030000Y41830000D03*
X47030000Y40730000D03*
D17*
X45050000Y42990000D03*
X46950000Y42990000D03*
D18*
X45940000Y41500000D03*
X45540000Y41500000D03*
X46340000Y41500000D03*
X45940000Y41900000D03*
X45958000Y41100000D03*
X45940000Y40700000D03*
X45540000Y40700000D03*
X45540000Y41100000D03*
X46340000Y41100000D03*
X46340000Y40700000D03*
X46340000Y41900000D03*
X45540000Y41900000D03*
D12*
X49343160Y42127020D03*
X49343160Y41027020D03*
D19*
X48705000Y41755000D03*
X48355000Y41755000D03*
X48705000Y41405000D03*
X48355000Y41405000D03*
X48705000Y41055000D03*
X48355000Y41055000D03*
X48705000Y40705000D03*
X48355000Y40705000D03*
D13*
X46000000Y44010000D03*
X44900000Y44010000D03*
D20*
X41420000Y40750000D03*
X40860000Y40750000D03*
D21*
X43106540Y44795200D03*
X43626540Y44795200D03*
X43450000Y40990000D03*
X42930000Y40990000D03*
X44890000Y41080000D03*
X44370000Y41080000D03*
D22*
X43480000Y49110000D03*
X43480000Y46910000D03*
D23*
X41000000Y45140000D03*
X41000000Y46640000D03*
D24*
X41290000Y47500000D03*
X41290000Y48400000D03*
X47580000Y49020000D03*
X47580000Y48120000D03*
D25*
X43020000Y43670000D03*
X43020000Y43150000D03*
D26*
X40831500Y41900000D03*
X40831500Y42300000D03*
X40831500Y42700000D03*
X40831500Y43100000D03*
D27*
X41000000Y43668500D03*
X41400000Y43668500D03*
X41800000Y43668500D03*
X42200000Y43668500D03*
D26*
X42368500Y43100000D03*
X42368500Y42700000D03*
X42368500Y42300000D03*
X42368500Y41900000D03*
D27*
X42200000Y41331500D03*
X41800000Y41331500D03*
X41400000Y41331500D03*
X41000000Y41331500D03*
D26*
X25831500Y41900000D03*
X25831500Y42300000D03*
X25831500Y42700000D03*
X25831500Y43100000D03*
D27*
X26000000Y43668500D03*
X26400000Y43668500D03*
X26800000Y43668500D03*
X27200000Y43668500D03*
D26*
X27368500Y43100000D03*
X27368500Y42700000D03*
X27368500Y42300000D03*
X27368500Y41900000D03*
D27*
X27200000Y41331500D03*
X26800000Y41331500D03*
X26400000Y41331500D03*
X26000000Y41331500D03*
D25*
X28020000Y43670000D03*
X28020000Y43150000D03*
D24*
X32580000Y49020000D03*
X32580000Y48120000D03*
X26290000Y47500000D03*
X26290000Y48400000D03*
D23*
X26000000Y45140000D03*
X26000000Y46640000D03*
D22*
X28480000Y49110000D03*
X28480000Y46910000D03*
D21*
X29890000Y41080000D03*
X29370000Y41080000D03*
X28450000Y40990000D03*
X27930000Y40990000D03*
X28106540Y44795200D03*
X28626540Y44795200D03*
D20*
X26420000Y40750000D03*
X25860000Y40750000D03*
D13*
X31000000Y44010000D03*
X29900000Y44010000D03*
D19*
X33705000Y41755000D03*
X33355000Y41755000D03*
X33705000Y41405000D03*
X33355000Y41405000D03*
X33705000Y41055000D03*
X33355000Y41055000D03*
X33705000Y40705000D03*
X33355000Y40705000D03*
D12*
X34343160Y42127020D03*
X34343160Y41027020D03*
D18*
X30940000Y41500000D03*
X30540000Y41500000D03*
X31340000Y41500000D03*
X30940000Y41900000D03*
X30958000Y41100000D03*
X30940000Y40700000D03*
X30540000Y40700000D03*
X30540000Y41100000D03*
X31340000Y41100000D03*
X31340000Y40700000D03*
X31340000Y41900000D03*
X30540000Y41900000D03*
D17*
X30050000Y42990000D03*
X31950000Y42990000D03*
D12*
X32030000Y41830000D03*
X32030000Y40730000D03*
D16*
X31030000Y47280000D03*
X31030000Y49180000D03*
D14*
X26710000Y46570000D03*
X26710000Y46010000D03*
D15*
X32920080Y46527480D03*
X33470080Y46527480D03*
D12*
X31589800Y45395820D03*
X31589800Y46495820D03*
D14*
X31580000Y44770000D03*
X31580000Y44210000D03*
D13*
X33816560Y43535320D03*
X32716560Y43535320D03*
D12*
X29531980Y44998400D03*
X30431980Y44998400D03*
X14531980Y44998400D03*
X15431980Y44998400D03*
D13*
X18816560Y43535320D03*
X17716560Y43535320D03*
D14*
X16580000Y44770000D03*
X16580000Y44210000D03*
D12*
X16589800Y45395820D03*
X16589800Y46495820D03*
D15*
X17920080Y46527480D03*
X18470080Y46527480D03*
D14*
X11710000Y46570000D03*
X11710000Y46010000D03*
D16*
X16030000Y47280000D03*
X16030000Y49180000D03*
D12*
X17030000Y41830000D03*
X17030000Y40730000D03*
D17*
X15050000Y42990000D03*
X16950000Y42990000D03*
D18*
X15940000Y41500000D03*
X15540000Y41500000D03*
X16340000Y41500000D03*
X15940000Y41900000D03*
X15958000Y41100000D03*
X15940000Y40700000D03*
X15540000Y40700000D03*
X15540000Y41100000D03*
X16340000Y41100000D03*
X16340000Y40700000D03*
X16340000Y41900000D03*
X15540000Y41900000D03*
D12*
X19343160Y42127020D03*
X19343160Y41027020D03*
D19*
X18705000Y41755000D03*
X18355000Y41755000D03*
X18705000Y41405000D03*
X18355000Y41405000D03*
X18705000Y41055000D03*
X18355000Y41055000D03*
X18705000Y40705000D03*
X18355000Y40705000D03*
D13*
X16000000Y44010000D03*
X14900000Y44010000D03*
D20*
X11420000Y40750000D03*
X10860000Y40750000D03*
D21*
X13106540Y44795200D03*
X13626540Y44795200D03*
X13450000Y40990000D03*
X12930000Y40990000D03*
X14890000Y41080000D03*
X14370000Y41080000D03*
D22*
X13480000Y49110000D03*
X13480000Y46910000D03*
D23*
X11000000Y45140000D03*
X11000000Y46640000D03*
D24*
X11290000Y47500000D03*
X11290000Y48400000D03*
X17580000Y49020000D03*
X17580000Y48120000D03*
D25*
X13020000Y43670000D03*
X13020000Y43150000D03*
D26*
X10831500Y41900000D03*
X10831500Y42300000D03*
X10831500Y42700000D03*
X10831500Y43100000D03*
D27*
X11000000Y43668500D03*
X11400000Y43668500D03*
X11800000Y43668500D03*
X12200000Y43668500D03*
D26*
X12368500Y43100000D03*
X12368500Y42700000D03*
X12368500Y42300000D03*
X12368500Y41900000D03*
D27*
X12200000Y41331500D03*
X11800000Y41331500D03*
X11400000Y41331500D03*
X11000000Y41331500D03*
D26*
X10831500Y56900000D03*
X10831500Y57300000D03*
X10831500Y57700000D03*
X10831500Y58100000D03*
D27*
X11000000Y58668500D03*
X11400000Y58668500D03*
X11800000Y58668500D03*
X12200000Y58668500D03*
D26*
X12368500Y58100000D03*
X12368500Y57700000D03*
X12368500Y57300000D03*
X12368500Y56900000D03*
D27*
X12200000Y56331500D03*
X11800000Y56331500D03*
X11400000Y56331500D03*
X11000000Y56331500D03*
D25*
X13020000Y58670000D03*
X13020000Y58150000D03*
D24*
X17580000Y64020000D03*
X17580000Y63120000D03*
X11290000Y62500000D03*
X11290000Y63400000D03*
D23*
X11000000Y60140000D03*
X11000000Y61640000D03*
D22*
X13480000Y64110000D03*
X13480000Y61910000D03*
D21*
X14890000Y56080000D03*
X14370000Y56080000D03*
X13450000Y55990000D03*
X12930000Y55990000D03*
X13106540Y59795200D03*
X13626540Y59795200D03*
D20*
X11420000Y55750000D03*
X10860000Y55750000D03*
D13*
X16000000Y59010000D03*
X14900000Y59010000D03*
D19*
X18705000Y56755000D03*
X18355000Y56755000D03*
X18705000Y56405000D03*
X18355000Y56405000D03*
X18705000Y56055000D03*
X18355000Y56055000D03*
X18705000Y55705000D03*
X18355000Y55705000D03*
D12*
X19343160Y57127020D03*
X19343160Y56027020D03*
D18*
X15940000Y56500000D03*
X15540000Y56500000D03*
X16340000Y56500000D03*
X15940000Y56900000D03*
X15958000Y56100000D03*
X15940000Y55700000D03*
X15540000Y55700000D03*
X15540000Y56100000D03*
X16340000Y56100000D03*
X16340000Y55700000D03*
X16340000Y56900000D03*
X15540000Y56900000D03*
D17*
X15050000Y57990000D03*
X16950000Y57990000D03*
D12*
X17030000Y56830000D03*
X17030000Y55730000D03*
D16*
X16030000Y62280000D03*
X16030000Y64180000D03*
D14*
X11710000Y61570000D03*
X11710000Y61010000D03*
D15*
X17920080Y61527480D03*
X18470080Y61527480D03*
D12*
X16589800Y60395820D03*
X16589800Y61495820D03*
D14*
X16580000Y59770000D03*
X16580000Y59210000D03*
D13*
X18816560Y58535320D03*
X17716560Y58535320D03*
D12*
X14531980Y59998400D03*
X15431980Y59998400D03*
X29531980Y59998400D03*
X30431980Y59998400D03*
D13*
X33816560Y58535320D03*
X32716560Y58535320D03*
D14*
X31580000Y59770000D03*
X31580000Y59210000D03*
D12*
X31589800Y60395820D03*
X31589800Y61495820D03*
D15*
X32920080Y61527480D03*
X33470080Y61527480D03*
D14*
X26710000Y61570000D03*
X26710000Y61010000D03*
D16*
X31030000Y62280000D03*
X31030000Y64180000D03*
D12*
X32030000Y56830000D03*
X32030000Y55730000D03*
D17*
X30050000Y57990000D03*
X31950000Y57990000D03*
D18*
X30940000Y56500000D03*
X30540000Y56500000D03*
X31340000Y56500000D03*
X30940000Y56900000D03*
X30958000Y56100000D03*
X30940000Y55700000D03*
X30540000Y55700000D03*
X30540000Y56100000D03*
X31340000Y56100000D03*
X31340000Y55700000D03*
X31340000Y56900000D03*
X30540000Y56900000D03*
D12*
X34343160Y57127020D03*
X34343160Y56027020D03*
D19*
X33705000Y56755000D03*
X33355000Y56755000D03*
X33705000Y56405000D03*
X33355000Y56405000D03*
X33705000Y56055000D03*
X33355000Y56055000D03*
X33705000Y55705000D03*
X33355000Y55705000D03*
D13*
X31000000Y59010000D03*
X29900000Y59010000D03*
D20*
X26420000Y55750000D03*
X25860000Y55750000D03*
D21*
X28106540Y59795200D03*
X28626540Y59795200D03*
X28450000Y55990000D03*
X27930000Y55990000D03*
X29890000Y56080000D03*
X29370000Y56080000D03*
D22*
X28480000Y64110000D03*
X28480000Y61910000D03*
D23*
X26000000Y60140000D03*
X26000000Y61640000D03*
D24*
X26290000Y62500000D03*
X26290000Y63400000D03*
X32580000Y64020000D03*
X32580000Y63120000D03*
D25*
X28020000Y58670000D03*
X28020000Y58150000D03*
D26*
X25831500Y56900000D03*
X25831500Y57300000D03*
X25831500Y57700000D03*
X25831500Y58100000D03*
D27*
X26000000Y58668500D03*
X26400000Y58668500D03*
X26800000Y58668500D03*
X27200000Y58668500D03*
D26*
X27368500Y58100000D03*
X27368500Y57700000D03*
X27368500Y57300000D03*
X27368500Y56900000D03*
D27*
X27200000Y56331500D03*
X26800000Y56331500D03*
X26400000Y56331500D03*
X26000000Y56331500D03*
D26*
X40831500Y56900000D03*
X40831500Y57300000D03*
X40831500Y57700000D03*
X40831500Y58100000D03*
D27*
X41000000Y58668500D03*
X41400000Y58668500D03*
X41800000Y58668500D03*
X42200000Y58668500D03*
D26*
X42368500Y58100000D03*
X42368500Y57700000D03*
X42368500Y57300000D03*
X42368500Y56900000D03*
D27*
X42200000Y56331500D03*
X41800000Y56331500D03*
X41400000Y56331500D03*
X41000000Y56331500D03*
D25*
X43020000Y58670000D03*
X43020000Y58150000D03*
D24*
X47580000Y64020000D03*
X47580000Y63120000D03*
X41290000Y62500000D03*
X41290000Y63400000D03*
D23*
X41000000Y60140000D03*
X41000000Y61640000D03*
D22*
X43480000Y64110000D03*
X43480000Y61910000D03*
D21*
X44890000Y56080000D03*
X44370000Y56080000D03*
X43450000Y55990000D03*
X42930000Y55990000D03*
X43106540Y59795200D03*
X43626540Y59795200D03*
D20*
X41420000Y55750000D03*
X40860000Y55750000D03*
D13*
X46000000Y59010000D03*
X44900000Y59010000D03*
D19*
X48705000Y56755000D03*
X48355000Y56755000D03*
X48705000Y56405000D03*
X48355000Y56405000D03*
X48705000Y56055000D03*
X48355000Y56055000D03*
X48705000Y55705000D03*
X48355000Y55705000D03*
D12*
X49343160Y57127020D03*
X49343160Y56027020D03*
D18*
X45940000Y56500000D03*
X45540000Y56500000D03*
X46340000Y56500000D03*
X45940000Y56900000D03*
X45958000Y56100000D03*
X45940000Y55700000D03*
X45540000Y55700000D03*
X45540000Y56100000D03*
X46340000Y56100000D03*
X46340000Y55700000D03*
X46340000Y56900000D03*
X45540000Y56900000D03*
D17*
X45050000Y57990000D03*
X46950000Y57990000D03*
D12*
X47030000Y56830000D03*
X47030000Y55730000D03*
D16*
X46030000Y62280000D03*
X46030000Y64180000D03*
D14*
X41710000Y61570000D03*
X41710000Y61010000D03*
D15*
X47920080Y61527480D03*
X48470080Y61527480D03*
D12*
X46589800Y60395820D03*
X46589800Y61495820D03*
D14*
X46580000Y59770000D03*
X46580000Y59210000D03*
D13*
X48816560Y58535320D03*
X47716560Y58535320D03*
D12*
X44531980Y59998400D03*
X45431980Y59998400D03*
X59531980Y59998400D03*
X60431980Y59998400D03*
D13*
X63816560Y58535320D03*
X62716560Y58535320D03*
D14*
X61580000Y59770000D03*
X61580000Y59210000D03*
D12*
X61589800Y60395820D03*
X61589800Y61495820D03*
D15*
X62920080Y61527480D03*
X63470080Y61527480D03*
D14*
X56710000Y61570000D03*
X56710000Y61010000D03*
D16*
X61030000Y62280000D03*
X61030000Y64180000D03*
D12*
X62030000Y56830000D03*
X62030000Y55730000D03*
D17*
X60050000Y57990000D03*
X61950000Y57990000D03*
D18*
X60940000Y56500000D03*
X60540000Y56500000D03*
X61340000Y56500000D03*
X60940000Y56900000D03*
X60958000Y56100000D03*
X60940000Y55700000D03*
X60540000Y55700000D03*
X60540000Y56100000D03*
X61340000Y56100000D03*
X61340000Y55700000D03*
X61340000Y56900000D03*
X60540000Y56900000D03*
D12*
X64343160Y57127020D03*
X64343160Y56027020D03*
D19*
X63705000Y56755000D03*
X63355000Y56755000D03*
X63705000Y56405000D03*
X63355000Y56405000D03*
X63705000Y56055000D03*
X63355000Y56055000D03*
X63705000Y55705000D03*
X63355000Y55705000D03*
D13*
X61000000Y59010000D03*
X59900000Y59010000D03*
D20*
X56420000Y55750000D03*
X55860000Y55750000D03*
D21*
X58106540Y59795200D03*
X58626540Y59795200D03*
X58450000Y55990000D03*
X57930000Y55990000D03*
X59890000Y56080000D03*
X59370000Y56080000D03*
D22*
X58480000Y64110000D03*
X58480000Y61910000D03*
D23*
X56000000Y60140000D03*
X56000000Y61640000D03*
D24*
X56290000Y62500000D03*
X56290000Y63400000D03*
X62580000Y64020000D03*
X62580000Y63120000D03*
D25*
X58020000Y58670000D03*
X58020000Y58150000D03*
D26*
X55831500Y56900000D03*
X55831500Y57300000D03*
X55831500Y57700000D03*
X55831500Y58100000D03*
D27*
X56000000Y58668500D03*
X56400000Y58668500D03*
X56800000Y58668500D03*
X57200000Y58668500D03*
D26*
X57368500Y58100000D03*
X57368500Y57700000D03*
X57368500Y57300000D03*
X57368500Y56900000D03*
D27*
X57200000Y56331500D03*
X56800000Y56331500D03*
X56400000Y56331500D03*
X56000000Y56331500D03*
D26*
X70831500Y56900000D03*
X70831500Y57300000D03*
X70831500Y57700000D03*
X70831500Y58100000D03*
D27*
X71000000Y58668500D03*
X71400000Y58668500D03*
X71800000Y58668500D03*
X72200000Y58668500D03*
D26*
X72368500Y58100000D03*
X72368500Y57700000D03*
X72368500Y57300000D03*
X72368500Y56900000D03*
D27*
X72200000Y56331500D03*
X71800000Y56331500D03*
X71400000Y56331500D03*
X71000000Y56331500D03*
D25*
X73020000Y58670000D03*
X73020000Y58150000D03*
D24*
X77580000Y64020000D03*
X77580000Y63120000D03*
X71290000Y62500000D03*
X71290000Y63400000D03*
D23*
X71000000Y60140000D03*
X71000000Y61640000D03*
D22*
X73480000Y64110000D03*
X73480000Y61910000D03*
D21*
X74890000Y56080000D03*
X74370000Y56080000D03*
X73450000Y55990000D03*
X72930000Y55990000D03*
X73106540Y59795200D03*
X73626540Y59795200D03*
D20*
X71420000Y55750000D03*
X70860000Y55750000D03*
D13*
X76000000Y59010000D03*
X74900000Y59010000D03*
D19*
X78705000Y56755000D03*
X78355000Y56755000D03*
X78705000Y56405000D03*
X78355000Y56405000D03*
X78705000Y56055000D03*
X78355000Y56055000D03*
X78705000Y55705000D03*
X78355000Y55705000D03*
D12*
X79343160Y57127020D03*
X79343160Y56027020D03*
D18*
X75940000Y56500000D03*
X75540000Y56500000D03*
X76340000Y56500000D03*
X75940000Y56900000D03*
X75958000Y56100000D03*
X75940000Y55700000D03*
X75540000Y55700000D03*
X75540000Y56100000D03*
X76340000Y56100000D03*
X76340000Y55700000D03*
X76340000Y56900000D03*
X75540000Y56900000D03*
D17*
X75050000Y57990000D03*
X76950000Y57990000D03*
D12*
X77030000Y56830000D03*
X77030000Y55730000D03*
D16*
X76030000Y62280000D03*
X76030000Y64180000D03*
D14*
X71710000Y61570000D03*
X71710000Y61010000D03*
D15*
X77920080Y61527480D03*
X78470080Y61527480D03*
D12*
X76589800Y60395820D03*
X76589800Y61495820D03*
D14*
X76580000Y59770000D03*
X76580000Y59210000D03*
D13*
X78816560Y58535320D03*
X77716560Y58535320D03*
D12*
X74531980Y59998400D03*
X75431980Y59998400D03*
X74531980Y74998400D03*
X75431980Y74998400D03*
D13*
X78816560Y73535320D03*
X77716560Y73535320D03*
D14*
X76580000Y74770000D03*
X76580000Y74210000D03*
D12*
X76589800Y75395820D03*
X76589800Y76495820D03*
D15*
X77920080Y76527480D03*
X78470080Y76527480D03*
D14*
X71710000Y76570000D03*
X71710000Y76010000D03*
D16*
X76030000Y77280000D03*
X76030000Y79180000D03*
D12*
X77030000Y71830000D03*
X77030000Y70730000D03*
D17*
X75050000Y72990000D03*
X76950000Y72990000D03*
D18*
X75940000Y71500000D03*
X75540000Y71500000D03*
X76340000Y71500000D03*
X75940000Y71900000D03*
X75958000Y71100000D03*
X75940000Y70700000D03*
X75540000Y70700000D03*
X75540000Y71100000D03*
X76340000Y71100000D03*
X76340000Y70700000D03*
X76340000Y71900000D03*
X75540000Y71900000D03*
D12*
X79343160Y72127020D03*
X79343160Y71027020D03*
D19*
X78705000Y71755000D03*
X78355000Y71755000D03*
X78705000Y71405000D03*
X78355000Y71405000D03*
X78705000Y71055000D03*
X78355000Y71055000D03*
X78705000Y70705000D03*
X78355000Y70705000D03*
D13*
X76000000Y74010000D03*
X74900000Y74010000D03*
D20*
X71420000Y70750000D03*
X70860000Y70750000D03*
D21*
X73106540Y74795200D03*
X73626540Y74795200D03*
X73450000Y70990000D03*
X72930000Y70990000D03*
X74890000Y71080000D03*
X74370000Y71080000D03*
D22*
X73480000Y79110000D03*
X73480000Y76910000D03*
D23*
X71000000Y75140000D03*
X71000000Y76640000D03*
D24*
X71290000Y77500000D03*
X71290000Y78400000D03*
X77580000Y79020000D03*
X77580000Y78120000D03*
D25*
X73020000Y73670000D03*
X73020000Y73150000D03*
D26*
X70831500Y71900000D03*
X70831500Y72300000D03*
X70831500Y72700000D03*
X70831500Y73100000D03*
D27*
X71000000Y73668500D03*
X71400000Y73668500D03*
X71800000Y73668500D03*
X72200000Y73668500D03*
D26*
X72368500Y73100000D03*
X72368500Y72700000D03*
X72368500Y72300000D03*
X72368500Y71900000D03*
D27*
X72200000Y71331500D03*
X71800000Y71331500D03*
X71400000Y71331500D03*
X71000000Y71331500D03*
D26*
X55831500Y71900000D03*
X55831500Y72300000D03*
X55831500Y72700000D03*
X55831500Y73100000D03*
D27*
X56000000Y73668500D03*
X56400000Y73668500D03*
X56800000Y73668500D03*
X57200000Y73668500D03*
D26*
X57368500Y73100000D03*
X57368500Y72700000D03*
X57368500Y72300000D03*
X57368500Y71900000D03*
D27*
X57200000Y71331500D03*
X56800000Y71331500D03*
X56400000Y71331500D03*
X56000000Y71331500D03*
D25*
X58020000Y73670000D03*
X58020000Y73150000D03*
D24*
X62580000Y79020000D03*
X62580000Y78120000D03*
X56290000Y77500000D03*
X56290000Y78400000D03*
D23*
X56000000Y75140000D03*
X56000000Y76640000D03*
D22*
X58480000Y79110000D03*
X58480000Y76910000D03*
D21*
X59890000Y71080000D03*
X59370000Y71080000D03*
X58450000Y70990000D03*
X57930000Y70990000D03*
X58106540Y74795200D03*
X58626540Y74795200D03*
D20*
X56420000Y70750000D03*
X55860000Y70750000D03*
D13*
X61000000Y74010000D03*
X59900000Y74010000D03*
D19*
X63705000Y71755000D03*
X63355000Y71755000D03*
X63705000Y71405000D03*
X63355000Y71405000D03*
X63705000Y71055000D03*
X63355000Y71055000D03*
X63705000Y70705000D03*
X63355000Y70705000D03*
D12*
X64343160Y72127020D03*
X64343160Y71027020D03*
D18*
X60940000Y71500000D03*
X60540000Y71500000D03*
X61340000Y71500000D03*
X60940000Y71900000D03*
X60958000Y71100000D03*
X60940000Y70700000D03*
X60540000Y70700000D03*
X60540000Y71100000D03*
X61340000Y71100000D03*
X61340000Y70700000D03*
X61340000Y71900000D03*
X60540000Y71900000D03*
D17*
X60050000Y72990000D03*
X61950000Y72990000D03*
D12*
X62030000Y71830000D03*
X62030000Y70730000D03*
D16*
X61030000Y77280000D03*
X61030000Y79180000D03*
D14*
X56710000Y76570000D03*
X56710000Y76010000D03*
D15*
X62920080Y76527480D03*
X63470080Y76527480D03*
D12*
X61589800Y75395820D03*
X61589800Y76495820D03*
D14*
X61580000Y74770000D03*
X61580000Y74210000D03*
D13*
X63816560Y73535320D03*
X62716560Y73535320D03*
D12*
X59531980Y74998400D03*
X60431980Y74998400D03*
D28*
X48140000Y75009660D03*
D12*
X44531980Y74998400D03*
X45431980Y74998400D03*
D28*
X48140000Y75009660D03*
D13*
X48816560Y73535320D03*
X47716560Y73535320D03*
D14*
X46580000Y74770000D03*
X46580000Y74210000D03*
D12*
X46589800Y75395820D03*
X46589800Y76495820D03*
D15*
X47920080Y76527480D03*
X48470080Y76527480D03*
D14*
X41710000Y76570000D03*
X41710000Y76010000D03*
D16*
X46030000Y77280000D03*
X46030000Y79180000D03*
D12*
X47030000Y71830000D03*
X47030000Y70730000D03*
D17*
X45050000Y72990000D03*
X46950000Y72990000D03*
D18*
X45940000Y71500000D03*
X45540000Y71500000D03*
X46340000Y71500000D03*
X45940000Y71900000D03*
X45958000Y71100000D03*
X45940000Y70700000D03*
X45540000Y70700000D03*
X45540000Y71100000D03*
X46340000Y71100000D03*
X46340000Y70700000D03*
X46340000Y71900000D03*
X45540000Y71900000D03*
D12*
X49343160Y72127020D03*
X49343160Y71027020D03*
D19*
X48705000Y71755000D03*
X48355000Y71755000D03*
X48705000Y71405000D03*
X48355000Y71405000D03*
X48705000Y71055000D03*
X48355000Y71055000D03*
X48705000Y70705000D03*
X48355000Y70705000D03*
D13*
X46000000Y74010000D03*
X44900000Y74010000D03*
D20*
X41420000Y70750000D03*
X40860000Y70750000D03*
D21*
X43106540Y74795200D03*
X43626540Y74795200D03*
X43450000Y70990000D03*
X42930000Y70990000D03*
X44890000Y71080000D03*
X44370000Y71080000D03*
D22*
X43480000Y79110000D03*
X43480000Y76910000D03*
D23*
X41000000Y75140000D03*
X41000000Y76640000D03*
D24*
X41290000Y77500000D03*
X41290000Y78400000D03*
X47580000Y79020000D03*
X47580000Y78120000D03*
D25*
X43020000Y73670000D03*
X43020000Y73150000D03*
D26*
X40831500Y71900000D03*
X40831500Y72300000D03*
X40831500Y72700000D03*
X40831500Y73100000D03*
D27*
X41000000Y73668500D03*
X41400000Y73668500D03*
X41800000Y73668500D03*
X42200000Y73668500D03*
D26*
X42368500Y73100000D03*
X42368500Y72700000D03*
X42368500Y72300000D03*
X42368500Y71900000D03*
D27*
X42200000Y71331500D03*
X41800000Y71331500D03*
X41400000Y71331500D03*
X41000000Y71331500D03*
D26*
X25831500Y71900000D03*
X25831500Y72300000D03*
X25831500Y72700000D03*
X25831500Y73100000D03*
D27*
X26000000Y73668500D03*
X26400000Y73668500D03*
X26800000Y73668500D03*
X27200000Y73668500D03*
D26*
X27368500Y73100000D03*
X27368500Y72700000D03*
X27368500Y72300000D03*
X27368500Y71900000D03*
D27*
X27200000Y71331500D03*
X26800000Y71331500D03*
X26400000Y71331500D03*
X26000000Y71331500D03*
D25*
X28020000Y73670000D03*
X28020000Y73150000D03*
D24*
X32580000Y79020000D03*
X32580000Y78120000D03*
X26290000Y77500000D03*
X26290000Y78400000D03*
D23*
X26000000Y75140000D03*
X26000000Y76640000D03*
D22*
X28480000Y79110000D03*
X28480000Y76910000D03*
D21*
X29890000Y71080000D03*
X29370000Y71080000D03*
X28450000Y70990000D03*
X27930000Y70990000D03*
X28106540Y74795200D03*
X28626540Y74795200D03*
D20*
X26420000Y70750000D03*
X25860000Y70750000D03*
D13*
X31000000Y74010000D03*
X29900000Y74010000D03*
D19*
X33705000Y71755000D03*
X33355000Y71755000D03*
X33705000Y71405000D03*
X33355000Y71405000D03*
X33705000Y71055000D03*
X33355000Y71055000D03*
X33705000Y70705000D03*
X33355000Y70705000D03*
D12*
X34343160Y72127020D03*
X34343160Y71027020D03*
D18*
X30940000Y71500000D03*
X30540000Y71500000D03*
X31340000Y71500000D03*
X30940000Y71900000D03*
X30958000Y71100000D03*
X30940000Y70700000D03*
X30540000Y70700000D03*
X30540000Y71100000D03*
X31340000Y71100000D03*
X31340000Y70700000D03*
X31340000Y71900000D03*
X30540000Y71900000D03*
D17*
X30050000Y72990000D03*
X31950000Y72990000D03*
D12*
X32030000Y71830000D03*
X32030000Y70730000D03*
D16*
X31030000Y77280000D03*
X31030000Y79180000D03*
D14*
X26710000Y76570000D03*
X26710000Y76010000D03*
D15*
X32920080Y76527480D03*
X33470080Y76527480D03*
D12*
X31589800Y75395820D03*
X31589800Y76495820D03*
D14*
X31580000Y74770000D03*
X31580000Y74210000D03*
D13*
X33816560Y73535320D03*
X32716560Y73535320D03*
D28*
X33140000Y75009660D03*
D12*
X29531980Y74998400D03*
X30431980Y74998400D03*
D29*
X5000000Y115000000D03*
X85000000Y115000000D03*
X85000000Y-25000000D03*
X5000000Y-25000000D03*
D28*
X78140000Y15009660D03*
X63140000Y15009660D03*
X48140000Y15009660D03*
X33140000Y15009660D03*
X18140000Y15009660D03*
X18140000Y30009660D03*
X33140000Y30009660D03*
X48140000Y30009660D03*
X63140000Y30009660D03*
X78140000Y30009660D03*
X78140000Y45009660D03*
X63140000Y45009660D03*
X48140000Y45009660D03*
X33140000Y45009660D03*
X18140000Y45009660D03*
X18140000Y60009660D03*
X33140000Y60009660D03*
X48140000Y60009660D03*
X63140000Y60009660D03*
X78140000Y60009660D03*
X78140000Y75009660D03*
X63140000Y75009660D03*
X48140000Y75009660D03*
X33140000Y75009660D03*
D12*
X14531980Y74998400D03*
X15431980Y74998400D03*
D28*
X18140000Y75009660D03*
D13*
X18816560Y73535320D03*
X17716560Y73535320D03*
D14*
X16580000Y74770000D03*
X16580000Y74210000D03*
D12*
X16589800Y75395820D03*
X16589800Y76495820D03*
D15*
X17920080Y76527480D03*
X18470080Y76527480D03*
D14*
X11710000Y76570000D03*
X11710000Y76010000D03*
D16*
X16030000Y77280000D03*
X16030000Y79180000D03*
D12*
X17030000Y71830000D03*
X17030000Y70730000D03*
D17*
X15050000Y72990000D03*
X16950000Y72990000D03*
D18*
X15940000Y71500000D03*
X15540000Y71500000D03*
X16340000Y71500000D03*
X15940000Y71900000D03*
X15958000Y71100000D03*
X15940000Y70700000D03*
X15540000Y70700000D03*
X15540000Y71100000D03*
X16340000Y71100000D03*
X16340000Y70700000D03*
X16340000Y71900000D03*
X15540000Y71900000D03*
D12*
X19343160Y72127020D03*
X19343160Y71027020D03*
D19*
X18705000Y71755000D03*
X18355000Y71755000D03*
X18705000Y71405000D03*
X18355000Y71405000D03*
X18705000Y71055000D03*
X18355000Y71055000D03*
X18705000Y70705000D03*
X18355000Y70705000D03*
D13*
X16000000Y74010000D03*
X14900000Y74010000D03*
D20*
X11420000Y70750000D03*
X10860000Y70750000D03*
D21*
X13106540Y74795200D03*
X13626540Y74795200D03*
X13450000Y70990000D03*
X12930000Y70990000D03*
X14890000Y71080000D03*
X14370000Y71080000D03*
D22*
X13480000Y79110000D03*
X13480000Y76910000D03*
D23*
X11000000Y75140000D03*
X11000000Y76640000D03*
D24*
X11290000Y77500000D03*
X11290000Y78400000D03*
X17580000Y79020000D03*
X17580000Y78120000D03*
D25*
X13020000Y73670000D03*
X13020000Y73150000D03*
D26*
X10831500Y71900000D03*
X10831500Y72300000D03*
X10831500Y72700000D03*
X10831500Y73100000D03*
D27*
X11000000Y73668500D03*
X11400000Y73668500D03*
X11800000Y73668500D03*
X12200000Y73668500D03*
D26*
X12368500Y73100000D03*
X12368500Y72700000D03*
X12368500Y72300000D03*
X12368500Y71900000D03*
D27*
X12200000Y71331500D03*
X11800000Y71331500D03*
X11400000Y71331500D03*
X11000000Y71331500D03*
M02*
