*
%FSLAX26Y26*%
%MOIN*%
G04 A1 - layer mirror *
%AMA1paste-rs*
1,1,0.011811,-0.006590,0.004863*
1,1,0.011811,-0.006590,0.110458*
20,1,0.011811,-0.006590,0.004863,-0.006590,0.110458,0.0*
1,1,0.011811,-0.006590,0.110458*
1,1,0.011811,-0.059388,0.110458*
20,1,0.011811,-0.006590,0.110458,-0.059388,0.110458,0.0*
1,1,0.011811,-0.059388,0.110458*
1,1,0.011811,-0.076987,0.092859*
20,1,0.011811,-0.059388,0.110458,-0.076987,0.092859,0.0*
1,1,0.011811,-0.076987,0.092859*
1,1,0.011811,-0.076987,0.075260*
20,1,0.011811,-0.076987,0.092859,-0.076987,0.075260,0.0*
1,1,0.011811,-0.076987,0.075260*
1,1,0.011811,-0.059388,0.057661*
20,1,0.011811,-0.076987,0.075260,-0.059388,0.057661,0.0*
1,1,0.011811,-0.059388,0.057661*
1,1,0.011811,-0.006590,0.057661*
20,1,0.011811,-0.059388,0.057661,-0.006590,0.057661,0.0*
1,1,0.011811,-0.124700,0.004863*
1,1,0.011811,-0.124700,0.092859*
20,1,0.011811,-0.124700,0.004863,-0.124700,0.092859,0.0*
1,1,0.011811,-0.124700,0.092859*
1,1,0.011811,-0.142300,0.110458*
20,1,0.011811,-0.124700,0.092859,-0.142300,0.110458,0.0*
1,1,0.011811,-0.142300,0.110458*
1,1,0.011811,-0.177498,0.110458*
20,1,0.011811,-0.142300,0.110458,-0.177498,0.110458,0.0*
1,1,0.011811,-0.177498,0.110458*
1,1,0.011811,-0.195097,0.092859*
20,1,0.011811,-0.177498,0.110458,-0.195097,0.092859,0.0*
1,1,0.011811,-0.195097,0.092859*
1,1,0.011811,-0.195097,0.004863*
20,1,0.011811,-0.195097,0.092859,-0.195097,0.004863,0.0*
1,1,0.011811,-0.124700,0.057661*
1,1,0.011811,-0.195097,0.057661*
20,1,0.011811,-0.124700,0.057661,-0.195097,0.057661,0.0*
1,1,0.011811,-0.242811,0.022462*
1,1,0.011811,-0.260410,0.004863*
20,1,0.011811,-0.242811,0.022462,-0.260410,0.004863,0.0*
1,1,0.011811,-0.260410,0.004863*
1,1,0.011811,-0.295608,0.004863*
20,1,0.011811,-0.260410,0.004863,-0.295608,0.004863,0.0*
1,1,0.011811,-0.295608,0.004863*
1,1,0.011811,-0.313207,0.022462*
20,1,0.011811,-0.295608,0.004863,-0.313207,0.022462,0.0*
1,1,0.011811,-0.313207,0.022462*
1,1,0.011811,-0.313207,0.040062*
20,1,0.011811,-0.313207,0.022462,-0.313207,0.040062,0.0*
1,1,0.011811,-0.313207,0.040062*
1,1,0.011811,-0.295608,0.057661*
20,1,0.011811,-0.313207,0.040062,-0.295608,0.057661,0.0*
1,1,0.011811,-0.295608,0.057661*
1,1,0.011811,-0.260410,0.057661*
20,1,0.011811,-0.295608,0.057661,-0.260410,0.057661,0.0*
1,1,0.011811,-0.260410,0.057661*
1,1,0.011811,-0.242811,0.075260*
20,1,0.011811,-0.260410,0.057661,-0.242811,0.075260,0.0*
1,1,0.011811,-0.242811,0.075260*
1,1,0.011811,-0.242811,0.092859*
20,1,0.011811,-0.242811,0.075260,-0.242811,0.092859,0.0*
1,1,0.011811,-0.242811,0.092859*
1,1,0.011811,-0.260410,0.110458*
20,1,0.011811,-0.242811,0.092859,-0.260410,0.110458,0.0*
1,1,0.011811,-0.260410,0.110458*
1,1,0.011811,-0.295608,0.110458*
20,1,0.011811,-0.260410,0.110458,-0.295608,0.110458,0.0*
1,1,0.011811,-0.295608,0.110458*
1,1,0.011811,-0.313207,0.092859*
20,1,0.011811,-0.295608,0.110458,-0.313207,0.092859,0.0*
1,1,0.011811,-0.360921,0.110458*
1,1,0.011811,-0.431318,0.110458*
20,1,0.011811,-0.360921,0.110458,-0.431318,0.110458,0.0*
1,1,0.011811,-0.396119,0.110458*
1,1,0.011811,-0.396119,0.004863*
20,1,0.011811,-0.396119,0.110458,-0.396119,0.004863,0.0*
1,1,0.011811,-0.479031,0.110458*
1,1,0.011811,-0.549428,0.110458*
20,1,0.011811,-0.479031,0.110458,-0.549428,0.110458,0.0*
1,1,0.011811,-0.479031,0.004863*
1,1,0.011811,-0.549428,0.004863*
20,1,0.011811,-0.479031,0.004863,-0.549428,0.004863,0.0*
1,1,0.011811,-0.479031,0.057661*
1,1,0.011811,-0.531829,0.057661*
20,1,0.011811,-0.479031,0.057661,-0.531829,0.057661,0.0*
1,1,0.011811,-0.479031,0.110458*
1,1,0.011811,-0.479031,0.004863*
20,1,0.011811,-0.479031,0.110458,-0.479031,0.004863,0.0*
1,1,0.011811,-0.597141,0.057661*
1,1,0.011811,-0.667538,0.057661*
20,1,0.011811,-0.597141,0.057661,-0.667538,0.057661,0.0*
1,1,0.011811,-0.715252,0.004863*
1,1,0.011811,-0.715252,0.110458*
20,1,0.011811,-0.715252,0.004863,-0.715252,0.110458,0.0*
1,1,0.011811,-0.715252,0.110458*
1,1,0.011811,-0.768049,0.110458*
20,1,0.011811,-0.715252,0.110458,-0.768049,0.110458,0.0*
1,1,0.011811,-0.768049,0.110458*
1,1,0.011811,-0.785648,0.092859*
20,1,0.011811,-0.768049,0.110458,-0.785648,0.092859,0.0*
1,1,0.011811,-0.785648,0.092859*
1,1,0.011811,-0.785648,0.075260*
20,1,0.011811,-0.785648,0.092859,-0.785648,0.075260,0.0*
1,1,0.011811,-0.785648,0.075260*
1,1,0.011811,-0.768049,0.057661*
20,1,0.011811,-0.785648,0.075260,-0.768049,0.057661,0.0*
1,1,0.011811,-0.768049,0.057661*
1,1,0.011811,-0.715252,0.057661*
20,1,0.011811,-0.768049,0.057661,-0.715252,0.057661,0.0*
1,1,0.011811,-0.732851,0.057661*
1,1,0.011811,-0.785648,0.004863*
20,1,0.011811,-0.732851,0.057661,-0.785648,0.004863,0.0*
1,1,0.011811,-0.833362,0.022462*
1,1,0.011811,-0.850961,0.004863*
20,1,0.011811,-0.833362,0.022462,-0.850961,0.004863,0.0*
1,1,0.011811,-0.850961,0.004863*
1,1,0.011811,-0.886159,0.004863*
20,1,0.011811,-0.850961,0.004863,-0.886159,0.004863,0.0*
1,1,0.011811,-0.886159,0.004863*
1,1,0.011811,-0.903759,0.022462*
20,1,0.011811,-0.886159,0.004863,-0.903759,0.022462,0.0*
1,1,0.011811,-0.903759,0.022462*
1,1,0.011811,-0.903759,0.040062*
20,1,0.011811,-0.903759,0.022462,-0.903759,0.040062,0.0*
1,1,0.011811,-0.903759,0.040062*
1,1,0.011811,-0.886159,0.057661*
20,1,0.011811,-0.903759,0.040062,-0.886159,0.057661,0.0*
1,1,0.011811,-0.886159,0.057661*
1,1,0.011811,-0.850961,0.057661*
20,1,0.011811,-0.886159,0.057661,-0.850961,0.057661,0.0*
1,1,0.011811,-0.850961,0.057661*
1,1,0.011811,-0.833362,0.075260*
20,1,0.011811,-0.850961,0.057661,-0.833362,0.075260,0.0*
1,1,0.011811,-0.833362,0.075260*
1,1,0.011811,-0.833362,0.092859*
20,1,0.011811,-0.833362,0.075260,-0.833362,0.092859,0.0*
1,1,0.011811,-0.833362,0.092859*
1,1,0.011811,-0.850961,0.110458*
20,1,0.011811,-0.833362,0.092859,-0.850961,0.110458,0.0*
1,1,0.011811,-0.850961,0.110458*
1,1,0.011811,-0.886159,0.110458*
20,1,0.011811,-0.850961,0.110458,-0.886159,0.110458,0.0*
1,1,0.011811,-0.886159,0.110458*
1,1,0.011811,-0.903759,0.092859*
20,1,0.011811,-0.886159,0.110458,-0.903759,0.092859,0.0*
1,1,0.011811,-1.069582,0.110458*
1,1,0.011811,-1.069582,0.004863*
20,1,0.011811,-1.069582,0.110458,-1.069582,0.004863,0.0*
1,1,0.011811,-1.069582,0.004863*
1,1,0.011811,-1.139979,0.004863*
20,1,0.011811,-1.069582,0.004863,-1.139979,0.004863,0.0*
1,1,0.011811,-1.187693,-0.012736*
1,1,0.011811,-1.187693,0.057661*
20,1,0.011811,-1.187693,-0.012736,-1.187693,0.057661,0.0*
1,1,0.011811,-1.187693,0.057661*
1,1,0.011811,-1.205292,0.075260*
20,1,0.011811,-1.187693,0.057661,-1.205292,0.075260,0.0*
1,1,0.011811,-1.205292,0.075260*
1,1,0.011811,-1.240490,0.075260*
20,1,0.011811,-1.205292,0.075260,-1.240490,0.075260,0.0*
1,1,0.011811,-1.240490,0.075260*
1,1,0.011811,-1.258089,0.057661*
20,1,0.011811,-1.240490,0.075260,-1.258089,0.057661,0.0*
1,1,0.011811,-1.258089,0.057661*
1,1,0.011811,-1.258089,0.040062*
20,1,0.011811,-1.258089,0.057661,-1.258089,0.040062,0.0*
1,1,0.011811,-1.258089,0.040062*
1,1,0.011811,-1.240490,0.022462*
20,1,0.011811,-1.258089,0.040062,-1.240490,0.022462,0.0*
1,1,0.011811,-1.240490,0.022462*
1,1,0.011811,-1.187693,0.022462*
20,1,0.011811,-1.240490,0.022462,-1.187693,0.022462,0.0*
1,1,0.011811,-1.423913,0.004863*
1,1,0.011811,-1.423913,0.110458*
20,1,0.011811,-1.423913,0.004863,-1.423913,0.110458,0.0*
1,1,0.011811,-1.423913,0.110458*
1,1,0.011811,-1.476711,0.110458*
20,1,0.011811,-1.423913,0.110458,-1.476711,0.110458,0.0*
1,1,0.011811,-1.476711,0.110458*
1,1,0.011811,-1.494310,0.092859*
20,1,0.011811,-1.476711,0.110458,-1.494310,0.092859,0.0*
1,1,0.011811,-1.494310,0.092859*
1,1,0.011811,-1.494310,0.075260*
20,1,0.011811,-1.494310,0.092859,-1.494310,0.075260,0.0*
1,1,0.011811,-1.494310,0.075260*
1,1,0.011811,-1.476711,0.057661*
20,1,0.011811,-1.494310,0.075260,-1.476711,0.057661,0.0*
1,1,0.011811,-1.476711,0.057661*
1,1,0.011811,-1.423913,0.057661*
20,1,0.011811,-1.476711,0.057661,-1.423913,0.057661,0.0*
1,1,0.011811,-1.542023,0.110458*
1,1,0.011811,-1.542023,0.004863*
20,1,0.011811,-1.542023,0.110458,-1.542023,0.004863,0.0*
1,1,0.011811,-1.612420,0.110458*
1,1,0.011811,-1.612420,0.004863*
20,1,0.011811,-1.612420,0.110458,-1.612420,0.004863,0.0*
1,1,0.011811,-1.542023,0.057661*
1,1,0.011811,-1.612420,0.057661*
20,1,0.011811,-1.542023,0.057661,-1.612420,0.057661,0.0*
1,1,0.011811,-1.660133,0.110458*
1,1,0.011811,-1.695332,0.057661*
20,1,0.011811,-1.660133,0.110458,-1.695332,0.057661,0.0*
1,1,0.011811,-1.695332,0.057661*
1,1,0.011811,-1.730530,0.110458*
20,1,0.011811,-1.695332,0.057661,-1.730530,0.110458,0.0*
1,1,0.011811,-1.695332,0.057661*
1,1,0.011811,-1.695332,0.004863*
20,1,0.011811,-1.695332,0.057661,-1.695332,0.004863,0.0*
1,1,0.011811,-1.778244,0.110458*
1,1,0.011811,-1.848641,0.110458*
20,1,0.011811,-1.778244,0.110458,-1.848641,0.110458,0.0*
1,1,0.011811,-1.813442,0.110458*
1,1,0.011811,-1.813442,0.004863*
20,1,0.011811,-1.813442,0.110458,-1.813442,0.004863,0.0*
1,1,0.011811,-1.896354,0.022462*
1,1,0.011811,-1.896354,0.092859*
20,1,0.011811,-1.896354,0.022462,-1.896354,0.092859,0.0*
1,1,0.011811,-1.896354,0.092859*
1,1,0.011811,-1.913953,0.110458*
20,1,0.011811,-1.896354,0.092859,-1.913953,0.110458,0.0*
1,1,0.011811,-1.913953,0.110458*
1,1,0.011811,-1.949152,0.110458*
20,1,0.011811,-1.913953,0.110458,-1.949152,0.110458,0.0*
1,1,0.011811,-1.949152,0.110458*
1,1,0.011811,-1.966751,0.092859*
20,1,0.011811,-1.949152,0.110458,-1.966751,0.092859,0.0*
1,1,0.011811,-1.966751,0.092859*
1,1,0.011811,-1.966751,0.022462*
20,1,0.011811,-1.966751,0.092859,-1.966751,0.022462,0.0*
1,1,0.011811,-1.966751,0.022462*
1,1,0.011811,-1.949152,0.004863*
20,1,0.011811,-1.966751,0.022462,-1.949152,0.004863,0.0*
1,1,0.011811,-1.949152,0.004863*
1,1,0.011811,-1.913953,0.004863*
20,1,0.011811,-1.949152,0.004863,-1.913953,0.004863,0.0*
1,1,0.011811,-1.913953,0.004863*
1,1,0.011811,-1.896354,0.022462*
20,1,0.011811,-1.913953,0.004863,-1.896354,0.022462,0.0*
1,1,0.011811,-2.014464,0.004863*
1,1,0.011811,-2.014464,0.110458*
20,1,0.011811,-2.014464,0.004863,-2.014464,0.110458,0.0*
1,1,0.011811,-2.014464,0.110458*
1,1,0.011811,-2.084861,0.004863*
20,1,0.011811,-2.014464,0.110458,-2.084861,0.004863,0.0*
1,1,0.011811,-2.084861,0.004863*
1,1,0.011811,-2.084861,0.110458*
20,1,0.011811,-2.084861,0.004863,-2.084861,0.110458,0.0*
1,1,0.011811,-2.268284,0.110458*
1,1,0.011811,-2.303482,0.110458*
20,1,0.011811,-2.268284,0.110458,-2.303482,0.110458,0.0*
1,1,0.011811,-2.268284,0.004863*
1,1,0.011811,-2.303482,0.004863*
20,1,0.011811,-2.268284,0.004863,-2.303482,0.004863,0.0*
1,1,0.011811,-2.285883,0.110458*
1,1,0.011811,-2.285883,0.004863*
20,1,0.011811,-2.285883,0.110458,-2.285883,0.004863,0.0*
1,1,0.011811,-2.368795,0.004863*
1,1,0.011811,-2.368795,0.110458*
20,1,0.011811,-2.368795,0.004863,-2.368795,0.110458,0.0*
1,1,0.011811,-2.368795,0.110458*
1,1,0.011811,-2.439192,0.004863*
20,1,0.011811,-2.368795,0.110458,-2.439192,0.004863,0.0*
1,1,0.011811,-2.439192,0.004863*
1,1,0.011811,-2.439192,0.110458*
20,1,0.011811,-2.439192,0.004863,-2.439192,0.110458,0.0*
1,1,0.011811,-2.486905,0.110458*
1,1,0.011811,-2.557302,0.110458*
20,1,0.011811,-2.486905,0.110458,-2.557302,0.110458,0.0*
1,1,0.011811,-2.522104,0.110458*
1,1,0.011811,-2.522104,0.004863*
20,1,0.011811,-2.522104,0.110458,-2.522104,0.004863,0.0*
1,1,0.011811,-2.605015,0.110458*
1,1,0.011811,-2.675412,0.110458*
20,1,0.011811,-2.605015,0.110458,-2.675412,0.110458,0.0*
1,1,0.011811,-2.605015,0.004863*
1,1,0.011811,-2.675412,0.004863*
20,1,0.011811,-2.605015,0.004863,-2.675412,0.004863,0.0*
1,1,0.011811,-2.605015,0.057661*
1,1,0.011811,-2.657813,0.057661*
20,1,0.011811,-2.605015,0.057661,-2.657813,0.057661,0.0*
1,1,0.011811,-2.605015,0.110458*
1,1,0.011811,-2.605015,0.004863*
20,1,0.011811,-2.605015,0.110458,-2.605015,0.004863,0.0*
1,1,0.011811,-2.723126,0.004863*
1,1,0.011811,-2.723126,0.110458*
20,1,0.011811,-2.723126,0.004863,-2.723126,0.110458,0.0*
1,1,0.011811,-2.723126,0.110458*
1,1,0.011811,-2.775923,0.110458*
20,1,0.011811,-2.723126,0.110458,-2.775923,0.110458,0.0*
1,1,0.011811,-2.775923,0.110458*
1,1,0.011811,-2.793522,0.092859*
20,1,0.011811,-2.775923,0.110458,-2.793522,0.092859,0.0*
1,1,0.011811,-2.793522,0.092859*
1,1,0.011811,-2.793522,0.075260*
20,1,0.011811,-2.793522,0.092859,-2.793522,0.075260,0.0*
1,1,0.011811,-2.793522,0.075260*
1,1,0.011811,-2.775923,0.057661*
20,1,0.011811,-2.793522,0.075260,-2.775923,0.057661,0.0*
1,1,0.011811,-2.775923,0.057661*
1,1,0.011811,-2.723126,0.057661*
20,1,0.011811,-2.775923,0.057661,-2.723126,0.057661,0.0*
1,1,0.011811,-2.740725,0.057661*
1,1,0.011811,-2.793522,0.004863*
20,1,0.011811,-2.740725,0.057661,-2.793522,0.004863,0.0*
1,1,0.011811,-2.841236,0.110458*
1,1,0.011811,-2.911633,0.110458*
20,1,0.011811,-2.841236,0.110458,-2.911633,0.110458,0.0*
1,1,0.011811,-2.841236,0.057661*
1,1,0.011811,-2.894033,0.057661*
20,1,0.011811,-2.841236,0.057661,-2.894033,0.057661,0.0*
1,1,0.011811,-2.841236,0.110458*
1,1,0.011811,-2.841236,0.004863*
20,1,0.011811,-2.841236,0.110458,-2.841236,0.004863,0.0*
1,1,0.011811,-2.959346,0.004863*
1,1,0.011811,-2.959346,0.092859*
20,1,0.011811,-2.959346,0.004863,-2.959346,0.092859,0.0*
1,1,0.011811,-2.959346,0.092859*
1,1,0.011811,-2.976945,0.110458*
20,1,0.011811,-2.959346,0.092859,-2.976945,0.110458,0.0*
1,1,0.011811,-2.976945,0.110458*
1,1,0.011811,-3.012144,0.110458*
20,1,0.011811,-2.976945,0.110458,-3.012144,0.110458,0.0*
1,1,0.011811,-3.012144,0.110458*
1,1,0.011811,-3.029743,0.092859*
20,1,0.011811,-3.012144,0.110458,-3.029743,0.092859,0.0*
1,1,0.011811,-3.029743,0.092859*
1,1,0.011811,-3.029743,0.004863*
20,1,0.011811,-3.029743,0.092859,-3.029743,0.004863,0.0*
1,1,0.011811,-2.959346,0.057661*
1,1,0.011811,-3.029743,0.057661*
20,1,0.011811,-2.959346,0.057661,-3.029743,0.057661,0.0*
1,1,0.011811,-3.147853,0.022462*
1,1,0.011811,-3.130254,0.004863*
20,1,0.011811,-3.147853,0.022462,-3.130254,0.004863,0.0*
1,1,0.011811,-3.130254,0.004863*
1,1,0.011811,-3.095056,0.004863*
20,1,0.011811,-3.130254,0.004863,-3.095056,0.004863,0.0*
1,1,0.011811,-3.095056,0.004863*
1,1,0.011811,-3.077456,0.022462*
20,1,0.011811,-3.095056,0.004863,-3.077456,0.022462,0.0*
1,1,0.011811,-3.077456,0.022462*
1,1,0.011811,-3.077456,0.092859*
20,1,0.011811,-3.077456,0.022462,-3.077456,0.092859,0.0*
1,1,0.011811,-3.077456,0.092859*
1,1,0.011811,-3.095056,0.110458*
20,1,0.011811,-3.077456,0.092859,-3.095056,0.110458,0.0*
1,1,0.011811,-3.095056,0.110458*
1,1,0.011811,-3.130254,0.110458*
20,1,0.011811,-3.095056,0.110458,-3.130254,0.110458,0.0*
1,1,0.011811,-3.130254,0.110458*
1,1,0.011811,-3.147853,0.092859*
20,1,0.011811,-3.130254,0.110458,-3.147853,0.092859,0.0*
1,1,0.011811,-3.195567,0.110458*
1,1,0.011811,-3.265963,0.110458*
20,1,0.011811,-3.195567,0.110458,-3.265963,0.110458,0.0*
1,1,0.011811,-3.195567,0.004863*
1,1,0.011811,-3.265963,0.004863*
20,1,0.011811,-3.195567,0.004863,-3.265963,0.004863,0.0*
1,1,0.011811,-3.195567,0.057661*
1,1,0.011811,-3.248364,0.057661*
20,1,0.011811,-3.195567,0.057661,-3.248364,0.057661,0.0*
1,1,0.011811,-3.195567,0.110458*
1,1,0.011811,-3.195567,0.004863*
20,1,0.011811,-3.195567,0.110458,-3.195567,0.004863,0.0*
1,1,0.011811,-3.431787,0.110458*
1,1,0.011811,-3.484585,0.110458*
20,1,0.011811,-3.431787,0.110458,-3.484585,0.110458,0.0*
1,1,0.011811,-3.484585,0.110458*
1,1,0.011811,-3.502184,0.092859*
20,1,0.011811,-3.484585,0.110458,-3.502184,0.092859,0.0*
1,1,0.011811,-3.502184,0.092859*
1,1,0.011811,-3.502184,0.075260*
20,1,0.011811,-3.502184,0.092859,-3.502184,0.075260,0.0*
1,1,0.011811,-3.502184,0.075260*
1,1,0.011811,-3.484585,0.057661*
20,1,0.011811,-3.502184,0.075260,-3.484585,0.057661,0.0*
1,1,0.011811,-3.484585,0.057661*
1,1,0.011811,-3.502184,0.040062*
20,1,0.011811,-3.484585,0.057661,-3.502184,0.040062,0.0*
1,1,0.011811,-3.502184,0.040062*
1,1,0.011811,-3.502184,0.022462*
20,1,0.011811,-3.502184,0.040062,-3.502184,0.022462,0.0*
1,1,0.011811,-3.502184,0.022462*
1,1,0.011811,-3.484585,0.004863*
20,1,0.011811,-3.502184,0.022462,-3.484585,0.004863,0.0*
1,1,0.011811,-3.484585,0.004863*
1,1,0.011811,-3.431787,0.004863*
20,1,0.011811,-3.484585,0.004863,-3.431787,0.004863,0.0*
1,1,0.011811,-3.449386,0.004863*
1,1,0.011811,-3.449386,0.110458*
20,1,0.011811,-3.449386,0.004863,-3.449386,0.110458,0.0*
1,1,0.011811,-3.449386,0.057661*
1,1,0.011811,-3.484585,0.057661*
20,1,0.011811,-3.449386,0.057661,-3.484585,0.057661,0.0*
1,1,0.011811,-3.549897,0.022462*
1,1,0.011811,-3.549897,0.092859*
20,1,0.011811,-3.549897,0.022462,-3.549897,0.092859,0.0*
1,1,0.011811,-3.549897,0.092859*
1,1,0.011811,-3.567496,0.110458*
20,1,0.011811,-3.549897,0.092859,-3.567496,0.110458,0.0*
1,1,0.011811,-3.567496,0.110458*
1,1,0.011811,-3.602695,0.110458*
20,1,0.011811,-3.567496,0.110458,-3.602695,0.110458,0.0*
1,1,0.011811,-3.602695,0.110458*
1,1,0.011811,-3.620294,0.092859*
20,1,0.011811,-3.602695,0.110458,-3.620294,0.092859,0.0*
1,1,0.011811,-3.620294,0.092859*
1,1,0.011811,-3.620294,0.022462*
20,1,0.011811,-3.620294,0.092859,-3.620294,0.022462,0.0*
1,1,0.011811,-3.620294,0.022462*
1,1,0.011811,-3.602695,0.004863*
20,1,0.011811,-3.620294,0.022462,-3.602695,0.004863,0.0*
1,1,0.011811,-3.602695,0.004863*
1,1,0.011811,-3.567496,0.004863*
20,1,0.011811,-3.602695,0.004863,-3.567496,0.004863,0.0*
1,1,0.011811,-3.567496,0.004863*
1,1,0.011811,-3.549897,0.022462*
20,1,0.011811,-3.567496,0.004863,-3.549897,0.022462,0.0*
1,1,0.011811,-3.668007,0.004863*
1,1,0.011811,-3.668007,0.092859*
20,1,0.011811,-3.668007,0.004863,-3.668007,0.092859,0.0*
1,1,0.011811,-3.668007,0.092859*
1,1,0.011811,-3.685607,0.110458*
20,1,0.011811,-3.668007,0.092859,-3.685607,0.110458,0.0*
1,1,0.011811,-3.685607,0.110458*
1,1,0.011811,-3.720805,0.110458*
20,1,0.011811,-3.685607,0.110458,-3.720805,0.110458,0.0*
1,1,0.011811,-3.720805,0.110458*
1,1,0.011811,-3.738404,0.092859*
20,1,0.011811,-3.720805,0.110458,-3.738404,0.092859,0.0*
1,1,0.011811,-3.738404,0.092859*
1,1,0.011811,-3.738404,0.004863*
20,1,0.011811,-3.738404,0.092859,-3.738404,0.004863,0.0*
1,1,0.011811,-3.668007,0.057661*
1,1,0.011811,-3.738404,0.057661*
20,1,0.011811,-3.668007,0.057661,-3.738404,0.057661,0.0*
1,1,0.011811,-3.786118,0.004863*
1,1,0.011811,-3.786118,0.110458*
20,1,0.011811,-3.786118,0.004863,-3.786118,0.110458,0.0*
1,1,0.011811,-3.786118,0.110458*
1,1,0.011811,-3.838915,0.110458*
20,1,0.011811,-3.786118,0.110458,-3.838915,0.110458,0.0*
1,1,0.011811,-3.838915,0.110458*
1,1,0.011811,-3.856515,0.092859*
20,1,0.011811,-3.838915,0.110458,-3.856515,0.092859,0.0*
1,1,0.011811,-3.856515,0.092859*
1,1,0.011811,-3.856515,0.075260*
20,1,0.011811,-3.856515,0.092859,-3.856515,0.075260,0.0*
1,1,0.011811,-3.856515,0.075260*
1,1,0.011811,-3.838915,0.057661*
20,1,0.011811,-3.856515,0.075260,-3.838915,0.057661,0.0*
1,1,0.011811,-3.838915,0.057661*
1,1,0.011811,-3.786118,0.057661*
20,1,0.011811,-3.838915,0.057661,-3.786118,0.057661,0.0*
1,1,0.011811,-3.803717,0.057661*
1,1,0.011811,-3.856515,0.004863*
20,1,0.011811,-3.803717,0.057661,-3.856515,0.004863,0.0*
1,1,0.011811,-3.904228,0.110458*
1,1,0.011811,-3.957026,0.110458*
20,1,0.011811,-3.904228,0.110458,-3.957026,0.110458,0.0*
1,1,0.011811,-3.957026,0.110458*
1,1,0.011811,-3.974625,0.092859*
20,1,0.011811,-3.957026,0.110458,-3.974625,0.092859,0.0*
1,1,0.011811,-3.974625,0.092859*
1,1,0.011811,-3.974625,0.022462*
20,1,0.011811,-3.974625,0.092859,-3.974625,0.022462,0.0*
1,1,0.011811,-3.974625,0.022462*
1,1,0.011811,-3.957026,0.004863*
20,1,0.011811,-3.974625,0.022462,-3.957026,0.004863,0.0*
1,1,0.011811,-3.957026,0.004863*
1,1,0.011811,-3.904228,0.004863*
20,1,0.011811,-3.957026,0.004863,-3.904228,0.004863,0.0*
1,1,0.011811,-3.921827,0.004863*
1,1,0.011811,-3.921827,0.110458*
20,1,0.011811,-3.921827,0.004863,-3.921827,0.110458,0.0*
1,1,0.011811,-4.140448,0.022462*
1,1,0.011811,-4.210845,0.092859*
20,1,0.011811,-4.140448,0.022462,-4.210845,0.092859,0.0*
1,1,0.011811,-4.429467,0.004863*
1,1,0.011811,-4.429467,0.110458*
20,1,0.011811,-4.429467,0.004863,-4.429467,0.110458,0.0*
1,1,0.011811,-4.429467,0.110458*
1,1,0.011811,-4.376669,0.040062*
20,1,0.011811,-4.429467,0.110458,-4.376669,0.040062,0.0*
1,1,0.011811,-4.376669,0.040062*
1,1,0.011811,-4.447066,0.040062*
20,1,0.011811,-4.376669,0.040062,-4.447066,0.040062,0.0*
1,1,0.011811,-4.494779,0.110458*
1,1,0.011811,-4.565176,0.110458*
20,1,0.011811,-4.494779,0.110458,-4.565176,0.110458,0.0*
1,1,0.011811,-4.565176,0.110458*
1,1,0.011811,-4.512378,0.004863*
20,1,0.011811,-4.565176,0.110458,-4.512378,0.004863,0.0*
1,1,0.011811,-4.612889,0.110458*
1,1,0.011811,-4.683286,0.110458*
20,1,0.011811,-4.612889,0.110458,-4.683286,0.110458,0.0*
1,1,0.011811,-4.683286,0.110458*
1,1,0.011811,-4.630489,0.004863*
20,1,0.011811,-4.683286,0.110458,-4.630489,0.004863,0.0*
1,1,0.011811,-4.731000,0.022462*
1,1,0.011811,-4.748599,0.004863*
20,1,0.011811,-4.731000,0.022462,-4.748599,0.004863,0.0*
1,1,0.011811,-4.748599,0.004863*
1,1,0.011811,-4.783797,0.004863*
20,1,0.011811,-4.748599,0.004863,-4.783797,0.004863,0.0*
1,1,0.011811,-4.783797,0.004863*
1,1,0.011811,-4.801396,0.022462*
20,1,0.011811,-4.783797,0.004863,-4.801396,0.022462,0.0*
1,1,0.011811,-4.801396,0.022462*
1,1,0.011811,-4.801396,0.092859*
20,1,0.011811,-4.801396,0.022462,-4.801396,0.092859,0.0*
1,1,0.011811,-4.801396,0.092859*
1,1,0.011811,-4.783797,0.110458*
20,1,0.011811,-4.801396,0.092859,-4.783797,0.110458,0.0*
1,1,0.011811,-4.783797,0.110458*
1,1,0.011811,-4.748599,0.110458*
20,1,0.011811,-4.783797,0.110458,-4.748599,0.110458,0.0*
1,1,0.011811,-4.748599,0.110458*
1,1,0.011811,-4.731000,0.092859*
20,1,0.011811,-4.748599,0.110458,-4.731000,0.092859,0.0*
1,1,0.011811,-4.731000,0.092859*
1,1,0.011811,-4.731000,0.022462*
20,1,0.011811,-4.731000,0.092859,-4.731000,0.022462,0.0*
1,1,0.011811,-4.731000,0.022462*
1,1,0.011811,-4.801396,0.092859*
20,1,0.011811,-4.731000,0.022462,-4.801396,0.092859,0.0*
1,1,0.011811,-4.919507,0.110458*
1,1,0.011811,-4.884308,0.110458*
20,1,0.011811,-4.919507,0.110458,-4.884308,0.110458,0.0*
1,1,0.011811,-4.884308,0.110458*
1,1,0.011811,-4.849110,0.075260*
20,1,0.011811,-4.884308,0.110458,-4.849110,0.075260,0.0*
1,1,0.011811,-4.849110,0.075260*
1,1,0.011811,-4.849110,0.022462*
20,1,0.011811,-4.849110,0.075260,-4.849110,0.022462,0.0*
1,1,0.011811,-4.849110,0.022462*
1,1,0.011811,-4.866709,0.004863*
20,1,0.011811,-4.849110,0.022462,-4.866709,0.004863,0.0*
1,1,0.011811,-4.866709,0.004863*
1,1,0.011811,-4.901907,0.004863*
20,1,0.011811,-4.866709,0.004863,-4.901907,0.004863,0.0*
1,1,0.011811,-4.901907,0.004863*
1,1,0.011811,-4.919507,0.022462*
20,1,0.011811,-4.901907,0.004863,-4.919507,0.022462,0.0*
1,1,0.011811,-4.919507,0.022462*
1,1,0.011811,-4.919507,0.040062*
20,1,0.011811,-4.919507,0.022462,-4.919507,0.040062,0.0*
1,1,0.011811,-4.919507,0.040062*
1,1,0.011811,-4.901907,0.057661*
20,1,0.011811,-4.919507,0.040062,-4.901907,0.057661,0.0*
1,1,0.011811,-4.901907,0.057661*
1,1,0.011811,-4.849110,0.057661*
20,1,0.011811,-4.901907,0.057661,-4.849110,0.057661,0.0*
1,1,0.011811,-4.984819,0.110458*
1,1,0.011811,-5.020018,0.110458*
20,1,0.011811,-4.984819,0.110458,-5.020018,0.110458,0.0*
1,1,0.011811,-4.984819,0.057661*
1,1,0.011811,-5.020018,0.057661*
20,1,0.011811,-4.984819,0.057661,-5.020018,0.057661,0.0*
1,1,0.011811,-4.984819,0.004863*
1,1,0.011811,-5.020018,0.004863*
20,1,0.011811,-4.984819,0.004863,-5.020018,0.004863,0.0*
1,1,0.011811,-4.967220,0.092859*
1,1,0.011811,-4.967220,0.075260*
20,1,0.011811,-4.967220,0.092859,-4.967220,0.075260,0.0*
1,1,0.011811,-5.037617,0.092859*
1,1,0.011811,-5.037617,0.075260*
20,1,0.011811,-5.037617,0.092859,-5.037617,0.075260,0.0*
1,1,0.011811,-4.967220,0.040062*
1,1,0.011811,-4.967220,0.022462*
20,1,0.011811,-4.967220,0.040062,-4.967220,0.022462,0.0*
1,1,0.011811,-5.037617,0.040062*
1,1,0.011811,-5.037617,0.022462*
20,1,0.011811,-5.037617,0.040062,-5.037617,0.022462,0.0*
1,1,0.011811,-5.020018,0.110458*
1,1,0.011811,-5.037617,0.092859*
20,1,0.011811,-5.020018,0.110458,-5.037617,0.092859,0.0*
1,1,0.011811,-4.984819,0.110458*
1,1,0.011811,-4.967220,0.092859*
20,1,0.011811,-4.984819,0.110458,-4.967220,0.092859,0.0*
1,1,0.011811,-5.020018,0.057661*
1,1,0.011811,-5.037617,0.075260*
20,1,0.011811,-5.020018,0.057661,-5.037617,0.075260,0.0*
1,1,0.011811,-4.984819,0.057661*
1,1,0.011811,-4.967220,0.075260*
20,1,0.011811,-4.984819,0.057661,-4.967220,0.075260,0.0*
1,1,0.011811,-5.020018,0.057661*
1,1,0.011811,-5.037617,0.040062*
20,1,0.011811,-5.020018,0.057661,-5.037617,0.040062,0.0*
1,1,0.011811,-4.984819,0.057661*
1,1,0.011811,-4.967220,0.040062*
20,1,0.011811,-4.984819,0.057661,-4.967220,0.040062,0.0*
1,1,0.011811,-5.020018,0.004863*
1,1,0.011811,-5.037617,0.022462*
20,1,0.011811,-5.020018,0.004863,-5.037617,0.022462,0.0*
1,1,0.011811,-4.984819,0.004863*
1,1,0.011811,-4.967220,0.022462*
20,1,0.011811,-4.984819,0.004863,-4.967220,0.022462,0.0*
%
%ADD10R,0.019685X0.023622*%
%ADD11C,0.086614*%
%ADD12R,0.023622X0.019685*%
%ADD13R,0.013780X0.011811*%
%ADD14R,0.009843X0.011811*%
%ADD15R,0.051181X0.027559*%
%ADD16R,0.027559X0.051181*%
%ADD17C,0.009055*%
%ADD18C,0.007874*%
%ADD19R,0.011811X0.013780*%
%ADD20R,0.011024X0.016929*%
%ADD21R,0.106299X0.031496*%
%ADD22R,0.029528X0.031496*%
%ADD23R,0.023622X0.015748*%
%ADD24R,0.016929X0.011024*%
%ADD25R,0.022165X0.008858*%
%ADD26R,0.008858X0.022165*%
%ADD27C,0.039370*%
%ADD28A1paste-rs*%
%IPPOS*%
%LNpaste-rs.gbx*%
%LPD*%
G75*
G54D10*
X572125Y590488D03*
X607558D03*
G54D11*
X714173Y590931D03*
G54D12*
X740809Y532887D03*
X697502D03*
G54D13*
X652756Y581496D03*
Y559449D03*
G54D10*
X653142Y606135D03*
Y649442D03*
G54D14*
X705515Y650688D03*
X727169D03*
G54D13*
X461024Y652362D03*
Y630315D03*
G54D15*
X631102Y680315D03*
Y755118D03*
G54D10*
X670472Y465748D03*
Y422441D03*
G54D16*
X592520Y511417D03*
X667323D03*
G54D17*
X627559Y452756D03*
X611811D03*
X643307D03*
X627559Y468504D03*
X628268Y437008D03*
X627559Y421260D03*
X611811D03*
Y437008D03*
X643307D03*
Y421260D03*
Y468504D03*
X611811D03*
G54D10*
X761542Y477442D03*
Y434135D03*
G54D18*
X736417Y462795D03*
X722638D03*
X736417Y449016D03*
X722638D03*
X736417Y435236D03*
X722638D03*
X736417Y421457D03*
X722638D03*
G54D12*
X629921Y551575D03*
X586614D03*
G54D19*
X449606Y423228D03*
X427559D03*
G54D20*
X516006Y582488D03*
X536478D03*
X529528Y432677D03*
X509055D03*
X586220Y436220D03*
X565748D03*
G54D21*
X530709Y752362D03*
Y665748D03*
G54D22*
X433071Y596063D03*
Y655118D03*
G54D23*
X444488Y688976D03*
Y724409D03*
X692126Y748819D03*
Y713386D03*
G54D24*
X512598Y538189D03*
Y517717D03*
G54D25*
X426437Y468504D03*
Y484252D03*
Y500000D03*
Y515748D03*
G54D26*
X433071Y538130D03*
X448819D03*
X464567D03*
X480315D03*
G54D25*
X486949Y515748D03*
Y500000D03*
Y484252D03*
Y468504D03*
G54D26*
X480315Y446122D03*
X464567D03*
X448819D03*
X433071D03*
G54D10*
X572125Y1181039D03*
X607558D03*
G54D11*
X714173Y1181483D03*
G54D12*
X740809Y1123438D03*
X697502D03*
G54D13*
X652756Y1172047D03*
Y1150000D03*
G54D10*
X653142Y1196686D03*
Y1239993D03*
G54D14*
X705515Y1241239D03*
X727169D03*
G54D13*
X461024Y1242913D03*
Y1220866D03*
G54D15*
X631102Y1270866D03*
Y1345669D03*
G54D10*
X670472Y1056299D03*
Y1012992D03*
G54D16*
X592520Y1101969D03*
X667323D03*
G54D17*
X627559Y1043307D03*
X611811D03*
X643307D03*
X627559Y1059055D03*
X628268Y1027559D03*
X627559Y1011811D03*
X611811D03*
Y1027559D03*
X643307D03*
Y1011811D03*
Y1059055D03*
X611811D03*
G54D10*
X761542Y1067993D03*
Y1024686D03*
G54D18*
X736417Y1053346D03*
X722638D03*
X736417Y1039567D03*
X722638D03*
X736417Y1025787D03*
X722638D03*
X736417Y1012008D03*
X722638D03*
G54D12*
X629921Y1142126D03*
X586614D03*
G54D19*
X449606Y1013780D03*
X427559D03*
G54D20*
X516006Y1173039D03*
X536478D03*
X529528Y1023228D03*
X509055D03*
X586220Y1026772D03*
X565748D03*
G54D21*
X530709Y1342913D03*
Y1256299D03*
G54D22*
X433071Y1186614D03*
Y1245669D03*
G54D23*
X444488Y1279528D03*
Y1314961D03*
X692126Y1339370D03*
Y1303937D03*
G54D24*
X512598Y1128740D03*
Y1108268D03*
G54D25*
X426437Y1059055D03*
Y1074803D03*
Y1090551D03*
Y1106299D03*
G54D26*
X433071Y1128681D03*
X448819D03*
X464567D03*
X480315D03*
G54D25*
X486949Y1106299D03*
Y1090551D03*
Y1074803D03*
Y1059055D03*
G54D26*
X480315Y1036673D03*
X464567D03*
X448819D03*
X433071D03*
G54D10*
X572125Y1771591D03*
X607558D03*
G54D11*
X714173Y1772034D03*
G54D12*
X740809Y1713989D03*
X697502D03*
G54D13*
X652756Y1762598D03*
Y1740551D03*
G54D10*
X653142Y1787237D03*
Y1830544D03*
G54D14*
X705515Y1831791D03*
X727169D03*
G54D13*
X461024Y1833465D03*
Y1811417D03*
G54D15*
X631102Y1861417D03*
Y1936220D03*
G54D10*
X670472Y1646850D03*
Y1603543D03*
G54D16*
X592520Y1692520D03*
X667323D03*
G54D17*
X627559Y1633858D03*
X611811D03*
X643307D03*
X627559Y1649606D03*
X628268Y1618110D03*
X627559Y1602362D03*
X611811D03*
Y1618110D03*
X643307D03*
Y1602362D03*
Y1649606D03*
X611811D03*
G54D10*
X761542Y1658544D03*
Y1615237D03*
G54D18*
X736417Y1643898D03*
X722638D03*
X736417Y1630118D03*
X722638D03*
X736417Y1616339D03*
X722638D03*
X736417Y1602559D03*
X722638D03*
G54D12*
X629921Y1732677D03*
X586614D03*
G54D19*
X449606Y1604331D03*
X427559D03*
G54D20*
X516006Y1763591D03*
X536478D03*
X529528Y1613780D03*
X509055D03*
X586220Y1617323D03*
X565748D03*
G54D21*
X530709Y1933465D03*
Y1846850D03*
G54D22*
X433071Y1777165D03*
Y1836220D03*
G54D23*
X444488Y1870079D03*
Y1905512D03*
X692126Y1929921D03*
Y1894488D03*
G54D24*
X512598Y1719291D03*
Y1698819D03*
G54D25*
X426437Y1649606D03*
Y1665354D03*
Y1681102D03*
Y1696850D03*
G54D26*
X433071Y1719232D03*
X448819D03*
X464567D03*
X480315D03*
G54D25*
X486949Y1696850D03*
Y1681102D03*
Y1665354D03*
Y1649606D03*
G54D26*
X480315Y1627224D03*
X464567D03*
X448819D03*
X433071D03*
G54D10*
X572125Y2362142D03*
X607558D03*
G54D11*
X714173Y2362585D03*
G54D12*
X740809Y2304540D03*
X697502D03*
G54D13*
X652756Y2353150D03*
Y2331102D03*
G54D10*
X653142Y2377788D03*
Y2421095D03*
G54D14*
X705515Y2422342D03*
X727169D03*
G54D13*
X461024Y2424016D03*
Y2401969D03*
G54D15*
X631102Y2451969D03*
Y2526772D03*
G54D10*
X670472Y2237402D03*
Y2194094D03*
G54D16*
X592520Y2283071D03*
X667323D03*
G54D17*
X627559Y2224409D03*
X611811D03*
X643307D03*
X627559Y2240157D03*
X628268Y2208661D03*
X627559Y2192913D03*
X611811D03*
Y2208661D03*
X643307D03*
Y2192913D03*
Y2240157D03*
X611811D03*
G54D10*
X761542Y2249095D03*
Y2205788D03*
G54D18*
X736417Y2234449D03*
X722638D03*
X736417Y2220669D03*
X722638D03*
X736417Y2206890D03*
X722638D03*
X736417Y2193110D03*
X722638D03*
G54D12*
X629921Y2323228D03*
X586614D03*
G54D19*
X449606Y2194882D03*
X427559D03*
G54D20*
X516006Y2354142D03*
X536478D03*
X529528Y2204331D03*
X509055D03*
X586220Y2207874D03*
X565748D03*
G54D21*
X530709Y2524016D03*
Y2437402D03*
G54D22*
X433071Y2367717D03*
Y2426772D03*
G54D23*
X444488Y2460630D03*
Y2496063D03*
X692126Y2520472D03*
Y2485039D03*
G54D24*
X512598Y2309843D03*
Y2289370D03*
G54D25*
X426437Y2240157D03*
Y2255906D03*
Y2271654D03*
Y2287402D03*
G54D26*
X433071Y2309783D03*
X448819D03*
X464567D03*
X480315D03*
G54D25*
X486949Y2287402D03*
Y2271654D03*
Y2255906D03*
Y2240157D03*
G54D26*
X480315Y2217776D03*
X464567D03*
X448819D03*
X433071D03*
G54D10*
X572125Y2952693D03*
X607558D03*
G54D11*
X714173Y2953136D03*
G54D12*
X740809Y2895091D03*
X697502D03*
G54D13*
X652756Y2943701D03*
Y2921654D03*
G54D10*
X653142Y2968339D03*
Y3011646D03*
G54D14*
X705515Y3012893D03*
X727169D03*
G54D13*
X461024Y3014567D03*
Y2992520D03*
G54D15*
X631102Y3042520D03*
Y3117323D03*
G54D10*
X670472Y2827953D03*
Y2784646D03*
G54D16*
X592520Y2873622D03*
X667323D03*
G54D17*
X627559Y2814961D03*
X611811D03*
X643307D03*
X627559Y2830709D03*
X628268Y2799213D03*
X627559Y2783465D03*
X611811D03*
Y2799213D03*
X643307D03*
Y2783465D03*
Y2830709D03*
X611811D03*
G54D10*
X761542Y2839646D03*
Y2796339D03*
G54D18*
X736417Y2825000D03*
X722638D03*
X736417Y2811220D03*
X722638D03*
X736417Y2797441D03*
X722638D03*
X736417Y2783661D03*
X722638D03*
G54D12*
X629921Y2913780D03*
X586614D03*
G54D19*
X449606Y2785433D03*
X427559D03*
G54D20*
X516006Y2944693D03*
X536478D03*
X529528Y2794882D03*
X509055D03*
X586220Y2798425D03*
X565748D03*
G54D21*
X530709Y3114567D03*
Y3027953D03*
G54D22*
X433071Y2958268D03*
Y3017323D03*
G54D23*
X444488Y3051181D03*
Y3086614D03*
X692126Y3111024D03*
Y3075591D03*
G54D24*
X512598Y2900394D03*
Y2879921D03*
G54D25*
X426437Y2830709D03*
Y2846457D03*
Y2862205D03*
Y2877953D03*
G54D26*
X433071Y2900335D03*
X448819D03*
X464567D03*
X480315D03*
G54D25*
X486949Y2877953D03*
Y2862205D03*
Y2846457D03*
Y2830709D03*
G54D26*
X480315Y2808327D03*
X464567D03*
X448819D03*
X433071D03*
G54D10*
X1162676Y590488D03*
X1198109D03*
G54D11*
X1304724Y590931D03*
G54D12*
X1331361Y532887D03*
X1288054D03*
G54D13*
X1243307Y581496D03*
Y559449D03*
G54D10*
X1243693Y606135D03*
Y649442D03*
G54D14*
X1296066Y650688D03*
X1317720D03*
G54D13*
X1051575Y652362D03*
Y630315D03*
G54D15*
X1221654Y680315D03*
Y755118D03*
G54D10*
X1261024Y465748D03*
Y422441D03*
G54D16*
X1183071Y511417D03*
X1257874D03*
G54D17*
X1218110Y452756D03*
X1202362D03*
X1233858D03*
X1218110Y468504D03*
X1218819Y437008D03*
X1218110Y421260D03*
X1202362D03*
Y437008D03*
X1233858D03*
Y421260D03*
Y468504D03*
X1202362D03*
G54D10*
X1352093Y477442D03*
Y434135D03*
G54D18*
X1326969Y462795D03*
X1313189D03*
X1326969Y449016D03*
X1313189D03*
X1326969Y435236D03*
X1313189D03*
X1326969Y421457D03*
X1313189D03*
G54D12*
X1220472Y551575D03*
X1177165D03*
G54D19*
X1040157Y423228D03*
X1018110D03*
G54D20*
X1106557Y582488D03*
X1127029D03*
X1120079Y432677D03*
X1099606D03*
X1176772Y436220D03*
X1156299D03*
G54D21*
X1121260Y752362D03*
Y665748D03*
G54D22*
X1023622Y596063D03*
Y655118D03*
G54D23*
X1035039Y688976D03*
Y724409D03*
X1282677Y748819D03*
Y713386D03*
G54D24*
X1103150Y538189D03*
Y517717D03*
G54D25*
X1016988Y468504D03*
Y484252D03*
Y500000D03*
Y515748D03*
G54D26*
X1023622Y538130D03*
X1039370D03*
X1055118D03*
X1070866D03*
G54D25*
X1077500Y515748D03*
Y500000D03*
Y484252D03*
Y468504D03*
G54D26*
X1070866Y446122D03*
X1055118D03*
X1039370D03*
X1023622D03*
G54D10*
X1162676Y1181039D03*
X1198109D03*
G54D11*
X1304724Y1181483D03*
G54D12*
X1331361Y1123438D03*
X1288054D03*
G54D13*
X1243307Y1172047D03*
Y1150000D03*
G54D10*
X1243693Y1196686D03*
Y1239993D03*
G54D14*
X1296066Y1241239D03*
X1317720D03*
G54D13*
X1051575Y1242913D03*
Y1220866D03*
G54D15*
X1221654Y1270866D03*
Y1345669D03*
G54D10*
X1261024Y1056299D03*
Y1012992D03*
G54D16*
X1183071Y1101969D03*
X1257874D03*
G54D17*
X1218110Y1043307D03*
X1202362D03*
X1233858D03*
X1218110Y1059055D03*
X1218819Y1027559D03*
X1218110Y1011811D03*
X1202362D03*
Y1027559D03*
X1233858D03*
Y1011811D03*
Y1059055D03*
X1202362D03*
G54D10*
X1352093Y1067993D03*
Y1024686D03*
G54D18*
X1326969Y1053346D03*
X1313189D03*
X1326969Y1039567D03*
X1313189D03*
X1326969Y1025787D03*
X1313189D03*
X1326969Y1012008D03*
X1313189D03*
G54D12*
X1220472Y1142126D03*
X1177165D03*
G54D19*
X1040157Y1013780D03*
X1018110D03*
G54D20*
X1106557Y1173039D03*
X1127029D03*
X1120079Y1023228D03*
X1099606D03*
X1176772Y1026772D03*
X1156299D03*
G54D21*
X1121260Y1342913D03*
Y1256299D03*
G54D22*
X1023622Y1186614D03*
Y1245669D03*
G54D23*
X1035039Y1279528D03*
Y1314961D03*
X1282677Y1339370D03*
Y1303937D03*
G54D24*
X1103150Y1128740D03*
Y1108268D03*
G54D25*
X1016988Y1059055D03*
Y1074803D03*
Y1090551D03*
Y1106299D03*
G54D26*
X1023622Y1128681D03*
X1039370D03*
X1055118D03*
X1070866D03*
G54D25*
X1077500Y1106299D03*
Y1090551D03*
Y1074803D03*
Y1059055D03*
G54D26*
X1070866Y1036673D03*
X1055118D03*
X1039370D03*
X1023622D03*
G54D10*
X1162676Y1771591D03*
X1198109D03*
G54D11*
X1304724Y1772034D03*
G54D12*
X1331361Y1713989D03*
X1288054D03*
G54D13*
X1243307Y1762598D03*
Y1740551D03*
G54D10*
X1243693Y1787237D03*
Y1830544D03*
G54D14*
X1296066Y1831791D03*
X1317720D03*
G54D13*
X1051575Y1833465D03*
Y1811417D03*
G54D15*
X1221654Y1861417D03*
Y1936220D03*
G54D10*
X1261024Y1646850D03*
Y1603543D03*
G54D16*
X1183071Y1692520D03*
X1257874D03*
G54D17*
X1218110Y1633858D03*
X1202362D03*
X1233858D03*
X1218110Y1649606D03*
X1218819Y1618110D03*
X1218110Y1602362D03*
X1202362D03*
Y1618110D03*
X1233858D03*
Y1602362D03*
Y1649606D03*
X1202362D03*
G54D10*
X1352093Y1658544D03*
Y1615237D03*
G54D18*
X1326969Y1643898D03*
X1313189D03*
X1326969Y1630118D03*
X1313189D03*
X1326969Y1616339D03*
X1313189D03*
X1326969Y1602559D03*
X1313189D03*
G54D12*
X1220472Y1732677D03*
X1177165D03*
G54D19*
X1040157Y1604331D03*
X1018110D03*
G54D20*
X1106557Y1763591D03*
X1127029D03*
X1120079Y1613780D03*
X1099606D03*
X1176772Y1617323D03*
X1156299D03*
G54D21*
X1121260Y1933465D03*
Y1846850D03*
G54D22*
X1023622Y1777165D03*
Y1836220D03*
G54D23*
X1035039Y1870079D03*
Y1905512D03*
X1282677Y1929921D03*
Y1894488D03*
G54D24*
X1103150Y1719291D03*
Y1698819D03*
G54D25*
X1016988Y1649606D03*
Y1665354D03*
Y1681102D03*
Y1696850D03*
G54D26*
X1023622Y1719232D03*
X1039370D03*
X1055118D03*
X1070866D03*
G54D25*
X1077500Y1696850D03*
Y1681102D03*
Y1665354D03*
Y1649606D03*
G54D26*
X1070866Y1627224D03*
X1055118D03*
X1039370D03*
X1023622D03*
G54D10*
X1162676Y2362142D03*
X1198109D03*
G54D11*
X1304724Y2362585D03*
G54D12*
X1331361Y2304540D03*
X1288054D03*
G54D13*
X1243307Y2353150D03*
Y2331102D03*
G54D10*
X1243693Y2377788D03*
Y2421095D03*
G54D14*
X1296066Y2422342D03*
X1317720D03*
G54D13*
X1051575Y2424016D03*
Y2401969D03*
G54D15*
X1221654Y2451969D03*
Y2526772D03*
G54D10*
X1261024Y2237402D03*
Y2194094D03*
G54D16*
X1183071Y2283071D03*
X1257874D03*
G54D17*
X1218110Y2224409D03*
X1202362D03*
X1233858D03*
X1218110Y2240157D03*
X1218819Y2208661D03*
X1218110Y2192913D03*
X1202362D03*
Y2208661D03*
X1233858D03*
Y2192913D03*
Y2240157D03*
X1202362D03*
G54D10*
X1352093Y2249095D03*
Y2205788D03*
G54D18*
X1326969Y2234449D03*
X1313189D03*
X1326969Y2220669D03*
X1313189D03*
X1326969Y2206890D03*
X1313189D03*
X1326969Y2193110D03*
X1313189D03*
G54D12*
X1220472Y2323228D03*
X1177165D03*
G54D19*
X1040157Y2194882D03*
X1018110D03*
G54D20*
X1106557Y2354142D03*
X1127029D03*
X1120079Y2204331D03*
X1099606D03*
X1176772Y2207874D03*
X1156299D03*
G54D21*
X1121260Y2524016D03*
Y2437402D03*
G54D22*
X1023622Y2367717D03*
Y2426772D03*
G54D23*
X1035039Y2460630D03*
Y2496063D03*
X1282677Y2520472D03*
Y2485039D03*
G54D24*
X1103150Y2309843D03*
Y2289370D03*
G54D25*
X1016988Y2240157D03*
Y2255906D03*
Y2271654D03*
Y2287402D03*
G54D26*
X1023622Y2309783D03*
X1039370D03*
X1055118D03*
X1070866D03*
G54D25*
X1077500Y2287402D03*
Y2271654D03*
Y2255906D03*
Y2240157D03*
G54D26*
X1070866Y2217776D03*
X1055118D03*
X1039370D03*
X1023622D03*
G54D10*
X1162676Y2952693D03*
X1198109D03*
G54D11*
X1304724Y2953136D03*
G54D12*
X1331361Y2895091D03*
X1288054D03*
G54D13*
X1243307Y2943701D03*
Y2921654D03*
G54D10*
X1243693Y2968339D03*
Y3011646D03*
G54D14*
X1296066Y3012893D03*
X1317720D03*
G54D13*
X1051575Y3014567D03*
Y2992520D03*
G54D15*
X1221654Y3042520D03*
Y3117323D03*
G54D10*
X1261024Y2827953D03*
Y2784646D03*
G54D16*
X1183071Y2873622D03*
X1257874D03*
G54D17*
X1218110Y2814961D03*
X1202362D03*
X1233858D03*
X1218110Y2830709D03*
X1218819Y2799213D03*
X1218110Y2783465D03*
X1202362D03*
Y2799213D03*
X1233858D03*
Y2783465D03*
Y2830709D03*
X1202362D03*
G54D10*
X1352093Y2839646D03*
Y2796339D03*
G54D18*
X1326969Y2825000D03*
X1313189D03*
X1326969Y2811220D03*
X1313189D03*
X1326969Y2797441D03*
X1313189D03*
X1326969Y2783661D03*
X1313189D03*
G54D12*
X1220472Y2913780D03*
X1177165D03*
G54D19*
X1040157Y2785433D03*
X1018110D03*
G54D20*
X1106557Y2944693D03*
X1127029D03*
X1120079Y2794882D03*
X1099606D03*
X1176772Y2798425D03*
X1156299D03*
G54D21*
X1121260Y3114567D03*
Y3027953D03*
G54D22*
X1023622Y2958268D03*
Y3017323D03*
G54D23*
X1035039Y3051181D03*
Y3086614D03*
X1282677Y3111024D03*
Y3075591D03*
G54D24*
X1103150Y2900394D03*
Y2879921D03*
G54D25*
X1016988Y2830709D03*
Y2846457D03*
Y2862205D03*
Y2877953D03*
G54D26*
X1023622Y2900335D03*
X1039370D03*
X1055118D03*
X1070866D03*
G54D25*
X1077500Y2877953D03*
Y2862205D03*
Y2846457D03*
Y2830709D03*
G54D26*
X1070866Y2808327D03*
X1055118D03*
X1039370D03*
X1023622D03*
G54D10*
X1753228Y590488D03*
X1788661D03*
G54D11*
X1895276Y590931D03*
G54D12*
X1921912Y532887D03*
X1878605D03*
G54D13*
X1833858Y581496D03*
Y559449D03*
G54D10*
X1834244Y606135D03*
Y649442D03*
G54D14*
X1886617Y650688D03*
X1908271D03*
G54D13*
X1642126Y652362D03*
Y630315D03*
G54D15*
X1812205Y680315D03*
Y755118D03*
G54D10*
X1851575Y465748D03*
Y422441D03*
G54D16*
X1773622Y511417D03*
X1848425D03*
G54D17*
X1808661Y452756D03*
X1792913D03*
X1824409D03*
X1808661Y468504D03*
X1809370Y437008D03*
X1808661Y421260D03*
X1792913D03*
Y437008D03*
X1824409D03*
Y421260D03*
Y468504D03*
X1792913D03*
G54D10*
X1942644Y477442D03*
Y434135D03*
G54D18*
X1917520Y462795D03*
X1903740D03*
X1917520Y449016D03*
X1903740D03*
X1917520Y435236D03*
X1903740D03*
X1917520Y421457D03*
X1903740D03*
G54D12*
X1811024Y551575D03*
X1767717D03*
G54D19*
X1630709Y423228D03*
X1608661D03*
G54D20*
X1697108Y582488D03*
X1717580D03*
X1710630Y432677D03*
X1690157D03*
X1767323Y436220D03*
X1746850D03*
G54D21*
X1711811Y752362D03*
Y665748D03*
G54D22*
X1614173Y596063D03*
Y655118D03*
G54D23*
X1625591Y688976D03*
Y724409D03*
X1873228Y748819D03*
Y713386D03*
G54D24*
X1693701Y538189D03*
Y517717D03*
G54D25*
X1607539Y468504D03*
Y484252D03*
Y500000D03*
Y515748D03*
G54D26*
X1614173Y538130D03*
X1629921D03*
X1645669D03*
X1661417D03*
G54D25*
X1668051Y515748D03*
Y500000D03*
Y484252D03*
Y468504D03*
G54D26*
X1661417Y446122D03*
X1645669D03*
X1629921D03*
X1614173D03*
G54D10*
X1753228Y1181039D03*
X1788661D03*
G54D11*
X1895276Y1181483D03*
G54D12*
X1921912Y1123438D03*
X1878605D03*
G54D13*
X1833858Y1172047D03*
Y1150000D03*
G54D10*
X1834244Y1196686D03*
Y1239993D03*
G54D14*
X1886617Y1241239D03*
X1908271D03*
G54D13*
X1642126Y1242913D03*
Y1220866D03*
G54D15*
X1812205Y1270866D03*
Y1345669D03*
G54D10*
X1851575Y1056299D03*
Y1012992D03*
G54D16*
X1773622Y1101969D03*
X1848425D03*
G54D17*
X1808661Y1043307D03*
X1792913D03*
X1824409D03*
X1808661Y1059055D03*
X1809370Y1027559D03*
X1808661Y1011811D03*
X1792913D03*
Y1027559D03*
X1824409D03*
Y1011811D03*
Y1059055D03*
X1792913D03*
G54D10*
X1942644Y1067993D03*
Y1024686D03*
G54D18*
X1917520Y1053346D03*
X1903740D03*
X1917520Y1039567D03*
X1903740D03*
X1917520Y1025787D03*
X1903740D03*
X1917520Y1012008D03*
X1903740D03*
G54D12*
X1811024Y1142126D03*
X1767717D03*
G54D19*
X1630709Y1013780D03*
X1608661D03*
G54D20*
X1697108Y1173039D03*
X1717580D03*
X1710630Y1023228D03*
X1690157D03*
X1767323Y1026772D03*
X1746850D03*
G54D21*
X1711811Y1342913D03*
Y1256299D03*
G54D22*
X1614173Y1186614D03*
Y1245669D03*
G54D23*
X1625591Y1279528D03*
Y1314961D03*
X1873228Y1339370D03*
Y1303937D03*
G54D24*
X1693701Y1128740D03*
Y1108268D03*
G54D25*
X1607539Y1059055D03*
Y1074803D03*
Y1090551D03*
Y1106299D03*
G54D26*
X1614173Y1128681D03*
X1629921D03*
X1645669D03*
X1661417D03*
G54D25*
X1668051Y1106299D03*
Y1090551D03*
Y1074803D03*
Y1059055D03*
G54D26*
X1661417Y1036673D03*
X1645669D03*
X1629921D03*
X1614173D03*
G54D10*
X1753228Y1771591D03*
X1788661D03*
G54D11*
X1895276Y1772034D03*
G54D12*
X1921912Y1713989D03*
X1878605D03*
G54D13*
X1833858Y1762598D03*
Y1740551D03*
G54D10*
X1834244Y1787237D03*
Y1830544D03*
G54D14*
X1886617Y1831791D03*
X1908271D03*
G54D13*
X1642126Y1833465D03*
Y1811417D03*
G54D15*
X1812205Y1861417D03*
Y1936220D03*
G54D10*
X1851575Y1646850D03*
Y1603543D03*
G54D16*
X1773622Y1692520D03*
X1848425D03*
G54D17*
X1808661Y1633858D03*
X1792913D03*
X1824409D03*
X1808661Y1649606D03*
X1809370Y1618110D03*
X1808661Y1602362D03*
X1792913D03*
Y1618110D03*
X1824409D03*
Y1602362D03*
Y1649606D03*
X1792913D03*
G54D10*
X1942644Y1658544D03*
Y1615237D03*
G54D18*
X1917520Y1643898D03*
X1903740D03*
X1917520Y1630118D03*
X1903740D03*
X1917520Y1616339D03*
X1903740D03*
X1917520Y1602559D03*
X1903740D03*
G54D12*
X1811024Y1732677D03*
X1767717D03*
G54D19*
X1630709Y1604331D03*
X1608661D03*
G54D20*
X1697108Y1763591D03*
X1717580D03*
X1710630Y1613780D03*
X1690157D03*
X1767323Y1617323D03*
X1746850D03*
G54D21*
X1711811Y1933465D03*
Y1846850D03*
G54D22*
X1614173Y1777165D03*
Y1836220D03*
G54D23*
X1625591Y1870079D03*
Y1905512D03*
X1873228Y1929921D03*
Y1894488D03*
G54D24*
X1693701Y1719291D03*
Y1698819D03*
G54D25*
X1607539Y1649606D03*
Y1665354D03*
Y1681102D03*
Y1696850D03*
G54D26*
X1614173Y1719232D03*
X1629921D03*
X1645669D03*
X1661417D03*
G54D25*
X1668051Y1696850D03*
Y1681102D03*
Y1665354D03*
Y1649606D03*
G54D26*
X1661417Y1627224D03*
X1645669D03*
X1629921D03*
X1614173D03*
G54D10*
X1753228Y2362142D03*
X1788661D03*
G54D11*
X1895276Y2362585D03*
G54D12*
X1921912Y2304540D03*
X1878605D03*
G54D13*
X1833858Y2353150D03*
Y2331102D03*
G54D10*
X1834244Y2377788D03*
Y2421095D03*
G54D14*
X1886617Y2422342D03*
X1908271D03*
G54D13*
X1642126Y2424016D03*
Y2401969D03*
G54D15*
X1812205Y2451969D03*
Y2526772D03*
G54D10*
X1851575Y2237402D03*
Y2194094D03*
G54D16*
X1773622Y2283071D03*
X1848425D03*
G54D17*
X1808661Y2224409D03*
X1792913D03*
X1824409D03*
X1808661Y2240157D03*
X1809370Y2208661D03*
X1808661Y2192913D03*
X1792913D03*
Y2208661D03*
X1824409D03*
Y2192913D03*
Y2240157D03*
X1792913D03*
G54D10*
X1942644Y2249095D03*
Y2205788D03*
G54D18*
X1917520Y2234449D03*
X1903740D03*
X1917520Y2220669D03*
X1903740D03*
X1917520Y2206890D03*
X1903740D03*
X1917520Y2193110D03*
X1903740D03*
G54D12*
X1811024Y2323228D03*
X1767717D03*
G54D19*
X1630709Y2194882D03*
X1608661D03*
G54D20*
X1697108Y2354142D03*
X1717580D03*
X1710630Y2204331D03*
X1690157D03*
X1767323Y2207874D03*
X1746850D03*
G54D21*
X1711811Y2524016D03*
Y2437402D03*
G54D22*
X1614173Y2367717D03*
Y2426772D03*
G54D23*
X1625591Y2460630D03*
Y2496063D03*
X1873228Y2520472D03*
Y2485039D03*
G54D24*
X1693701Y2309843D03*
Y2289370D03*
G54D25*
X1607539Y2240157D03*
Y2255906D03*
Y2271654D03*
Y2287402D03*
G54D26*
X1614173Y2309783D03*
X1629921D03*
X1645669D03*
X1661417D03*
G54D25*
X1668051Y2287402D03*
Y2271654D03*
Y2255906D03*
Y2240157D03*
G54D26*
X1661417Y2217776D03*
X1645669D03*
X1629921D03*
X1614173D03*
G54D10*
X1753228Y2952693D03*
X1788661D03*
G54D11*
X1895276Y2953136D03*
G54D12*
X1921912Y2895091D03*
X1878605D03*
G54D13*
X1833858Y2943701D03*
Y2921654D03*
G54D10*
X1834244Y2968339D03*
Y3011646D03*
G54D14*
X1886617Y3012893D03*
X1908271D03*
G54D13*
X1642126Y3014567D03*
Y2992520D03*
G54D15*
X1812205Y3042520D03*
Y3117323D03*
G54D10*
X1851575Y2827953D03*
Y2784646D03*
G54D16*
X1773622Y2873622D03*
X1848425D03*
G54D17*
X1808661Y2814961D03*
X1792913D03*
X1824409D03*
X1808661Y2830709D03*
X1809370Y2799213D03*
X1808661Y2783465D03*
X1792913D03*
Y2799213D03*
X1824409D03*
Y2783465D03*
Y2830709D03*
X1792913D03*
G54D10*
X1942644Y2839646D03*
Y2796339D03*
G54D18*
X1917520Y2825000D03*
X1903740D03*
X1917520Y2811220D03*
X1903740D03*
X1917520Y2797441D03*
X1903740D03*
X1917520Y2783661D03*
X1903740D03*
G54D12*
X1811024Y2913780D03*
X1767717D03*
G54D19*
X1630709Y2785433D03*
X1608661D03*
G54D20*
X1697108Y2944693D03*
X1717580D03*
X1710630Y2794882D03*
X1690157D03*
X1767323Y2798425D03*
X1746850D03*
G54D21*
X1711811Y3114567D03*
Y3027953D03*
G54D22*
X1614173Y2958268D03*
Y3017323D03*
G54D23*
X1625591Y3051181D03*
Y3086614D03*
X1873228Y3111024D03*
Y3075591D03*
G54D24*
X1693701Y2900394D03*
Y2879921D03*
G54D25*
X1607539Y2830709D03*
Y2846457D03*
Y2862205D03*
Y2877953D03*
G54D26*
X1614173Y2900335D03*
X1629921D03*
X1645669D03*
X1661417D03*
G54D25*
X1668051Y2877953D03*
Y2862205D03*
Y2846457D03*
Y2830709D03*
G54D26*
X1661417Y2808327D03*
X1645669D03*
X1629921D03*
X1614173D03*
G54D10*
X2343779Y590488D03*
X2379212D03*
G54D11*
X2485827Y590931D03*
G54D12*
X2512463Y532887D03*
X2469156D03*
G54D13*
X2424409Y581496D03*
Y559449D03*
G54D10*
X2424795Y606135D03*
Y649442D03*
G54D14*
X2477169Y650688D03*
X2498822D03*
G54D13*
X2232677Y652362D03*
Y630315D03*
G54D15*
X2402756Y680315D03*
Y755118D03*
G54D10*
X2442126Y465748D03*
Y422441D03*
G54D16*
X2364173Y511417D03*
X2438976D03*
G54D17*
X2399213Y452756D03*
X2383465D03*
X2414961D03*
X2399213Y468504D03*
X2399921Y437008D03*
X2399213Y421260D03*
X2383465D03*
Y437008D03*
X2414961D03*
Y421260D03*
Y468504D03*
X2383465D03*
G54D10*
X2533195Y477442D03*
Y434135D03*
G54D18*
X2508071Y462795D03*
X2494291D03*
X2508071Y449016D03*
X2494291D03*
X2508071Y435236D03*
X2494291D03*
X2508071Y421457D03*
X2494291D03*
G54D12*
X2401575Y551575D03*
X2358268D03*
G54D19*
X2221260Y423228D03*
X2199213D03*
G54D20*
X2287659Y582488D03*
X2308131D03*
X2301181Y432677D03*
X2280709D03*
X2357874Y436220D03*
X2337402D03*
G54D21*
X2302362Y752362D03*
Y665748D03*
G54D22*
X2204724Y596063D03*
Y655118D03*
G54D23*
X2216142Y688976D03*
Y724409D03*
X2463780Y748819D03*
Y713386D03*
G54D24*
X2284252Y538189D03*
Y517717D03*
G54D25*
X2198091Y468504D03*
Y484252D03*
Y500000D03*
Y515748D03*
G54D26*
X2204724Y538130D03*
X2220472D03*
X2236220D03*
X2251969D03*
G54D25*
X2258602Y515748D03*
Y500000D03*
Y484252D03*
Y468504D03*
G54D26*
X2251969Y446122D03*
X2236220D03*
X2220472D03*
X2204724D03*
G54D10*
X2343779Y1181039D03*
X2379212D03*
G54D11*
X2485827Y1181483D03*
G54D12*
X2512463Y1123438D03*
X2469156D03*
G54D13*
X2424409Y1172047D03*
Y1150000D03*
G54D10*
X2424795Y1196686D03*
Y1239993D03*
G54D14*
X2477169Y1241239D03*
X2498822D03*
G54D13*
X2232677Y1242913D03*
Y1220866D03*
G54D15*
X2402756Y1270866D03*
Y1345669D03*
G54D10*
X2442126Y1056299D03*
Y1012992D03*
G54D16*
X2364173Y1101969D03*
X2438976D03*
G54D17*
X2399213Y1043307D03*
X2383465D03*
X2414961D03*
X2399213Y1059055D03*
X2399921Y1027559D03*
X2399213Y1011811D03*
X2383465D03*
Y1027559D03*
X2414961D03*
Y1011811D03*
Y1059055D03*
X2383465D03*
G54D10*
X2533195Y1067993D03*
Y1024686D03*
G54D18*
X2508071Y1053346D03*
X2494291D03*
X2508071Y1039567D03*
X2494291D03*
X2508071Y1025787D03*
X2494291D03*
X2508071Y1012008D03*
X2494291D03*
G54D12*
X2401575Y1142126D03*
X2358268D03*
G54D19*
X2221260Y1013780D03*
X2199213D03*
G54D20*
X2287659Y1173039D03*
X2308131D03*
X2301181Y1023228D03*
X2280709D03*
X2357874Y1026772D03*
X2337402D03*
G54D21*
X2302362Y1342913D03*
Y1256299D03*
G54D22*
X2204724Y1186614D03*
Y1245669D03*
G54D23*
X2216142Y1279528D03*
Y1314961D03*
X2463780Y1339370D03*
Y1303937D03*
G54D24*
X2284252Y1128740D03*
Y1108268D03*
G54D25*
X2198091Y1059055D03*
Y1074803D03*
Y1090551D03*
Y1106299D03*
G54D26*
X2204724Y1128681D03*
X2220472D03*
X2236220D03*
X2251969D03*
G54D25*
X2258602Y1106299D03*
Y1090551D03*
Y1074803D03*
Y1059055D03*
G54D26*
X2251969Y1036673D03*
X2236220D03*
X2220472D03*
X2204724D03*
G54D10*
X2343779Y1771591D03*
X2379212D03*
G54D11*
X2485827Y1772034D03*
G54D12*
X2512463Y1713989D03*
X2469156D03*
G54D13*
X2424409Y1762598D03*
Y1740551D03*
G54D10*
X2424795Y1787237D03*
Y1830544D03*
G54D14*
X2477169Y1831791D03*
X2498822D03*
G54D13*
X2232677Y1833465D03*
Y1811417D03*
G54D15*
X2402756Y1861417D03*
Y1936220D03*
G54D10*
X2442126Y1646850D03*
Y1603543D03*
G54D16*
X2364173Y1692520D03*
X2438976D03*
G54D17*
X2399213Y1633858D03*
X2383465D03*
X2414961D03*
X2399213Y1649606D03*
X2399921Y1618110D03*
X2399213Y1602362D03*
X2383465D03*
Y1618110D03*
X2414961D03*
Y1602362D03*
Y1649606D03*
X2383465D03*
G54D10*
X2533195Y1658544D03*
Y1615237D03*
G54D18*
X2508071Y1643898D03*
X2494291D03*
X2508071Y1630118D03*
X2494291D03*
X2508071Y1616339D03*
X2494291D03*
X2508071Y1602559D03*
X2494291D03*
G54D12*
X2401575Y1732677D03*
X2358268D03*
G54D19*
X2221260Y1604331D03*
X2199213D03*
G54D20*
X2287659Y1763591D03*
X2308131D03*
X2301181Y1613780D03*
X2280709D03*
X2357874Y1617323D03*
X2337402D03*
G54D21*
X2302362Y1933465D03*
Y1846850D03*
G54D22*
X2204724Y1777165D03*
Y1836220D03*
G54D23*
X2216142Y1870079D03*
Y1905512D03*
X2463780Y1929921D03*
Y1894488D03*
G54D24*
X2284252Y1719291D03*
Y1698819D03*
G54D25*
X2198091Y1649606D03*
Y1665354D03*
Y1681102D03*
Y1696850D03*
G54D26*
X2204724Y1719232D03*
X2220472D03*
X2236220D03*
X2251969D03*
G54D25*
X2258602Y1696850D03*
Y1681102D03*
Y1665354D03*
Y1649606D03*
G54D26*
X2251969Y1627224D03*
X2236220D03*
X2220472D03*
X2204724D03*
G54D10*
X2343779Y2362142D03*
X2379212D03*
G54D11*
X2485827Y2362585D03*
G54D12*
X2512463Y2304540D03*
X2469156D03*
G54D13*
X2424409Y2353150D03*
Y2331102D03*
G54D10*
X2424795Y2377788D03*
Y2421095D03*
G54D14*
X2477169Y2422342D03*
X2498822D03*
G54D13*
X2232677Y2424016D03*
Y2401969D03*
G54D15*
X2402756Y2451969D03*
Y2526772D03*
G54D10*
X2442126Y2237402D03*
Y2194094D03*
G54D16*
X2364173Y2283071D03*
X2438976D03*
G54D17*
X2399213Y2224409D03*
X2383465D03*
X2414961D03*
X2399213Y2240157D03*
X2399921Y2208661D03*
X2399213Y2192913D03*
X2383465D03*
Y2208661D03*
X2414961D03*
Y2192913D03*
Y2240157D03*
X2383465D03*
G54D10*
X2533195Y2249095D03*
Y2205788D03*
G54D18*
X2508071Y2234449D03*
X2494291D03*
X2508071Y2220669D03*
X2494291D03*
X2508071Y2206890D03*
X2494291D03*
X2508071Y2193110D03*
X2494291D03*
G54D12*
X2401575Y2323228D03*
X2358268D03*
G54D19*
X2221260Y2194882D03*
X2199213D03*
G54D20*
X2287659Y2354142D03*
X2308131D03*
X2301181Y2204331D03*
X2280709D03*
X2357874Y2207874D03*
X2337402D03*
G54D21*
X2302362Y2524016D03*
Y2437402D03*
G54D22*
X2204724Y2367717D03*
Y2426772D03*
G54D23*
X2216142Y2460630D03*
Y2496063D03*
X2463780Y2520472D03*
Y2485039D03*
G54D24*
X2284252Y2309843D03*
Y2289370D03*
G54D25*
X2198091Y2240157D03*
Y2255906D03*
Y2271654D03*
Y2287402D03*
G54D26*
X2204724Y2309783D03*
X2220472D03*
X2236220D03*
X2251969D03*
G54D25*
X2258602Y2287402D03*
Y2271654D03*
Y2255906D03*
Y2240157D03*
G54D26*
X2251969Y2217776D03*
X2236220D03*
X2220472D03*
X2204724D03*
G54D10*
X2343779Y2952693D03*
X2379212D03*
G54D11*
X2485827Y2953136D03*
G54D12*
X2512463Y2895091D03*
X2469156D03*
G54D13*
X2424409Y2943701D03*
Y2921654D03*
G54D10*
X2424795Y2968339D03*
Y3011646D03*
G54D14*
X2477169Y3012893D03*
X2498822D03*
G54D13*
X2232677Y3014567D03*
Y2992520D03*
G54D15*
X2402756Y3042520D03*
Y3117323D03*
G54D10*
X2442126Y2827953D03*
Y2784646D03*
G54D16*
X2364173Y2873622D03*
X2438976D03*
G54D17*
X2399213Y2814961D03*
X2383465D03*
X2414961D03*
X2399213Y2830709D03*
X2399921Y2799213D03*
X2399213Y2783465D03*
X2383465D03*
Y2799213D03*
X2414961D03*
Y2783465D03*
Y2830709D03*
X2383465D03*
G54D10*
X2533195Y2839646D03*
Y2796339D03*
G54D18*
X2508071Y2825000D03*
X2494291D03*
X2508071Y2811220D03*
X2494291D03*
X2508071Y2797441D03*
X2494291D03*
X2508071Y2783661D03*
X2494291D03*
G54D12*
X2401575Y2913780D03*
X2358268D03*
G54D19*
X2221260Y2785433D03*
X2199213D03*
G54D20*
X2287659Y2944693D03*
X2308131D03*
X2301181Y2794882D03*
X2280709D03*
X2357874Y2798425D03*
X2337402D03*
G54D21*
X2302362Y3114567D03*
Y3027953D03*
G54D22*
X2204724Y2958268D03*
Y3017323D03*
G54D23*
X2216142Y3051181D03*
Y3086614D03*
X2463780Y3111024D03*
Y3075591D03*
G54D24*
X2284252Y2900394D03*
Y2879921D03*
G54D25*
X2198091Y2830709D03*
Y2846457D03*
Y2862205D03*
Y2877953D03*
G54D26*
X2204724Y2900335D03*
X2220472D03*
X2236220D03*
X2251969D03*
G54D25*
X2258602Y2877953D03*
Y2862205D03*
Y2846457D03*
Y2830709D03*
G54D26*
X2251969Y2808327D03*
X2236220D03*
X2220472D03*
X2204724D03*
G54D10*
X2934330Y590488D03*
X2969763D03*
G54D11*
X3076378Y590931D03*
G54D12*
X3103014Y532887D03*
X3059707D03*
G54D13*
X3014961Y581496D03*
Y559449D03*
G54D10*
X3015346Y606135D03*
Y649442D03*
G54D14*
X3067720Y650688D03*
X3089373D03*
G54D13*
X2823228Y652362D03*
Y630315D03*
G54D15*
X2993307Y680315D03*
Y755118D03*
G54D10*
X3032677Y465748D03*
Y422441D03*
G54D16*
X2954724Y511417D03*
X3029528D03*
G54D17*
X2989764Y452756D03*
X2974016D03*
X3005512D03*
X2989764Y468504D03*
X2990472Y437008D03*
X2989764Y421260D03*
X2974016D03*
Y437008D03*
X3005512D03*
Y421260D03*
Y468504D03*
X2974016D03*
G54D10*
X3123746Y477442D03*
Y434135D03*
G54D18*
X3098622Y462795D03*
X3084843D03*
X3098622Y449016D03*
X3084843D03*
X3098622Y435236D03*
X3084843D03*
X3098622Y421457D03*
X3084843D03*
G54D12*
X2992126Y551575D03*
X2948819D03*
G54D19*
X2811811Y423228D03*
X2789764D03*
G54D20*
X2878210Y582488D03*
X2898683D03*
X2891732Y432677D03*
X2871260D03*
X2948425Y436220D03*
X2927953D03*
G54D21*
X2892913Y752362D03*
Y665748D03*
G54D22*
X2795276Y596063D03*
Y655118D03*
G54D23*
X2806693Y688976D03*
Y724409D03*
X3054331Y748819D03*
Y713386D03*
G54D24*
X2874803Y538189D03*
Y517717D03*
G54D25*
X2788642Y468504D03*
Y484252D03*
Y500000D03*
Y515748D03*
G54D26*
X2795276Y538130D03*
X2811024D03*
X2826772D03*
X2842520D03*
G54D25*
X2849154Y515748D03*
Y500000D03*
Y484252D03*
Y468504D03*
G54D26*
X2842520Y446122D03*
X2826772D03*
X2811024D03*
X2795276D03*
G54D10*
X2934330Y1181039D03*
X2969763D03*
G54D11*
X3076378Y1181483D03*
G54D12*
X3103014Y1123438D03*
X3059707D03*
G54D13*
X3014961Y1172047D03*
Y1150000D03*
G54D10*
X3015346Y1196686D03*
Y1239993D03*
G54D14*
X3067720Y1241239D03*
X3089373D03*
G54D13*
X2823228Y1242913D03*
Y1220866D03*
G54D15*
X2993307Y1270866D03*
Y1345669D03*
G54D10*
X3032677Y1056299D03*
Y1012992D03*
G54D16*
X2954724Y1101969D03*
X3029528D03*
G54D17*
X2989764Y1043307D03*
X2974016D03*
X3005512D03*
X2989764Y1059055D03*
X2990472Y1027559D03*
X2989764Y1011811D03*
X2974016D03*
Y1027559D03*
X3005512D03*
Y1011811D03*
Y1059055D03*
X2974016D03*
G54D10*
X3123746Y1067993D03*
Y1024686D03*
G54D18*
X3098622Y1053346D03*
X3084843D03*
X3098622Y1039567D03*
X3084843D03*
X3098622Y1025787D03*
X3084843D03*
X3098622Y1012008D03*
X3084843D03*
G54D12*
X2992126Y1142126D03*
X2948819D03*
G54D19*
X2811811Y1013780D03*
X2789764D03*
G54D20*
X2878210Y1173039D03*
X2898683D03*
X2891732Y1023228D03*
X2871260D03*
X2948425Y1026772D03*
X2927953D03*
G54D21*
X2892913Y1342913D03*
Y1256299D03*
G54D22*
X2795276Y1186614D03*
Y1245669D03*
G54D23*
X2806693Y1279528D03*
Y1314961D03*
X3054331Y1339370D03*
Y1303937D03*
G54D24*
X2874803Y1128740D03*
Y1108268D03*
G54D25*
X2788642Y1059055D03*
Y1074803D03*
Y1090551D03*
Y1106299D03*
G54D26*
X2795276Y1128681D03*
X2811024D03*
X2826772D03*
X2842520D03*
G54D25*
X2849154Y1106299D03*
Y1090551D03*
Y1074803D03*
Y1059055D03*
G54D26*
X2842520Y1036673D03*
X2826772D03*
X2811024D03*
X2795276D03*
G54D10*
X2934330Y1771591D03*
X2969763D03*
G54D11*
X3076378Y1772034D03*
G54D12*
X3103014Y1713989D03*
X3059707D03*
G54D13*
X3014961Y1762598D03*
Y1740551D03*
G54D10*
X3015346Y1787237D03*
Y1830544D03*
G54D14*
X3067720Y1831791D03*
X3089373D03*
G54D13*
X2823228Y1833465D03*
Y1811417D03*
G54D15*
X2993307Y1861417D03*
Y1936220D03*
G54D10*
X3032677Y1646850D03*
Y1603543D03*
G54D16*
X2954724Y1692520D03*
X3029528D03*
G54D17*
X2989764Y1633858D03*
X2974016D03*
X3005512D03*
X2989764Y1649606D03*
X2990472Y1618110D03*
X2989764Y1602362D03*
X2974016D03*
Y1618110D03*
X3005512D03*
Y1602362D03*
Y1649606D03*
X2974016D03*
G54D10*
X3123746Y1658544D03*
Y1615237D03*
G54D18*
X3098622Y1643898D03*
X3084843D03*
X3098622Y1630118D03*
X3084843D03*
X3098622Y1616339D03*
X3084843D03*
X3098622Y1602559D03*
X3084843D03*
G54D12*
X2992126Y1732677D03*
X2948819D03*
G54D19*
X2811811Y1604331D03*
X2789764D03*
G54D20*
X2878210Y1763591D03*
X2898683D03*
X2891732Y1613780D03*
X2871260D03*
X2948425Y1617323D03*
X2927953D03*
G54D21*
X2892913Y1933465D03*
Y1846850D03*
G54D22*
X2795276Y1777165D03*
Y1836220D03*
G54D23*
X2806693Y1870079D03*
Y1905512D03*
X3054331Y1929921D03*
Y1894488D03*
G54D24*
X2874803Y1719291D03*
Y1698819D03*
G54D25*
X2788642Y1649606D03*
Y1665354D03*
Y1681102D03*
Y1696850D03*
G54D26*
X2795276Y1719232D03*
X2811024D03*
X2826772D03*
X2842520D03*
G54D25*
X2849154Y1696850D03*
Y1681102D03*
Y1665354D03*
Y1649606D03*
G54D26*
X2842520Y1627224D03*
X2826772D03*
X2811024D03*
X2795276D03*
G54D10*
X2934330Y2362142D03*
X2969763D03*
G54D11*
X3076378Y2362585D03*
G54D12*
X3103014Y2304540D03*
X3059707D03*
G54D13*
X3014961Y2353150D03*
Y2331102D03*
G54D10*
X3015346Y2377788D03*
Y2421095D03*
G54D14*
X3067720Y2422342D03*
X3089373D03*
G54D13*
X2823228Y2424016D03*
Y2401969D03*
G54D15*
X2993307Y2451969D03*
Y2526772D03*
G54D10*
X3032677Y2237402D03*
Y2194094D03*
G54D16*
X2954724Y2283071D03*
X3029528D03*
G54D17*
X2989764Y2224409D03*
X2974016D03*
X3005512D03*
X2989764Y2240157D03*
X2990472Y2208661D03*
X2989764Y2192913D03*
X2974016D03*
Y2208661D03*
X3005512D03*
Y2192913D03*
Y2240157D03*
X2974016D03*
G54D10*
X3123746Y2249095D03*
Y2205788D03*
G54D18*
X3098622Y2234449D03*
X3084843D03*
X3098622Y2220669D03*
X3084843D03*
X3098622Y2206890D03*
X3084843D03*
X3098622Y2193110D03*
X3084843D03*
G54D12*
X2992126Y2323228D03*
X2948819D03*
G54D19*
X2811811Y2194882D03*
X2789764D03*
G54D20*
X2878210Y2354142D03*
X2898683D03*
X2891732Y2204331D03*
X2871260D03*
X2948425Y2207874D03*
X2927953D03*
G54D21*
X2892913Y2524016D03*
Y2437402D03*
G54D22*
X2795276Y2367717D03*
Y2426772D03*
G54D23*
X2806693Y2460630D03*
Y2496063D03*
X3054331Y2520472D03*
Y2485039D03*
G54D24*
X2874803Y2309843D03*
Y2289370D03*
G54D25*
X2788642Y2240157D03*
Y2255906D03*
Y2271654D03*
Y2287402D03*
G54D26*
X2795276Y2309783D03*
X2811024D03*
X2826772D03*
X2842520D03*
G54D25*
X2849154Y2287402D03*
Y2271654D03*
Y2255906D03*
Y2240157D03*
G54D26*
X2842520Y2217776D03*
X2826772D03*
X2811024D03*
X2795276D03*
G54D10*
X2934330Y2952693D03*
X2969763D03*
G54D11*
X3076378Y2953136D03*
G54D12*
X3103014Y2895091D03*
X3059707D03*
G54D13*
X3014961Y2943701D03*
Y2921654D03*
G54D10*
X3015346Y2968339D03*
Y3011646D03*
G54D14*
X3067720Y3012893D03*
X3089373D03*
G54D13*
X2823228Y3014567D03*
Y2992520D03*
G54D15*
X2993307Y3042520D03*
Y3117323D03*
G54D10*
X3032677Y2827953D03*
Y2784646D03*
G54D16*
X2954724Y2873622D03*
X3029528D03*
G54D17*
X2989764Y2814961D03*
X2974016D03*
X3005512D03*
X2989764Y2830709D03*
X2990472Y2799213D03*
X2989764Y2783465D03*
X2974016D03*
Y2799213D03*
X3005512D03*
Y2783465D03*
Y2830709D03*
X2974016D03*
G54D10*
X3123746Y2839646D03*
Y2796339D03*
G54D18*
X3098622Y2825000D03*
X3084843D03*
X3098622Y2811220D03*
X3084843D03*
X3098622Y2797441D03*
X3084843D03*
X3098622Y2783661D03*
X3084843D03*
G54D12*
X2992126Y2913780D03*
X2948819D03*
G54D19*
X2811811Y2785433D03*
X2789764D03*
G54D20*
X2878210Y2944693D03*
X2898683D03*
X2891732Y2794882D03*
X2871260D03*
X2948425Y2798425D03*
X2927953D03*
G54D21*
X2892913Y3114567D03*
Y3027953D03*
G54D22*
X2795276Y2958268D03*
Y3017323D03*
G54D23*
X2806693Y3051181D03*
Y3086614D03*
X3054331Y3111024D03*
Y3075591D03*
G54D24*
X2874803Y2900394D03*
Y2879921D03*
G54D25*
X2788642Y2830709D03*
Y2846457D03*
Y2862205D03*
Y2877953D03*
G54D26*
X2795276Y2900335D03*
X2811024D03*
X2826772D03*
X2842520D03*
G54D25*
X2849154Y2877953D03*
Y2862205D03*
Y2846457D03*
Y2830709D03*
G54D26*
X2842520Y2808327D03*
X2826772D03*
X2811024D03*
X2795276D03*
G54D27*
X590551Y3346457D03*
G54D27*
X2952756D03*
G54D27*
Y196850D03*
G54D18*
X0Y0D02*
Y3543307D01*
X3543307D01*
Y0D01*
X0D01*
G54D28*
X2959367Y3671994D03*
M02*
