G04 #@! TF.FileFunction,Paste,Top*
%FSLAX46Y46*%
G04 Gerber Fmt 4.6, Leading zero omitted, Abs format (unit mm)*
G04 Created by KiCad (PCBNEW 4.0.7) date 03/09/18 11:46:11*
%MOMM*%
%LPD*%
G01*
G04 APERTURE LIST*
%ADD10C,0.100000*%
%ADD11C,0.010000*%
%ADD12R,0.250000X0.300000*%
%ADD13R,0.300000X0.250000*%
%ADD14R,0.500000X1.000000*%
%ADD15R,0.350000X0.300000*%
%ADD16R,0.930000X0.930000*%
%ADD17R,0.250000X0.600000*%
%ADD18R,0.600000X0.250000*%
%ADD19R,0.300000X0.350000*%
%ADD20R,0.500000X0.600000*%
%ADD21R,0.280000X0.430000*%
%ADD22R,0.430000X0.280000*%
%ADD23R,0.390000X0.110000*%
%ADD24R,0.240000X0.260000*%
%ADD25R,0.600000X0.500000*%
%ADD26R,0.550000X0.350000*%
%ADD27R,0.350000X0.550000*%
%ADD28C,5.000000*%
G04 APERTURE END LIST*
D10*
D11*
X-10000000Y134000000D02*
X-10000000Y-44000000D01*
X100000000Y134000000D02*
X-10000000Y134000000D01*
X100000000Y-44000000D02*
X100000000Y134000000D01*
X-10000000Y-44000000D02*
X100000000Y-44000000D01*
X-25000000Y-44000000D02*
X-24000000Y-44000000D01*
D12*
X46075000Y78020000D03*
X46625000Y78020000D03*
D13*
X49312680Y72058940D03*
X49312680Y72608940D03*
D14*
X48143000Y77009660D03*
D15*
X47271040Y76089660D03*
X47271040Y75529660D03*
D16*
X44906040Y73294660D03*
X43356040Y73294660D03*
X43356040Y74844660D03*
D17*
X42381040Y71669660D03*
X42881040Y71669660D03*
X43381040Y71669660D03*
X43881040Y71669660D03*
X44381040Y71669660D03*
X44881040Y71669660D03*
X45381040Y71669660D03*
X45881040Y71669660D03*
D18*
X46531040Y72319660D03*
X46531040Y72819660D03*
X46531040Y73319660D03*
X46531040Y73819660D03*
X46531040Y74319660D03*
X46531040Y74819660D03*
X46531040Y75319660D03*
X46531040Y75819660D03*
D17*
X45881040Y76469660D03*
X45381040Y76469660D03*
X44881040Y76469660D03*
X44381040Y76469660D03*
X43881040Y76469660D03*
X43381040Y76469660D03*
X42881040Y76469660D03*
X42381040Y76469660D03*
D18*
X41731040Y75819660D03*
X41731040Y75319660D03*
X41731040Y74819660D03*
X41731040Y74319660D03*
X41731040Y73819660D03*
X41731040Y73319660D03*
X41731040Y72819660D03*
X41731040Y72319660D03*
D16*
X44906040Y74844660D03*
D19*
X41091040Y75479660D03*
X40531040Y75479660D03*
X41081040Y74489660D03*
X40521040Y74489660D03*
D15*
X47241040Y72589660D03*
X47241040Y72029660D03*
D20*
X48748800Y72429280D03*
X48748800Y71329280D03*
D19*
X47748640Y73865560D03*
X47188640Y73865560D03*
X47579800Y73388040D03*
X48139800Y73388040D03*
D15*
X47197220Y71027740D03*
X47197220Y71587740D03*
D21*
X44210000Y70960000D03*
X44730000Y70960000D03*
X43760000Y70960000D03*
X43240000Y70960000D03*
D22*
X46729500Y70570260D03*
X46729500Y71090260D03*
D21*
X48710000Y73920000D03*
X48190000Y73920000D03*
D22*
X46152920Y70575340D03*
X46152920Y71095340D03*
D21*
X45660000Y70960000D03*
X45140000Y70960000D03*
D10*
G36*
X47231120Y78554674D02*
X47125054Y78660740D01*
X47274960Y78810646D01*
X47381026Y78704580D01*
X47231120Y78554674D01*
X47231120Y78554674D01*
G37*
D23*
X47186040Y78759660D03*
D24*
X47111040Y78684660D03*
X48191040Y78034660D03*
D23*
X48116040Y77959660D03*
D10*
G36*
X48070960Y78164646D02*
X48177026Y78058580D01*
X48027120Y77908674D01*
X47921054Y78014740D01*
X48070960Y78164646D01*
X48070960Y78164646D01*
G37*
G36*
X47382026Y78014740D02*
X47275960Y77908674D01*
X47126054Y78058580D01*
X47232120Y78164646D01*
X47382026Y78014740D01*
X47382026Y78014740D01*
G37*
D23*
X47187040Y77959660D03*
D24*
X47111040Y78034660D03*
D10*
G36*
X47651040Y78727356D02*
X48018736Y78359660D01*
X47651040Y77991964D01*
X47283344Y78359660D01*
X47651040Y78727356D01*
X47651040Y78727356D01*
G37*
D24*
X48191040Y78684660D03*
D23*
X48116040Y78759660D03*
D10*
G36*
X47921054Y78704580D02*
X48027120Y78810646D01*
X48177026Y78660740D01*
X48070960Y78554674D01*
X47921054Y78704580D01*
X47921054Y78704580D01*
G37*
D25*
X46950000Y79280000D03*
X48050000Y79280000D03*
D20*
X48780000Y78290000D03*
X48780000Y79390000D03*
D26*
X40685000Y79140000D03*
X40685000Y78640000D03*
X40685000Y78140000D03*
X40685000Y77640000D03*
D27*
X41360000Y77470000D03*
X41860000Y77470000D03*
X42360000Y77470000D03*
D26*
X43035000Y77640000D03*
X43035000Y78140000D03*
X43035000Y78640000D03*
X43035000Y79140000D03*
D27*
X42360000Y79310000D03*
X41860000Y79310000D03*
X41360000Y79310000D03*
D15*
X41020000Y76760000D03*
X41020000Y76200000D03*
D12*
X46075000Y78020000D03*
X46625000Y78020000D03*
D13*
X49312680Y72058940D03*
X49312680Y72608940D03*
D14*
X48143000Y77009660D03*
D15*
X47271040Y76089660D03*
X47271040Y75529660D03*
D16*
X44906040Y73294660D03*
X43356040Y73294660D03*
X43356040Y74844660D03*
D17*
X42381040Y71669660D03*
X42881040Y71669660D03*
X43381040Y71669660D03*
X43881040Y71669660D03*
X44381040Y71669660D03*
X44881040Y71669660D03*
X45381040Y71669660D03*
X45881040Y71669660D03*
D18*
X46531040Y72319660D03*
X46531040Y72819660D03*
X46531040Y73319660D03*
X46531040Y73819660D03*
X46531040Y74319660D03*
X46531040Y74819660D03*
X46531040Y75319660D03*
X46531040Y75819660D03*
D17*
X45881040Y76469660D03*
X45381040Y76469660D03*
X44881040Y76469660D03*
X44381040Y76469660D03*
X43881040Y76469660D03*
X43381040Y76469660D03*
X42881040Y76469660D03*
X42381040Y76469660D03*
D18*
X41731040Y75819660D03*
X41731040Y75319660D03*
X41731040Y74819660D03*
X41731040Y74319660D03*
X41731040Y73819660D03*
X41731040Y73319660D03*
X41731040Y72819660D03*
X41731040Y72319660D03*
D16*
X44906040Y74844660D03*
D19*
X41091040Y75479660D03*
X40531040Y75479660D03*
X41081040Y74489660D03*
X40521040Y74489660D03*
D15*
X47241040Y72589660D03*
X47241040Y72029660D03*
D20*
X48748800Y72429280D03*
X48748800Y71329280D03*
D19*
X47748640Y73865560D03*
X47188640Y73865560D03*
X47579800Y73388040D03*
X48139800Y73388040D03*
D15*
X47197220Y71027740D03*
X47197220Y71587740D03*
D21*
X44210000Y70960000D03*
X44730000Y70960000D03*
X43760000Y70960000D03*
X43240000Y70960000D03*
D22*
X46729500Y70570260D03*
X46729500Y71090260D03*
D21*
X48710000Y73920000D03*
X48190000Y73920000D03*
D22*
X46152920Y70575340D03*
X46152920Y71095340D03*
D21*
X45660000Y70960000D03*
X45140000Y70960000D03*
D10*
G36*
X47231120Y78554674D02*
X47125054Y78660740D01*
X47274960Y78810646D01*
X47381026Y78704580D01*
X47231120Y78554674D01*
X47231120Y78554674D01*
G37*
D23*
X47186040Y78759660D03*
D24*
X47111040Y78684660D03*
X48191040Y78034660D03*
D23*
X48116040Y77959660D03*
D10*
G36*
X48070960Y78164646D02*
X48177026Y78058580D01*
X48027120Y77908674D01*
X47921054Y78014740D01*
X48070960Y78164646D01*
X48070960Y78164646D01*
G37*
G36*
X47382026Y78014740D02*
X47275960Y77908674D01*
X47126054Y78058580D01*
X47232120Y78164646D01*
X47382026Y78014740D01*
X47382026Y78014740D01*
G37*
D23*
X47187040Y77959660D03*
D24*
X47111040Y78034660D03*
D10*
G36*
X47651040Y78727356D02*
X48018736Y78359660D01*
X47651040Y77991964D01*
X47283344Y78359660D01*
X47651040Y78727356D01*
X47651040Y78727356D01*
G37*
D24*
X48191040Y78684660D03*
D23*
X48116040Y78759660D03*
D10*
G36*
X47921054Y78704580D02*
X48027120Y78810646D01*
X48177026Y78660740D01*
X48070960Y78554674D01*
X47921054Y78704580D01*
X47921054Y78704580D01*
G37*
D25*
X46950000Y79280000D03*
X48050000Y79280000D03*
D20*
X48780000Y78290000D03*
X48780000Y79390000D03*
D26*
X40685000Y79140000D03*
X40685000Y78640000D03*
X40685000Y78140000D03*
X40685000Y77640000D03*
D27*
X41360000Y77470000D03*
X41860000Y77470000D03*
X42360000Y77470000D03*
D26*
X43035000Y77640000D03*
X43035000Y78140000D03*
X43035000Y78640000D03*
X43035000Y79140000D03*
D27*
X42360000Y79310000D03*
X41860000Y79310000D03*
X41360000Y79310000D03*
D15*
X41020000Y76760000D03*
X41020000Y76200000D03*
X26020000Y76760000D03*
X26020000Y76200000D03*
D26*
X25685000Y79140000D03*
X25685000Y78640000D03*
X25685000Y78140000D03*
X25685000Y77640000D03*
D27*
X26360000Y77470000D03*
X26860000Y77470000D03*
X27360000Y77470000D03*
D26*
X28035000Y77640000D03*
X28035000Y78140000D03*
X28035000Y78640000D03*
X28035000Y79140000D03*
D27*
X27360000Y79310000D03*
X26860000Y79310000D03*
X26360000Y79310000D03*
D20*
X33780000Y78290000D03*
X33780000Y79390000D03*
D25*
X31950000Y79280000D03*
X33050000Y79280000D03*
D10*
G36*
X32231120Y78554674D02*
X32125054Y78660740D01*
X32274960Y78810646D01*
X32381026Y78704580D01*
X32231120Y78554674D01*
X32231120Y78554674D01*
G37*
D23*
X32186040Y78759660D03*
D24*
X32111040Y78684660D03*
X33191040Y78034660D03*
D23*
X33116040Y77959660D03*
D10*
G36*
X33070960Y78164646D02*
X33177026Y78058580D01*
X33027120Y77908674D01*
X32921054Y78014740D01*
X33070960Y78164646D01*
X33070960Y78164646D01*
G37*
G36*
X32382026Y78014740D02*
X32275960Y77908674D01*
X32126054Y78058580D01*
X32232120Y78164646D01*
X32382026Y78014740D01*
X32382026Y78014740D01*
G37*
D23*
X32187040Y77959660D03*
D24*
X32111040Y78034660D03*
D10*
G36*
X32651040Y78727356D02*
X33018736Y78359660D01*
X32651040Y77991964D01*
X32283344Y78359660D01*
X32651040Y78727356D01*
X32651040Y78727356D01*
G37*
D24*
X33191040Y78684660D03*
D23*
X33116040Y78759660D03*
D10*
G36*
X32921054Y78704580D02*
X33027120Y78810646D01*
X33177026Y78660740D01*
X33070960Y78554674D01*
X32921054Y78704580D01*
X32921054Y78704580D01*
G37*
D21*
X30660000Y70960000D03*
X30140000Y70960000D03*
D22*
X31152920Y70575340D03*
X31152920Y71095340D03*
D21*
X33710000Y73920000D03*
X33190000Y73920000D03*
D22*
X31729500Y70570260D03*
X31729500Y71090260D03*
D21*
X28760000Y70960000D03*
X28240000Y70960000D03*
X29210000Y70960000D03*
X29730000Y70960000D03*
D15*
X32197220Y71027740D03*
X32197220Y71587740D03*
D19*
X32579800Y73388040D03*
X33139800Y73388040D03*
X32748640Y73865560D03*
X32188640Y73865560D03*
D20*
X33748800Y72429280D03*
X33748800Y71329280D03*
D15*
X32241040Y72589660D03*
X32241040Y72029660D03*
D19*
X26081040Y74489660D03*
X25521040Y74489660D03*
X26091040Y75479660D03*
X25531040Y75479660D03*
D16*
X29906040Y73294660D03*
X28356040Y73294660D03*
X28356040Y74844660D03*
D17*
X27381040Y71669660D03*
X27881040Y71669660D03*
X28381040Y71669660D03*
X28881040Y71669660D03*
X29381040Y71669660D03*
X29881040Y71669660D03*
X30381040Y71669660D03*
X30881040Y71669660D03*
D18*
X31531040Y72319660D03*
X31531040Y72819660D03*
X31531040Y73319660D03*
X31531040Y73819660D03*
X31531040Y74319660D03*
X31531040Y74819660D03*
X31531040Y75319660D03*
X31531040Y75819660D03*
D17*
X30881040Y76469660D03*
X30381040Y76469660D03*
X29881040Y76469660D03*
X29381040Y76469660D03*
X28881040Y76469660D03*
X28381040Y76469660D03*
X27881040Y76469660D03*
X27381040Y76469660D03*
D18*
X26731040Y75819660D03*
X26731040Y75319660D03*
X26731040Y74819660D03*
X26731040Y74319660D03*
X26731040Y73819660D03*
X26731040Y73319660D03*
X26731040Y72819660D03*
X26731040Y72319660D03*
D16*
X29906040Y74844660D03*
D15*
X32271040Y76089660D03*
X32271040Y75529660D03*
D14*
X33143000Y77009660D03*
D13*
X34312680Y72058940D03*
X34312680Y72608940D03*
D12*
X31075000Y78020000D03*
X31625000Y78020000D03*
D28*
X5000000Y115000000D03*
X85000000Y115000000D03*
X85000000Y-25000000D03*
X5000000Y-25000000D03*
D12*
X76075000Y18020000D03*
X76625000Y18020000D03*
D13*
X79312680Y12058940D03*
X79312680Y12608940D03*
D14*
X78143000Y17009660D03*
D15*
X77271040Y16089660D03*
X77271040Y15529660D03*
D16*
X74906040Y13294660D03*
X73356040Y13294660D03*
X73356040Y14844660D03*
D17*
X72381040Y11669660D03*
X72881040Y11669660D03*
X73381040Y11669660D03*
X73881040Y11669660D03*
X74381040Y11669660D03*
X74881040Y11669660D03*
X75381040Y11669660D03*
X75881040Y11669660D03*
D18*
X76531040Y12319660D03*
X76531040Y12819660D03*
X76531040Y13319660D03*
X76531040Y13819660D03*
X76531040Y14319660D03*
X76531040Y14819660D03*
X76531040Y15319660D03*
X76531040Y15819660D03*
D17*
X75881040Y16469660D03*
X75381040Y16469660D03*
X74881040Y16469660D03*
X74381040Y16469660D03*
X73881040Y16469660D03*
X73381040Y16469660D03*
X72881040Y16469660D03*
X72381040Y16469660D03*
D18*
X71731040Y15819660D03*
X71731040Y15319660D03*
X71731040Y14819660D03*
X71731040Y14319660D03*
X71731040Y13819660D03*
X71731040Y13319660D03*
X71731040Y12819660D03*
X71731040Y12319660D03*
D16*
X74906040Y14844660D03*
D19*
X71091040Y15479660D03*
X70531040Y15479660D03*
X71081040Y14489660D03*
X70521040Y14489660D03*
D15*
X77241040Y12589660D03*
X77241040Y12029660D03*
D20*
X78748800Y12429280D03*
X78748800Y11329280D03*
D19*
X77748640Y13865560D03*
X77188640Y13865560D03*
X77579800Y13388040D03*
X78139800Y13388040D03*
D15*
X77197220Y11027740D03*
X77197220Y11587740D03*
D21*
X74210000Y10960000D03*
X74730000Y10960000D03*
X73760000Y10960000D03*
X73240000Y10960000D03*
D22*
X76729500Y10570260D03*
X76729500Y11090260D03*
D21*
X78710000Y13920000D03*
X78190000Y13920000D03*
D22*
X76152920Y10575340D03*
X76152920Y11095340D03*
D21*
X75660000Y10960000D03*
X75140000Y10960000D03*
D10*
G36*
X77231120Y18554674D02*
X77125054Y18660740D01*
X77274960Y18810646D01*
X77381026Y18704580D01*
X77231120Y18554674D01*
X77231120Y18554674D01*
G37*
D23*
X77186040Y18759660D03*
D24*
X77111040Y18684660D03*
X78191040Y18034660D03*
D23*
X78116040Y17959660D03*
D10*
G36*
X78070960Y18164646D02*
X78177026Y18058580D01*
X78027120Y17908674D01*
X77921054Y18014740D01*
X78070960Y18164646D01*
X78070960Y18164646D01*
G37*
G36*
X77382026Y18014740D02*
X77275960Y17908674D01*
X77126054Y18058580D01*
X77232120Y18164646D01*
X77382026Y18014740D01*
X77382026Y18014740D01*
G37*
D23*
X77187040Y17959660D03*
D24*
X77111040Y18034660D03*
D10*
G36*
X77651040Y18727356D02*
X78018736Y18359660D01*
X77651040Y17991964D01*
X77283344Y18359660D01*
X77651040Y18727356D01*
X77651040Y18727356D01*
G37*
D24*
X78191040Y18684660D03*
D23*
X78116040Y18759660D03*
D10*
G36*
X77921054Y18704580D02*
X78027120Y18810646D01*
X78177026Y18660740D01*
X78070960Y18554674D01*
X77921054Y18704580D01*
X77921054Y18704580D01*
G37*
D25*
X76950000Y19280000D03*
X78050000Y19280000D03*
D20*
X78780000Y18290000D03*
X78780000Y19390000D03*
D26*
X70685000Y19140000D03*
X70685000Y18640000D03*
X70685000Y18140000D03*
X70685000Y17640000D03*
D27*
X71360000Y17470000D03*
X71860000Y17470000D03*
X72360000Y17470000D03*
D26*
X73035000Y17640000D03*
X73035000Y18140000D03*
X73035000Y18640000D03*
X73035000Y19140000D03*
D27*
X72360000Y19310000D03*
X71860000Y19310000D03*
X71360000Y19310000D03*
D15*
X71020000Y16760000D03*
X71020000Y16200000D03*
X56020000Y16760000D03*
X56020000Y16200000D03*
D26*
X55685000Y19140000D03*
X55685000Y18640000D03*
X55685000Y18140000D03*
X55685000Y17640000D03*
D27*
X56360000Y17470000D03*
X56860000Y17470000D03*
X57360000Y17470000D03*
D26*
X58035000Y17640000D03*
X58035000Y18140000D03*
X58035000Y18640000D03*
X58035000Y19140000D03*
D27*
X57360000Y19310000D03*
X56860000Y19310000D03*
X56360000Y19310000D03*
D20*
X63780000Y18290000D03*
X63780000Y19390000D03*
D25*
X61950000Y19280000D03*
X63050000Y19280000D03*
D10*
G36*
X62231120Y18554674D02*
X62125054Y18660740D01*
X62274960Y18810646D01*
X62381026Y18704580D01*
X62231120Y18554674D01*
X62231120Y18554674D01*
G37*
D23*
X62186040Y18759660D03*
D24*
X62111040Y18684660D03*
X63191040Y18034660D03*
D23*
X63116040Y17959660D03*
D10*
G36*
X63070960Y18164646D02*
X63177026Y18058580D01*
X63027120Y17908674D01*
X62921054Y18014740D01*
X63070960Y18164646D01*
X63070960Y18164646D01*
G37*
G36*
X62382026Y18014740D02*
X62275960Y17908674D01*
X62126054Y18058580D01*
X62232120Y18164646D01*
X62382026Y18014740D01*
X62382026Y18014740D01*
G37*
D23*
X62187040Y17959660D03*
D24*
X62111040Y18034660D03*
D10*
G36*
X62651040Y18727356D02*
X63018736Y18359660D01*
X62651040Y17991964D01*
X62283344Y18359660D01*
X62651040Y18727356D01*
X62651040Y18727356D01*
G37*
D24*
X63191040Y18684660D03*
D23*
X63116040Y18759660D03*
D10*
G36*
X62921054Y18704580D02*
X63027120Y18810646D01*
X63177026Y18660740D01*
X63070960Y18554674D01*
X62921054Y18704580D01*
X62921054Y18704580D01*
G37*
D21*
X60660000Y10960000D03*
X60140000Y10960000D03*
D22*
X61152920Y10575340D03*
X61152920Y11095340D03*
D21*
X63710000Y13920000D03*
X63190000Y13920000D03*
D22*
X61729500Y10570260D03*
X61729500Y11090260D03*
D21*
X58760000Y10960000D03*
X58240000Y10960000D03*
X59210000Y10960000D03*
X59730000Y10960000D03*
D15*
X62197220Y11027740D03*
X62197220Y11587740D03*
D19*
X62579800Y13388040D03*
X63139800Y13388040D03*
X62748640Y13865560D03*
X62188640Y13865560D03*
D20*
X63748800Y12429280D03*
X63748800Y11329280D03*
D15*
X62241040Y12589660D03*
X62241040Y12029660D03*
D19*
X56081040Y14489660D03*
X55521040Y14489660D03*
X56091040Y15479660D03*
X55531040Y15479660D03*
D16*
X59906040Y13294660D03*
X58356040Y13294660D03*
X58356040Y14844660D03*
D17*
X57381040Y11669660D03*
X57881040Y11669660D03*
X58381040Y11669660D03*
X58881040Y11669660D03*
X59381040Y11669660D03*
X59881040Y11669660D03*
X60381040Y11669660D03*
X60881040Y11669660D03*
D18*
X61531040Y12319660D03*
X61531040Y12819660D03*
X61531040Y13319660D03*
X61531040Y13819660D03*
X61531040Y14319660D03*
X61531040Y14819660D03*
X61531040Y15319660D03*
X61531040Y15819660D03*
D17*
X60881040Y16469660D03*
X60381040Y16469660D03*
X59881040Y16469660D03*
X59381040Y16469660D03*
X58881040Y16469660D03*
X58381040Y16469660D03*
X57881040Y16469660D03*
X57381040Y16469660D03*
D18*
X56731040Y15819660D03*
X56731040Y15319660D03*
X56731040Y14819660D03*
X56731040Y14319660D03*
X56731040Y13819660D03*
X56731040Y13319660D03*
X56731040Y12819660D03*
X56731040Y12319660D03*
D16*
X59906040Y14844660D03*
D15*
X62271040Y16089660D03*
X62271040Y15529660D03*
D14*
X63143000Y17009660D03*
D13*
X64312680Y12058940D03*
X64312680Y12608940D03*
D12*
X61075000Y18020000D03*
X61625000Y18020000D03*
X46075000Y18020000D03*
X46625000Y18020000D03*
D13*
X49312680Y12058940D03*
X49312680Y12608940D03*
D14*
X48143000Y17009660D03*
D15*
X47271040Y16089660D03*
X47271040Y15529660D03*
D16*
X44906040Y13294660D03*
X43356040Y13294660D03*
X43356040Y14844660D03*
D17*
X42381040Y11669660D03*
X42881040Y11669660D03*
X43381040Y11669660D03*
X43881040Y11669660D03*
X44381040Y11669660D03*
X44881040Y11669660D03*
X45381040Y11669660D03*
X45881040Y11669660D03*
D18*
X46531040Y12319660D03*
X46531040Y12819660D03*
X46531040Y13319660D03*
X46531040Y13819660D03*
X46531040Y14319660D03*
X46531040Y14819660D03*
X46531040Y15319660D03*
X46531040Y15819660D03*
D17*
X45881040Y16469660D03*
X45381040Y16469660D03*
X44881040Y16469660D03*
X44381040Y16469660D03*
X43881040Y16469660D03*
X43381040Y16469660D03*
X42881040Y16469660D03*
X42381040Y16469660D03*
D18*
X41731040Y15819660D03*
X41731040Y15319660D03*
X41731040Y14819660D03*
X41731040Y14319660D03*
X41731040Y13819660D03*
X41731040Y13319660D03*
X41731040Y12819660D03*
X41731040Y12319660D03*
D16*
X44906040Y14844660D03*
D19*
X41091040Y15479660D03*
X40531040Y15479660D03*
X41081040Y14489660D03*
X40521040Y14489660D03*
D15*
X47241040Y12589660D03*
X47241040Y12029660D03*
D20*
X48748800Y12429280D03*
X48748800Y11329280D03*
D19*
X47748640Y13865560D03*
X47188640Y13865560D03*
X47579800Y13388040D03*
X48139800Y13388040D03*
D15*
X47197220Y11027740D03*
X47197220Y11587740D03*
D21*
X44210000Y10960000D03*
X44730000Y10960000D03*
X43760000Y10960000D03*
X43240000Y10960000D03*
D22*
X46729500Y10570260D03*
X46729500Y11090260D03*
D21*
X48710000Y13920000D03*
X48190000Y13920000D03*
D22*
X46152920Y10575340D03*
X46152920Y11095340D03*
D21*
X45660000Y10960000D03*
X45140000Y10960000D03*
D10*
G36*
X47231120Y18554674D02*
X47125054Y18660740D01*
X47274960Y18810646D01*
X47381026Y18704580D01*
X47231120Y18554674D01*
X47231120Y18554674D01*
G37*
D23*
X47186040Y18759660D03*
D24*
X47111040Y18684660D03*
X48191040Y18034660D03*
D23*
X48116040Y17959660D03*
D10*
G36*
X48070960Y18164646D02*
X48177026Y18058580D01*
X48027120Y17908674D01*
X47921054Y18014740D01*
X48070960Y18164646D01*
X48070960Y18164646D01*
G37*
G36*
X47382026Y18014740D02*
X47275960Y17908674D01*
X47126054Y18058580D01*
X47232120Y18164646D01*
X47382026Y18014740D01*
X47382026Y18014740D01*
G37*
D23*
X47187040Y17959660D03*
D24*
X47111040Y18034660D03*
D10*
G36*
X47651040Y18727356D02*
X48018736Y18359660D01*
X47651040Y17991964D01*
X47283344Y18359660D01*
X47651040Y18727356D01*
X47651040Y18727356D01*
G37*
D24*
X48191040Y18684660D03*
D23*
X48116040Y18759660D03*
D10*
G36*
X47921054Y18704580D02*
X48027120Y18810646D01*
X48177026Y18660740D01*
X48070960Y18554674D01*
X47921054Y18704580D01*
X47921054Y18704580D01*
G37*
D25*
X46950000Y19280000D03*
X48050000Y19280000D03*
D20*
X48780000Y18290000D03*
X48780000Y19390000D03*
D26*
X40685000Y19140000D03*
X40685000Y18640000D03*
X40685000Y18140000D03*
X40685000Y17640000D03*
D27*
X41360000Y17470000D03*
X41860000Y17470000D03*
X42360000Y17470000D03*
D26*
X43035000Y17640000D03*
X43035000Y18140000D03*
X43035000Y18640000D03*
X43035000Y19140000D03*
D27*
X42360000Y19310000D03*
X41860000Y19310000D03*
X41360000Y19310000D03*
D15*
X41020000Y16760000D03*
X41020000Y16200000D03*
X26020000Y16760000D03*
X26020000Y16200000D03*
D26*
X25685000Y19140000D03*
X25685000Y18640000D03*
X25685000Y18140000D03*
X25685000Y17640000D03*
D27*
X26360000Y17470000D03*
X26860000Y17470000D03*
X27360000Y17470000D03*
D26*
X28035000Y17640000D03*
X28035000Y18140000D03*
X28035000Y18640000D03*
X28035000Y19140000D03*
D27*
X27360000Y19310000D03*
X26860000Y19310000D03*
X26360000Y19310000D03*
D20*
X33780000Y18290000D03*
X33780000Y19390000D03*
D25*
X31950000Y19280000D03*
X33050000Y19280000D03*
D10*
G36*
X32231120Y18554674D02*
X32125054Y18660740D01*
X32274960Y18810646D01*
X32381026Y18704580D01*
X32231120Y18554674D01*
X32231120Y18554674D01*
G37*
D23*
X32186040Y18759660D03*
D24*
X32111040Y18684660D03*
X33191040Y18034660D03*
D23*
X33116040Y17959660D03*
D10*
G36*
X33070960Y18164646D02*
X33177026Y18058580D01*
X33027120Y17908674D01*
X32921054Y18014740D01*
X33070960Y18164646D01*
X33070960Y18164646D01*
G37*
G36*
X32382026Y18014740D02*
X32275960Y17908674D01*
X32126054Y18058580D01*
X32232120Y18164646D01*
X32382026Y18014740D01*
X32382026Y18014740D01*
G37*
D23*
X32187040Y17959660D03*
D24*
X32111040Y18034660D03*
D10*
G36*
X32651040Y18727356D02*
X33018736Y18359660D01*
X32651040Y17991964D01*
X32283344Y18359660D01*
X32651040Y18727356D01*
X32651040Y18727356D01*
G37*
D24*
X33191040Y18684660D03*
D23*
X33116040Y18759660D03*
D10*
G36*
X32921054Y18704580D02*
X33027120Y18810646D01*
X33177026Y18660740D01*
X33070960Y18554674D01*
X32921054Y18704580D01*
X32921054Y18704580D01*
G37*
D21*
X30660000Y10960000D03*
X30140000Y10960000D03*
D22*
X31152920Y10575340D03*
X31152920Y11095340D03*
D21*
X33710000Y13920000D03*
X33190000Y13920000D03*
D22*
X31729500Y10570260D03*
X31729500Y11090260D03*
D21*
X28760000Y10960000D03*
X28240000Y10960000D03*
X29210000Y10960000D03*
X29730000Y10960000D03*
D15*
X32197220Y11027740D03*
X32197220Y11587740D03*
D19*
X32579800Y13388040D03*
X33139800Y13388040D03*
X32748640Y13865560D03*
X32188640Y13865560D03*
D20*
X33748800Y12429280D03*
X33748800Y11329280D03*
D15*
X32241040Y12589660D03*
X32241040Y12029660D03*
D19*
X26081040Y14489660D03*
X25521040Y14489660D03*
X26091040Y15479660D03*
X25531040Y15479660D03*
D16*
X29906040Y13294660D03*
X28356040Y13294660D03*
X28356040Y14844660D03*
D17*
X27381040Y11669660D03*
X27881040Y11669660D03*
X28381040Y11669660D03*
X28881040Y11669660D03*
X29381040Y11669660D03*
X29881040Y11669660D03*
X30381040Y11669660D03*
X30881040Y11669660D03*
D18*
X31531040Y12319660D03*
X31531040Y12819660D03*
X31531040Y13319660D03*
X31531040Y13819660D03*
X31531040Y14319660D03*
X31531040Y14819660D03*
X31531040Y15319660D03*
X31531040Y15819660D03*
D17*
X30881040Y16469660D03*
X30381040Y16469660D03*
X29881040Y16469660D03*
X29381040Y16469660D03*
X28881040Y16469660D03*
X28381040Y16469660D03*
X27881040Y16469660D03*
X27381040Y16469660D03*
D18*
X26731040Y15819660D03*
X26731040Y15319660D03*
X26731040Y14819660D03*
X26731040Y14319660D03*
X26731040Y13819660D03*
X26731040Y13319660D03*
X26731040Y12819660D03*
X26731040Y12319660D03*
D16*
X29906040Y14844660D03*
D15*
X32271040Y16089660D03*
X32271040Y15529660D03*
D14*
X33143000Y17009660D03*
D13*
X34312680Y12058940D03*
X34312680Y12608940D03*
D12*
X31075000Y18020000D03*
X31625000Y18020000D03*
X16075000Y18020000D03*
X16625000Y18020000D03*
D13*
X19312680Y12058940D03*
X19312680Y12608940D03*
D14*
X18143000Y17009660D03*
D15*
X17271040Y16089660D03*
X17271040Y15529660D03*
D16*
X14906040Y13294660D03*
X13356040Y13294660D03*
X13356040Y14844660D03*
D17*
X12381040Y11669660D03*
X12881040Y11669660D03*
X13381040Y11669660D03*
X13881040Y11669660D03*
X14381040Y11669660D03*
X14881040Y11669660D03*
X15381040Y11669660D03*
X15881040Y11669660D03*
D18*
X16531040Y12319660D03*
X16531040Y12819660D03*
X16531040Y13319660D03*
X16531040Y13819660D03*
X16531040Y14319660D03*
X16531040Y14819660D03*
X16531040Y15319660D03*
X16531040Y15819660D03*
D17*
X15881040Y16469660D03*
X15381040Y16469660D03*
X14881040Y16469660D03*
X14381040Y16469660D03*
X13881040Y16469660D03*
X13381040Y16469660D03*
X12881040Y16469660D03*
X12381040Y16469660D03*
D18*
X11731040Y15819660D03*
X11731040Y15319660D03*
X11731040Y14819660D03*
X11731040Y14319660D03*
X11731040Y13819660D03*
X11731040Y13319660D03*
X11731040Y12819660D03*
X11731040Y12319660D03*
D16*
X14906040Y14844660D03*
D19*
X11091040Y15479660D03*
X10531040Y15479660D03*
X11081040Y14489660D03*
X10521040Y14489660D03*
D15*
X17241040Y12589660D03*
X17241040Y12029660D03*
D20*
X18748800Y12429280D03*
X18748800Y11329280D03*
D19*
X17748640Y13865560D03*
X17188640Y13865560D03*
X17579800Y13388040D03*
X18139800Y13388040D03*
D15*
X17197220Y11027740D03*
X17197220Y11587740D03*
D21*
X14210000Y10960000D03*
X14730000Y10960000D03*
X13760000Y10960000D03*
X13240000Y10960000D03*
D22*
X16729500Y10570260D03*
X16729500Y11090260D03*
D21*
X18710000Y13920000D03*
X18190000Y13920000D03*
D22*
X16152920Y10575340D03*
X16152920Y11095340D03*
D21*
X15660000Y10960000D03*
X15140000Y10960000D03*
D10*
G36*
X17231120Y18554674D02*
X17125054Y18660740D01*
X17274960Y18810646D01*
X17381026Y18704580D01*
X17231120Y18554674D01*
X17231120Y18554674D01*
G37*
D23*
X17186040Y18759660D03*
D24*
X17111040Y18684660D03*
X18191040Y18034660D03*
D23*
X18116040Y17959660D03*
D10*
G36*
X18070960Y18164646D02*
X18177026Y18058580D01*
X18027120Y17908674D01*
X17921054Y18014740D01*
X18070960Y18164646D01*
X18070960Y18164646D01*
G37*
G36*
X17382026Y18014740D02*
X17275960Y17908674D01*
X17126054Y18058580D01*
X17232120Y18164646D01*
X17382026Y18014740D01*
X17382026Y18014740D01*
G37*
D23*
X17187040Y17959660D03*
D24*
X17111040Y18034660D03*
D10*
G36*
X17651040Y18727356D02*
X18018736Y18359660D01*
X17651040Y17991964D01*
X17283344Y18359660D01*
X17651040Y18727356D01*
X17651040Y18727356D01*
G37*
D24*
X18191040Y18684660D03*
D23*
X18116040Y18759660D03*
D10*
G36*
X17921054Y18704580D02*
X18027120Y18810646D01*
X18177026Y18660740D01*
X18070960Y18554674D01*
X17921054Y18704580D01*
X17921054Y18704580D01*
G37*
D25*
X16950000Y19280000D03*
X18050000Y19280000D03*
D20*
X18780000Y18290000D03*
X18780000Y19390000D03*
D26*
X10685000Y19140000D03*
X10685000Y18640000D03*
X10685000Y18140000D03*
X10685000Y17640000D03*
D27*
X11360000Y17470000D03*
X11860000Y17470000D03*
X12360000Y17470000D03*
D26*
X13035000Y17640000D03*
X13035000Y18140000D03*
X13035000Y18640000D03*
X13035000Y19140000D03*
D27*
X12360000Y19310000D03*
X11860000Y19310000D03*
X11360000Y19310000D03*
D15*
X11020000Y16760000D03*
X11020000Y16200000D03*
X11020000Y31760000D03*
X11020000Y31200000D03*
D26*
X10685000Y34140000D03*
X10685000Y33640000D03*
X10685000Y33140000D03*
X10685000Y32640000D03*
D27*
X11360000Y32470000D03*
X11860000Y32470000D03*
X12360000Y32470000D03*
D26*
X13035000Y32640000D03*
X13035000Y33140000D03*
X13035000Y33640000D03*
X13035000Y34140000D03*
D27*
X12360000Y34310000D03*
X11860000Y34310000D03*
X11360000Y34310000D03*
D20*
X18780000Y33290000D03*
X18780000Y34390000D03*
D25*
X16950000Y34280000D03*
X18050000Y34280000D03*
D10*
G36*
X17231120Y33554674D02*
X17125054Y33660740D01*
X17274960Y33810646D01*
X17381026Y33704580D01*
X17231120Y33554674D01*
X17231120Y33554674D01*
G37*
D23*
X17186040Y33759660D03*
D24*
X17111040Y33684660D03*
X18191040Y33034660D03*
D23*
X18116040Y32959660D03*
D10*
G36*
X18070960Y33164646D02*
X18177026Y33058580D01*
X18027120Y32908674D01*
X17921054Y33014740D01*
X18070960Y33164646D01*
X18070960Y33164646D01*
G37*
G36*
X17382026Y33014740D02*
X17275960Y32908674D01*
X17126054Y33058580D01*
X17232120Y33164646D01*
X17382026Y33014740D01*
X17382026Y33014740D01*
G37*
D23*
X17187040Y32959660D03*
D24*
X17111040Y33034660D03*
D10*
G36*
X17651040Y33727356D02*
X18018736Y33359660D01*
X17651040Y32991964D01*
X17283344Y33359660D01*
X17651040Y33727356D01*
X17651040Y33727356D01*
G37*
D24*
X18191040Y33684660D03*
D23*
X18116040Y33759660D03*
D10*
G36*
X17921054Y33704580D02*
X18027120Y33810646D01*
X18177026Y33660740D01*
X18070960Y33554674D01*
X17921054Y33704580D01*
X17921054Y33704580D01*
G37*
D21*
X15660000Y25960000D03*
X15140000Y25960000D03*
D22*
X16152920Y25575340D03*
X16152920Y26095340D03*
D21*
X18710000Y28920000D03*
X18190000Y28920000D03*
D22*
X16729500Y25570260D03*
X16729500Y26090260D03*
D21*
X13760000Y25960000D03*
X13240000Y25960000D03*
X14210000Y25960000D03*
X14730000Y25960000D03*
D15*
X17197220Y26027740D03*
X17197220Y26587740D03*
D19*
X17579800Y28388040D03*
X18139800Y28388040D03*
X17748640Y28865560D03*
X17188640Y28865560D03*
D20*
X18748800Y27429280D03*
X18748800Y26329280D03*
D15*
X17241040Y27589660D03*
X17241040Y27029660D03*
D19*
X11081040Y29489660D03*
X10521040Y29489660D03*
X11091040Y30479660D03*
X10531040Y30479660D03*
D16*
X14906040Y28294660D03*
X13356040Y28294660D03*
X13356040Y29844660D03*
D17*
X12381040Y26669660D03*
X12881040Y26669660D03*
X13381040Y26669660D03*
X13881040Y26669660D03*
X14381040Y26669660D03*
X14881040Y26669660D03*
X15381040Y26669660D03*
X15881040Y26669660D03*
D18*
X16531040Y27319660D03*
X16531040Y27819660D03*
X16531040Y28319660D03*
X16531040Y28819660D03*
X16531040Y29319660D03*
X16531040Y29819660D03*
X16531040Y30319660D03*
X16531040Y30819660D03*
D17*
X15881040Y31469660D03*
X15381040Y31469660D03*
X14881040Y31469660D03*
X14381040Y31469660D03*
X13881040Y31469660D03*
X13381040Y31469660D03*
X12881040Y31469660D03*
X12381040Y31469660D03*
D18*
X11731040Y30819660D03*
X11731040Y30319660D03*
X11731040Y29819660D03*
X11731040Y29319660D03*
X11731040Y28819660D03*
X11731040Y28319660D03*
X11731040Y27819660D03*
X11731040Y27319660D03*
D16*
X14906040Y29844660D03*
D15*
X17271040Y31089660D03*
X17271040Y30529660D03*
D14*
X18143000Y32009660D03*
D13*
X19312680Y27058940D03*
X19312680Y27608940D03*
D12*
X16075000Y33020000D03*
X16625000Y33020000D03*
X31075000Y33020000D03*
X31625000Y33020000D03*
D13*
X34312680Y27058940D03*
X34312680Y27608940D03*
D14*
X33143000Y32009660D03*
D15*
X32271040Y31089660D03*
X32271040Y30529660D03*
D16*
X29906040Y28294660D03*
X28356040Y28294660D03*
X28356040Y29844660D03*
D17*
X27381040Y26669660D03*
X27881040Y26669660D03*
X28381040Y26669660D03*
X28881040Y26669660D03*
X29381040Y26669660D03*
X29881040Y26669660D03*
X30381040Y26669660D03*
X30881040Y26669660D03*
D18*
X31531040Y27319660D03*
X31531040Y27819660D03*
X31531040Y28319660D03*
X31531040Y28819660D03*
X31531040Y29319660D03*
X31531040Y29819660D03*
X31531040Y30319660D03*
X31531040Y30819660D03*
D17*
X30881040Y31469660D03*
X30381040Y31469660D03*
X29881040Y31469660D03*
X29381040Y31469660D03*
X28881040Y31469660D03*
X28381040Y31469660D03*
X27881040Y31469660D03*
X27381040Y31469660D03*
D18*
X26731040Y30819660D03*
X26731040Y30319660D03*
X26731040Y29819660D03*
X26731040Y29319660D03*
X26731040Y28819660D03*
X26731040Y28319660D03*
X26731040Y27819660D03*
X26731040Y27319660D03*
D16*
X29906040Y29844660D03*
D19*
X26091040Y30479660D03*
X25531040Y30479660D03*
X26081040Y29489660D03*
X25521040Y29489660D03*
D15*
X32241040Y27589660D03*
X32241040Y27029660D03*
D20*
X33748800Y27429280D03*
X33748800Y26329280D03*
D19*
X32748640Y28865560D03*
X32188640Y28865560D03*
X32579800Y28388040D03*
X33139800Y28388040D03*
D15*
X32197220Y26027740D03*
X32197220Y26587740D03*
D21*
X29210000Y25960000D03*
X29730000Y25960000D03*
X28760000Y25960000D03*
X28240000Y25960000D03*
D22*
X31729500Y25570260D03*
X31729500Y26090260D03*
D21*
X33710000Y28920000D03*
X33190000Y28920000D03*
D22*
X31152920Y25575340D03*
X31152920Y26095340D03*
D21*
X30660000Y25960000D03*
X30140000Y25960000D03*
D10*
G36*
X32231120Y33554674D02*
X32125054Y33660740D01*
X32274960Y33810646D01*
X32381026Y33704580D01*
X32231120Y33554674D01*
X32231120Y33554674D01*
G37*
D23*
X32186040Y33759660D03*
D24*
X32111040Y33684660D03*
X33191040Y33034660D03*
D23*
X33116040Y32959660D03*
D10*
G36*
X33070960Y33164646D02*
X33177026Y33058580D01*
X33027120Y32908674D01*
X32921054Y33014740D01*
X33070960Y33164646D01*
X33070960Y33164646D01*
G37*
G36*
X32382026Y33014740D02*
X32275960Y32908674D01*
X32126054Y33058580D01*
X32232120Y33164646D01*
X32382026Y33014740D01*
X32382026Y33014740D01*
G37*
D23*
X32187040Y32959660D03*
D24*
X32111040Y33034660D03*
D10*
G36*
X32651040Y33727356D02*
X33018736Y33359660D01*
X32651040Y32991964D01*
X32283344Y33359660D01*
X32651040Y33727356D01*
X32651040Y33727356D01*
G37*
D24*
X33191040Y33684660D03*
D23*
X33116040Y33759660D03*
D10*
G36*
X32921054Y33704580D02*
X33027120Y33810646D01*
X33177026Y33660740D01*
X33070960Y33554674D01*
X32921054Y33704580D01*
X32921054Y33704580D01*
G37*
D25*
X31950000Y34280000D03*
X33050000Y34280000D03*
D20*
X33780000Y33290000D03*
X33780000Y34390000D03*
D26*
X25685000Y34140000D03*
X25685000Y33640000D03*
X25685000Y33140000D03*
X25685000Y32640000D03*
D27*
X26360000Y32470000D03*
X26860000Y32470000D03*
X27360000Y32470000D03*
D26*
X28035000Y32640000D03*
X28035000Y33140000D03*
X28035000Y33640000D03*
X28035000Y34140000D03*
D27*
X27360000Y34310000D03*
X26860000Y34310000D03*
X26360000Y34310000D03*
D15*
X26020000Y31760000D03*
X26020000Y31200000D03*
X41020000Y31760000D03*
X41020000Y31200000D03*
D26*
X40685000Y34140000D03*
X40685000Y33640000D03*
X40685000Y33140000D03*
X40685000Y32640000D03*
D27*
X41360000Y32470000D03*
X41860000Y32470000D03*
X42360000Y32470000D03*
D26*
X43035000Y32640000D03*
X43035000Y33140000D03*
X43035000Y33640000D03*
X43035000Y34140000D03*
D27*
X42360000Y34310000D03*
X41860000Y34310000D03*
X41360000Y34310000D03*
D20*
X48780000Y33290000D03*
X48780000Y34390000D03*
D25*
X46950000Y34280000D03*
X48050000Y34280000D03*
D10*
G36*
X47231120Y33554674D02*
X47125054Y33660740D01*
X47274960Y33810646D01*
X47381026Y33704580D01*
X47231120Y33554674D01*
X47231120Y33554674D01*
G37*
D23*
X47186040Y33759660D03*
D24*
X47111040Y33684660D03*
X48191040Y33034660D03*
D23*
X48116040Y32959660D03*
D10*
G36*
X48070960Y33164646D02*
X48177026Y33058580D01*
X48027120Y32908674D01*
X47921054Y33014740D01*
X48070960Y33164646D01*
X48070960Y33164646D01*
G37*
G36*
X47382026Y33014740D02*
X47275960Y32908674D01*
X47126054Y33058580D01*
X47232120Y33164646D01*
X47382026Y33014740D01*
X47382026Y33014740D01*
G37*
D23*
X47187040Y32959660D03*
D24*
X47111040Y33034660D03*
D10*
G36*
X47651040Y33727356D02*
X48018736Y33359660D01*
X47651040Y32991964D01*
X47283344Y33359660D01*
X47651040Y33727356D01*
X47651040Y33727356D01*
G37*
D24*
X48191040Y33684660D03*
D23*
X48116040Y33759660D03*
D10*
G36*
X47921054Y33704580D02*
X48027120Y33810646D01*
X48177026Y33660740D01*
X48070960Y33554674D01*
X47921054Y33704580D01*
X47921054Y33704580D01*
G37*
D21*
X45660000Y25960000D03*
X45140000Y25960000D03*
D22*
X46152920Y25575340D03*
X46152920Y26095340D03*
D21*
X48710000Y28920000D03*
X48190000Y28920000D03*
D22*
X46729500Y25570260D03*
X46729500Y26090260D03*
D21*
X43760000Y25960000D03*
X43240000Y25960000D03*
X44210000Y25960000D03*
X44730000Y25960000D03*
D15*
X47197220Y26027740D03*
X47197220Y26587740D03*
D19*
X47579800Y28388040D03*
X48139800Y28388040D03*
X47748640Y28865560D03*
X47188640Y28865560D03*
D20*
X48748800Y27429280D03*
X48748800Y26329280D03*
D15*
X47241040Y27589660D03*
X47241040Y27029660D03*
D19*
X41081040Y29489660D03*
X40521040Y29489660D03*
X41091040Y30479660D03*
X40531040Y30479660D03*
D16*
X44906040Y28294660D03*
X43356040Y28294660D03*
X43356040Y29844660D03*
D17*
X42381040Y26669660D03*
X42881040Y26669660D03*
X43381040Y26669660D03*
X43881040Y26669660D03*
X44381040Y26669660D03*
X44881040Y26669660D03*
X45381040Y26669660D03*
X45881040Y26669660D03*
D18*
X46531040Y27319660D03*
X46531040Y27819660D03*
X46531040Y28319660D03*
X46531040Y28819660D03*
X46531040Y29319660D03*
X46531040Y29819660D03*
X46531040Y30319660D03*
X46531040Y30819660D03*
D17*
X45881040Y31469660D03*
X45381040Y31469660D03*
X44881040Y31469660D03*
X44381040Y31469660D03*
X43881040Y31469660D03*
X43381040Y31469660D03*
X42881040Y31469660D03*
X42381040Y31469660D03*
D18*
X41731040Y30819660D03*
X41731040Y30319660D03*
X41731040Y29819660D03*
X41731040Y29319660D03*
X41731040Y28819660D03*
X41731040Y28319660D03*
X41731040Y27819660D03*
X41731040Y27319660D03*
D16*
X44906040Y29844660D03*
D15*
X47271040Y31089660D03*
X47271040Y30529660D03*
D14*
X48143000Y32009660D03*
D13*
X49312680Y27058940D03*
X49312680Y27608940D03*
D12*
X46075000Y33020000D03*
X46625000Y33020000D03*
X61075000Y33020000D03*
X61625000Y33020000D03*
D13*
X64312680Y27058940D03*
X64312680Y27608940D03*
D14*
X63143000Y32009660D03*
D15*
X62271040Y31089660D03*
X62271040Y30529660D03*
D16*
X59906040Y28294660D03*
X58356040Y28294660D03*
X58356040Y29844660D03*
D17*
X57381040Y26669660D03*
X57881040Y26669660D03*
X58381040Y26669660D03*
X58881040Y26669660D03*
X59381040Y26669660D03*
X59881040Y26669660D03*
X60381040Y26669660D03*
X60881040Y26669660D03*
D18*
X61531040Y27319660D03*
X61531040Y27819660D03*
X61531040Y28319660D03*
X61531040Y28819660D03*
X61531040Y29319660D03*
X61531040Y29819660D03*
X61531040Y30319660D03*
X61531040Y30819660D03*
D17*
X60881040Y31469660D03*
X60381040Y31469660D03*
X59881040Y31469660D03*
X59381040Y31469660D03*
X58881040Y31469660D03*
X58381040Y31469660D03*
X57881040Y31469660D03*
X57381040Y31469660D03*
D18*
X56731040Y30819660D03*
X56731040Y30319660D03*
X56731040Y29819660D03*
X56731040Y29319660D03*
X56731040Y28819660D03*
X56731040Y28319660D03*
X56731040Y27819660D03*
X56731040Y27319660D03*
D16*
X59906040Y29844660D03*
D19*
X56091040Y30479660D03*
X55531040Y30479660D03*
X56081040Y29489660D03*
X55521040Y29489660D03*
D15*
X62241040Y27589660D03*
X62241040Y27029660D03*
D20*
X63748800Y27429280D03*
X63748800Y26329280D03*
D19*
X62748640Y28865560D03*
X62188640Y28865560D03*
X62579800Y28388040D03*
X63139800Y28388040D03*
D15*
X62197220Y26027740D03*
X62197220Y26587740D03*
D21*
X59210000Y25960000D03*
X59730000Y25960000D03*
X58760000Y25960000D03*
X58240000Y25960000D03*
D22*
X61729500Y25570260D03*
X61729500Y26090260D03*
D21*
X63710000Y28920000D03*
X63190000Y28920000D03*
D22*
X61152920Y25575340D03*
X61152920Y26095340D03*
D21*
X60660000Y25960000D03*
X60140000Y25960000D03*
D10*
G36*
X62231120Y33554674D02*
X62125054Y33660740D01*
X62274960Y33810646D01*
X62381026Y33704580D01*
X62231120Y33554674D01*
X62231120Y33554674D01*
G37*
D23*
X62186040Y33759660D03*
D24*
X62111040Y33684660D03*
X63191040Y33034660D03*
D23*
X63116040Y32959660D03*
D10*
G36*
X63070960Y33164646D02*
X63177026Y33058580D01*
X63027120Y32908674D01*
X62921054Y33014740D01*
X63070960Y33164646D01*
X63070960Y33164646D01*
G37*
G36*
X62382026Y33014740D02*
X62275960Y32908674D01*
X62126054Y33058580D01*
X62232120Y33164646D01*
X62382026Y33014740D01*
X62382026Y33014740D01*
G37*
D23*
X62187040Y32959660D03*
D24*
X62111040Y33034660D03*
D10*
G36*
X62651040Y33727356D02*
X63018736Y33359660D01*
X62651040Y32991964D01*
X62283344Y33359660D01*
X62651040Y33727356D01*
X62651040Y33727356D01*
G37*
D24*
X63191040Y33684660D03*
D23*
X63116040Y33759660D03*
D10*
G36*
X62921054Y33704580D02*
X63027120Y33810646D01*
X63177026Y33660740D01*
X63070960Y33554674D01*
X62921054Y33704580D01*
X62921054Y33704580D01*
G37*
D25*
X61950000Y34280000D03*
X63050000Y34280000D03*
D20*
X63780000Y33290000D03*
X63780000Y34390000D03*
D26*
X55685000Y34140000D03*
X55685000Y33640000D03*
X55685000Y33140000D03*
X55685000Y32640000D03*
D27*
X56360000Y32470000D03*
X56860000Y32470000D03*
X57360000Y32470000D03*
D26*
X58035000Y32640000D03*
X58035000Y33140000D03*
X58035000Y33640000D03*
X58035000Y34140000D03*
D27*
X57360000Y34310000D03*
X56860000Y34310000D03*
X56360000Y34310000D03*
D15*
X56020000Y31760000D03*
X56020000Y31200000D03*
X71020000Y31760000D03*
X71020000Y31200000D03*
D26*
X70685000Y34140000D03*
X70685000Y33640000D03*
X70685000Y33140000D03*
X70685000Y32640000D03*
D27*
X71360000Y32470000D03*
X71860000Y32470000D03*
X72360000Y32470000D03*
D26*
X73035000Y32640000D03*
X73035000Y33140000D03*
X73035000Y33640000D03*
X73035000Y34140000D03*
D27*
X72360000Y34310000D03*
X71860000Y34310000D03*
X71360000Y34310000D03*
D20*
X78780000Y33290000D03*
X78780000Y34390000D03*
D25*
X76950000Y34280000D03*
X78050000Y34280000D03*
D10*
G36*
X77231120Y33554674D02*
X77125054Y33660740D01*
X77274960Y33810646D01*
X77381026Y33704580D01*
X77231120Y33554674D01*
X77231120Y33554674D01*
G37*
D23*
X77186040Y33759660D03*
D24*
X77111040Y33684660D03*
X78191040Y33034660D03*
D23*
X78116040Y32959660D03*
D10*
G36*
X78070960Y33164646D02*
X78177026Y33058580D01*
X78027120Y32908674D01*
X77921054Y33014740D01*
X78070960Y33164646D01*
X78070960Y33164646D01*
G37*
G36*
X77382026Y33014740D02*
X77275960Y32908674D01*
X77126054Y33058580D01*
X77232120Y33164646D01*
X77382026Y33014740D01*
X77382026Y33014740D01*
G37*
D23*
X77187040Y32959660D03*
D24*
X77111040Y33034660D03*
D10*
G36*
X77651040Y33727356D02*
X78018736Y33359660D01*
X77651040Y32991964D01*
X77283344Y33359660D01*
X77651040Y33727356D01*
X77651040Y33727356D01*
G37*
D24*
X78191040Y33684660D03*
D23*
X78116040Y33759660D03*
D10*
G36*
X77921054Y33704580D02*
X78027120Y33810646D01*
X78177026Y33660740D01*
X78070960Y33554674D01*
X77921054Y33704580D01*
X77921054Y33704580D01*
G37*
D21*
X75660000Y25960000D03*
X75140000Y25960000D03*
D22*
X76152920Y25575340D03*
X76152920Y26095340D03*
D21*
X78710000Y28920000D03*
X78190000Y28920000D03*
D22*
X76729500Y25570260D03*
X76729500Y26090260D03*
D21*
X73760000Y25960000D03*
X73240000Y25960000D03*
X74210000Y25960000D03*
X74730000Y25960000D03*
D15*
X77197220Y26027740D03*
X77197220Y26587740D03*
D19*
X77579800Y28388040D03*
X78139800Y28388040D03*
X77748640Y28865560D03*
X77188640Y28865560D03*
D20*
X78748800Y27429280D03*
X78748800Y26329280D03*
D15*
X77241040Y27589660D03*
X77241040Y27029660D03*
D19*
X71081040Y29489660D03*
X70521040Y29489660D03*
X71091040Y30479660D03*
X70531040Y30479660D03*
D16*
X74906040Y28294660D03*
X73356040Y28294660D03*
X73356040Y29844660D03*
D17*
X72381040Y26669660D03*
X72881040Y26669660D03*
X73381040Y26669660D03*
X73881040Y26669660D03*
X74381040Y26669660D03*
X74881040Y26669660D03*
X75381040Y26669660D03*
X75881040Y26669660D03*
D18*
X76531040Y27319660D03*
X76531040Y27819660D03*
X76531040Y28319660D03*
X76531040Y28819660D03*
X76531040Y29319660D03*
X76531040Y29819660D03*
X76531040Y30319660D03*
X76531040Y30819660D03*
D17*
X75881040Y31469660D03*
X75381040Y31469660D03*
X74881040Y31469660D03*
X74381040Y31469660D03*
X73881040Y31469660D03*
X73381040Y31469660D03*
X72881040Y31469660D03*
X72381040Y31469660D03*
D18*
X71731040Y30819660D03*
X71731040Y30319660D03*
X71731040Y29819660D03*
X71731040Y29319660D03*
X71731040Y28819660D03*
X71731040Y28319660D03*
X71731040Y27819660D03*
X71731040Y27319660D03*
D16*
X74906040Y29844660D03*
D15*
X77271040Y31089660D03*
X77271040Y30529660D03*
D14*
X78143000Y32009660D03*
D13*
X79312680Y27058940D03*
X79312680Y27608940D03*
D12*
X76075000Y33020000D03*
X76625000Y33020000D03*
X76075000Y48020000D03*
X76625000Y48020000D03*
D13*
X79312680Y42058940D03*
X79312680Y42608940D03*
D14*
X78143000Y47009660D03*
D15*
X77271040Y46089660D03*
X77271040Y45529660D03*
D16*
X74906040Y43294660D03*
X73356040Y43294660D03*
X73356040Y44844660D03*
D17*
X72381040Y41669660D03*
X72881040Y41669660D03*
X73381040Y41669660D03*
X73881040Y41669660D03*
X74381040Y41669660D03*
X74881040Y41669660D03*
X75381040Y41669660D03*
X75881040Y41669660D03*
D18*
X76531040Y42319660D03*
X76531040Y42819660D03*
X76531040Y43319660D03*
X76531040Y43819660D03*
X76531040Y44319660D03*
X76531040Y44819660D03*
X76531040Y45319660D03*
X76531040Y45819660D03*
D17*
X75881040Y46469660D03*
X75381040Y46469660D03*
X74881040Y46469660D03*
X74381040Y46469660D03*
X73881040Y46469660D03*
X73381040Y46469660D03*
X72881040Y46469660D03*
X72381040Y46469660D03*
D18*
X71731040Y45819660D03*
X71731040Y45319660D03*
X71731040Y44819660D03*
X71731040Y44319660D03*
X71731040Y43819660D03*
X71731040Y43319660D03*
X71731040Y42819660D03*
X71731040Y42319660D03*
D16*
X74906040Y44844660D03*
D19*
X71091040Y45479660D03*
X70531040Y45479660D03*
X71081040Y44489660D03*
X70521040Y44489660D03*
D15*
X77241040Y42589660D03*
X77241040Y42029660D03*
D20*
X78748800Y42429280D03*
X78748800Y41329280D03*
D19*
X77748640Y43865560D03*
X77188640Y43865560D03*
X77579800Y43388040D03*
X78139800Y43388040D03*
D15*
X77197220Y41027740D03*
X77197220Y41587740D03*
D21*
X74210000Y40960000D03*
X74730000Y40960000D03*
X73760000Y40960000D03*
X73240000Y40960000D03*
D22*
X76729500Y40570260D03*
X76729500Y41090260D03*
D21*
X78710000Y43920000D03*
X78190000Y43920000D03*
D22*
X76152920Y40575340D03*
X76152920Y41095340D03*
D21*
X75660000Y40960000D03*
X75140000Y40960000D03*
D10*
G36*
X77231120Y48554674D02*
X77125054Y48660740D01*
X77274960Y48810646D01*
X77381026Y48704580D01*
X77231120Y48554674D01*
X77231120Y48554674D01*
G37*
D23*
X77186040Y48759660D03*
D24*
X77111040Y48684660D03*
X78191040Y48034660D03*
D23*
X78116040Y47959660D03*
D10*
G36*
X78070960Y48164646D02*
X78177026Y48058580D01*
X78027120Y47908674D01*
X77921054Y48014740D01*
X78070960Y48164646D01*
X78070960Y48164646D01*
G37*
G36*
X77382026Y48014740D02*
X77275960Y47908674D01*
X77126054Y48058580D01*
X77232120Y48164646D01*
X77382026Y48014740D01*
X77382026Y48014740D01*
G37*
D23*
X77187040Y47959660D03*
D24*
X77111040Y48034660D03*
D10*
G36*
X77651040Y48727356D02*
X78018736Y48359660D01*
X77651040Y47991964D01*
X77283344Y48359660D01*
X77651040Y48727356D01*
X77651040Y48727356D01*
G37*
D24*
X78191040Y48684660D03*
D23*
X78116040Y48759660D03*
D10*
G36*
X77921054Y48704580D02*
X78027120Y48810646D01*
X78177026Y48660740D01*
X78070960Y48554674D01*
X77921054Y48704580D01*
X77921054Y48704580D01*
G37*
D25*
X76950000Y49280000D03*
X78050000Y49280000D03*
D20*
X78780000Y48290000D03*
X78780000Y49390000D03*
D26*
X70685000Y49140000D03*
X70685000Y48640000D03*
X70685000Y48140000D03*
X70685000Y47640000D03*
D27*
X71360000Y47470000D03*
X71860000Y47470000D03*
X72360000Y47470000D03*
D26*
X73035000Y47640000D03*
X73035000Y48140000D03*
X73035000Y48640000D03*
X73035000Y49140000D03*
D27*
X72360000Y49310000D03*
X71860000Y49310000D03*
X71360000Y49310000D03*
D15*
X71020000Y46760000D03*
X71020000Y46200000D03*
X56020000Y46760000D03*
X56020000Y46200000D03*
D26*
X55685000Y49140000D03*
X55685000Y48640000D03*
X55685000Y48140000D03*
X55685000Y47640000D03*
D27*
X56360000Y47470000D03*
X56860000Y47470000D03*
X57360000Y47470000D03*
D26*
X58035000Y47640000D03*
X58035000Y48140000D03*
X58035000Y48640000D03*
X58035000Y49140000D03*
D27*
X57360000Y49310000D03*
X56860000Y49310000D03*
X56360000Y49310000D03*
D20*
X63780000Y48290000D03*
X63780000Y49390000D03*
D25*
X61950000Y49280000D03*
X63050000Y49280000D03*
D10*
G36*
X62231120Y48554674D02*
X62125054Y48660740D01*
X62274960Y48810646D01*
X62381026Y48704580D01*
X62231120Y48554674D01*
X62231120Y48554674D01*
G37*
D23*
X62186040Y48759660D03*
D24*
X62111040Y48684660D03*
X63191040Y48034660D03*
D23*
X63116040Y47959660D03*
D10*
G36*
X63070960Y48164646D02*
X63177026Y48058580D01*
X63027120Y47908674D01*
X62921054Y48014740D01*
X63070960Y48164646D01*
X63070960Y48164646D01*
G37*
G36*
X62382026Y48014740D02*
X62275960Y47908674D01*
X62126054Y48058580D01*
X62232120Y48164646D01*
X62382026Y48014740D01*
X62382026Y48014740D01*
G37*
D23*
X62187040Y47959660D03*
D24*
X62111040Y48034660D03*
D10*
G36*
X62651040Y48727356D02*
X63018736Y48359660D01*
X62651040Y47991964D01*
X62283344Y48359660D01*
X62651040Y48727356D01*
X62651040Y48727356D01*
G37*
D24*
X63191040Y48684660D03*
D23*
X63116040Y48759660D03*
D10*
G36*
X62921054Y48704580D02*
X63027120Y48810646D01*
X63177026Y48660740D01*
X63070960Y48554674D01*
X62921054Y48704580D01*
X62921054Y48704580D01*
G37*
D21*
X60660000Y40960000D03*
X60140000Y40960000D03*
D22*
X61152920Y40575340D03*
X61152920Y41095340D03*
D21*
X63710000Y43920000D03*
X63190000Y43920000D03*
D22*
X61729500Y40570260D03*
X61729500Y41090260D03*
D21*
X58760000Y40960000D03*
X58240000Y40960000D03*
X59210000Y40960000D03*
X59730000Y40960000D03*
D15*
X62197220Y41027740D03*
X62197220Y41587740D03*
D19*
X62579800Y43388040D03*
X63139800Y43388040D03*
X62748640Y43865560D03*
X62188640Y43865560D03*
D20*
X63748800Y42429280D03*
X63748800Y41329280D03*
D15*
X62241040Y42589660D03*
X62241040Y42029660D03*
D19*
X56081040Y44489660D03*
X55521040Y44489660D03*
X56091040Y45479660D03*
X55531040Y45479660D03*
D16*
X59906040Y43294660D03*
X58356040Y43294660D03*
X58356040Y44844660D03*
D17*
X57381040Y41669660D03*
X57881040Y41669660D03*
X58381040Y41669660D03*
X58881040Y41669660D03*
X59381040Y41669660D03*
X59881040Y41669660D03*
X60381040Y41669660D03*
X60881040Y41669660D03*
D18*
X61531040Y42319660D03*
X61531040Y42819660D03*
X61531040Y43319660D03*
X61531040Y43819660D03*
X61531040Y44319660D03*
X61531040Y44819660D03*
X61531040Y45319660D03*
X61531040Y45819660D03*
D17*
X60881040Y46469660D03*
X60381040Y46469660D03*
X59881040Y46469660D03*
X59381040Y46469660D03*
X58881040Y46469660D03*
X58381040Y46469660D03*
X57881040Y46469660D03*
X57381040Y46469660D03*
D18*
X56731040Y45819660D03*
X56731040Y45319660D03*
X56731040Y44819660D03*
X56731040Y44319660D03*
X56731040Y43819660D03*
X56731040Y43319660D03*
X56731040Y42819660D03*
X56731040Y42319660D03*
D16*
X59906040Y44844660D03*
D15*
X62271040Y46089660D03*
X62271040Y45529660D03*
D14*
X63143000Y47009660D03*
D13*
X64312680Y42058940D03*
X64312680Y42608940D03*
D12*
X61075000Y48020000D03*
X61625000Y48020000D03*
X46075000Y48020000D03*
X46625000Y48020000D03*
D13*
X49312680Y42058940D03*
X49312680Y42608940D03*
D14*
X48143000Y47009660D03*
D15*
X47271040Y46089660D03*
X47271040Y45529660D03*
D16*
X44906040Y43294660D03*
X43356040Y43294660D03*
X43356040Y44844660D03*
D17*
X42381040Y41669660D03*
X42881040Y41669660D03*
X43381040Y41669660D03*
X43881040Y41669660D03*
X44381040Y41669660D03*
X44881040Y41669660D03*
X45381040Y41669660D03*
X45881040Y41669660D03*
D18*
X46531040Y42319660D03*
X46531040Y42819660D03*
X46531040Y43319660D03*
X46531040Y43819660D03*
X46531040Y44319660D03*
X46531040Y44819660D03*
X46531040Y45319660D03*
X46531040Y45819660D03*
D17*
X45881040Y46469660D03*
X45381040Y46469660D03*
X44881040Y46469660D03*
X44381040Y46469660D03*
X43881040Y46469660D03*
X43381040Y46469660D03*
X42881040Y46469660D03*
X42381040Y46469660D03*
D18*
X41731040Y45819660D03*
X41731040Y45319660D03*
X41731040Y44819660D03*
X41731040Y44319660D03*
X41731040Y43819660D03*
X41731040Y43319660D03*
X41731040Y42819660D03*
X41731040Y42319660D03*
D16*
X44906040Y44844660D03*
D19*
X41091040Y45479660D03*
X40531040Y45479660D03*
X41081040Y44489660D03*
X40521040Y44489660D03*
D15*
X47241040Y42589660D03*
X47241040Y42029660D03*
D20*
X48748800Y42429280D03*
X48748800Y41329280D03*
D19*
X47748640Y43865560D03*
X47188640Y43865560D03*
X47579800Y43388040D03*
X48139800Y43388040D03*
D15*
X47197220Y41027740D03*
X47197220Y41587740D03*
D21*
X44210000Y40960000D03*
X44730000Y40960000D03*
X43760000Y40960000D03*
X43240000Y40960000D03*
D22*
X46729500Y40570260D03*
X46729500Y41090260D03*
D21*
X48710000Y43920000D03*
X48190000Y43920000D03*
D22*
X46152920Y40575340D03*
X46152920Y41095340D03*
D21*
X45660000Y40960000D03*
X45140000Y40960000D03*
D10*
G36*
X47231120Y48554674D02*
X47125054Y48660740D01*
X47274960Y48810646D01*
X47381026Y48704580D01*
X47231120Y48554674D01*
X47231120Y48554674D01*
G37*
D23*
X47186040Y48759660D03*
D24*
X47111040Y48684660D03*
X48191040Y48034660D03*
D23*
X48116040Y47959660D03*
D10*
G36*
X48070960Y48164646D02*
X48177026Y48058580D01*
X48027120Y47908674D01*
X47921054Y48014740D01*
X48070960Y48164646D01*
X48070960Y48164646D01*
G37*
G36*
X47382026Y48014740D02*
X47275960Y47908674D01*
X47126054Y48058580D01*
X47232120Y48164646D01*
X47382026Y48014740D01*
X47382026Y48014740D01*
G37*
D23*
X47187040Y47959660D03*
D24*
X47111040Y48034660D03*
D10*
G36*
X47651040Y48727356D02*
X48018736Y48359660D01*
X47651040Y47991964D01*
X47283344Y48359660D01*
X47651040Y48727356D01*
X47651040Y48727356D01*
G37*
D24*
X48191040Y48684660D03*
D23*
X48116040Y48759660D03*
D10*
G36*
X47921054Y48704580D02*
X48027120Y48810646D01*
X48177026Y48660740D01*
X48070960Y48554674D01*
X47921054Y48704580D01*
X47921054Y48704580D01*
G37*
D25*
X46950000Y49280000D03*
X48050000Y49280000D03*
D20*
X48780000Y48290000D03*
X48780000Y49390000D03*
D26*
X40685000Y49140000D03*
X40685000Y48640000D03*
X40685000Y48140000D03*
X40685000Y47640000D03*
D27*
X41360000Y47470000D03*
X41860000Y47470000D03*
X42360000Y47470000D03*
D26*
X43035000Y47640000D03*
X43035000Y48140000D03*
X43035000Y48640000D03*
X43035000Y49140000D03*
D27*
X42360000Y49310000D03*
X41860000Y49310000D03*
X41360000Y49310000D03*
D15*
X41020000Y46760000D03*
X41020000Y46200000D03*
X26020000Y46760000D03*
X26020000Y46200000D03*
D26*
X25685000Y49140000D03*
X25685000Y48640000D03*
X25685000Y48140000D03*
X25685000Y47640000D03*
D27*
X26360000Y47470000D03*
X26860000Y47470000D03*
X27360000Y47470000D03*
D26*
X28035000Y47640000D03*
X28035000Y48140000D03*
X28035000Y48640000D03*
X28035000Y49140000D03*
D27*
X27360000Y49310000D03*
X26860000Y49310000D03*
X26360000Y49310000D03*
D20*
X33780000Y48290000D03*
X33780000Y49390000D03*
D25*
X31950000Y49280000D03*
X33050000Y49280000D03*
D10*
G36*
X32231120Y48554674D02*
X32125054Y48660740D01*
X32274960Y48810646D01*
X32381026Y48704580D01*
X32231120Y48554674D01*
X32231120Y48554674D01*
G37*
D23*
X32186040Y48759660D03*
D24*
X32111040Y48684660D03*
X33191040Y48034660D03*
D23*
X33116040Y47959660D03*
D10*
G36*
X33070960Y48164646D02*
X33177026Y48058580D01*
X33027120Y47908674D01*
X32921054Y48014740D01*
X33070960Y48164646D01*
X33070960Y48164646D01*
G37*
G36*
X32382026Y48014740D02*
X32275960Y47908674D01*
X32126054Y48058580D01*
X32232120Y48164646D01*
X32382026Y48014740D01*
X32382026Y48014740D01*
G37*
D23*
X32187040Y47959660D03*
D24*
X32111040Y48034660D03*
D10*
G36*
X32651040Y48727356D02*
X33018736Y48359660D01*
X32651040Y47991964D01*
X32283344Y48359660D01*
X32651040Y48727356D01*
X32651040Y48727356D01*
G37*
D24*
X33191040Y48684660D03*
D23*
X33116040Y48759660D03*
D10*
G36*
X32921054Y48704580D02*
X33027120Y48810646D01*
X33177026Y48660740D01*
X33070960Y48554674D01*
X32921054Y48704580D01*
X32921054Y48704580D01*
G37*
D21*
X30660000Y40960000D03*
X30140000Y40960000D03*
D22*
X31152920Y40575340D03*
X31152920Y41095340D03*
D21*
X33710000Y43920000D03*
X33190000Y43920000D03*
D22*
X31729500Y40570260D03*
X31729500Y41090260D03*
D21*
X28760000Y40960000D03*
X28240000Y40960000D03*
X29210000Y40960000D03*
X29730000Y40960000D03*
D15*
X32197220Y41027740D03*
X32197220Y41587740D03*
D19*
X32579800Y43388040D03*
X33139800Y43388040D03*
X32748640Y43865560D03*
X32188640Y43865560D03*
D20*
X33748800Y42429280D03*
X33748800Y41329280D03*
D15*
X32241040Y42589660D03*
X32241040Y42029660D03*
D19*
X26081040Y44489660D03*
X25521040Y44489660D03*
X26091040Y45479660D03*
X25531040Y45479660D03*
D16*
X29906040Y43294660D03*
X28356040Y43294660D03*
X28356040Y44844660D03*
D17*
X27381040Y41669660D03*
X27881040Y41669660D03*
X28381040Y41669660D03*
X28881040Y41669660D03*
X29381040Y41669660D03*
X29881040Y41669660D03*
X30381040Y41669660D03*
X30881040Y41669660D03*
D18*
X31531040Y42319660D03*
X31531040Y42819660D03*
X31531040Y43319660D03*
X31531040Y43819660D03*
X31531040Y44319660D03*
X31531040Y44819660D03*
X31531040Y45319660D03*
X31531040Y45819660D03*
D17*
X30881040Y46469660D03*
X30381040Y46469660D03*
X29881040Y46469660D03*
X29381040Y46469660D03*
X28881040Y46469660D03*
X28381040Y46469660D03*
X27881040Y46469660D03*
X27381040Y46469660D03*
D18*
X26731040Y45819660D03*
X26731040Y45319660D03*
X26731040Y44819660D03*
X26731040Y44319660D03*
X26731040Y43819660D03*
X26731040Y43319660D03*
X26731040Y42819660D03*
X26731040Y42319660D03*
D16*
X29906040Y44844660D03*
D15*
X32271040Y46089660D03*
X32271040Y45529660D03*
D14*
X33143000Y47009660D03*
D13*
X34312680Y42058940D03*
X34312680Y42608940D03*
D12*
X31075000Y48020000D03*
X31625000Y48020000D03*
X16075000Y48020000D03*
X16625000Y48020000D03*
D13*
X19312680Y42058940D03*
X19312680Y42608940D03*
D14*
X18143000Y47009660D03*
D15*
X17271040Y46089660D03*
X17271040Y45529660D03*
D16*
X14906040Y43294660D03*
X13356040Y43294660D03*
X13356040Y44844660D03*
D17*
X12381040Y41669660D03*
X12881040Y41669660D03*
X13381040Y41669660D03*
X13881040Y41669660D03*
X14381040Y41669660D03*
X14881040Y41669660D03*
X15381040Y41669660D03*
X15881040Y41669660D03*
D18*
X16531040Y42319660D03*
X16531040Y42819660D03*
X16531040Y43319660D03*
X16531040Y43819660D03*
X16531040Y44319660D03*
X16531040Y44819660D03*
X16531040Y45319660D03*
X16531040Y45819660D03*
D17*
X15881040Y46469660D03*
X15381040Y46469660D03*
X14881040Y46469660D03*
X14381040Y46469660D03*
X13881040Y46469660D03*
X13381040Y46469660D03*
X12881040Y46469660D03*
X12381040Y46469660D03*
D18*
X11731040Y45819660D03*
X11731040Y45319660D03*
X11731040Y44819660D03*
X11731040Y44319660D03*
X11731040Y43819660D03*
X11731040Y43319660D03*
X11731040Y42819660D03*
X11731040Y42319660D03*
D16*
X14906040Y44844660D03*
D19*
X11091040Y45479660D03*
X10531040Y45479660D03*
X11081040Y44489660D03*
X10521040Y44489660D03*
D15*
X17241040Y42589660D03*
X17241040Y42029660D03*
D20*
X18748800Y42429280D03*
X18748800Y41329280D03*
D19*
X17748640Y43865560D03*
X17188640Y43865560D03*
X17579800Y43388040D03*
X18139800Y43388040D03*
D15*
X17197220Y41027740D03*
X17197220Y41587740D03*
D21*
X14210000Y40960000D03*
X14730000Y40960000D03*
X13760000Y40960000D03*
X13240000Y40960000D03*
D22*
X16729500Y40570260D03*
X16729500Y41090260D03*
D21*
X18710000Y43920000D03*
X18190000Y43920000D03*
D22*
X16152920Y40575340D03*
X16152920Y41095340D03*
D21*
X15660000Y40960000D03*
X15140000Y40960000D03*
D10*
G36*
X17231120Y48554674D02*
X17125054Y48660740D01*
X17274960Y48810646D01*
X17381026Y48704580D01*
X17231120Y48554674D01*
X17231120Y48554674D01*
G37*
D23*
X17186040Y48759660D03*
D24*
X17111040Y48684660D03*
X18191040Y48034660D03*
D23*
X18116040Y47959660D03*
D10*
G36*
X18070960Y48164646D02*
X18177026Y48058580D01*
X18027120Y47908674D01*
X17921054Y48014740D01*
X18070960Y48164646D01*
X18070960Y48164646D01*
G37*
G36*
X17382026Y48014740D02*
X17275960Y47908674D01*
X17126054Y48058580D01*
X17232120Y48164646D01*
X17382026Y48014740D01*
X17382026Y48014740D01*
G37*
D23*
X17187040Y47959660D03*
D24*
X17111040Y48034660D03*
D10*
G36*
X17651040Y48727356D02*
X18018736Y48359660D01*
X17651040Y47991964D01*
X17283344Y48359660D01*
X17651040Y48727356D01*
X17651040Y48727356D01*
G37*
D24*
X18191040Y48684660D03*
D23*
X18116040Y48759660D03*
D10*
G36*
X17921054Y48704580D02*
X18027120Y48810646D01*
X18177026Y48660740D01*
X18070960Y48554674D01*
X17921054Y48704580D01*
X17921054Y48704580D01*
G37*
D25*
X16950000Y49280000D03*
X18050000Y49280000D03*
D20*
X18780000Y48290000D03*
X18780000Y49390000D03*
D26*
X10685000Y49140000D03*
X10685000Y48640000D03*
X10685000Y48140000D03*
X10685000Y47640000D03*
D27*
X11360000Y47470000D03*
X11860000Y47470000D03*
X12360000Y47470000D03*
D26*
X13035000Y47640000D03*
X13035000Y48140000D03*
X13035000Y48640000D03*
X13035000Y49140000D03*
D27*
X12360000Y49310000D03*
X11860000Y49310000D03*
X11360000Y49310000D03*
D15*
X11020000Y46760000D03*
X11020000Y46200000D03*
X11020000Y61760000D03*
X11020000Y61200000D03*
D26*
X10685000Y64140000D03*
X10685000Y63640000D03*
X10685000Y63140000D03*
X10685000Y62640000D03*
D27*
X11360000Y62470000D03*
X11860000Y62470000D03*
X12360000Y62470000D03*
D26*
X13035000Y62640000D03*
X13035000Y63140000D03*
X13035000Y63640000D03*
X13035000Y64140000D03*
D27*
X12360000Y64310000D03*
X11860000Y64310000D03*
X11360000Y64310000D03*
D20*
X18780000Y63290000D03*
X18780000Y64390000D03*
D25*
X16950000Y64280000D03*
X18050000Y64280000D03*
D10*
G36*
X17231120Y63554674D02*
X17125054Y63660740D01*
X17274960Y63810646D01*
X17381026Y63704580D01*
X17231120Y63554674D01*
X17231120Y63554674D01*
G37*
D23*
X17186040Y63759660D03*
D24*
X17111040Y63684660D03*
X18191040Y63034660D03*
D23*
X18116040Y62959660D03*
D10*
G36*
X18070960Y63164646D02*
X18177026Y63058580D01*
X18027120Y62908674D01*
X17921054Y63014740D01*
X18070960Y63164646D01*
X18070960Y63164646D01*
G37*
G36*
X17382026Y63014740D02*
X17275960Y62908674D01*
X17126054Y63058580D01*
X17232120Y63164646D01*
X17382026Y63014740D01*
X17382026Y63014740D01*
G37*
D23*
X17187040Y62959660D03*
D24*
X17111040Y63034660D03*
D10*
G36*
X17651040Y63727356D02*
X18018736Y63359660D01*
X17651040Y62991964D01*
X17283344Y63359660D01*
X17651040Y63727356D01*
X17651040Y63727356D01*
G37*
D24*
X18191040Y63684660D03*
D23*
X18116040Y63759660D03*
D10*
G36*
X17921054Y63704580D02*
X18027120Y63810646D01*
X18177026Y63660740D01*
X18070960Y63554674D01*
X17921054Y63704580D01*
X17921054Y63704580D01*
G37*
D21*
X15660000Y55960000D03*
X15140000Y55960000D03*
D22*
X16152920Y55575340D03*
X16152920Y56095340D03*
D21*
X18710000Y58920000D03*
X18190000Y58920000D03*
D22*
X16729500Y55570260D03*
X16729500Y56090260D03*
D21*
X13760000Y55960000D03*
X13240000Y55960000D03*
X14210000Y55960000D03*
X14730000Y55960000D03*
D15*
X17197220Y56027740D03*
X17197220Y56587740D03*
D19*
X17579800Y58388040D03*
X18139800Y58388040D03*
X17748640Y58865560D03*
X17188640Y58865560D03*
D20*
X18748800Y57429280D03*
X18748800Y56329280D03*
D15*
X17241040Y57589660D03*
X17241040Y57029660D03*
D19*
X11081040Y59489660D03*
X10521040Y59489660D03*
X11091040Y60479660D03*
X10531040Y60479660D03*
D16*
X14906040Y58294660D03*
X13356040Y58294660D03*
X13356040Y59844660D03*
D17*
X12381040Y56669660D03*
X12881040Y56669660D03*
X13381040Y56669660D03*
X13881040Y56669660D03*
X14381040Y56669660D03*
X14881040Y56669660D03*
X15381040Y56669660D03*
X15881040Y56669660D03*
D18*
X16531040Y57319660D03*
X16531040Y57819660D03*
X16531040Y58319660D03*
X16531040Y58819660D03*
X16531040Y59319660D03*
X16531040Y59819660D03*
X16531040Y60319660D03*
X16531040Y60819660D03*
D17*
X15881040Y61469660D03*
X15381040Y61469660D03*
X14881040Y61469660D03*
X14381040Y61469660D03*
X13881040Y61469660D03*
X13381040Y61469660D03*
X12881040Y61469660D03*
X12381040Y61469660D03*
D18*
X11731040Y60819660D03*
X11731040Y60319660D03*
X11731040Y59819660D03*
X11731040Y59319660D03*
X11731040Y58819660D03*
X11731040Y58319660D03*
X11731040Y57819660D03*
X11731040Y57319660D03*
D16*
X14906040Y59844660D03*
D15*
X17271040Y61089660D03*
X17271040Y60529660D03*
D14*
X18143000Y62009660D03*
D13*
X19312680Y57058940D03*
X19312680Y57608940D03*
D12*
X16075000Y63020000D03*
X16625000Y63020000D03*
X31075000Y63020000D03*
X31625000Y63020000D03*
D13*
X34312680Y57058940D03*
X34312680Y57608940D03*
D14*
X33143000Y62009660D03*
D15*
X32271040Y61089660D03*
X32271040Y60529660D03*
D16*
X29906040Y58294660D03*
X28356040Y58294660D03*
X28356040Y59844660D03*
D17*
X27381040Y56669660D03*
X27881040Y56669660D03*
X28381040Y56669660D03*
X28881040Y56669660D03*
X29381040Y56669660D03*
X29881040Y56669660D03*
X30381040Y56669660D03*
X30881040Y56669660D03*
D18*
X31531040Y57319660D03*
X31531040Y57819660D03*
X31531040Y58319660D03*
X31531040Y58819660D03*
X31531040Y59319660D03*
X31531040Y59819660D03*
X31531040Y60319660D03*
X31531040Y60819660D03*
D17*
X30881040Y61469660D03*
X30381040Y61469660D03*
X29881040Y61469660D03*
X29381040Y61469660D03*
X28881040Y61469660D03*
X28381040Y61469660D03*
X27881040Y61469660D03*
X27381040Y61469660D03*
D18*
X26731040Y60819660D03*
X26731040Y60319660D03*
X26731040Y59819660D03*
X26731040Y59319660D03*
X26731040Y58819660D03*
X26731040Y58319660D03*
X26731040Y57819660D03*
X26731040Y57319660D03*
D16*
X29906040Y59844660D03*
D19*
X26091040Y60479660D03*
X25531040Y60479660D03*
X26081040Y59489660D03*
X25521040Y59489660D03*
D15*
X32241040Y57589660D03*
X32241040Y57029660D03*
D20*
X33748800Y57429280D03*
X33748800Y56329280D03*
D19*
X32748640Y58865560D03*
X32188640Y58865560D03*
X32579800Y58388040D03*
X33139800Y58388040D03*
D15*
X32197220Y56027740D03*
X32197220Y56587740D03*
D21*
X29210000Y55960000D03*
X29730000Y55960000D03*
X28760000Y55960000D03*
X28240000Y55960000D03*
D22*
X31729500Y55570260D03*
X31729500Y56090260D03*
D21*
X33710000Y58920000D03*
X33190000Y58920000D03*
D22*
X31152920Y55575340D03*
X31152920Y56095340D03*
D21*
X30660000Y55960000D03*
X30140000Y55960000D03*
D10*
G36*
X32231120Y63554674D02*
X32125054Y63660740D01*
X32274960Y63810646D01*
X32381026Y63704580D01*
X32231120Y63554674D01*
X32231120Y63554674D01*
G37*
D23*
X32186040Y63759660D03*
D24*
X32111040Y63684660D03*
X33191040Y63034660D03*
D23*
X33116040Y62959660D03*
D10*
G36*
X33070960Y63164646D02*
X33177026Y63058580D01*
X33027120Y62908674D01*
X32921054Y63014740D01*
X33070960Y63164646D01*
X33070960Y63164646D01*
G37*
G36*
X32382026Y63014740D02*
X32275960Y62908674D01*
X32126054Y63058580D01*
X32232120Y63164646D01*
X32382026Y63014740D01*
X32382026Y63014740D01*
G37*
D23*
X32187040Y62959660D03*
D24*
X32111040Y63034660D03*
D10*
G36*
X32651040Y63727356D02*
X33018736Y63359660D01*
X32651040Y62991964D01*
X32283344Y63359660D01*
X32651040Y63727356D01*
X32651040Y63727356D01*
G37*
D24*
X33191040Y63684660D03*
D23*
X33116040Y63759660D03*
D10*
G36*
X32921054Y63704580D02*
X33027120Y63810646D01*
X33177026Y63660740D01*
X33070960Y63554674D01*
X32921054Y63704580D01*
X32921054Y63704580D01*
G37*
D25*
X31950000Y64280000D03*
X33050000Y64280000D03*
D20*
X33780000Y63290000D03*
X33780000Y64390000D03*
D26*
X25685000Y64140000D03*
X25685000Y63640000D03*
X25685000Y63140000D03*
X25685000Y62640000D03*
D27*
X26360000Y62470000D03*
X26860000Y62470000D03*
X27360000Y62470000D03*
D26*
X28035000Y62640000D03*
X28035000Y63140000D03*
X28035000Y63640000D03*
X28035000Y64140000D03*
D27*
X27360000Y64310000D03*
X26860000Y64310000D03*
X26360000Y64310000D03*
D15*
X26020000Y61760000D03*
X26020000Y61200000D03*
X41020000Y61760000D03*
X41020000Y61200000D03*
D26*
X40685000Y64140000D03*
X40685000Y63640000D03*
X40685000Y63140000D03*
X40685000Y62640000D03*
D27*
X41360000Y62470000D03*
X41860000Y62470000D03*
X42360000Y62470000D03*
D26*
X43035000Y62640000D03*
X43035000Y63140000D03*
X43035000Y63640000D03*
X43035000Y64140000D03*
D27*
X42360000Y64310000D03*
X41860000Y64310000D03*
X41360000Y64310000D03*
D20*
X48780000Y63290000D03*
X48780000Y64390000D03*
D25*
X46950000Y64280000D03*
X48050000Y64280000D03*
D10*
G36*
X47231120Y63554674D02*
X47125054Y63660740D01*
X47274960Y63810646D01*
X47381026Y63704580D01*
X47231120Y63554674D01*
X47231120Y63554674D01*
G37*
D23*
X47186040Y63759660D03*
D24*
X47111040Y63684660D03*
X48191040Y63034660D03*
D23*
X48116040Y62959660D03*
D10*
G36*
X48070960Y63164646D02*
X48177026Y63058580D01*
X48027120Y62908674D01*
X47921054Y63014740D01*
X48070960Y63164646D01*
X48070960Y63164646D01*
G37*
G36*
X47382026Y63014740D02*
X47275960Y62908674D01*
X47126054Y63058580D01*
X47232120Y63164646D01*
X47382026Y63014740D01*
X47382026Y63014740D01*
G37*
D23*
X47187040Y62959660D03*
D24*
X47111040Y63034660D03*
D10*
G36*
X47651040Y63727356D02*
X48018736Y63359660D01*
X47651040Y62991964D01*
X47283344Y63359660D01*
X47651040Y63727356D01*
X47651040Y63727356D01*
G37*
D24*
X48191040Y63684660D03*
D23*
X48116040Y63759660D03*
D10*
G36*
X47921054Y63704580D02*
X48027120Y63810646D01*
X48177026Y63660740D01*
X48070960Y63554674D01*
X47921054Y63704580D01*
X47921054Y63704580D01*
G37*
D21*
X45660000Y55960000D03*
X45140000Y55960000D03*
D22*
X46152920Y55575340D03*
X46152920Y56095340D03*
D21*
X48710000Y58920000D03*
X48190000Y58920000D03*
D22*
X46729500Y55570260D03*
X46729500Y56090260D03*
D21*
X43760000Y55960000D03*
X43240000Y55960000D03*
X44210000Y55960000D03*
X44730000Y55960000D03*
D15*
X47197220Y56027740D03*
X47197220Y56587740D03*
D19*
X47579800Y58388040D03*
X48139800Y58388040D03*
X47748640Y58865560D03*
X47188640Y58865560D03*
D20*
X48748800Y57429280D03*
X48748800Y56329280D03*
D15*
X47241040Y57589660D03*
X47241040Y57029660D03*
D19*
X41081040Y59489660D03*
X40521040Y59489660D03*
X41091040Y60479660D03*
X40531040Y60479660D03*
D16*
X44906040Y58294660D03*
X43356040Y58294660D03*
X43356040Y59844660D03*
D17*
X42381040Y56669660D03*
X42881040Y56669660D03*
X43381040Y56669660D03*
X43881040Y56669660D03*
X44381040Y56669660D03*
X44881040Y56669660D03*
X45381040Y56669660D03*
X45881040Y56669660D03*
D18*
X46531040Y57319660D03*
X46531040Y57819660D03*
X46531040Y58319660D03*
X46531040Y58819660D03*
X46531040Y59319660D03*
X46531040Y59819660D03*
X46531040Y60319660D03*
X46531040Y60819660D03*
D17*
X45881040Y61469660D03*
X45381040Y61469660D03*
X44881040Y61469660D03*
X44381040Y61469660D03*
X43881040Y61469660D03*
X43381040Y61469660D03*
X42881040Y61469660D03*
X42381040Y61469660D03*
D18*
X41731040Y60819660D03*
X41731040Y60319660D03*
X41731040Y59819660D03*
X41731040Y59319660D03*
X41731040Y58819660D03*
X41731040Y58319660D03*
X41731040Y57819660D03*
X41731040Y57319660D03*
D16*
X44906040Y59844660D03*
D15*
X47271040Y61089660D03*
X47271040Y60529660D03*
D14*
X48143000Y62009660D03*
D13*
X49312680Y57058940D03*
X49312680Y57608940D03*
D12*
X46075000Y63020000D03*
X46625000Y63020000D03*
X61075000Y63020000D03*
X61625000Y63020000D03*
D13*
X64312680Y57058940D03*
X64312680Y57608940D03*
D14*
X63143000Y62009660D03*
D15*
X62271040Y61089660D03*
X62271040Y60529660D03*
D16*
X59906040Y58294660D03*
X58356040Y58294660D03*
X58356040Y59844660D03*
D17*
X57381040Y56669660D03*
X57881040Y56669660D03*
X58381040Y56669660D03*
X58881040Y56669660D03*
X59381040Y56669660D03*
X59881040Y56669660D03*
X60381040Y56669660D03*
X60881040Y56669660D03*
D18*
X61531040Y57319660D03*
X61531040Y57819660D03*
X61531040Y58319660D03*
X61531040Y58819660D03*
X61531040Y59319660D03*
X61531040Y59819660D03*
X61531040Y60319660D03*
X61531040Y60819660D03*
D17*
X60881040Y61469660D03*
X60381040Y61469660D03*
X59881040Y61469660D03*
X59381040Y61469660D03*
X58881040Y61469660D03*
X58381040Y61469660D03*
X57881040Y61469660D03*
X57381040Y61469660D03*
D18*
X56731040Y60819660D03*
X56731040Y60319660D03*
X56731040Y59819660D03*
X56731040Y59319660D03*
X56731040Y58819660D03*
X56731040Y58319660D03*
X56731040Y57819660D03*
X56731040Y57319660D03*
D16*
X59906040Y59844660D03*
D19*
X56091040Y60479660D03*
X55531040Y60479660D03*
X56081040Y59489660D03*
X55521040Y59489660D03*
D15*
X62241040Y57589660D03*
X62241040Y57029660D03*
D20*
X63748800Y57429280D03*
X63748800Y56329280D03*
D19*
X62748640Y58865560D03*
X62188640Y58865560D03*
X62579800Y58388040D03*
X63139800Y58388040D03*
D15*
X62197220Y56027740D03*
X62197220Y56587740D03*
D21*
X59210000Y55960000D03*
X59730000Y55960000D03*
X58760000Y55960000D03*
X58240000Y55960000D03*
D22*
X61729500Y55570260D03*
X61729500Y56090260D03*
D21*
X63710000Y58920000D03*
X63190000Y58920000D03*
D22*
X61152920Y55575340D03*
X61152920Y56095340D03*
D21*
X60660000Y55960000D03*
X60140000Y55960000D03*
D10*
G36*
X62231120Y63554674D02*
X62125054Y63660740D01*
X62274960Y63810646D01*
X62381026Y63704580D01*
X62231120Y63554674D01*
X62231120Y63554674D01*
G37*
D23*
X62186040Y63759660D03*
D24*
X62111040Y63684660D03*
X63191040Y63034660D03*
D23*
X63116040Y62959660D03*
D10*
G36*
X63070960Y63164646D02*
X63177026Y63058580D01*
X63027120Y62908674D01*
X62921054Y63014740D01*
X63070960Y63164646D01*
X63070960Y63164646D01*
G37*
G36*
X62382026Y63014740D02*
X62275960Y62908674D01*
X62126054Y63058580D01*
X62232120Y63164646D01*
X62382026Y63014740D01*
X62382026Y63014740D01*
G37*
D23*
X62187040Y62959660D03*
D24*
X62111040Y63034660D03*
D10*
G36*
X62651040Y63727356D02*
X63018736Y63359660D01*
X62651040Y62991964D01*
X62283344Y63359660D01*
X62651040Y63727356D01*
X62651040Y63727356D01*
G37*
D24*
X63191040Y63684660D03*
D23*
X63116040Y63759660D03*
D10*
G36*
X62921054Y63704580D02*
X63027120Y63810646D01*
X63177026Y63660740D01*
X63070960Y63554674D01*
X62921054Y63704580D01*
X62921054Y63704580D01*
G37*
D25*
X61950000Y64280000D03*
X63050000Y64280000D03*
D20*
X63780000Y63290000D03*
X63780000Y64390000D03*
D26*
X55685000Y64140000D03*
X55685000Y63640000D03*
X55685000Y63140000D03*
X55685000Y62640000D03*
D27*
X56360000Y62470000D03*
X56860000Y62470000D03*
X57360000Y62470000D03*
D26*
X58035000Y62640000D03*
X58035000Y63140000D03*
X58035000Y63640000D03*
X58035000Y64140000D03*
D27*
X57360000Y64310000D03*
X56860000Y64310000D03*
X56360000Y64310000D03*
D15*
X56020000Y61760000D03*
X56020000Y61200000D03*
X71020000Y61760000D03*
X71020000Y61200000D03*
D26*
X70685000Y64140000D03*
X70685000Y63640000D03*
X70685000Y63140000D03*
X70685000Y62640000D03*
D27*
X71360000Y62470000D03*
X71860000Y62470000D03*
X72360000Y62470000D03*
D26*
X73035000Y62640000D03*
X73035000Y63140000D03*
X73035000Y63640000D03*
X73035000Y64140000D03*
D27*
X72360000Y64310000D03*
X71860000Y64310000D03*
X71360000Y64310000D03*
D20*
X78780000Y63290000D03*
X78780000Y64390000D03*
D25*
X76950000Y64280000D03*
X78050000Y64280000D03*
D10*
G36*
X77231120Y63554674D02*
X77125054Y63660740D01*
X77274960Y63810646D01*
X77381026Y63704580D01*
X77231120Y63554674D01*
X77231120Y63554674D01*
G37*
D23*
X77186040Y63759660D03*
D24*
X77111040Y63684660D03*
X78191040Y63034660D03*
D23*
X78116040Y62959660D03*
D10*
G36*
X78070960Y63164646D02*
X78177026Y63058580D01*
X78027120Y62908674D01*
X77921054Y63014740D01*
X78070960Y63164646D01*
X78070960Y63164646D01*
G37*
G36*
X77382026Y63014740D02*
X77275960Y62908674D01*
X77126054Y63058580D01*
X77232120Y63164646D01*
X77382026Y63014740D01*
X77382026Y63014740D01*
G37*
D23*
X77187040Y62959660D03*
D24*
X77111040Y63034660D03*
D10*
G36*
X77651040Y63727356D02*
X78018736Y63359660D01*
X77651040Y62991964D01*
X77283344Y63359660D01*
X77651040Y63727356D01*
X77651040Y63727356D01*
G37*
D24*
X78191040Y63684660D03*
D23*
X78116040Y63759660D03*
D10*
G36*
X77921054Y63704580D02*
X78027120Y63810646D01*
X78177026Y63660740D01*
X78070960Y63554674D01*
X77921054Y63704580D01*
X77921054Y63704580D01*
G37*
D21*
X75660000Y55960000D03*
X75140000Y55960000D03*
D22*
X76152920Y55575340D03*
X76152920Y56095340D03*
D21*
X78710000Y58920000D03*
X78190000Y58920000D03*
D22*
X76729500Y55570260D03*
X76729500Y56090260D03*
D21*
X73760000Y55960000D03*
X73240000Y55960000D03*
X74210000Y55960000D03*
X74730000Y55960000D03*
D15*
X77197220Y56027740D03*
X77197220Y56587740D03*
D19*
X77579800Y58388040D03*
X78139800Y58388040D03*
X77748640Y58865560D03*
X77188640Y58865560D03*
D20*
X78748800Y57429280D03*
X78748800Y56329280D03*
D15*
X77241040Y57589660D03*
X77241040Y57029660D03*
D19*
X71081040Y59489660D03*
X70521040Y59489660D03*
X71091040Y60479660D03*
X70531040Y60479660D03*
D16*
X74906040Y58294660D03*
X73356040Y58294660D03*
X73356040Y59844660D03*
D17*
X72381040Y56669660D03*
X72881040Y56669660D03*
X73381040Y56669660D03*
X73881040Y56669660D03*
X74381040Y56669660D03*
X74881040Y56669660D03*
X75381040Y56669660D03*
X75881040Y56669660D03*
D18*
X76531040Y57319660D03*
X76531040Y57819660D03*
X76531040Y58319660D03*
X76531040Y58819660D03*
X76531040Y59319660D03*
X76531040Y59819660D03*
X76531040Y60319660D03*
X76531040Y60819660D03*
D17*
X75881040Y61469660D03*
X75381040Y61469660D03*
X74881040Y61469660D03*
X74381040Y61469660D03*
X73881040Y61469660D03*
X73381040Y61469660D03*
X72881040Y61469660D03*
X72381040Y61469660D03*
D18*
X71731040Y60819660D03*
X71731040Y60319660D03*
X71731040Y59819660D03*
X71731040Y59319660D03*
X71731040Y58819660D03*
X71731040Y58319660D03*
X71731040Y57819660D03*
X71731040Y57319660D03*
D16*
X74906040Y59844660D03*
D15*
X77271040Y61089660D03*
X77271040Y60529660D03*
D14*
X78143000Y62009660D03*
D13*
X79312680Y57058940D03*
X79312680Y57608940D03*
D12*
X76075000Y63020000D03*
X76625000Y63020000D03*
X76075000Y78020000D03*
X76625000Y78020000D03*
D13*
X79312680Y72058940D03*
X79312680Y72608940D03*
D14*
X78143000Y77009660D03*
D15*
X77271040Y76089660D03*
X77271040Y75529660D03*
D16*
X74906040Y73294660D03*
X73356040Y73294660D03*
X73356040Y74844660D03*
D17*
X72381040Y71669660D03*
X72881040Y71669660D03*
X73381040Y71669660D03*
X73881040Y71669660D03*
X74381040Y71669660D03*
X74881040Y71669660D03*
X75381040Y71669660D03*
X75881040Y71669660D03*
D18*
X76531040Y72319660D03*
X76531040Y72819660D03*
X76531040Y73319660D03*
X76531040Y73819660D03*
X76531040Y74319660D03*
X76531040Y74819660D03*
X76531040Y75319660D03*
X76531040Y75819660D03*
D17*
X75881040Y76469660D03*
X75381040Y76469660D03*
X74881040Y76469660D03*
X74381040Y76469660D03*
X73881040Y76469660D03*
X73381040Y76469660D03*
X72881040Y76469660D03*
X72381040Y76469660D03*
D18*
X71731040Y75819660D03*
X71731040Y75319660D03*
X71731040Y74819660D03*
X71731040Y74319660D03*
X71731040Y73819660D03*
X71731040Y73319660D03*
X71731040Y72819660D03*
X71731040Y72319660D03*
D16*
X74906040Y74844660D03*
D19*
X71091040Y75479660D03*
X70531040Y75479660D03*
X71081040Y74489660D03*
X70521040Y74489660D03*
D15*
X77241040Y72589660D03*
X77241040Y72029660D03*
D20*
X78748800Y72429280D03*
X78748800Y71329280D03*
D19*
X77748640Y73865560D03*
X77188640Y73865560D03*
X77579800Y73388040D03*
X78139800Y73388040D03*
D15*
X77197220Y71027740D03*
X77197220Y71587740D03*
D21*
X74210000Y70960000D03*
X74730000Y70960000D03*
X73760000Y70960000D03*
X73240000Y70960000D03*
D22*
X76729500Y70570260D03*
X76729500Y71090260D03*
D21*
X78710000Y73920000D03*
X78190000Y73920000D03*
D22*
X76152920Y70575340D03*
X76152920Y71095340D03*
D21*
X75660000Y70960000D03*
X75140000Y70960000D03*
D10*
G36*
X77231120Y78554674D02*
X77125054Y78660740D01*
X77274960Y78810646D01*
X77381026Y78704580D01*
X77231120Y78554674D01*
X77231120Y78554674D01*
G37*
D23*
X77186040Y78759660D03*
D24*
X77111040Y78684660D03*
X78191040Y78034660D03*
D23*
X78116040Y77959660D03*
D10*
G36*
X78070960Y78164646D02*
X78177026Y78058580D01*
X78027120Y77908674D01*
X77921054Y78014740D01*
X78070960Y78164646D01*
X78070960Y78164646D01*
G37*
G36*
X77382026Y78014740D02*
X77275960Y77908674D01*
X77126054Y78058580D01*
X77232120Y78164646D01*
X77382026Y78014740D01*
X77382026Y78014740D01*
G37*
D23*
X77187040Y77959660D03*
D24*
X77111040Y78034660D03*
D10*
G36*
X77651040Y78727356D02*
X78018736Y78359660D01*
X77651040Y77991964D01*
X77283344Y78359660D01*
X77651040Y78727356D01*
X77651040Y78727356D01*
G37*
D24*
X78191040Y78684660D03*
D23*
X78116040Y78759660D03*
D10*
G36*
X77921054Y78704580D02*
X78027120Y78810646D01*
X78177026Y78660740D01*
X78070960Y78554674D01*
X77921054Y78704580D01*
X77921054Y78704580D01*
G37*
D25*
X76950000Y79280000D03*
X78050000Y79280000D03*
D20*
X78780000Y78290000D03*
X78780000Y79390000D03*
D26*
X70685000Y79140000D03*
X70685000Y78640000D03*
X70685000Y78140000D03*
X70685000Y77640000D03*
D27*
X71360000Y77470000D03*
X71860000Y77470000D03*
X72360000Y77470000D03*
D26*
X73035000Y77640000D03*
X73035000Y78140000D03*
X73035000Y78640000D03*
X73035000Y79140000D03*
D27*
X72360000Y79310000D03*
X71860000Y79310000D03*
X71360000Y79310000D03*
D15*
X71020000Y76760000D03*
X71020000Y76200000D03*
X56020000Y76760000D03*
X56020000Y76200000D03*
D26*
X55685000Y79140000D03*
X55685000Y78640000D03*
X55685000Y78140000D03*
X55685000Y77640000D03*
D27*
X56360000Y77470000D03*
X56860000Y77470000D03*
X57360000Y77470000D03*
D26*
X58035000Y77640000D03*
X58035000Y78140000D03*
X58035000Y78640000D03*
X58035000Y79140000D03*
D27*
X57360000Y79310000D03*
X56860000Y79310000D03*
X56360000Y79310000D03*
D20*
X63780000Y78290000D03*
X63780000Y79390000D03*
D25*
X61950000Y79280000D03*
X63050000Y79280000D03*
D10*
G36*
X62231120Y78554674D02*
X62125054Y78660740D01*
X62274960Y78810646D01*
X62381026Y78704580D01*
X62231120Y78554674D01*
X62231120Y78554674D01*
G37*
D23*
X62186040Y78759660D03*
D24*
X62111040Y78684660D03*
X63191040Y78034660D03*
D23*
X63116040Y77959660D03*
D10*
G36*
X63070960Y78164646D02*
X63177026Y78058580D01*
X63027120Y77908674D01*
X62921054Y78014740D01*
X63070960Y78164646D01*
X63070960Y78164646D01*
G37*
G36*
X62382026Y78014740D02*
X62275960Y77908674D01*
X62126054Y78058580D01*
X62232120Y78164646D01*
X62382026Y78014740D01*
X62382026Y78014740D01*
G37*
D23*
X62187040Y77959660D03*
D24*
X62111040Y78034660D03*
D10*
G36*
X62651040Y78727356D02*
X63018736Y78359660D01*
X62651040Y77991964D01*
X62283344Y78359660D01*
X62651040Y78727356D01*
X62651040Y78727356D01*
G37*
D24*
X63191040Y78684660D03*
D23*
X63116040Y78759660D03*
D10*
G36*
X62921054Y78704580D02*
X63027120Y78810646D01*
X63177026Y78660740D01*
X63070960Y78554674D01*
X62921054Y78704580D01*
X62921054Y78704580D01*
G37*
D21*
X60660000Y70960000D03*
X60140000Y70960000D03*
D22*
X61152920Y70575340D03*
X61152920Y71095340D03*
D21*
X63710000Y73920000D03*
X63190000Y73920000D03*
D22*
X61729500Y70570260D03*
X61729500Y71090260D03*
D21*
X58760000Y70960000D03*
X58240000Y70960000D03*
X59210000Y70960000D03*
X59730000Y70960000D03*
D15*
X62197220Y71027740D03*
X62197220Y71587740D03*
D19*
X62579800Y73388040D03*
X63139800Y73388040D03*
X62748640Y73865560D03*
X62188640Y73865560D03*
D20*
X63748800Y72429280D03*
X63748800Y71329280D03*
D15*
X62241040Y72589660D03*
X62241040Y72029660D03*
D19*
X56081040Y74489660D03*
X55521040Y74489660D03*
X56091040Y75479660D03*
X55531040Y75479660D03*
D16*
X59906040Y73294660D03*
X58356040Y73294660D03*
X58356040Y74844660D03*
D17*
X57381040Y71669660D03*
X57881040Y71669660D03*
X58381040Y71669660D03*
X58881040Y71669660D03*
X59381040Y71669660D03*
X59881040Y71669660D03*
X60381040Y71669660D03*
X60881040Y71669660D03*
D18*
X61531040Y72319660D03*
X61531040Y72819660D03*
X61531040Y73319660D03*
X61531040Y73819660D03*
X61531040Y74319660D03*
X61531040Y74819660D03*
X61531040Y75319660D03*
X61531040Y75819660D03*
D17*
X60881040Y76469660D03*
X60381040Y76469660D03*
X59881040Y76469660D03*
X59381040Y76469660D03*
X58881040Y76469660D03*
X58381040Y76469660D03*
X57881040Y76469660D03*
X57381040Y76469660D03*
D18*
X56731040Y75819660D03*
X56731040Y75319660D03*
X56731040Y74819660D03*
X56731040Y74319660D03*
X56731040Y73819660D03*
X56731040Y73319660D03*
X56731040Y72819660D03*
X56731040Y72319660D03*
D16*
X59906040Y74844660D03*
D15*
X62271040Y76089660D03*
X62271040Y75529660D03*
D14*
X63143000Y77009660D03*
D13*
X64312680Y72058940D03*
X64312680Y72608940D03*
D12*
X61075000Y78020000D03*
X61625000Y78020000D03*
X46075000Y78020000D03*
X46625000Y78020000D03*
D13*
X49312680Y72058940D03*
X49312680Y72608940D03*
D14*
X48143000Y77009660D03*
D15*
X47271040Y76089660D03*
X47271040Y75529660D03*
D16*
X44906040Y73294660D03*
X43356040Y73294660D03*
X43356040Y74844660D03*
D17*
X42381040Y71669660D03*
X42881040Y71669660D03*
X43381040Y71669660D03*
X43881040Y71669660D03*
X44381040Y71669660D03*
X44881040Y71669660D03*
X45381040Y71669660D03*
X45881040Y71669660D03*
D18*
X46531040Y72319660D03*
X46531040Y72819660D03*
X46531040Y73319660D03*
X46531040Y73819660D03*
X46531040Y74319660D03*
X46531040Y74819660D03*
X46531040Y75319660D03*
X46531040Y75819660D03*
D17*
X45881040Y76469660D03*
X45381040Y76469660D03*
X44881040Y76469660D03*
X44381040Y76469660D03*
X43881040Y76469660D03*
X43381040Y76469660D03*
X42881040Y76469660D03*
X42381040Y76469660D03*
D18*
X41731040Y75819660D03*
X41731040Y75319660D03*
X41731040Y74819660D03*
X41731040Y74319660D03*
X41731040Y73819660D03*
X41731040Y73319660D03*
X41731040Y72819660D03*
X41731040Y72319660D03*
D16*
X44906040Y74844660D03*
D19*
X41091040Y75479660D03*
X40531040Y75479660D03*
X41081040Y74489660D03*
X40521040Y74489660D03*
D15*
X47241040Y72589660D03*
X47241040Y72029660D03*
D20*
X48748800Y72429280D03*
X48748800Y71329280D03*
D19*
X47748640Y73865560D03*
X47188640Y73865560D03*
X47579800Y73388040D03*
X48139800Y73388040D03*
D15*
X47197220Y71027740D03*
X47197220Y71587740D03*
D21*
X44210000Y70960000D03*
X44730000Y70960000D03*
X43760000Y70960000D03*
X43240000Y70960000D03*
D22*
X46729500Y70570260D03*
X46729500Y71090260D03*
D21*
X48710000Y73920000D03*
X48190000Y73920000D03*
D22*
X46152920Y70575340D03*
X46152920Y71095340D03*
D21*
X45660000Y70960000D03*
X45140000Y70960000D03*
D10*
G36*
X47231120Y78554674D02*
X47125054Y78660740D01*
X47274960Y78810646D01*
X47381026Y78704580D01*
X47231120Y78554674D01*
X47231120Y78554674D01*
G37*
D23*
X47186040Y78759660D03*
D24*
X47111040Y78684660D03*
X48191040Y78034660D03*
D23*
X48116040Y77959660D03*
D10*
G36*
X48070960Y78164646D02*
X48177026Y78058580D01*
X48027120Y77908674D01*
X47921054Y78014740D01*
X48070960Y78164646D01*
X48070960Y78164646D01*
G37*
G36*
X47382026Y78014740D02*
X47275960Y77908674D01*
X47126054Y78058580D01*
X47232120Y78164646D01*
X47382026Y78014740D01*
X47382026Y78014740D01*
G37*
D23*
X47187040Y77959660D03*
D24*
X47111040Y78034660D03*
D10*
G36*
X47651040Y78727356D02*
X48018736Y78359660D01*
X47651040Y77991964D01*
X47283344Y78359660D01*
X47651040Y78727356D01*
X47651040Y78727356D01*
G37*
D24*
X48191040Y78684660D03*
D23*
X48116040Y78759660D03*
D10*
G36*
X47921054Y78704580D02*
X48027120Y78810646D01*
X48177026Y78660740D01*
X48070960Y78554674D01*
X47921054Y78704580D01*
X47921054Y78704580D01*
G37*
D25*
X46950000Y79280000D03*
X48050000Y79280000D03*
D20*
X48780000Y78290000D03*
X48780000Y79390000D03*
D26*
X40685000Y79140000D03*
X40685000Y78640000D03*
X40685000Y78140000D03*
X40685000Y77640000D03*
D27*
X41360000Y77470000D03*
X41860000Y77470000D03*
X42360000Y77470000D03*
D26*
X43035000Y77640000D03*
X43035000Y78140000D03*
X43035000Y78640000D03*
X43035000Y79140000D03*
D27*
X42360000Y79310000D03*
X41860000Y79310000D03*
X41360000Y79310000D03*
D15*
X41020000Y76760000D03*
X41020000Y76200000D03*
X26020000Y76760000D03*
X26020000Y76200000D03*
D26*
X25685000Y79140000D03*
X25685000Y78640000D03*
X25685000Y78140000D03*
X25685000Y77640000D03*
D27*
X26360000Y77470000D03*
X26860000Y77470000D03*
X27360000Y77470000D03*
D26*
X28035000Y77640000D03*
X28035000Y78140000D03*
X28035000Y78640000D03*
X28035000Y79140000D03*
D27*
X27360000Y79310000D03*
X26860000Y79310000D03*
X26360000Y79310000D03*
D20*
X33780000Y78290000D03*
X33780000Y79390000D03*
D25*
X31950000Y79280000D03*
X33050000Y79280000D03*
D10*
G36*
X32231120Y78554674D02*
X32125054Y78660740D01*
X32274960Y78810646D01*
X32381026Y78704580D01*
X32231120Y78554674D01*
X32231120Y78554674D01*
G37*
D23*
X32186040Y78759660D03*
D24*
X32111040Y78684660D03*
X33191040Y78034660D03*
D23*
X33116040Y77959660D03*
D10*
G36*
X33070960Y78164646D02*
X33177026Y78058580D01*
X33027120Y77908674D01*
X32921054Y78014740D01*
X33070960Y78164646D01*
X33070960Y78164646D01*
G37*
G36*
X32382026Y78014740D02*
X32275960Y77908674D01*
X32126054Y78058580D01*
X32232120Y78164646D01*
X32382026Y78014740D01*
X32382026Y78014740D01*
G37*
D23*
X32187040Y77959660D03*
D24*
X32111040Y78034660D03*
D10*
G36*
X32651040Y78727356D02*
X33018736Y78359660D01*
X32651040Y77991964D01*
X32283344Y78359660D01*
X32651040Y78727356D01*
X32651040Y78727356D01*
G37*
D24*
X33191040Y78684660D03*
D23*
X33116040Y78759660D03*
D10*
G36*
X32921054Y78704580D02*
X33027120Y78810646D01*
X33177026Y78660740D01*
X33070960Y78554674D01*
X32921054Y78704580D01*
X32921054Y78704580D01*
G37*
D21*
X30660000Y70960000D03*
X30140000Y70960000D03*
D22*
X31152920Y70575340D03*
X31152920Y71095340D03*
D21*
X33710000Y73920000D03*
X33190000Y73920000D03*
D22*
X31729500Y70570260D03*
X31729500Y71090260D03*
D21*
X28760000Y70960000D03*
X28240000Y70960000D03*
X29210000Y70960000D03*
X29730000Y70960000D03*
D15*
X32197220Y71027740D03*
X32197220Y71587740D03*
D19*
X32579800Y73388040D03*
X33139800Y73388040D03*
X32748640Y73865560D03*
X32188640Y73865560D03*
D20*
X33748800Y72429280D03*
X33748800Y71329280D03*
D15*
X32241040Y72589660D03*
X32241040Y72029660D03*
D19*
X26081040Y74489660D03*
X25521040Y74489660D03*
X26091040Y75479660D03*
X25531040Y75479660D03*
D16*
X29906040Y73294660D03*
X28356040Y73294660D03*
X28356040Y74844660D03*
D17*
X27381040Y71669660D03*
X27881040Y71669660D03*
X28381040Y71669660D03*
X28881040Y71669660D03*
X29381040Y71669660D03*
X29881040Y71669660D03*
X30381040Y71669660D03*
X30881040Y71669660D03*
D18*
X31531040Y72319660D03*
X31531040Y72819660D03*
X31531040Y73319660D03*
X31531040Y73819660D03*
X31531040Y74319660D03*
X31531040Y74819660D03*
X31531040Y75319660D03*
X31531040Y75819660D03*
D17*
X30881040Y76469660D03*
X30381040Y76469660D03*
X29881040Y76469660D03*
X29381040Y76469660D03*
X28881040Y76469660D03*
X28381040Y76469660D03*
X27881040Y76469660D03*
X27381040Y76469660D03*
D18*
X26731040Y75819660D03*
X26731040Y75319660D03*
X26731040Y74819660D03*
X26731040Y74319660D03*
X26731040Y73819660D03*
X26731040Y73319660D03*
X26731040Y72819660D03*
X26731040Y72319660D03*
D16*
X29906040Y74844660D03*
D15*
X32271040Y76089660D03*
X32271040Y75529660D03*
D14*
X33143000Y77009660D03*
D13*
X34312680Y72058940D03*
X34312680Y72608940D03*
D12*
X31075000Y78020000D03*
X31625000Y78020000D03*
X16075000Y78020000D03*
X16625000Y78020000D03*
D13*
X19312680Y72058940D03*
X19312680Y72608940D03*
D14*
X18143000Y77009660D03*
D15*
X17271040Y76089660D03*
X17271040Y75529660D03*
D16*
X14906040Y73294660D03*
X13356040Y73294660D03*
X13356040Y74844660D03*
D17*
X12381040Y71669660D03*
X12881040Y71669660D03*
X13381040Y71669660D03*
X13881040Y71669660D03*
X14381040Y71669660D03*
X14881040Y71669660D03*
X15381040Y71669660D03*
X15881040Y71669660D03*
D18*
X16531040Y72319660D03*
X16531040Y72819660D03*
X16531040Y73319660D03*
X16531040Y73819660D03*
X16531040Y74319660D03*
X16531040Y74819660D03*
X16531040Y75319660D03*
X16531040Y75819660D03*
D17*
X15881040Y76469660D03*
X15381040Y76469660D03*
X14881040Y76469660D03*
X14381040Y76469660D03*
X13881040Y76469660D03*
X13381040Y76469660D03*
X12881040Y76469660D03*
X12381040Y76469660D03*
D18*
X11731040Y75819660D03*
X11731040Y75319660D03*
X11731040Y74819660D03*
X11731040Y74319660D03*
X11731040Y73819660D03*
X11731040Y73319660D03*
X11731040Y72819660D03*
X11731040Y72319660D03*
D16*
X14906040Y74844660D03*
D19*
X11091040Y75479660D03*
X10531040Y75479660D03*
X11081040Y74489660D03*
X10521040Y74489660D03*
D15*
X17241040Y72589660D03*
X17241040Y72029660D03*
D20*
X18748800Y72429280D03*
X18748800Y71329280D03*
D19*
X17748640Y73865560D03*
X17188640Y73865560D03*
X17579800Y73388040D03*
X18139800Y73388040D03*
D15*
X17197220Y71027740D03*
X17197220Y71587740D03*
D21*
X14210000Y70960000D03*
X14730000Y70960000D03*
X13760000Y70960000D03*
X13240000Y70960000D03*
D22*
X16729500Y70570260D03*
X16729500Y71090260D03*
D21*
X18710000Y73920000D03*
X18190000Y73920000D03*
D22*
X16152920Y70575340D03*
X16152920Y71095340D03*
D21*
X15660000Y70960000D03*
X15140000Y70960000D03*
D10*
G36*
X17231120Y78554674D02*
X17125054Y78660740D01*
X17274960Y78810646D01*
X17381026Y78704580D01*
X17231120Y78554674D01*
X17231120Y78554674D01*
G37*
D23*
X17186040Y78759660D03*
D24*
X17111040Y78684660D03*
X18191040Y78034660D03*
D23*
X18116040Y77959660D03*
D10*
G36*
X18070960Y78164646D02*
X18177026Y78058580D01*
X18027120Y77908674D01*
X17921054Y78014740D01*
X18070960Y78164646D01*
X18070960Y78164646D01*
G37*
G36*
X17382026Y78014740D02*
X17275960Y77908674D01*
X17126054Y78058580D01*
X17232120Y78164646D01*
X17382026Y78014740D01*
X17382026Y78014740D01*
G37*
D23*
X17187040Y77959660D03*
D24*
X17111040Y78034660D03*
D10*
G36*
X17651040Y78727356D02*
X18018736Y78359660D01*
X17651040Y77991964D01*
X17283344Y78359660D01*
X17651040Y78727356D01*
X17651040Y78727356D01*
G37*
D24*
X18191040Y78684660D03*
D23*
X18116040Y78759660D03*
D10*
G36*
X17921054Y78704580D02*
X18027120Y78810646D01*
X18177026Y78660740D01*
X18070960Y78554674D01*
X17921054Y78704580D01*
X17921054Y78704580D01*
G37*
D25*
X16950000Y79280000D03*
X18050000Y79280000D03*
D20*
X18780000Y78290000D03*
X18780000Y79390000D03*
D26*
X10685000Y79140000D03*
X10685000Y78640000D03*
X10685000Y78140000D03*
X10685000Y77640000D03*
D27*
X11360000Y77470000D03*
X11860000Y77470000D03*
X12360000Y77470000D03*
D26*
X13035000Y77640000D03*
X13035000Y78140000D03*
X13035000Y78640000D03*
X13035000Y79140000D03*
D27*
X12360000Y79310000D03*
X11860000Y79310000D03*
X11360000Y79310000D03*
D15*
X11020000Y76760000D03*
X11020000Y76200000D03*
M02*
