G04 This is an RS-274x file exported by *
G04 gerbv version 2.6A *
G04 More information is available about gerbv at *
G04 http://gerbv.geda-project.org/ *
G04 --End of header info--*
%MOIN*%
%FSLAX34Y34*%
%IPPOS*%
G04 --Define apertures--*
%ADD10R,0.0110X0.0169*%
%ADD11R,0.0169X0.0110*%
%ADD12C,0.0059*%
%ADD13R,0.0154X0.0043*%
%ADD14R,0.0094X0.0102*%
%ADD15C,0.0205*%
%ADD16R,0.0512X0.0433*%
%ADD17R,0.0138X0.0118*%
%ADD18R,0.0236X0.0157*%
%ADD19R,0.0551X0.0256*%
%ADD20R,0.0197X0.0157*%
%ADD21C,0.0394*%
%ADD22C,0.0079*%
%AMMACRO23*
1,1,0.011811,-0.006590,0.004863*
1,1,0.011811,-0.076987,0.004863*
20,1,0.011811,-0.006590,0.004863,-0.076987,0.004863,0.000000*
1,1,0.011811,-0.124700,0.004863*
1,1,0.011811,-0.124700,0.110458*
20,1,0.011811,-0.124700,0.004863,-0.124700,0.110458,0.000000*
1,1,0.011811,-0.124700,0.110458*
1,1,0.011811,-0.177498,0.110458*
20,1,0.011811,-0.124700,0.110458,-0.177498,0.110458,0.000000*
1,1,0.011811,-0.177498,0.110458*
1,1,0.011811,-0.195097,0.092859*
20,1,0.011811,-0.177498,0.110458,-0.195097,0.092859,0.000000*
1,1,0.011811,-0.195097,0.092859*
1,1,0.011811,-0.195097,0.075260*
20,1,0.011811,-0.195097,0.092859,-0.195097,0.075260,0.000000*
1,1,0.011811,-0.195097,0.075260*
1,1,0.011811,-0.177498,0.057661*
20,1,0.011811,-0.195097,0.075260,-0.177498,0.057661,0.000000*
1,1,0.011811,-0.177498,0.057661*
1,1,0.011811,-0.124700,0.057661*
20,1,0.011811,-0.177498,0.057661,-0.124700,0.057661,0.000000*
1,1,0.011811,-0.242811,0.004863*
1,1,0.011811,-0.242811,0.092859*
20,1,0.011811,-0.242811,0.004863,-0.242811,0.092859,0.000000*
1,1,0.011811,-0.242811,0.092859*
1,1,0.011811,-0.260410,0.110458*
20,1,0.011811,-0.242811,0.092859,-0.260410,0.110458,0.000000*
1,1,0.011811,-0.260410,0.110458*
1,1,0.011811,-0.295608,0.110458*
20,1,0.011811,-0.260410,0.110458,-0.295608,0.110458,0.000000*
1,1,0.011811,-0.295608,0.110458*
1,1,0.011811,-0.313207,0.092859*
20,1,0.011811,-0.295608,0.110458,-0.313207,0.092859,0.000000*
1,1,0.011811,-0.313207,0.092859*
1,1,0.011811,-0.313207,0.004863*
20,1,0.011811,-0.313207,0.092859,-0.313207,0.004863,0.000000*
1,1,0.011811,-0.242811,0.057661*
1,1,0.011811,-0.313207,0.057661*
20,1,0.011811,-0.242811,0.057661,-0.313207,0.057661,0.000000*
1,1,0.011811,-0.360921,0.022462*
1,1,0.011811,-0.378520,0.004863*
20,1,0.011811,-0.360921,0.022462,-0.378520,0.004863,0.000000*
1,1,0.011811,-0.378520,0.004863*
1,1,0.011811,-0.413718,0.004863*
20,1,0.011811,-0.378520,0.004863,-0.413718,0.004863,0.000000*
1,1,0.011811,-0.413718,0.004863*
1,1,0.011811,-0.431318,0.022462*
20,1,0.011811,-0.413718,0.004863,-0.431318,0.022462,0.000000*
1,1,0.011811,-0.431318,0.022462*
1,1,0.011811,-0.431318,0.040062*
20,1,0.011811,-0.431318,0.022462,-0.431318,0.040062,0.000000*
1,1,0.011811,-0.431318,0.040062*
1,1,0.011811,-0.413718,0.057661*
20,1,0.011811,-0.431318,0.040062,-0.413718,0.057661,0.000000*
1,1,0.011811,-0.413718,0.057661*
1,1,0.011811,-0.378520,0.057661*
20,1,0.011811,-0.413718,0.057661,-0.378520,0.057661,0.000000*
1,1,0.011811,-0.378520,0.057661*
1,1,0.011811,-0.360921,0.075260*
20,1,0.011811,-0.378520,0.057661,-0.360921,0.075260,0.000000*
1,1,0.011811,-0.360921,0.075260*
1,1,0.011811,-0.360921,0.092859*
20,1,0.011811,-0.360921,0.075260,-0.360921,0.092859,0.000000*
1,1,0.011811,-0.360921,0.092859*
1,1,0.011811,-0.378520,0.110458*
20,1,0.011811,-0.360921,0.092859,-0.378520,0.110458,0.000000*
1,1,0.011811,-0.378520,0.110458*
1,1,0.011811,-0.413718,0.110458*
20,1,0.011811,-0.378520,0.110458,-0.413718,0.110458,0.000000*
1,1,0.011811,-0.413718,0.110458*
1,1,0.011811,-0.431318,0.092859*
20,1,0.011811,-0.413718,0.110458,-0.431318,0.092859,0.000000*
1,1,0.011811,-0.479031,0.110458*
1,1,0.011811,-0.549428,0.110458*
20,1,0.011811,-0.479031,0.110458,-0.549428,0.110458,0.000000*
1,1,0.011811,-0.514230,0.110458*
1,1,0.011811,-0.514230,0.004863*
20,1,0.011811,-0.514230,0.110458,-0.514230,0.004863,0.000000*
1,1,0.011811,-0.597141,0.110458*
1,1,0.011811,-0.667538,0.110458*
20,1,0.011811,-0.597141,0.110458,-0.667538,0.110458,0.000000*
1,1,0.011811,-0.597141,0.004863*
1,1,0.011811,-0.667538,0.004863*
20,1,0.011811,-0.597141,0.004863,-0.667538,0.004863,0.000000*
1,1,0.011811,-0.597141,0.057661*
1,1,0.011811,-0.649939,0.057661*
20,1,0.011811,-0.597141,0.057661,-0.649939,0.057661,0.000000*
1,1,0.011811,-0.597141,0.110458*
1,1,0.011811,-0.597141,0.004863*
20,1,0.011811,-0.597141,0.110458,-0.597141,0.004863,0.000000*
1,1,0.011811,-0.715252,0.057661*
1,1,0.011811,-0.785648,0.057661*
20,1,0.011811,-0.715252,0.057661,-0.785648,0.057661,0.000000*
1,1,0.011811,-0.833362,0.004863*
1,1,0.011811,-0.833362,0.110458*
20,1,0.011811,-0.833362,0.004863,-0.833362,0.110458,0.000000*
1,1,0.011811,-0.833362,0.110458*
1,1,0.011811,-0.886159,0.110458*
20,1,0.011811,-0.833362,0.110458,-0.886159,0.110458,0.000000*
1,1,0.011811,-0.886159,0.110458*
1,1,0.011811,-0.903759,0.092859*
20,1,0.011811,-0.886159,0.110458,-0.903759,0.092859,0.000000*
1,1,0.011811,-0.903759,0.092859*
1,1,0.011811,-0.903759,0.075260*
20,1,0.011811,-0.903759,0.092859,-0.903759,0.075260,0.000000*
1,1,0.011811,-0.903759,0.075260*
1,1,0.011811,-0.886159,0.057661*
20,1,0.011811,-0.903759,0.075260,-0.886159,0.057661,0.000000*
1,1,0.011811,-0.886159,0.057661*
1,1,0.011811,-0.833362,0.057661*
20,1,0.011811,-0.886159,0.057661,-0.833362,0.057661,0.000000*
1,1,0.011811,-0.850961,0.057661*
1,1,0.011811,-0.903759,0.004863*
20,1,0.011811,-0.850961,0.057661,-0.903759,0.004863,0.000000*
1,1,0.011811,-0.951472,0.022462*
1,1,0.011811,-0.969071,0.004863*
20,1,0.011811,-0.951472,0.022462,-0.969071,0.004863,0.000000*
1,1,0.011811,-0.969071,0.004863*
1,1,0.011811,-1.004270,0.004863*
20,1,0.011811,-0.969071,0.004863,-1.004270,0.004863,0.000000*
1,1,0.011811,-1.004270,0.004863*
1,1,0.011811,-1.021869,0.022462*
20,1,0.011811,-1.004270,0.004863,-1.021869,0.022462,0.000000*
1,1,0.011811,-1.021869,0.022462*
1,1,0.011811,-1.021869,0.040062*
20,1,0.011811,-1.021869,0.022462,-1.021869,0.040062,0.000000*
1,1,0.011811,-1.021869,0.040062*
1,1,0.011811,-1.004270,0.057661*
20,1,0.011811,-1.021869,0.040062,-1.004270,0.057661,0.000000*
1,1,0.011811,-1.004270,0.057661*
1,1,0.011811,-0.969071,0.057661*
20,1,0.011811,-1.004270,0.057661,-0.969071,0.057661,0.000000*
1,1,0.011811,-0.969071,0.057661*
1,1,0.011811,-0.951472,0.075260*
20,1,0.011811,-0.969071,0.057661,-0.951472,0.075260,0.000000*
1,1,0.011811,-0.951472,0.075260*
1,1,0.011811,-0.951472,0.092859*
20,1,0.011811,-0.951472,0.075260,-0.951472,0.092859,0.000000*
1,1,0.011811,-0.951472,0.092859*
1,1,0.011811,-0.969071,0.110458*
20,1,0.011811,-0.951472,0.092859,-0.969071,0.110458,0.000000*
1,1,0.011811,-0.969071,0.110458*
1,1,0.011811,-1.004270,0.110458*
20,1,0.011811,-0.969071,0.110458,-1.004270,0.110458,0.000000*
1,1,0.011811,-1.004270,0.110458*
1,1,0.011811,-1.021869,0.092859*
20,1,0.011811,-1.004270,0.110458,-1.021869,0.092859,0.000000*
1,1,0.011811,-1.187693,0.110458*
1,1,0.011811,-1.187693,0.004863*
20,1,0.011811,-1.187693,0.110458,-1.187693,0.004863,0.000000*
1,1,0.011811,-1.187693,0.004863*
1,1,0.011811,-1.258089,0.004863*
20,1,0.011811,-1.187693,0.004863,-1.258089,0.004863,0.000000*
1,1,0.011811,-1.305803,-0.012736*
1,1,0.011811,-1.305803,0.057661*
20,1,0.011811,-1.305803,-0.012736,-1.305803,0.057661,0.000000*
1,1,0.011811,-1.305803,0.057661*
1,1,0.011811,-1.323402,0.075260*
20,1,0.011811,-1.305803,0.057661,-1.323402,0.075260,0.000000*
1,1,0.011811,-1.323402,0.075260*
1,1,0.011811,-1.358600,0.075260*
20,1,0.011811,-1.323402,0.075260,-1.358600,0.075260,0.000000*
1,1,0.011811,-1.358600,0.075260*
1,1,0.011811,-1.376200,0.057661*
20,1,0.011811,-1.358600,0.075260,-1.376200,0.057661,0.000000*
1,1,0.011811,-1.376200,0.057661*
1,1,0.011811,-1.376200,0.040062*
20,1,0.011811,-1.376200,0.057661,-1.376200,0.040062,0.000000*
1,1,0.011811,-1.376200,0.040062*
1,1,0.011811,-1.358600,0.022462*
20,1,0.011811,-1.376200,0.040062,-1.358600,0.022462,0.000000*
1,1,0.011811,-1.358600,0.022462*
1,1,0.011811,-1.305803,0.022462*
20,1,0.011811,-1.358600,0.022462,-1.305803,0.022462,0.000000*
1,1,0.011811,-1.559622,0.110458*
1,1,0.011811,-1.594821,0.110458*
20,1,0.011811,-1.559622,0.110458,-1.594821,0.110458,0.000000*
1,1,0.011811,-1.559622,0.004863*
1,1,0.011811,-1.594821,0.004863*
20,1,0.011811,-1.559622,0.004863,-1.594821,0.004863,0.000000*
1,1,0.011811,-1.577222,0.110458*
1,1,0.011811,-1.577222,0.004863*
20,1,0.011811,-1.577222,0.110458,-1.577222,0.004863,0.000000*
1,1,0.011811,-1.660133,0.004863*
1,1,0.011811,-1.660133,0.110458*
20,1,0.011811,-1.660133,0.004863,-1.660133,0.110458,0.000000*
1,1,0.011811,-1.660133,0.110458*
1,1,0.011811,-1.695332,0.057661*
20,1,0.011811,-1.660133,0.110458,-1.695332,0.057661,0.000000*
1,1,0.011811,-1.695332,0.057661*
1,1,0.011811,-1.730530,0.110458*
20,1,0.011811,-1.695332,0.057661,-1.730530,0.110458,0.000000*
1,1,0.011811,-1.730530,0.110458*
1,1,0.011811,-1.730530,0.004863*
20,1,0.011811,-1.730530,0.110458,-1.730530,0.004863,0.000000*
1,1,0.011811,-1.778244,0.004863*
1,1,0.011811,-1.778244,0.092859*
20,1,0.011811,-1.778244,0.004863,-1.778244,0.092859,0.000000*
1,1,0.011811,-1.778244,0.092859*
1,1,0.011811,-1.795843,0.110458*
20,1,0.011811,-1.778244,0.092859,-1.795843,0.110458,0.000000*
1,1,0.011811,-1.795843,0.110458*
1,1,0.011811,-1.831041,0.110458*
20,1,0.011811,-1.795843,0.110458,-1.831041,0.110458,0.000000*
1,1,0.011811,-1.831041,0.110458*
1,1,0.011811,-1.848641,0.092859*
20,1,0.011811,-1.831041,0.110458,-1.848641,0.092859,0.000000*
1,1,0.011811,-1.848641,0.092859*
1,1,0.011811,-1.848641,0.004863*
20,1,0.011811,-1.848641,0.092859,-1.848641,0.004863,0.000000*
1,1,0.011811,-1.778244,0.057661*
1,1,0.011811,-1.848641,0.057661*
20,1,0.011811,-1.778244,0.057661,-1.848641,0.057661,0.000000*
1,1,0.011811,-1.913953,0.110458*
1,1,0.011811,-1.966751,0.110458*
20,1,0.011811,-1.913953,0.110458,-1.966751,0.110458,0.000000*
1,1,0.011811,-1.913953,0.110458*
1,1,0.011811,-1.896354,0.092859*
20,1,0.011811,-1.913953,0.110458,-1.896354,0.092859,0.000000*
1,1,0.011811,-1.896354,0.092859*
1,1,0.011811,-1.896354,0.022462*
20,1,0.011811,-1.896354,0.092859,-1.896354,0.022462,0.000000*
1,1,0.011811,-1.896354,0.022462*
1,1,0.011811,-1.913953,0.004863*
20,1,0.011811,-1.896354,0.022462,-1.913953,0.004863,0.000000*
1,1,0.011811,-1.913953,0.004863*
1,1,0.011811,-1.966751,0.004863*
20,1,0.011811,-1.913953,0.004863,-1.966751,0.004863,0.000000*
1,1,0.011811,-1.966751,0.004863*
1,1,0.011811,-1.966751,0.057661*
20,1,0.011811,-1.966751,0.004863,-1.966751,0.057661,0.000000*
1,1,0.011811,-1.966751,0.057661*
1,1,0.011811,-1.949152,0.057661*
20,1,0.011811,-1.966751,0.057661,-1.949152,0.057661,0.000000*
1,1,0.011811,-2.014464,0.110458*
1,1,0.011811,-2.084861,0.110458*
20,1,0.011811,-2.014464,0.110458,-2.084861,0.110458,0.000000*
1,1,0.011811,-2.014464,0.004863*
1,1,0.011811,-2.084861,0.004863*
20,1,0.011811,-2.014464,0.004863,-2.084861,0.004863,0.000000*
1,1,0.011811,-2.014464,0.057661*
1,1,0.011811,-2.067262,0.057661*
20,1,0.011811,-2.014464,0.057661,-2.067262,0.057661,0.000000*
1,1,0.011811,-2.014464,0.110458*
1,1,0.011811,-2.014464,0.004863*
20,1,0.011811,-2.014464,0.110458,-2.014464,0.004863,0.000000*
1,1,0.011811,-2.132574,0.110458*
1,1,0.011811,-2.185372,0.110458*
20,1,0.011811,-2.132574,0.110458,-2.185372,0.110458,0.000000*
1,1,0.011811,-2.185372,0.110458*
1,1,0.011811,-2.202971,0.092859*
20,1,0.011811,-2.185372,0.110458,-2.202971,0.092859,0.000000*
1,1,0.011811,-2.202971,0.092859*
1,1,0.011811,-2.202971,0.075260*
20,1,0.011811,-2.202971,0.092859,-2.202971,0.075260,0.000000*
1,1,0.011811,-2.202971,0.075260*
1,1,0.011811,-2.185372,0.057661*
20,1,0.011811,-2.202971,0.075260,-2.185372,0.057661,0.000000*
1,1,0.011811,-2.185372,0.057661*
1,1,0.011811,-2.202971,0.040062*
20,1,0.011811,-2.185372,0.057661,-2.202971,0.040062,0.000000*
1,1,0.011811,-2.202971,0.040062*
1,1,0.011811,-2.202971,0.022462*
20,1,0.011811,-2.202971,0.040062,-2.202971,0.022462,0.000000*
1,1,0.011811,-2.202971,0.022462*
1,1,0.011811,-2.185372,0.004863*
20,1,0.011811,-2.202971,0.022462,-2.185372,0.004863,0.000000*
1,1,0.011811,-2.185372,0.004863*
1,1,0.011811,-2.132574,0.004863*
20,1,0.011811,-2.185372,0.004863,-2.132574,0.004863,0.000000*
1,1,0.011811,-2.150174,0.004863*
1,1,0.011811,-2.150174,0.110458*
20,1,0.011811,-2.150174,0.004863,-2.150174,0.110458,0.000000*
1,1,0.011811,-2.150174,0.057661*
1,1,0.011811,-2.185372,0.057661*
20,1,0.011811,-2.150174,0.057661,-2.185372,0.057661,0.000000*
1,1,0.011811,-2.250685,0.022462*
1,1,0.011811,-2.250685,0.092859*
20,1,0.011811,-2.250685,0.022462,-2.250685,0.092859,0.000000*
1,1,0.011811,-2.250685,0.092859*
1,1,0.011811,-2.268284,0.110458*
20,1,0.011811,-2.250685,0.092859,-2.268284,0.110458,0.000000*
1,1,0.011811,-2.268284,0.110458*
1,1,0.011811,-2.303482,0.110458*
20,1,0.011811,-2.268284,0.110458,-2.303482,0.110458,0.000000*
1,1,0.011811,-2.303482,0.110458*
1,1,0.011811,-2.321082,0.092859*
20,1,0.011811,-2.303482,0.110458,-2.321082,0.092859,0.000000*
1,1,0.011811,-2.321082,0.092859*
1,1,0.011811,-2.321082,0.022462*
20,1,0.011811,-2.321082,0.092859,-2.321082,0.022462,0.000000*
1,1,0.011811,-2.321082,0.022462*
1,1,0.011811,-2.303482,0.004863*
20,1,0.011811,-2.321082,0.022462,-2.303482,0.004863,0.000000*
1,1,0.011811,-2.303482,0.004863*
1,1,0.011811,-2.268284,0.004863*
20,1,0.011811,-2.303482,0.004863,-2.268284,0.004863,0.000000*
1,1,0.011811,-2.268284,0.004863*
1,1,0.011811,-2.250685,0.022462*
20,1,0.011811,-2.268284,0.004863,-2.250685,0.022462,0.000000*
1,1,0.011811,-2.368795,0.004863*
1,1,0.011811,-2.368795,0.092859*
20,1,0.011811,-2.368795,0.004863,-2.368795,0.092859,0.000000*
1,1,0.011811,-2.368795,0.092859*
1,1,0.011811,-2.386394,0.110458*
20,1,0.011811,-2.368795,0.092859,-2.386394,0.110458,0.000000*
1,1,0.011811,-2.386394,0.110458*
1,1,0.011811,-2.421593,0.110458*
20,1,0.011811,-2.386394,0.110458,-2.421593,0.110458,0.000000*
1,1,0.011811,-2.421593,0.110458*
1,1,0.011811,-2.439192,0.092859*
20,1,0.011811,-2.421593,0.110458,-2.439192,0.092859,0.000000*
1,1,0.011811,-2.439192,0.092859*
1,1,0.011811,-2.439192,0.004863*
20,1,0.011811,-2.439192,0.092859,-2.439192,0.004863,0.000000*
1,1,0.011811,-2.368795,0.057661*
1,1,0.011811,-2.439192,0.057661*
20,1,0.011811,-2.368795,0.057661,-2.439192,0.057661,0.000000*
1,1,0.011811,-2.486905,0.004863*
1,1,0.011811,-2.486905,0.110458*
20,1,0.011811,-2.486905,0.004863,-2.486905,0.110458,0.000000*
1,1,0.011811,-2.486905,0.110458*
1,1,0.011811,-2.539703,0.110458*
20,1,0.011811,-2.486905,0.110458,-2.539703,0.110458,0.000000*
1,1,0.011811,-2.539703,0.110458*
1,1,0.011811,-2.557302,0.092859*
20,1,0.011811,-2.539703,0.110458,-2.557302,0.092859,0.000000*
1,1,0.011811,-2.557302,0.092859*
1,1,0.011811,-2.557302,0.075260*
20,1,0.011811,-2.557302,0.092859,-2.557302,0.075260,0.000000*
1,1,0.011811,-2.557302,0.075260*
1,1,0.011811,-2.539703,0.057661*
20,1,0.011811,-2.557302,0.075260,-2.539703,0.057661,0.000000*
1,1,0.011811,-2.539703,0.057661*
1,1,0.011811,-2.486905,0.057661*
20,1,0.011811,-2.539703,0.057661,-2.486905,0.057661,0.000000*
1,1,0.011811,-2.504504,0.057661*
1,1,0.011811,-2.557302,0.004863*
20,1,0.011811,-2.504504,0.057661,-2.557302,0.004863,0.000000*
1,1,0.011811,-2.605015,0.110458*
1,1,0.011811,-2.657813,0.110458*
20,1,0.011811,-2.605015,0.110458,-2.657813,0.110458,0.000000*
1,1,0.011811,-2.657813,0.110458*
1,1,0.011811,-2.675412,0.092859*
20,1,0.011811,-2.657813,0.110458,-2.675412,0.092859,0.000000*
1,1,0.011811,-2.675412,0.092859*
1,1,0.011811,-2.675412,0.022462*
20,1,0.011811,-2.675412,0.092859,-2.675412,0.022462,0.000000*
1,1,0.011811,-2.675412,0.022462*
1,1,0.011811,-2.657813,0.004863*
20,1,0.011811,-2.675412,0.022462,-2.657813,0.004863,0.000000*
1,1,0.011811,-2.657813,0.004863*
1,1,0.011811,-2.605015,0.004863*
20,1,0.011811,-2.657813,0.004863,-2.605015,0.004863,0.000000*
1,1,0.011811,-2.622615,0.004863*
1,1,0.011811,-2.622615,0.110458*
20,1,0.011811,-2.622615,0.004863,-2.622615,0.110458,0.000000*
1,1,0.011811,-2.841236,0.110458*
1,1,0.011811,-2.876434,0.004863*
20,1,0.011811,-2.841236,0.110458,-2.876434,0.004863,0.000000*
1,1,0.011811,-2.876434,0.004863*
1,1,0.011811,-2.911633,0.110458*
20,1,0.011811,-2.876434,0.004863,-2.911633,0.110458,0.000000*
1,1,0.011811,-2.976945,0.092859*
1,1,0.011811,-2.994545,0.110458*
20,1,0.011811,-2.976945,0.092859,-2.994545,0.110458,0.000000*
1,1,0.011811,-2.994545,0.110458*
1,1,0.011811,-2.994545,0.004863*
20,1,0.011811,-2.994545,0.110458,-2.994545,0.004863,0.000000*
1,1,0.011811,-2.976945,0.004863*
1,1,0.011811,-3.012144,0.004863*
20,1,0.011811,-2.976945,0.004863,-3.012144,0.004863,0.000000*
1,1,0.011811,-3.121454,0.013663*
1,1,0.011811,-3.195566,0.022462*
1,1,0.011811,-3.213166,0.004863*
20,1,0.011811,-3.195566,0.022462,-3.213166,0.004863,0.000000*
1,1,0.011811,-3.213166,0.004863*
1,1,0.011811,-3.248364,0.004863*
20,1,0.011811,-3.213166,0.004863,-3.248364,0.004863,0.000000*
1,1,0.011811,-3.248364,0.004863*
1,1,0.011811,-3.265963,0.022462*
20,1,0.011811,-3.248364,0.004863,-3.265963,0.022462,0.000000*
1,1,0.011811,-3.265963,0.022462*
1,1,0.011811,-3.265963,0.092859*
20,1,0.011811,-3.265963,0.022462,-3.265963,0.092859,0.000000*
1,1,0.011811,-3.265963,0.092859*
1,1,0.011811,-3.248364,0.110458*
20,1,0.011811,-3.265963,0.092859,-3.248364,0.110458,0.000000*
1,1,0.011811,-3.248364,0.110458*
1,1,0.011811,-3.213166,0.110458*
20,1,0.011811,-3.248364,0.110458,-3.213166,0.110458,0.000000*
1,1,0.011811,-3.213166,0.110458*
1,1,0.011811,-3.195566,0.092859*
20,1,0.011811,-3.213166,0.110458,-3.195566,0.092859,0.000000*
1,1,0.011811,-3.195566,0.092859*
1,1,0.011811,-3.195566,0.022462*
20,1,0.011811,-3.195566,0.092859,-3.195566,0.022462,0.000000*
1,1,0.011811,-3.195566,0.022462*
1,1,0.011811,-3.265963,0.092859*
20,1,0.011811,-3.195566,0.022462,-3.265963,0.092859,0.000000*
1,1,0.011811,-3.431787,0.022462*
1,1,0.011811,-3.502184,0.092859*
20,1,0.011811,-3.431787,0.022462,-3.502184,0.092859,0.000000*
1,1,0.011811,-3.720805,0.004863*
1,1,0.011811,-3.720805,0.110458*
20,1,0.011811,-3.720805,0.004863,-3.720805,0.110458,0.000000*
1,1,0.011811,-3.720805,0.110458*
1,1,0.011811,-3.668007,0.040062*
20,1,0.011811,-3.720805,0.110458,-3.668007,0.040062,0.000000*
1,1,0.011811,-3.668007,0.040062*
1,1,0.011811,-3.738404,0.040062*
20,1,0.011811,-3.668007,0.040062,-3.738404,0.040062,0.000000*
1,1,0.011811,-3.786118,0.004863*
1,1,0.011811,-3.821316,0.004863*
20,1,0.011811,-3.786118,0.004863,-3.821316,0.004863,0.000000*
1,1,0.011811,-3.821316,0.004863*
1,1,0.011811,-3.856514,0.040062*
20,1,0.011811,-3.821316,0.004863,-3.856514,0.040062,0.000000*
1,1,0.011811,-3.856514,0.040062*
1,1,0.011811,-3.856514,0.092859*
20,1,0.011811,-3.856514,0.040062,-3.856514,0.092859,0.000000*
1,1,0.011811,-3.856514,0.092859*
1,1,0.011811,-3.838915,0.110458*
20,1,0.011811,-3.856514,0.092859,-3.838915,0.110458,0.000000*
1,1,0.011811,-3.838915,0.110458*
1,1,0.011811,-3.803717,0.110458*
20,1,0.011811,-3.838915,0.110458,-3.803717,0.110458,0.000000*
1,1,0.011811,-3.803717,0.110458*
1,1,0.011811,-3.786118,0.092859*
20,1,0.011811,-3.803717,0.110458,-3.786118,0.092859,0.000000*
1,1,0.011811,-3.786118,0.092859*
1,1,0.011811,-3.786118,0.075260*
20,1,0.011811,-3.786118,0.092859,-3.786118,0.075260,0.000000*
1,1,0.011811,-3.786118,0.075260*
1,1,0.011811,-3.803717,0.057661*
20,1,0.011811,-3.786118,0.075260,-3.803717,0.057661,0.000000*
1,1,0.011811,-3.803717,0.057661*
1,1,0.011811,-3.856514,0.057661*
20,1,0.011811,-3.803717,0.057661,-3.856514,0.057661,0.000000*
1,1,0.011811,-3.904228,0.004863*
1,1,0.011811,-3.939426,0.004863*
20,1,0.011811,-3.904228,0.004863,-3.939426,0.004863,0.000000*
1,1,0.011811,-3.939426,0.004863*
1,1,0.011811,-3.974625,0.040062*
20,1,0.011811,-3.939426,0.004863,-3.974625,0.040062,0.000000*
1,1,0.011811,-3.974625,0.040062*
1,1,0.011811,-3.974625,0.092859*
20,1,0.011811,-3.974625,0.040062,-3.974625,0.092859,0.000000*
1,1,0.011811,-3.974625,0.092859*
1,1,0.011811,-3.957026,0.110458*
20,1,0.011811,-3.974625,0.092859,-3.957026,0.110458,0.000000*
1,1,0.011811,-3.957026,0.110458*
1,1,0.011811,-3.921827,0.110458*
20,1,0.011811,-3.957026,0.110458,-3.921827,0.110458,0.000000*
1,1,0.011811,-3.921827,0.110458*
1,1,0.011811,-3.904228,0.092859*
20,1,0.011811,-3.921827,0.110458,-3.904228,0.092859,0.000000*
1,1,0.011811,-3.904228,0.092859*
1,1,0.011811,-3.904228,0.075260*
20,1,0.011811,-3.904228,0.092859,-3.904228,0.075260,0.000000*
1,1,0.011811,-3.904228,0.075260*
1,1,0.011811,-3.921827,0.057661*
20,1,0.011811,-3.904228,0.075260,-3.921827,0.057661,0.000000*
1,1,0.011811,-3.921827,0.057661*
1,1,0.011811,-3.974625,0.057661*
20,1,0.011811,-3.921827,0.057661,-3.974625,0.057661,0.000000*
1,1,0.011811,-4.039937,0.092859*
1,1,0.011811,-4.057537,0.110458*
20,1,0.011811,-4.039937,0.092859,-4.057537,0.110458,0.000000*
1,1,0.011811,-4.057537,0.110458*
1,1,0.011811,-4.057537,0.004863*
20,1,0.011811,-4.057537,0.110458,-4.057537,0.004863,0.000000*
1,1,0.011811,-4.039937,0.004863*
1,1,0.011811,-4.075136,0.004863*
20,1,0.011811,-4.039937,0.004863,-4.075136,0.004863,0.000000*
1,1,0.011811,-4.140448,0.110458*
1,1,0.011811,-4.210845,0.110458*
20,1,0.011811,-4.140448,0.110458,-4.210845,0.110458,0.000000*
1,1,0.011811,-4.210845,0.110458*
1,1,0.011811,-4.210845,0.075260*
20,1,0.011811,-4.210845,0.110458,-4.210845,0.075260,0.000000*
1,1,0.011811,-4.210845,0.075260*
1,1,0.011811,-4.193246,0.057661*
20,1,0.011811,-4.210845,0.075260,-4.193246,0.057661,0.000000*
1,1,0.011811,-4.193246,0.057661*
1,1,0.011811,-4.175647,0.057661*
20,1,0.011811,-4.193246,0.057661,-4.175647,0.057661,0.000000*
1,1,0.011811,-4.193246,0.057661*
1,1,0.011811,-4.210845,0.040062*
20,1,0.011811,-4.193246,0.057661,-4.210845,0.040062,0.000000*
1,1,0.011811,-4.210845,0.040062*
1,1,0.011811,-4.210845,0.022462*
20,1,0.011811,-4.210845,0.040062,-4.210845,0.022462,0.000000*
1,1,0.011811,-4.210845,0.022462*
1,1,0.011811,-4.193246,0.004863*
20,1,0.011811,-4.210845,0.022462,-4.193246,0.004863,0.000000*
1,1,0.011811,-4.193246,0.004863*
1,1,0.011811,-4.158048,0.004863*
20,1,0.011811,-4.193246,0.004863,-4.158048,0.004863,0.000000*
1,1,0.011811,-4.158048,0.004863*
1,1,0.011811,-4.140448,0.022462*
20,1,0.011811,-4.158048,0.004863,-4.140448,0.022462,0.000000*
1,1,0.011811,-4.311356,0.004863*
1,1,0.011811,-4.311356,0.110458*
20,1,0.011811,-4.311356,0.004863,-4.311356,0.110458,0.000000*
1,1,0.011811,-4.311356,0.110458*
1,1,0.011811,-4.258559,0.040062*
20,1,0.011811,-4.311356,0.110458,-4.258559,0.040062,0.000000*
1,1,0.011811,-4.258559,0.040062*
1,1,0.011811,-4.328955,0.040062*
20,1,0.011811,-4.258559,0.040062,-4.328955,0.040062,0.000000*
1,1,0.011811,-4.376669,0.004863*
1,1,0.011811,-4.376669,0.110458*
20,1,0.011811,-4.376669,0.004863,-4.376669,0.110458,0.000000*
1,1,0.011811,-4.376669,0.110458*
1,1,0.011811,-4.411867,0.057661*
20,1,0.011811,-4.376669,0.110458,-4.411867,0.057661,0.000000*
1,1,0.011811,-4.411867,0.057661*
1,1,0.011811,-4.447066,0.110458*
20,1,0.011811,-4.411867,0.057661,-4.447066,0.110458,0.000000*
1,1,0.011811,-4.447066,0.110458*
1,1,0.011811,-4.447066,0.004863*
20,1,0.011811,-4.447066,0.110458,-4.447066,0.004863,0.000000*
1,1,0.011811,-4.494779,0.110458*
1,1,0.011811,-4.529978,0.057661*
20,1,0.011811,-4.494779,0.110458,-4.529978,0.057661,0.000000*
1,1,0.011811,-4.529978,0.057661*
1,1,0.011811,-4.565176,0.110458*
20,1,0.011811,-4.529978,0.057661,-4.565176,0.110458,0.000000*
1,1,0.011811,-4.529978,0.057661*
1,1,0.011811,-4.529978,0.004863*
20,1,0.011811,-4.529978,0.057661,-4.529978,0.004863,0.000000*
%
%ADD23MACRO23*%
%ADD24C,0.0039*%
%ADD25C,0.0004*%
%ADD26R,0.0197X0.0236*%
%ADD27R,0.0236X0.0197*%
%ADD28R,0.0098X0.0118*%
%ADD29R,0.0512X0.0276*%
%ADD30R,0.0276X0.0512*%
%ADD31C,0.0091*%
%ADD32R,0.0118X0.0138*%
%ADD33R,0.1063X0.0315*%
%ADD34R,0.0295X0.0315*%
%ADD35R,0.0222X0.0089*%
%ADD36R,0.0089X0.0222*%
%ADD37C,0.0866*%
%ADD38C,0.1969*%
G04 --Start main section--*
G54D10*
G01X0004653Y0007598D03*
G01X0004858Y0007598D03*
G54D11*
G01X0005052Y0007476D03*
G01X0005052Y0007272D03*
G01X0004583Y0007189D03*
G01X0004583Y0006984D03*
G54D12*
G01X0007253Y0007085D03*
G36*
G01X0007202Y0007094D02*
G01X0007244Y0007136D01*
G01X0007303Y0007077D01*
G01X0007261Y0007035D01*
G01X0007202Y0007094D01*
G37*
G54D13*
G01X0007226Y0007055D03*
G54D14*
G01X0007197Y0007085D03*
G01X0007622Y0007341D03*
G54D13*
G01X0007593Y0007370D03*
G54D12*
G01X0007566Y0007340D03*
G36*
G01X0007617Y0007331D02*
G01X0007575Y0007289D01*
G01X0007516Y0007348D01*
G01X0007558Y0007390D01*
G01X0007617Y0007331D01*
G37*
G01X0007253Y0007340D03*
G54D13*
G01X0007227Y0007370D03*
G54D14*
G01X0007197Y0007341D03*
G54D15*
G01X0007409Y0007213D03*
G36*
G01X0007554Y0007213D02*
G01X0007409Y0007068D01*
G01X0007265Y0007213D01*
G01X0007409Y0007357D01*
G01X0007554Y0007213D01*
G37*
G54D14*
G01X0007622Y0007085D03*
G54D13*
G01X0007593Y0007055D03*
G54D12*
G01X0007566Y0007085D03*
G36*
G01X0007558Y0007035D02*
G01X0007516Y0007077D01*
G01X0007575Y0007136D01*
G01X0007617Y0007094D01*
G01X0007558Y0007035D01*
G37*
G01X0004566Y0006497D03*
G36*
G01X0004617Y0006489D02*
G01X0004575Y0006447D01*
G01X0004516Y0006506D01*
G01X0004558Y0006548D01*
G01X0004617Y0006489D01*
G37*
G54D13*
G01X0004593Y0006528D03*
G54D14*
G01X0004622Y0006498D03*
G01X0004197Y0006242D03*
G54D13*
G01X0004226Y0006213D03*
G54D12*
G01X0004253Y0006243D03*
G36*
G01X0004202Y0006252D02*
G01X0004244Y0006293D01*
G01X0004303Y0006234D01*
G01X0004261Y0006193D01*
G01X0004202Y0006252D01*
G37*
G01X0004566Y0006243D03*
G36*
G01X0004557Y0006193D02*
G01X0004515Y0006234D01*
G01X0004574Y0006293D01*
G01X0004616Y0006252D01*
G01X0004557Y0006193D01*
G37*
G54D13*
G01X0004592Y0006213D03*
G54D14*
G01X0004622Y0006242D03*
G54D15*
G01X0004409Y0006370D03*
G36*
G01X0004265Y0006370D02*
G01X0004409Y0006515D01*
G01X0004554Y0006370D01*
G01X0004409Y0006225D01*
G01X0004265Y0006370D01*
G37*
G54D14*
G01X0004197Y0006498D03*
G54D13*
G01X0004226Y0006528D03*
G54D12*
G01X0004253Y0006497D03*
G36*
G01X0004261Y0006548D02*
G01X0004303Y0006506D01*
G01X0004244Y0006447D01*
G01X0004202Y0006489D01*
G01X0004261Y0006548D01*
G37*
G01X0007558Y0006773D03*
G36*
G01X0007609Y0006764D02*
G01X0007567Y0006722D01*
G01X0007508Y0006781D01*
G01X0007550Y0006823D01*
G01X0007609Y0006764D01*
G37*
G54D13*
G01X0007585Y0006803D03*
G54D14*
G01X0007614Y0006774D03*
G01X0007189Y0006518D03*
G54D13*
G01X0007219Y0006488D03*
G54D12*
G01X0007245Y0006519D03*
G36*
G01X0007194Y0006527D02*
G01X0007236Y0006569D01*
G01X0007295Y0006510D01*
G01X0007254Y0006468D01*
G01X0007194Y0006527D01*
G37*
G01X0007558Y0006519D03*
G36*
G01X0007549Y0006468D02*
G01X0007507Y0006510D01*
G01X0007567Y0006569D01*
G01X0007608Y0006527D01*
G01X0007549Y0006468D01*
G37*
G54D13*
G01X0007584Y0006488D03*
G54D14*
G01X0007614Y0006518D03*
G54D15*
G01X0007402Y0006646D03*
G36*
G01X0007257Y0006646D02*
G01X0007402Y0006790D01*
G01X0007546Y0006646D01*
G01X0007402Y0006501D01*
G01X0007257Y0006646D01*
G37*
G54D14*
G01X0007189Y0006774D03*
G54D13*
G01X0007219Y0006803D03*
G54D12*
G01X0007245Y0006773D03*
G36*
G01X0007254Y0006823D02*
G01X0007295Y0006781D01*
G01X0007236Y0006722D01*
G01X0007194Y0006764D01*
G01X0007254Y0006823D01*
G37*
G54D16*
G01X0007181Y0004321D03*
G01X0006354Y0004321D03*
G01X0006354Y0004970D03*
G01X0007181Y0004970D03*
G54D10*
G01X0005529Y0005929D03*
G01X0005324Y0005929D03*
G54D17*
G01X0007280Y0006291D03*
G01X0007280Y0006071D03*
G01X0007539Y0006209D03*
G01X0007539Y0005988D03*
G01X0004312Y0006044D03*
G01X0004312Y0005824D03*
G01X0004531Y0006043D03*
G01X0004531Y0005823D03*
G01X0007551Y0007535D03*
G01X0007551Y0007756D03*
G01X0007315Y0007535D03*
G01X0007315Y0007756D03*
G54D11*
G01X0006697Y0007575D03*
G01X0006697Y0007370D03*
G54D10*
G01X0007240Y0005484D03*
G01X0007445Y0005484D03*
G01X0005894Y0005205D03*
G01X0005689Y0005205D03*
G01X0005827Y0004823D03*
G01X0005622Y0004823D03*
G54D11*
G01X0007598Y0004484D03*
G01X0007598Y0004280D03*
G01X0007598Y0004677D03*
G01X0007598Y0004882D03*
G01X0004799Y0005083D03*
G01X0004799Y0005287D03*
G01X0005059Y0005079D03*
G01X0005059Y0005283D03*
G01X0004531Y0005083D03*
G01X0004531Y0005287D03*
G01X0005315Y0005087D03*
G01X0005315Y0005291D03*
G54D18*
G01X0005756Y0004547D03*
G01X0005756Y0004193D03*
G01X0004248Y0007137D03*
G01X0004248Y0007491D03*
G54D19*
G01X0005484Y0006819D03*
G01X0005484Y0007193D03*
G01X0005484Y0007567D03*
G01X0006272Y0006819D03*
G01X0006272Y0007567D03*
G01X0006272Y0007193D03*
G54D20*
G01X0005394Y0004346D03*
G01X0005394Y0004602D03*
G01X0005394Y0004858D03*
G01X0004646Y0004346D03*
G01X0004646Y0004858D03*
G54D10*
G01X0004653Y0013503D03*
G01X0004858Y0013503D03*
G54D11*
G01X0005052Y0013382D03*
G01X0005052Y0013177D03*
G01X0004583Y0013094D03*
G01X0004583Y0012890D03*
G54D12*
G01X0007253Y0012991D03*
G36*
G01X0007202Y0013000D02*
G01X0007244Y0013041D01*
G01X0007303Y0012982D01*
G01X0007261Y0012941D01*
G01X0007202Y0013000D01*
G37*
G54D13*
G01X0007226Y0012961D03*
G54D14*
G01X0007197Y0012990D03*
G01X0007622Y0013246D03*
G54D13*
G01X0007593Y0013276D03*
G54D12*
G01X0007566Y0013245D03*
G36*
G01X0007617Y0013237D02*
G01X0007575Y0013195D01*
G01X0007516Y0013254D01*
G01X0007558Y0013296D01*
G01X0007617Y0013237D01*
G37*
G01X0007253Y0013245D03*
G36*
G01X0007262Y0013296D02*
G01X0007304Y0013254D01*
G01X0007245Y0013195D01*
G01X0007203Y0013237D01*
G01X0007262Y0013296D01*
G37*
G54D13*
G01X0007227Y0013276D03*
G54D14*
G01X0007197Y0013246D03*
G54D15*
G01X0007409Y0013118D03*
G36*
G01X0007554Y0013118D02*
G01X0007409Y0012973D01*
G01X0007265Y0013118D01*
G01X0007409Y0013263D01*
G01X0007554Y0013118D01*
G37*
G54D14*
G01X0007622Y0012990D03*
G54D13*
G01X0007593Y0012961D03*
G54D12*
G01X0007566Y0012991D03*
G36*
G01X0007558Y0012941D02*
G01X0007516Y0012982D01*
G01X0007575Y0013041D01*
G01X0007617Y0013000D01*
G01X0007558Y0012941D01*
G37*
G01X0004566Y0012403D03*
G36*
G01X0004617Y0012394D02*
G01X0004575Y0012352D01*
G01X0004516Y0012411D01*
G01X0004558Y0012453D01*
G01X0004617Y0012394D01*
G37*
G54D13*
G01X0004593Y0012433D03*
G54D14*
G01X0004622Y0012404D03*
G01X0004197Y0012148D03*
G54D13*
G01X0004226Y0012118D03*
G54D12*
G01X0004253Y0012148D03*
G36*
G01X0004202Y0012157D02*
G01X0004244Y0012199D01*
G01X0004303Y0012140D01*
G01X0004261Y0012098D01*
G01X0004202Y0012157D01*
G37*
G01X0004566Y0012148D03*
G36*
G01X0004557Y0012098D02*
G01X0004515Y0012140D01*
G01X0004574Y0012199D01*
G01X0004616Y0012157D01*
G01X0004557Y0012098D01*
G37*
G54D13*
G01X0004592Y0012118D03*
G54D14*
G01X0004622Y0012148D03*
G54D15*
G01X0004409Y0012276D03*
G36*
G01X0004265Y0012276D02*
G01X0004409Y0012420D01*
G01X0004554Y0012276D01*
G01X0004409Y0012131D01*
G01X0004265Y0012276D01*
G37*
G54D14*
G01X0004197Y0012404D03*
G54D13*
G01X0004226Y0012433D03*
G54D12*
G01X0004253Y0012403D03*
G36*
G01X0004261Y0012453D02*
G01X0004303Y0012411D01*
G01X0004244Y0012352D01*
G01X0004202Y0012394D01*
G01X0004261Y0012453D01*
G37*
G01X0007558Y0012678D03*
G36*
G01X0007609Y0012670D02*
G01X0007567Y0012628D01*
G01X0007508Y0012687D01*
G01X0007550Y0012729D01*
G01X0007609Y0012670D01*
G37*
G54D13*
G01X0007585Y0012709D03*
G54D14*
G01X0007614Y0012679D03*
G01X0007189Y0012423D03*
G54D13*
G01X0007219Y0012394D03*
G54D12*
G01X0007245Y0012424D03*
G36*
G01X0007194Y0012433D02*
G01X0007236Y0012474D01*
G01X0007295Y0012415D01*
G01X0007254Y0012374D01*
G01X0007194Y0012433D01*
G37*
G01X0007558Y0012424D03*
G36*
G01X0007549Y0012374D02*
G01X0007507Y0012415D01*
G01X0007567Y0012474D01*
G01X0007608Y0012433D01*
G01X0007549Y0012374D01*
G37*
G54D13*
G01X0007584Y0012394D03*
G54D14*
G01X0007614Y0012423D03*
G54D15*
G01X0007402Y0012551D03*
G36*
G01X0007257Y0012551D02*
G01X0007402Y0012696D01*
G01X0007546Y0012551D01*
G01X0007402Y0012406D01*
G01X0007257Y0012551D01*
G37*
G54D14*
G01X0007189Y0012679D03*
G54D13*
G01X0007219Y0012709D03*
G54D12*
G01X0007245Y0012678D03*
G36*
G01X0007254Y0012729D02*
G01X0007295Y0012687D01*
G01X0007236Y0012628D01*
G01X0007194Y0012670D01*
G01X0007254Y0012729D01*
G37*
G54D16*
G01X0007181Y0010226D03*
G01X0006354Y0010226D03*
G01X0006354Y0010876D03*
G01X0007181Y0010876D03*
G54D10*
G01X0005529Y0011835D03*
G01X0005324Y0011835D03*
G54D17*
G01X0007280Y0012197D03*
G01X0007280Y0011976D03*
G01X0007539Y0012114D03*
G01X0007539Y0011894D03*
G01X0004312Y0011950D03*
G01X0004312Y0011729D03*
G01X0004531Y0011949D03*
G01X0004531Y0011728D03*
G01X0007551Y0013441D03*
G01X0007551Y0013661D03*
G01X0007315Y0013441D03*
G01X0007315Y0013661D03*
G54D11*
G01X0006697Y0013480D03*
G01X0006697Y0013276D03*
G54D10*
G01X0007240Y0011390D03*
G01X0007445Y0011390D03*
G01X0005894Y0011110D03*
G01X0005689Y0011110D03*
G01X0005827Y0010728D03*
G01X0005622Y0010728D03*
G54D11*
G01X0007598Y0010390D03*
G01X0007598Y0010185D03*
G01X0007598Y0010583D03*
G01X0007598Y0010787D03*
G01X0004799Y0010988D03*
G01X0004799Y0011193D03*
G01X0005059Y0010984D03*
G01X0005059Y0011189D03*
G01X0004531Y0010988D03*
G01X0004531Y0011193D03*
G01X0005315Y0010992D03*
G01X0005315Y0011197D03*
G54D18*
G01X0005756Y0010453D03*
G01X0005756Y0010098D03*
G01X0004248Y0013042D03*
G01X0004248Y0013397D03*
G54D19*
G01X0005484Y0012724D03*
G01X0005484Y0013098D03*
G01X0005484Y0013472D03*
G01X0006272Y0012724D03*
G01X0006272Y0013472D03*
G01X0006272Y0013098D03*
G54D20*
G01X0005394Y0010252D03*
G01X0005394Y0010508D03*
G01X0005394Y0010764D03*
G01X0004646Y0010252D03*
G01X0004646Y0010764D03*
G54D10*
G01X0004653Y0019409D03*
G01X0004858Y0019409D03*
G54D11*
G01X0005052Y0019287D03*
G01X0005052Y0019083D03*
G01X0004583Y0019000D03*
G01X0004583Y0018795D03*
G54D12*
G01X0007253Y0018896D03*
G36*
G01X0007202Y0018905D02*
G01X0007244Y0018947D01*
G01X0007303Y0018888D01*
G01X0007261Y0018846D01*
G01X0007202Y0018905D01*
G37*
G54D13*
G01X0007226Y0018866D03*
G54D14*
G01X0007197Y0018896D03*
G01X0007622Y0019152D03*
G54D13*
G01X0007593Y0019181D03*
G54D12*
G01X0007566Y0019151D03*
G36*
G01X0007617Y0019142D02*
G01X0007575Y0019100D01*
G01X0007516Y0019159D01*
G01X0007558Y0019201D01*
G01X0007617Y0019142D01*
G37*
G01X0007253Y0019151D03*
G36*
G01X0007262Y0019201D02*
G01X0007304Y0019159D01*
G01X0007245Y0019100D01*
G01X0007203Y0019142D01*
G01X0007262Y0019201D01*
G37*
G54D13*
G01X0007227Y0019181D03*
G54D14*
G01X0007197Y0019152D03*
G54D15*
G01X0007409Y0019024D03*
G36*
G01X0007554Y0019024D02*
G01X0007409Y0018879D01*
G01X0007265Y0019024D01*
G01X0007409Y0019168D01*
G01X0007554Y0019024D01*
G37*
G54D14*
G01X0007622Y0018896D03*
G54D13*
G01X0007593Y0018866D03*
G54D12*
G01X0007566Y0018896D03*
G36*
G01X0007558Y0018846D02*
G01X0007516Y0018888D01*
G01X0007575Y0018947D01*
G01X0007617Y0018905D01*
G01X0007558Y0018846D01*
G37*
G01X0004566Y0018308D03*
G36*
G01X0004617Y0018300D02*
G01X0004575Y0018258D01*
G01X0004516Y0018317D01*
G01X0004558Y0018359D01*
G01X0004617Y0018300D01*
G37*
G54D13*
G01X0004593Y0018339D03*
G54D14*
G01X0004622Y0018309D03*
G01X0004197Y0018053D03*
G54D13*
G01X0004226Y0018024D03*
G54D12*
G01X0004253Y0018054D03*
G36*
G01X0004202Y0018063D02*
G01X0004244Y0018104D01*
G01X0004303Y0018045D01*
G01X0004261Y0018004D01*
G01X0004202Y0018063D01*
G37*
G01X0004566Y0018054D03*
G36*
G01X0004557Y0018004D02*
G01X0004515Y0018045D01*
G01X0004574Y0018104D01*
G01X0004616Y0018063D01*
G01X0004557Y0018004D01*
G37*
G54D13*
G01X0004592Y0018024D03*
G54D14*
G01X0004622Y0018053D03*
G54D15*
G01X0004409Y0018181D03*
G36*
G01X0004265Y0018181D02*
G01X0004409Y0018326D01*
G01X0004554Y0018181D01*
G01X0004409Y0018036D01*
G01X0004265Y0018181D01*
G37*
G54D14*
G01X0004197Y0018309D03*
G54D13*
G01X0004226Y0018339D03*
G54D12*
G01X0004253Y0018308D03*
G36*
G01X0004261Y0018359D02*
G01X0004303Y0018317D01*
G01X0004244Y0018258D01*
G01X0004202Y0018300D01*
G01X0004261Y0018359D01*
G37*
G01X0007558Y0018584D03*
G36*
G01X0007609Y0018575D02*
G01X0007567Y0018533D01*
G01X0007508Y0018592D01*
G01X0007550Y0018634D01*
G01X0007609Y0018575D01*
G37*
G54D13*
G01X0007585Y0018614D03*
G54D14*
G01X0007614Y0018585D03*
G01X0007189Y0018329D03*
G54D13*
G01X0007219Y0018299D03*
G54D12*
G01X0007245Y0018330D03*
G36*
G01X0007194Y0018338D02*
G01X0007236Y0018380D01*
G01X0007295Y0018321D01*
G01X0007254Y0018279D01*
G01X0007194Y0018338D01*
G37*
G01X0007558Y0018330D03*
G36*
G01X0007549Y0018279D02*
G01X0007507Y0018321D01*
G01X0007567Y0018380D01*
G01X0007608Y0018338D01*
G01X0007549Y0018279D01*
G37*
G54D13*
G01X0007584Y0018299D03*
G54D14*
G01X0007614Y0018329D03*
G54D15*
G01X0007402Y0018457D03*
G36*
G01X0007257Y0018457D02*
G01X0007402Y0018601D01*
G01X0007546Y0018457D01*
G01X0007402Y0018312D01*
G01X0007257Y0018457D01*
G37*
G54D14*
G01X0007189Y0018585D03*
G54D13*
G01X0007219Y0018614D03*
G54D12*
G01X0007245Y0018584D03*
G36*
G01X0007254Y0018634D02*
G01X0007295Y0018592D01*
G01X0007236Y0018533D01*
G01X0007194Y0018575D01*
G01X0007254Y0018634D01*
G37*
G54D16*
G01X0007181Y0016132D03*
G01X0006354Y0016132D03*
G01X0006354Y0016781D03*
G01X0007181Y0016781D03*
G54D10*
G01X0005529Y0017740D03*
G01X0005324Y0017740D03*
G54D17*
G01X0007280Y0018102D03*
G01X0007280Y0017882D03*
G01X0007539Y0018020D03*
G01X0007539Y0017799D03*
G01X0004312Y0017855D03*
G01X0004312Y0017635D03*
G01X0004531Y0017854D03*
G01X0004531Y0017634D03*
G01X0007551Y0019346D03*
G01X0007551Y0019567D03*
G01X0007315Y0019346D03*
G01X0007315Y0019567D03*
G54D11*
G01X0006697Y0019386D03*
G01X0006697Y0019181D03*
G54D10*
G01X0007240Y0017295D03*
G01X0007445Y0017295D03*
G01X0005894Y0017016D03*
G01X0005689Y0017016D03*
G01X0005827Y0016634D03*
G01X0005622Y0016634D03*
G54D11*
G01X0007598Y0016295D03*
G01X0007598Y0016091D03*
G01X0007598Y0016488D03*
G01X0007598Y0016693D03*
G01X0004799Y0016894D03*
G01X0004799Y0017098D03*
G01X0005059Y0016890D03*
G01X0005059Y0017094D03*
G01X0004531Y0016894D03*
G01X0004531Y0017098D03*
G01X0005315Y0016898D03*
G01X0005315Y0017102D03*
G54D18*
G01X0005756Y0016358D03*
G01X0005756Y0016004D03*
G01X0004248Y0018948D03*
G01X0004248Y0019302D03*
G54D19*
G01X0005484Y0018630D03*
G01X0005484Y0019004D03*
G01X0005484Y0019378D03*
G01X0006272Y0018630D03*
G01X0006272Y0019378D03*
G01X0006272Y0019004D03*
G54D20*
G01X0005394Y0016157D03*
G01X0005394Y0016413D03*
G01X0005394Y0016669D03*
G01X0004646Y0016157D03*
G01X0004646Y0016669D03*
G54D10*
G01X0004653Y0025314D03*
G01X0004858Y0025314D03*
G54D11*
G01X0005052Y0025193D03*
G01X0005052Y0024988D03*
G01X0004583Y0024906D03*
G01X0004583Y0024701D03*
G54D12*
G01X0007253Y0024802D03*
G36*
G01X0007202Y0024811D02*
G01X0007244Y0024852D01*
G01X0007303Y0024793D01*
G01X0007261Y0024752D01*
G01X0007202Y0024811D01*
G37*
G54D13*
G01X0007226Y0024772D03*
G54D14*
G01X0007197Y0024801D03*
G01X0007622Y0025057D03*
G54D13*
G01X0007593Y0025087D03*
G54D12*
G01X0007566Y0025056D03*
G36*
G01X0007617Y0025048D02*
G01X0007575Y0025006D01*
G01X0007516Y0025065D01*
G01X0007558Y0025107D01*
G01X0007617Y0025048D01*
G37*
G01X0007253Y0025056D03*
G54D13*
G01X0007227Y0025087D03*
G54D14*
G01X0007197Y0025057D03*
G54D15*
G01X0007409Y0024929D03*
G36*
G01X0007554Y0024929D02*
G01X0007409Y0024784D01*
G01X0007265Y0024929D01*
G01X0007409Y0025074D01*
G01X0007554Y0024929D01*
G37*
G54D14*
G01X0007622Y0024801D03*
G54D13*
G01X0007593Y0024772D03*
G54D12*
G01X0007566Y0024802D03*
G36*
G01X0007558Y0024752D02*
G01X0007516Y0024793D01*
G01X0007575Y0024852D01*
G01X0007617Y0024811D01*
G01X0007558Y0024752D01*
G37*
G01X0004566Y0024214D03*
G36*
G01X0004617Y0024205D02*
G01X0004575Y0024163D01*
G01X0004516Y0024222D01*
G01X0004558Y0024264D01*
G01X0004617Y0024205D01*
G37*
G54D13*
G01X0004593Y0024244D03*
G54D14*
G01X0004622Y0024215D03*
G01X0004197Y0023959D03*
G54D13*
G01X0004226Y0023929D03*
G54D12*
G01X0004253Y0023959D03*
G36*
G01X0004202Y0023968D02*
G01X0004244Y0024010D01*
G01X0004303Y0023951D01*
G01X0004261Y0023909D01*
G01X0004202Y0023968D01*
G37*
G01X0004566Y0023959D03*
G36*
G01X0004557Y0023909D02*
G01X0004515Y0023951D01*
G01X0004574Y0024010D01*
G01X0004616Y0023968D01*
G01X0004557Y0023909D01*
G37*
G54D13*
G01X0004592Y0023929D03*
G54D14*
G01X0004622Y0023959D03*
G54D15*
G01X0004409Y0024087D03*
G36*
G01X0004265Y0024087D02*
G01X0004409Y0024231D01*
G01X0004554Y0024087D01*
G01X0004409Y0023942D01*
G01X0004265Y0024087D01*
G37*
G54D14*
G01X0004197Y0024215D03*
G54D13*
G01X0004226Y0024244D03*
G54D12*
G01X0004253Y0024214D03*
G36*
G01X0004261Y0024264D02*
G01X0004303Y0024222D01*
G01X0004244Y0024163D01*
G01X0004202Y0024205D01*
G01X0004261Y0024264D01*
G37*
G01X0007558Y0024489D03*
G36*
G01X0007609Y0024481D02*
G01X0007567Y0024439D01*
G01X0007508Y0024498D01*
G01X0007550Y0024540D01*
G01X0007609Y0024481D01*
G37*
G54D13*
G01X0007585Y0024520D03*
G54D14*
G01X0007614Y0024490D03*
G01X0007189Y0024234D03*
G54D13*
G01X0007219Y0024205D03*
G54D12*
G01X0007245Y0024235D03*
G36*
G01X0007194Y0024244D02*
G01X0007236Y0024285D01*
G01X0007295Y0024226D01*
G01X0007254Y0024185D01*
G01X0007194Y0024244D01*
G37*
G01X0007558Y0024235D03*
G36*
G01X0007549Y0024185D02*
G01X0007507Y0024226D01*
G01X0007567Y0024285D01*
G01X0007608Y0024244D01*
G01X0007549Y0024185D01*
G37*
G54D13*
G01X0007584Y0024205D03*
G54D14*
G01X0007614Y0024234D03*
G54D15*
G01X0007402Y0024362D03*
G36*
G01X0007257Y0024362D02*
G01X0007402Y0024507D01*
G01X0007546Y0024362D01*
G01X0007402Y0024217D01*
G01X0007257Y0024362D01*
G37*
G54D14*
G01X0007189Y0024490D03*
G54D13*
G01X0007219Y0024520D03*
G54D12*
G01X0007245Y0024489D03*
G36*
G01X0007254Y0024540D02*
G01X0007295Y0024498D01*
G01X0007236Y0024439D01*
G01X0007194Y0024481D01*
G01X0007254Y0024540D01*
G37*
G54D16*
G01X0007181Y0022037D03*
G01X0006354Y0022037D03*
G01X0006354Y0022687D03*
G01X0007181Y0022687D03*
G54D10*
G01X0005529Y0023646D03*
G01X0005324Y0023646D03*
G54D17*
G01X0007280Y0024008D03*
G01X0007280Y0023787D03*
G01X0007539Y0023925D03*
G01X0007539Y0023705D03*
G01X0004312Y0023761D03*
G01X0004312Y0023540D03*
G01X0004531Y0023760D03*
G01X0004531Y0023539D03*
G01X0007551Y0025252D03*
G01X0007551Y0025472D03*
G01X0007315Y0025252D03*
G01X0007315Y0025472D03*
G54D11*
G01X0006697Y0025291D03*
G01X0006697Y0025087D03*
G54D10*
G01X0007240Y0023201D03*
G01X0007445Y0023201D03*
G01X0005894Y0022921D03*
G01X0005689Y0022921D03*
G01X0005827Y0022539D03*
G01X0005622Y0022539D03*
G54D11*
G01X0007598Y0022201D03*
G01X0007598Y0021996D03*
G01X0007598Y0022394D03*
G01X0007598Y0022598D03*
G01X0004799Y0022799D03*
G01X0004799Y0023004D03*
G01X0005059Y0022795D03*
G01X0005059Y0023000D03*
G01X0004531Y0022799D03*
G01X0004531Y0023004D03*
G01X0005315Y0022803D03*
G01X0005315Y0023008D03*
G54D18*
G01X0005756Y0022264D03*
G01X0005756Y0021909D03*
G01X0004248Y0024853D03*
G01X0004248Y0025208D03*
G54D19*
G01X0005484Y0024535D03*
G01X0005484Y0024909D03*
G01X0005484Y0025283D03*
G01X0006272Y0024535D03*
G01X0006272Y0025283D03*
G01X0006272Y0024909D03*
G54D20*
G01X0005394Y0022063D03*
G01X0005394Y0022319D03*
G01X0005394Y0022575D03*
G01X0004646Y0022063D03*
G01X0004646Y0022575D03*
G54D10*
G01X0004653Y0031220D03*
G01X0004858Y0031220D03*
G54D11*
G01X0005052Y0031098D03*
G01X0005052Y0030894D03*
G01X0004583Y0030811D03*
G01X0004583Y0030606D03*
G54D12*
G01X0007253Y0030707D03*
G36*
G01X0007202Y0030716D02*
G01X0007244Y0030758D01*
G01X0007303Y0030699D01*
G01X0007261Y0030657D01*
G01X0007202Y0030716D01*
G37*
G54D13*
G01X0007226Y0030677D03*
G54D14*
G01X0007197Y0030707D03*
G01X0007622Y0030963D03*
G54D13*
G01X0007593Y0030992D03*
G54D12*
G01X0007566Y0030962D03*
G36*
G01X0007617Y0030953D02*
G01X0007575Y0030911D01*
G01X0007516Y0030970D01*
G01X0007558Y0031012D01*
G01X0007617Y0030953D01*
G37*
G01X0007253Y0030962D03*
G36*
G01X0007262Y0031012D02*
G01X0007304Y0030970D01*
G01X0007245Y0030911D01*
G01X0007203Y0030953D01*
G01X0007262Y0031012D01*
G37*
G54D13*
G01X0007227Y0030992D03*
G54D14*
G01X0007197Y0030963D03*
G54D15*
G01X0007409Y0030835D03*
G36*
G01X0007554Y0030835D02*
G01X0007409Y0030690D01*
G01X0007265Y0030835D01*
G01X0007409Y0030979D01*
G01X0007554Y0030835D01*
G37*
G54D14*
G01X0007622Y0030707D03*
G54D13*
G01X0007593Y0030677D03*
G54D12*
G01X0007566Y0030707D03*
G36*
G01X0007558Y0030657D02*
G01X0007516Y0030699D01*
G01X0007575Y0030758D01*
G01X0007617Y0030716D01*
G01X0007558Y0030657D01*
G37*
G01X0004566Y0030119D03*
G36*
G01X0004617Y0030111D02*
G01X0004575Y0030069D01*
G01X0004516Y0030128D01*
G01X0004558Y0030170D01*
G01X0004617Y0030111D01*
G37*
G54D13*
G01X0004593Y0030150D03*
G54D14*
G01X0004622Y0030120D03*
G01X0004197Y0029864D03*
G54D13*
G01X0004226Y0029835D03*
G54D12*
G01X0004253Y0029865D03*
G36*
G01X0004202Y0029874D02*
G01X0004244Y0029915D01*
G01X0004303Y0029856D01*
G01X0004261Y0029815D01*
G01X0004202Y0029874D01*
G37*
G01X0004566Y0029865D03*
G36*
G01X0004557Y0029815D02*
G01X0004515Y0029856D01*
G01X0004574Y0029915D01*
G01X0004616Y0029874D01*
G01X0004557Y0029815D01*
G37*
G54D13*
G01X0004592Y0029835D03*
G54D14*
G01X0004622Y0029864D03*
G54D15*
G01X0004409Y0029992D03*
G36*
G01X0004265Y0029992D02*
G01X0004409Y0030137D01*
G01X0004554Y0029992D01*
G01X0004409Y0029847D01*
G01X0004265Y0029992D01*
G37*
G54D14*
G01X0004197Y0030120D03*
G54D13*
G01X0004226Y0030150D03*
G54D12*
G01X0004253Y0030119D03*
G36*
G01X0004261Y0030170D02*
G01X0004303Y0030128D01*
G01X0004244Y0030069D01*
G01X0004202Y0030111D01*
G01X0004261Y0030170D01*
G37*
G01X0007558Y0030395D03*
G36*
G01X0007609Y0030386D02*
G01X0007567Y0030344D01*
G01X0007508Y0030404D01*
G01X0007550Y0030445D01*
G01X0007609Y0030386D01*
G37*
G54D13*
G01X0007585Y0030425D03*
G54D14*
G01X0007614Y0030396D03*
G01X0007189Y0030140D03*
G54D13*
G01X0007219Y0030110D03*
G54D12*
G01X0007245Y0030141D03*
G36*
G01X0007194Y0030149D02*
G01X0007236Y0030191D01*
G01X0007295Y0030132D01*
G01X0007254Y0030090D01*
G01X0007194Y0030149D01*
G37*
G01X0007558Y0030141D03*
G36*
G01X0007549Y0030090D02*
G01X0007507Y0030132D01*
G01X0007567Y0030191D01*
G01X0007608Y0030149D01*
G01X0007549Y0030090D01*
G37*
G54D13*
G01X0007584Y0030110D03*
G54D14*
G01X0007614Y0030140D03*
G54D15*
G01X0007402Y0030268D03*
G36*
G01X0007257Y0030268D02*
G01X0007402Y0030412D01*
G01X0007546Y0030268D01*
G01X0007402Y0030123D01*
G01X0007257Y0030268D01*
G37*
G54D14*
G01X0007189Y0030396D03*
G54D13*
G01X0007219Y0030425D03*
G54D12*
G01X0007245Y0030395D03*
G36*
G01X0007254Y0030445D02*
G01X0007295Y0030404D01*
G01X0007236Y0030344D01*
G01X0007194Y0030386D01*
G01X0007254Y0030445D01*
G37*
G54D16*
G01X0007181Y0027943D03*
G01X0006354Y0027943D03*
G01X0006354Y0028593D03*
G01X0007181Y0028593D03*
G54D10*
G01X0005529Y0029551D03*
G01X0005324Y0029551D03*
G54D17*
G01X0007280Y0029913D03*
G01X0007280Y0029693D03*
G01X0007539Y0029831D03*
G01X0007539Y0029610D03*
G01X0004312Y0029666D03*
G01X0004312Y0029446D03*
G01X0004531Y0029665D03*
G01X0004531Y0029445D03*
G01X0007551Y0031157D03*
G01X0007551Y0031378D03*
G01X0007315Y0031157D03*
G01X0007315Y0031378D03*
G54D11*
G01X0006697Y0031197D03*
G01X0006697Y0030992D03*
G54D10*
G01X0007240Y0029106D03*
G01X0007445Y0029106D03*
G01X0005894Y0028827D03*
G01X0005689Y0028827D03*
G01X0005827Y0028445D03*
G01X0005622Y0028445D03*
G54D11*
G01X0007598Y0028106D03*
G01X0007598Y0027902D03*
G01X0007598Y0028299D03*
G01X0007598Y0028504D03*
G01X0004799Y0028705D03*
G01X0004799Y0028909D03*
G01X0005059Y0028701D03*
G01X0005059Y0028906D03*
G01X0004531Y0028705D03*
G01X0004531Y0028909D03*
G01X0005315Y0028709D03*
G01X0005315Y0028913D03*
G54D18*
G01X0005756Y0028169D03*
G01X0005756Y0027815D03*
G01X0004248Y0030759D03*
G01X0004248Y0031113D03*
G54D19*
G01X0005484Y0030441D03*
G01X0005484Y0030815D03*
G01X0005484Y0031189D03*
G01X0006272Y0030441D03*
G01X0006272Y0031189D03*
G01X0006272Y0030815D03*
G54D20*
G01X0005394Y0027969D03*
G01X0005394Y0028224D03*
G01X0005394Y0028480D03*
G01X0004646Y0027969D03*
G01X0004646Y0028480D03*
G54D10*
G01X0010559Y0007598D03*
G01X0010763Y0007598D03*
G54D11*
G01X0010958Y0007476D03*
G01X0010958Y0007272D03*
G01X0010488Y0007189D03*
G01X0010488Y0006984D03*
G54D12*
G01X0013158Y0007085D03*
G36*
G01X0013108Y0007094D02*
G01X0013150Y0007136D01*
G01X0013209Y0007077D01*
G01X0013167Y0007035D01*
G01X0013108Y0007094D01*
G37*
G54D13*
G01X0013132Y0007055D03*
G54D14*
G01X0013102Y0007085D03*
G01X0013528Y0007341D03*
G54D13*
G01X0013498Y0007370D03*
G54D12*
G01X0013472Y0007340D03*
G36*
G01X0013522Y0007331D02*
G01X0013480Y0007289D01*
G01X0013421Y0007348D01*
G01X0013463Y0007390D01*
G01X0013522Y0007331D01*
G37*
G01X0013159Y0007340D03*
G36*
G01X0013167Y0007390D02*
G01X0013209Y0007348D01*
G01X0013150Y0007289D01*
G01X0013108Y0007331D01*
G01X0013167Y0007390D01*
G37*
G54D13*
G01X0013132Y0007370D03*
G54D14*
G01X0013102Y0007341D03*
G54D15*
G01X0013315Y0007213D03*
G36*
G01X0013460Y0007213D02*
G01X0013315Y0007068D01*
G01X0013170Y0007213D01*
G01X0013315Y0007357D01*
G01X0013460Y0007213D01*
G37*
G54D14*
G01X0013528Y0007085D03*
G54D13*
G01X0013498Y0007055D03*
G54D12*
G01X0013472Y0007085D03*
G36*
G01X0013463Y0007035D02*
G01X0013421Y0007077D01*
G01X0013480Y0007136D01*
G01X0013522Y0007094D01*
G01X0013463Y0007035D01*
G37*
G01X0010472Y0006497D03*
G36*
G01X0010522Y0006489D02*
G01X0010480Y0006447D01*
G01X0010421Y0006506D01*
G01X0010463Y0006548D01*
G01X0010522Y0006489D01*
G37*
G54D13*
G01X0010498Y0006528D03*
G54D14*
G01X0010528Y0006498D03*
G01X0010102Y0006242D03*
G54D13*
G01X0010132Y0006213D03*
G54D12*
G01X0010158Y0006243D03*
G36*
G01X0010108Y0006252D02*
G01X0010150Y0006293D01*
G01X0010209Y0006234D01*
G01X0010167Y0006193D01*
G01X0010108Y0006252D01*
G37*
G01X0010471Y0006243D03*
G36*
G01X0010463Y0006193D02*
G01X0010421Y0006234D01*
G01X0010480Y0006293D01*
G01X0010522Y0006252D01*
G01X0010463Y0006193D01*
G37*
G54D13*
G01X0010498Y0006213D03*
G54D14*
G01X0010528Y0006242D03*
G54D15*
G01X0010315Y0006370D03*
G36*
G01X0010170Y0006370D02*
G01X0010315Y0006515D01*
G01X0010460Y0006370D01*
G01X0010315Y0006225D01*
G01X0010170Y0006370D01*
G37*
G54D14*
G01X0010102Y0006498D03*
G54D13*
G01X0010132Y0006528D03*
G54D12*
G01X0010158Y0006497D03*
G36*
G01X0010167Y0006548D02*
G01X0010209Y0006506D01*
G01X0010150Y0006447D01*
G01X0010108Y0006489D01*
G01X0010167Y0006548D01*
G37*
G01X0013464Y0006773D03*
G36*
G01X0013514Y0006764D02*
G01X0013472Y0006722D01*
G01X0013413Y0006781D01*
G01X0013455Y0006823D01*
G01X0013514Y0006764D01*
G37*
G54D13*
G01X0013490Y0006803D03*
G54D14*
G01X0013520Y0006774D03*
G01X0013094Y0006518D03*
G54D13*
G01X0013124Y0006488D03*
G54D12*
G01X0013150Y0006519D03*
G36*
G01X0013100Y0006527D02*
G01X0013142Y0006569D01*
G01X0013201Y0006510D01*
G01X0013159Y0006468D01*
G01X0013100Y0006527D01*
G37*
G01X0013463Y0006519D03*
G36*
G01X0013455Y0006468D02*
G01X0013413Y0006510D01*
G01X0013472Y0006569D01*
G01X0013514Y0006527D01*
G01X0013455Y0006468D01*
G37*
G54D13*
G01X0013490Y0006488D03*
G54D14*
G01X0013520Y0006518D03*
G54D15*
G01X0013307Y0006646D03*
G36*
G01X0013162Y0006646D02*
G01X0013307Y0006790D01*
G01X0013452Y0006646D01*
G01X0013307Y0006501D01*
G01X0013162Y0006646D01*
G37*
G54D14*
G01X0013094Y0006774D03*
G54D13*
G01X0013124Y0006803D03*
G54D12*
G01X0013150Y0006773D03*
G36*
G01X0013159Y0006823D02*
G01X0013201Y0006781D01*
G01X0013142Y0006722D01*
G01X0013100Y0006764D01*
G01X0013159Y0006823D01*
G37*
G54D16*
G01X0013087Y0004321D03*
G01X0012260Y0004321D03*
G01X0012260Y0004970D03*
G01X0013087Y0004970D03*
G54D10*
G01X0011435Y0005929D03*
G01X0011230Y0005929D03*
G54D17*
G01X0013185Y0006291D03*
G01X0013185Y0006071D03*
G01X0013445Y0006209D03*
G01X0013445Y0005988D03*
G01X0010217Y0006044D03*
G01X0010217Y0005824D03*
G01X0010437Y0006043D03*
G01X0010437Y0005823D03*
G01X0013457Y0007535D03*
G01X0013457Y0007756D03*
G01X0013220Y0007535D03*
G01X0013220Y0007756D03*
G54D11*
G01X0012602Y0007575D03*
G01X0012602Y0007370D03*
G54D10*
G01X0013146Y0005484D03*
G01X0013350Y0005484D03*
G01X0011799Y0005205D03*
G01X0011594Y0005205D03*
G01X0011732Y0004823D03*
G01X0011528Y0004823D03*
G54D11*
G01X0013504Y0004484D03*
G01X0013504Y0004280D03*
G01X0013504Y0004677D03*
G01X0013504Y0004882D03*
G01X0010705Y0005083D03*
G01X0010705Y0005287D03*
G01X0010965Y0005079D03*
G01X0010965Y0005283D03*
G01X0010437Y0005083D03*
G01X0010437Y0005287D03*
G01X0011220Y0005087D03*
G01X0011220Y0005291D03*
G54D18*
G01X0011661Y0004547D03*
G01X0011661Y0004193D03*
G01X0010154Y0007137D03*
G01X0010154Y0007491D03*
G54D19*
G01X0011390Y0006819D03*
G01X0011390Y0007193D03*
G01X0011390Y0007567D03*
G01X0012177Y0006819D03*
G01X0012177Y0007567D03*
G01X0012177Y0007193D03*
G54D20*
G01X0011299Y0004346D03*
G01X0011299Y0004602D03*
G01X0011299Y0004858D03*
G01X0010551Y0004346D03*
G01X0010551Y0004858D03*
G54D10*
G01X0010559Y0013503D03*
G01X0010763Y0013503D03*
G54D11*
G01X0010958Y0013382D03*
G01X0010958Y0013177D03*
G01X0010488Y0013094D03*
G01X0010488Y0012890D03*
G54D12*
G01X0013158Y0012991D03*
G36*
G01X0013108Y0013000D02*
G01X0013150Y0013041D01*
G01X0013209Y0012982D01*
G01X0013167Y0012941D01*
G01X0013108Y0013000D01*
G37*
G54D13*
G01X0013132Y0012961D03*
G54D14*
G01X0013102Y0012990D03*
G01X0013528Y0013246D03*
G54D13*
G01X0013498Y0013276D03*
G54D12*
G01X0013472Y0013245D03*
G36*
G01X0013522Y0013237D02*
G01X0013480Y0013195D01*
G01X0013421Y0013254D01*
G01X0013463Y0013296D01*
G01X0013522Y0013237D01*
G37*
G01X0013159Y0013245D03*
G36*
G01X0013167Y0013296D02*
G01X0013209Y0013254D01*
G01X0013150Y0013195D01*
G01X0013108Y0013237D01*
G01X0013167Y0013296D01*
G37*
G54D13*
G01X0013132Y0013276D03*
G54D14*
G01X0013102Y0013246D03*
G54D15*
G01X0013315Y0013118D03*
G36*
G01X0013460Y0013118D02*
G01X0013315Y0012973D01*
G01X0013170Y0013118D01*
G01X0013315Y0013263D01*
G01X0013460Y0013118D01*
G37*
G54D14*
G01X0013528Y0012990D03*
G54D13*
G01X0013498Y0012961D03*
G54D12*
G01X0013472Y0012991D03*
G36*
G01X0013463Y0012941D02*
G01X0013421Y0012982D01*
G01X0013480Y0013041D01*
G01X0013522Y0013000D01*
G01X0013463Y0012941D01*
G37*
G01X0010472Y0012403D03*
G36*
G01X0010522Y0012394D02*
G01X0010480Y0012352D01*
G01X0010421Y0012411D01*
G01X0010463Y0012453D01*
G01X0010522Y0012394D01*
G37*
G54D13*
G01X0010498Y0012433D03*
G54D14*
G01X0010528Y0012404D03*
G01X0010102Y0012148D03*
G54D13*
G01X0010132Y0012118D03*
G54D12*
G01X0010158Y0012148D03*
G36*
G01X0010108Y0012157D02*
G01X0010150Y0012199D01*
G01X0010209Y0012140D01*
G01X0010167Y0012098D01*
G01X0010108Y0012157D01*
G37*
G01X0010471Y0012148D03*
G54D13*
G01X0010498Y0012118D03*
G54D14*
G01X0010528Y0012148D03*
G54D15*
G01X0010315Y0012276D03*
G36*
G01X0010170Y0012276D02*
G01X0010315Y0012420D01*
G01X0010460Y0012276D01*
G01X0010315Y0012131D01*
G01X0010170Y0012276D01*
G37*
G54D14*
G01X0010102Y0012404D03*
G54D13*
G01X0010132Y0012433D03*
G54D12*
G01X0010158Y0012403D03*
G36*
G01X0010167Y0012453D02*
G01X0010209Y0012411D01*
G01X0010150Y0012352D01*
G01X0010108Y0012394D01*
G01X0010167Y0012453D01*
G37*
G01X0013464Y0012678D03*
G36*
G01X0013514Y0012670D02*
G01X0013472Y0012628D01*
G01X0013413Y0012687D01*
G01X0013455Y0012729D01*
G01X0013514Y0012670D01*
G37*
G54D13*
G01X0013490Y0012709D03*
G54D14*
G01X0013520Y0012679D03*
G01X0013094Y0012423D03*
G54D13*
G01X0013124Y0012394D03*
G54D12*
G01X0013150Y0012424D03*
G36*
G01X0013100Y0012433D02*
G01X0013142Y0012474D01*
G01X0013201Y0012415D01*
G01X0013159Y0012374D01*
G01X0013100Y0012433D01*
G37*
G01X0013463Y0012424D03*
G36*
G01X0013455Y0012374D02*
G01X0013413Y0012415D01*
G01X0013472Y0012474D01*
G01X0013514Y0012433D01*
G01X0013455Y0012374D01*
G37*
G54D13*
G01X0013490Y0012394D03*
G54D14*
G01X0013520Y0012423D03*
G54D15*
G01X0013307Y0012551D03*
G36*
G01X0013162Y0012551D02*
G01X0013307Y0012696D01*
G01X0013452Y0012551D01*
G01X0013307Y0012406D01*
G01X0013162Y0012551D01*
G37*
G54D14*
G01X0013094Y0012679D03*
G54D13*
G01X0013124Y0012709D03*
G54D12*
G01X0013150Y0012678D03*
G36*
G01X0013159Y0012729D02*
G01X0013201Y0012687D01*
G01X0013142Y0012628D01*
G01X0013100Y0012670D01*
G01X0013159Y0012729D01*
G37*
G54D16*
G01X0013087Y0010226D03*
G01X0012260Y0010226D03*
G01X0012260Y0010876D03*
G01X0013087Y0010876D03*
G54D10*
G01X0011435Y0011835D03*
G01X0011230Y0011835D03*
G54D17*
G01X0013185Y0012197D03*
G01X0013185Y0011976D03*
G01X0013445Y0012114D03*
G01X0013445Y0011894D03*
G01X0010217Y0011950D03*
G01X0010217Y0011729D03*
G01X0010437Y0011949D03*
G01X0010437Y0011728D03*
G01X0013457Y0013441D03*
G01X0013457Y0013661D03*
G01X0013220Y0013441D03*
G01X0013220Y0013661D03*
G54D11*
G01X0012602Y0013480D03*
G01X0012602Y0013276D03*
G54D10*
G01X0013146Y0011390D03*
G01X0013350Y0011390D03*
G01X0011799Y0011110D03*
G01X0011594Y0011110D03*
G01X0011732Y0010728D03*
G01X0011528Y0010728D03*
G54D11*
G01X0013504Y0010390D03*
G01X0013504Y0010185D03*
G01X0013504Y0010583D03*
G01X0013504Y0010787D03*
G01X0010705Y0010988D03*
G01X0010705Y0011193D03*
G01X0010965Y0010984D03*
G01X0010965Y0011189D03*
G01X0010437Y0010988D03*
G01X0010437Y0011193D03*
G01X0011220Y0010992D03*
G01X0011220Y0011197D03*
G54D18*
G01X0011661Y0010453D03*
G01X0011661Y0010098D03*
G01X0010154Y0013042D03*
G01X0010154Y0013397D03*
G54D19*
G01X0011390Y0012724D03*
G01X0011390Y0013098D03*
G01X0011390Y0013472D03*
G01X0012177Y0012724D03*
G01X0012177Y0013472D03*
G01X0012177Y0013098D03*
G54D20*
G01X0011299Y0010252D03*
G01X0011299Y0010508D03*
G01X0011299Y0010764D03*
G01X0010551Y0010252D03*
G01X0010551Y0010764D03*
G54D10*
G01X0010559Y0019409D03*
G01X0010763Y0019409D03*
G54D11*
G01X0010958Y0019287D03*
G01X0010958Y0019083D03*
G01X0010488Y0019000D03*
G01X0010488Y0018795D03*
G54D12*
G01X0013158Y0018896D03*
G36*
G01X0013108Y0018905D02*
G01X0013150Y0018947D01*
G01X0013209Y0018888D01*
G01X0013167Y0018846D01*
G01X0013108Y0018905D01*
G37*
G54D13*
G01X0013132Y0018866D03*
G54D14*
G01X0013102Y0018896D03*
G01X0013528Y0019152D03*
G54D13*
G01X0013498Y0019181D03*
G54D12*
G01X0013472Y0019151D03*
G36*
G01X0013522Y0019142D02*
G01X0013480Y0019100D01*
G01X0013421Y0019159D01*
G01X0013463Y0019201D01*
G01X0013522Y0019142D01*
G37*
G01X0013159Y0019151D03*
G36*
G01X0013167Y0019201D02*
G01X0013209Y0019159D01*
G01X0013150Y0019100D01*
G01X0013108Y0019142D01*
G01X0013167Y0019201D01*
G37*
G54D13*
G01X0013132Y0019181D03*
G54D14*
G01X0013102Y0019152D03*
G54D15*
G01X0013315Y0019024D03*
G36*
G01X0013460Y0019024D02*
G01X0013315Y0018879D01*
G01X0013170Y0019024D01*
G01X0013315Y0019168D01*
G01X0013460Y0019024D01*
G37*
G54D14*
G01X0013528Y0018896D03*
G54D13*
G01X0013498Y0018866D03*
G54D12*
G01X0013472Y0018896D03*
G36*
G01X0013463Y0018846D02*
G01X0013421Y0018888D01*
G01X0013480Y0018947D01*
G01X0013522Y0018905D01*
G01X0013463Y0018846D01*
G37*
G01X0010472Y0018308D03*
G36*
G01X0010522Y0018300D02*
G01X0010480Y0018258D01*
G01X0010421Y0018317D01*
G01X0010463Y0018359D01*
G01X0010522Y0018300D01*
G37*
G54D13*
G01X0010498Y0018339D03*
G54D14*
G01X0010528Y0018309D03*
G01X0010102Y0018053D03*
G54D13*
G01X0010132Y0018024D03*
G54D12*
G01X0010158Y0018054D03*
G36*
G01X0010108Y0018063D02*
G01X0010150Y0018104D01*
G01X0010209Y0018045D01*
G01X0010167Y0018004D01*
G01X0010108Y0018063D01*
G37*
G01X0010471Y0018054D03*
G36*
G01X0010463Y0018004D02*
G01X0010421Y0018045D01*
G01X0010480Y0018104D01*
G01X0010522Y0018063D01*
G01X0010463Y0018004D01*
G37*
G54D13*
G01X0010498Y0018024D03*
G54D14*
G01X0010528Y0018053D03*
G54D15*
G01X0010315Y0018181D03*
G36*
G01X0010170Y0018181D02*
G01X0010315Y0018326D01*
G01X0010460Y0018181D01*
G01X0010315Y0018036D01*
G01X0010170Y0018181D01*
G37*
G54D14*
G01X0010102Y0018309D03*
G54D13*
G01X0010132Y0018339D03*
G54D12*
G01X0010158Y0018308D03*
G36*
G01X0010167Y0018359D02*
G01X0010209Y0018317D01*
G01X0010150Y0018258D01*
G01X0010108Y0018300D01*
G01X0010167Y0018359D01*
G37*
G01X0013464Y0018584D03*
G36*
G01X0013514Y0018575D02*
G01X0013472Y0018533D01*
G01X0013413Y0018592D01*
G01X0013455Y0018634D01*
G01X0013514Y0018575D01*
G37*
G54D13*
G01X0013490Y0018614D03*
G54D14*
G01X0013520Y0018585D03*
G01X0013094Y0018329D03*
G54D13*
G01X0013124Y0018299D03*
G54D12*
G01X0013150Y0018330D03*
G36*
G01X0013100Y0018338D02*
G01X0013142Y0018380D01*
G01X0013201Y0018321D01*
G01X0013159Y0018279D01*
G01X0013100Y0018338D01*
G37*
G01X0013463Y0018330D03*
G36*
G01X0013455Y0018279D02*
G01X0013413Y0018321D01*
G01X0013472Y0018380D01*
G01X0013514Y0018338D01*
G01X0013455Y0018279D01*
G37*
G54D13*
G01X0013490Y0018299D03*
G54D14*
G01X0013520Y0018329D03*
G54D15*
G01X0013307Y0018457D03*
G36*
G01X0013162Y0018457D02*
G01X0013307Y0018601D01*
G01X0013452Y0018457D01*
G01X0013307Y0018312D01*
G01X0013162Y0018457D01*
G37*
G54D14*
G01X0013094Y0018585D03*
G54D13*
G01X0013124Y0018614D03*
G54D12*
G01X0013150Y0018584D03*
G36*
G01X0013159Y0018634D02*
G01X0013201Y0018592D01*
G01X0013142Y0018533D01*
G01X0013100Y0018575D01*
G01X0013159Y0018634D01*
G37*
G54D16*
G01X0013087Y0016132D03*
G01X0012260Y0016132D03*
G01X0012260Y0016781D03*
G01X0013087Y0016781D03*
G54D10*
G01X0011435Y0017740D03*
G01X0011230Y0017740D03*
G54D17*
G01X0013185Y0018102D03*
G01X0013185Y0017882D03*
G01X0013445Y0018020D03*
G01X0013445Y0017799D03*
G01X0010217Y0017855D03*
G01X0010217Y0017635D03*
G01X0010437Y0017854D03*
G01X0010437Y0017634D03*
G01X0013457Y0019346D03*
G01X0013457Y0019567D03*
G01X0013220Y0019346D03*
G01X0013220Y0019567D03*
G54D11*
G01X0012602Y0019386D03*
G01X0012602Y0019181D03*
G54D10*
G01X0013146Y0017295D03*
G01X0013350Y0017295D03*
G01X0011799Y0017016D03*
G01X0011594Y0017016D03*
G01X0011732Y0016634D03*
G01X0011528Y0016634D03*
G54D11*
G01X0013504Y0016295D03*
G01X0013504Y0016091D03*
G01X0013504Y0016488D03*
G01X0013504Y0016693D03*
G01X0010705Y0016894D03*
G01X0010705Y0017098D03*
G01X0010965Y0016890D03*
G01X0010965Y0017094D03*
G01X0010437Y0016894D03*
G01X0010437Y0017098D03*
G01X0011220Y0016898D03*
G01X0011220Y0017102D03*
G54D18*
G01X0011661Y0016358D03*
G01X0011661Y0016004D03*
G01X0010154Y0018948D03*
G01X0010154Y0019302D03*
G54D19*
G01X0011390Y0018630D03*
G01X0011390Y0019004D03*
G01X0011390Y0019378D03*
G01X0012177Y0018630D03*
G01X0012177Y0019378D03*
G01X0012177Y0019004D03*
G54D20*
G01X0011299Y0016157D03*
G01X0011299Y0016413D03*
G01X0011299Y0016669D03*
G01X0010551Y0016157D03*
G01X0010551Y0016669D03*
G54D10*
G01X0010559Y0025314D03*
G01X0010763Y0025314D03*
G54D11*
G01X0010958Y0025193D03*
G01X0010958Y0024988D03*
G01X0010488Y0024906D03*
G01X0010488Y0024701D03*
G54D12*
G01X0013158Y0024802D03*
G36*
G01X0013108Y0024811D02*
G01X0013150Y0024852D01*
G01X0013209Y0024793D01*
G01X0013167Y0024752D01*
G01X0013108Y0024811D01*
G37*
G54D13*
G01X0013132Y0024772D03*
G54D14*
G01X0013102Y0024801D03*
G01X0013528Y0025057D03*
G54D13*
G01X0013498Y0025087D03*
G54D12*
G01X0013472Y0025056D03*
G36*
G01X0013522Y0025048D02*
G01X0013480Y0025006D01*
G01X0013421Y0025065D01*
G01X0013463Y0025107D01*
G01X0013522Y0025048D01*
G37*
G01X0013159Y0025056D03*
G36*
G01X0013167Y0025107D02*
G01X0013209Y0025065D01*
G01X0013150Y0025006D01*
G01X0013108Y0025048D01*
G01X0013167Y0025107D01*
G37*
G54D13*
G01X0013132Y0025087D03*
G54D14*
G01X0013102Y0025057D03*
G54D15*
G01X0013315Y0024929D03*
G36*
G01X0013460Y0024929D02*
G01X0013315Y0024784D01*
G01X0013170Y0024929D01*
G01X0013315Y0025074D01*
G01X0013460Y0024929D01*
G37*
G54D14*
G01X0013528Y0024801D03*
G54D13*
G01X0013498Y0024772D03*
G54D12*
G01X0013472Y0024802D03*
G36*
G01X0013463Y0024752D02*
G01X0013421Y0024793D01*
G01X0013480Y0024852D01*
G01X0013522Y0024811D01*
G01X0013463Y0024752D01*
G37*
G01X0010472Y0024214D03*
G36*
G01X0010522Y0024205D02*
G01X0010480Y0024163D01*
G01X0010421Y0024222D01*
G01X0010463Y0024264D01*
G01X0010522Y0024205D01*
G37*
G54D13*
G01X0010498Y0024244D03*
G54D14*
G01X0010528Y0024215D03*
G01X0010102Y0023959D03*
G54D13*
G01X0010132Y0023929D03*
G54D12*
G01X0010158Y0023959D03*
G36*
G01X0010108Y0023968D02*
G01X0010150Y0024010D01*
G01X0010209Y0023951D01*
G01X0010167Y0023909D01*
G01X0010108Y0023968D01*
G37*
G01X0010471Y0023959D03*
G36*
G01X0010463Y0023909D02*
G01X0010421Y0023951D01*
G01X0010480Y0024010D01*
G01X0010522Y0023968D01*
G01X0010463Y0023909D01*
G37*
G54D13*
G01X0010498Y0023929D03*
G54D14*
G01X0010528Y0023959D03*
G54D15*
G01X0010315Y0024087D03*
G36*
G01X0010170Y0024087D02*
G01X0010315Y0024231D01*
G01X0010460Y0024087D01*
G01X0010315Y0023942D01*
G01X0010170Y0024087D01*
G37*
G54D14*
G01X0010102Y0024215D03*
G54D13*
G01X0010132Y0024244D03*
G54D12*
G01X0010158Y0024214D03*
G36*
G01X0010167Y0024264D02*
G01X0010209Y0024222D01*
G01X0010150Y0024163D01*
G01X0010108Y0024205D01*
G01X0010167Y0024264D01*
G37*
G01X0013464Y0024489D03*
G36*
G01X0013514Y0024481D02*
G01X0013472Y0024439D01*
G01X0013413Y0024498D01*
G01X0013455Y0024540D01*
G01X0013514Y0024481D01*
G37*
G54D13*
G01X0013490Y0024520D03*
G54D14*
G01X0013520Y0024490D03*
G01X0013094Y0024234D03*
G54D13*
G01X0013124Y0024205D03*
G54D12*
G01X0013150Y0024235D03*
G36*
G01X0013100Y0024244D02*
G01X0013142Y0024285D01*
G01X0013201Y0024226D01*
G01X0013159Y0024185D01*
G01X0013100Y0024244D01*
G37*
G01X0013463Y0024235D03*
G36*
G01X0013455Y0024185D02*
G01X0013413Y0024226D01*
G01X0013472Y0024285D01*
G01X0013514Y0024244D01*
G01X0013455Y0024185D01*
G37*
G54D13*
G01X0013490Y0024205D03*
G54D14*
G01X0013520Y0024234D03*
G54D15*
G01X0013307Y0024362D03*
G36*
G01X0013162Y0024362D02*
G01X0013307Y0024507D01*
G01X0013452Y0024362D01*
G01X0013307Y0024217D01*
G01X0013162Y0024362D01*
G37*
G54D14*
G01X0013094Y0024490D03*
G54D13*
G01X0013124Y0024520D03*
G54D12*
G01X0013150Y0024489D03*
G36*
G01X0013159Y0024540D02*
G01X0013201Y0024498D01*
G01X0013142Y0024439D01*
G01X0013100Y0024481D01*
G01X0013159Y0024540D01*
G37*
G54D16*
G01X0013087Y0022037D03*
G01X0012260Y0022037D03*
G01X0012260Y0022687D03*
G01X0013087Y0022687D03*
G54D10*
G01X0011435Y0023646D03*
G01X0011230Y0023646D03*
G54D17*
G01X0013185Y0024008D03*
G01X0013185Y0023787D03*
G01X0013445Y0023925D03*
G01X0013445Y0023705D03*
G01X0010217Y0023761D03*
G01X0010217Y0023540D03*
G01X0010437Y0023760D03*
G01X0010437Y0023539D03*
G01X0013457Y0025252D03*
G01X0013457Y0025472D03*
G01X0013220Y0025252D03*
G01X0013220Y0025472D03*
G54D11*
G01X0012602Y0025291D03*
G01X0012602Y0025087D03*
G54D10*
G01X0013146Y0023201D03*
G01X0013350Y0023201D03*
G01X0011799Y0022921D03*
G01X0011594Y0022921D03*
G01X0011732Y0022539D03*
G01X0011528Y0022539D03*
G54D11*
G01X0013504Y0022201D03*
G01X0013504Y0021996D03*
G01X0013504Y0022394D03*
G01X0013504Y0022598D03*
G01X0010705Y0022799D03*
G01X0010705Y0023004D03*
G01X0010965Y0022795D03*
G01X0010965Y0023000D03*
G01X0010437Y0022799D03*
G01X0010437Y0023004D03*
G01X0011220Y0022803D03*
G01X0011220Y0023008D03*
G54D18*
G01X0011661Y0022264D03*
G01X0011661Y0021909D03*
G01X0010154Y0024853D03*
G01X0010154Y0025208D03*
G54D19*
G01X0011390Y0024535D03*
G01X0011390Y0024909D03*
G01X0011390Y0025283D03*
G01X0012177Y0024535D03*
G01X0012177Y0025283D03*
G01X0012177Y0024909D03*
G54D20*
G01X0011299Y0022063D03*
G01X0011299Y0022319D03*
G01X0011299Y0022575D03*
G01X0010551Y0022063D03*
G01X0010551Y0022575D03*
G54D10*
G01X0010559Y0031220D03*
G01X0010763Y0031220D03*
G54D11*
G01X0010958Y0031098D03*
G01X0010958Y0030894D03*
G01X0010488Y0030811D03*
G01X0010488Y0030606D03*
G54D12*
G01X0013158Y0030707D03*
G36*
G01X0013108Y0030716D02*
G01X0013150Y0030758D01*
G01X0013209Y0030699D01*
G01X0013167Y0030657D01*
G01X0013108Y0030716D01*
G37*
G54D13*
G01X0013132Y0030677D03*
G54D14*
G01X0013102Y0030707D03*
G01X0013528Y0030963D03*
G54D13*
G01X0013498Y0030992D03*
G54D12*
G01X0013472Y0030962D03*
G36*
G01X0013522Y0030953D02*
G01X0013480Y0030911D01*
G01X0013421Y0030970D01*
G01X0013463Y0031012D01*
G01X0013522Y0030953D01*
G37*
G01X0013159Y0030962D03*
G36*
G01X0013167Y0031012D02*
G01X0013209Y0030970D01*
G01X0013150Y0030911D01*
G01X0013108Y0030953D01*
G01X0013167Y0031012D01*
G37*
G54D13*
G01X0013132Y0030992D03*
G54D14*
G01X0013102Y0030963D03*
G54D15*
G01X0013315Y0030835D03*
G36*
G01X0013460Y0030835D02*
G01X0013315Y0030690D01*
G01X0013170Y0030835D01*
G01X0013315Y0030979D01*
G01X0013460Y0030835D01*
G37*
G54D14*
G01X0013528Y0030707D03*
G54D13*
G01X0013498Y0030677D03*
G54D12*
G01X0013472Y0030707D03*
G36*
G01X0013463Y0030657D02*
G01X0013421Y0030699D01*
G01X0013480Y0030758D01*
G01X0013522Y0030716D01*
G01X0013463Y0030657D01*
G37*
G01X0010472Y0030119D03*
G36*
G01X0010522Y0030111D02*
G01X0010480Y0030069D01*
G01X0010421Y0030128D01*
G01X0010463Y0030170D01*
G01X0010522Y0030111D01*
G37*
G54D13*
G01X0010498Y0030150D03*
G54D14*
G01X0010528Y0030120D03*
G01X0010102Y0029864D03*
G54D13*
G01X0010132Y0029835D03*
G54D12*
G01X0010158Y0029865D03*
G36*
G01X0010108Y0029874D02*
G01X0010150Y0029915D01*
G01X0010209Y0029856D01*
G01X0010167Y0029815D01*
G01X0010108Y0029874D01*
G37*
G01X0010471Y0029865D03*
G54D13*
G01X0010498Y0029835D03*
G54D14*
G01X0010528Y0029864D03*
G54D15*
G01X0010315Y0029992D03*
G36*
G01X0010170Y0029992D02*
G01X0010315Y0030137D01*
G01X0010460Y0029992D01*
G01X0010315Y0029847D01*
G01X0010170Y0029992D01*
G37*
G54D14*
G01X0010102Y0030120D03*
G54D13*
G01X0010132Y0030150D03*
G54D12*
G01X0010158Y0030119D03*
G36*
G01X0010167Y0030170D02*
G01X0010209Y0030128D01*
G01X0010150Y0030069D01*
G01X0010108Y0030111D01*
G01X0010167Y0030170D01*
G37*
G01X0013464Y0030395D03*
G36*
G01X0013514Y0030386D02*
G01X0013472Y0030344D01*
G01X0013413Y0030404D01*
G01X0013455Y0030445D01*
G01X0013514Y0030386D01*
G37*
G54D13*
G01X0013490Y0030425D03*
G54D14*
G01X0013520Y0030396D03*
G01X0013094Y0030140D03*
G54D13*
G01X0013124Y0030110D03*
G54D12*
G01X0013150Y0030141D03*
G36*
G01X0013100Y0030149D02*
G01X0013142Y0030191D01*
G01X0013201Y0030132D01*
G01X0013159Y0030090D01*
G01X0013100Y0030149D01*
G37*
G01X0013463Y0030141D03*
G36*
G01X0013455Y0030090D02*
G01X0013413Y0030132D01*
G01X0013472Y0030191D01*
G01X0013514Y0030149D01*
G01X0013455Y0030090D01*
G37*
G54D13*
G01X0013490Y0030110D03*
G54D14*
G01X0013520Y0030140D03*
G54D15*
G01X0013307Y0030268D03*
G36*
G01X0013162Y0030268D02*
G01X0013307Y0030412D01*
G01X0013452Y0030268D01*
G01X0013307Y0030123D01*
G01X0013162Y0030268D01*
G37*
G54D14*
G01X0013094Y0030396D03*
G54D13*
G01X0013124Y0030425D03*
G54D12*
G01X0013150Y0030395D03*
G36*
G01X0013159Y0030445D02*
G01X0013201Y0030404D01*
G01X0013142Y0030344D01*
G01X0013100Y0030386D01*
G01X0013159Y0030445D01*
G37*
G54D16*
G01X0013087Y0027943D03*
G01X0012260Y0027943D03*
G01X0012260Y0028593D03*
G01X0013087Y0028593D03*
G54D10*
G01X0011435Y0029551D03*
G01X0011230Y0029551D03*
G54D17*
G01X0013185Y0029913D03*
G01X0013185Y0029693D03*
G01X0013445Y0029831D03*
G01X0013445Y0029610D03*
G01X0010217Y0029666D03*
G01X0010217Y0029446D03*
G01X0010437Y0029665D03*
G01X0010437Y0029445D03*
G01X0013457Y0031157D03*
G01X0013457Y0031378D03*
G01X0013220Y0031157D03*
G01X0013220Y0031378D03*
G54D11*
G01X0012602Y0031197D03*
G01X0012602Y0030992D03*
G54D10*
G01X0013146Y0029106D03*
G01X0013350Y0029106D03*
G01X0011799Y0028827D03*
G01X0011594Y0028827D03*
G01X0011732Y0028445D03*
G01X0011528Y0028445D03*
G54D11*
G01X0013504Y0028106D03*
G01X0013504Y0027902D03*
G01X0013504Y0028299D03*
G01X0013504Y0028504D03*
G01X0010705Y0028705D03*
G01X0010705Y0028909D03*
G01X0010965Y0028701D03*
G01X0010965Y0028906D03*
G01X0010437Y0028705D03*
G01X0010437Y0028909D03*
G01X0011220Y0028709D03*
G01X0011220Y0028913D03*
G54D18*
G01X0011661Y0028169D03*
G01X0011661Y0027815D03*
G01X0010154Y0030759D03*
G01X0010154Y0031113D03*
G54D19*
G01X0011390Y0030441D03*
G01X0011390Y0030815D03*
G01X0011390Y0031189D03*
G01X0012177Y0030441D03*
G01X0012177Y0031189D03*
G01X0012177Y0030815D03*
G54D20*
G01X0011299Y0027969D03*
G01X0011299Y0028224D03*
G01X0011299Y0028480D03*
G01X0010551Y0027969D03*
G01X0010551Y0028480D03*
G54D10*
G01X0016464Y0007598D03*
G01X0016669Y0007598D03*
G54D11*
G01X0016863Y0007476D03*
G01X0016863Y0007272D03*
G01X0016394Y0007189D03*
G01X0016394Y0006984D03*
G54D12*
G01X0019064Y0007085D03*
G36*
G01X0019013Y0007094D02*
G01X0019055Y0007136D01*
G01X0019114Y0007077D01*
G01X0019072Y0007035D01*
G01X0019013Y0007094D01*
G37*
G54D13*
G01X0019037Y0007055D03*
G54D14*
G01X0019008Y0007085D03*
G01X0019433Y0007341D03*
G54D13*
G01X0019404Y0007370D03*
G54D12*
G01X0019377Y0007340D03*
G36*
G01X0019428Y0007331D02*
G01X0019386Y0007289D01*
G01X0019327Y0007348D01*
G01X0019369Y0007390D01*
G01X0019428Y0007331D01*
G37*
G01X0019064Y0007340D03*
G36*
G01X0019073Y0007390D02*
G01X0019115Y0007348D01*
G01X0019056Y0007289D01*
G01X0019014Y0007331D01*
G01X0019073Y0007390D01*
G37*
G54D13*
G01X0019038Y0007370D03*
G54D14*
G01X0019008Y0007341D03*
G54D15*
G01X0019220Y0007213D03*
G36*
G01X0019365Y0007213D02*
G01X0019220Y0007068D01*
G01X0019076Y0007213D01*
G01X0019220Y0007357D01*
G01X0019365Y0007213D01*
G37*
G54D14*
G01X0019433Y0007085D03*
G54D13*
G01X0019404Y0007055D03*
G54D12*
G01X0019377Y0007085D03*
G36*
G01X0019369Y0007035D02*
G01X0019327Y0007077D01*
G01X0019386Y0007136D01*
G01X0019428Y0007094D01*
G01X0019369Y0007035D01*
G37*
G01X0016377Y0006497D03*
G36*
G01X0016428Y0006489D02*
G01X0016386Y0006447D01*
G01X0016327Y0006506D01*
G01X0016369Y0006548D01*
G01X0016428Y0006489D01*
G37*
G54D13*
G01X0016404Y0006528D03*
G54D14*
G01X0016433Y0006498D03*
G01X0016008Y0006242D03*
G54D13*
G01X0016037Y0006213D03*
G54D12*
G01X0016064Y0006243D03*
G36*
G01X0016013Y0006252D02*
G01X0016055Y0006293D01*
G01X0016114Y0006234D01*
G01X0016072Y0006193D01*
G01X0016013Y0006252D01*
G37*
G01X0016377Y0006243D03*
G36*
G01X0016368Y0006193D02*
G01X0016326Y0006234D01*
G01X0016385Y0006293D01*
G01X0016427Y0006252D01*
G01X0016368Y0006193D01*
G37*
G54D13*
G01X0016403Y0006213D03*
G54D14*
G01X0016433Y0006242D03*
G54D15*
G01X0016220Y0006370D03*
G36*
G01X0016076Y0006370D02*
G01X0016220Y0006515D01*
G01X0016365Y0006370D01*
G01X0016220Y0006225D01*
G01X0016076Y0006370D01*
G37*
G54D14*
G01X0016008Y0006498D03*
G54D13*
G01X0016037Y0006528D03*
G54D12*
G01X0016064Y0006497D03*
G36*
G01X0016072Y0006548D02*
G01X0016114Y0006506D01*
G01X0016055Y0006447D01*
G01X0016013Y0006489D01*
G01X0016072Y0006548D01*
G37*
G01X0019369Y0006773D03*
G54D13*
G01X0019396Y0006803D03*
G54D14*
G01X0019425Y0006774D03*
G01X0019000Y0006518D03*
G54D13*
G01X0019030Y0006488D03*
G54D12*
G01X0019056Y0006519D03*
G36*
G01X0019006Y0006527D02*
G01X0019047Y0006569D01*
G01X0019106Y0006510D01*
G01X0019065Y0006468D01*
G01X0019006Y0006527D01*
G37*
G01X0019369Y0006519D03*
G36*
G01X0019360Y0006468D02*
G01X0019319Y0006510D01*
G01X0019378Y0006569D01*
G01X0019419Y0006527D01*
G01X0019360Y0006468D01*
G37*
G54D13*
G01X0019395Y0006488D03*
G54D14*
G01X0019425Y0006518D03*
G54D15*
G01X0019213Y0006646D03*
G36*
G01X0019068Y0006646D02*
G01X0019213Y0006790D01*
G01X0019357Y0006646D01*
G01X0019213Y0006501D01*
G01X0019068Y0006646D01*
G37*
G54D14*
G01X0019000Y0006774D03*
G54D13*
G01X0019030Y0006803D03*
G54D12*
G01X0019056Y0006773D03*
G36*
G01X0019065Y0006823D02*
G01X0019106Y0006781D01*
G01X0019047Y0006722D01*
G01X0019006Y0006764D01*
G01X0019065Y0006823D01*
G37*
G54D16*
G01X0018992Y0004321D03*
G01X0018165Y0004321D03*
G01X0018165Y0004970D03*
G01X0018992Y0004970D03*
G54D10*
G01X0017340Y0005929D03*
G01X0017135Y0005929D03*
G54D17*
G01X0019091Y0006291D03*
G01X0019091Y0006071D03*
G01X0019350Y0006209D03*
G01X0019350Y0005988D03*
G01X0016123Y0006044D03*
G01X0016123Y0005824D03*
G01X0016343Y0006043D03*
G01X0016343Y0005823D03*
G01X0019362Y0007535D03*
G01X0019362Y0007756D03*
G01X0019126Y0007535D03*
G01X0019126Y0007756D03*
G54D11*
G01X0018508Y0007575D03*
G01X0018508Y0007370D03*
G54D10*
G01X0019051Y0005484D03*
G01X0019256Y0005484D03*
G01X0017705Y0005205D03*
G01X0017500Y0005205D03*
G01X0017638Y0004823D03*
G01X0017433Y0004823D03*
G54D11*
G01X0019409Y0004484D03*
G01X0019409Y0004280D03*
G01X0019409Y0004677D03*
G01X0019409Y0004882D03*
G01X0016610Y0005083D03*
G01X0016610Y0005287D03*
G01X0016870Y0005079D03*
G01X0016870Y0005283D03*
G01X0016343Y0005083D03*
G01X0016343Y0005287D03*
G01X0017126Y0005087D03*
G01X0017126Y0005291D03*
G54D18*
G01X0017567Y0004547D03*
G01X0017567Y0004193D03*
G01X0016059Y0007137D03*
G01X0016059Y0007491D03*
G54D19*
G01X0017295Y0006819D03*
G01X0017295Y0007193D03*
G01X0017295Y0007567D03*
G01X0018083Y0006819D03*
G01X0018083Y0007567D03*
G01X0018083Y0007193D03*
G54D20*
G01X0017205Y0004346D03*
G01X0017205Y0004602D03*
G01X0017205Y0004858D03*
G01X0016457Y0004346D03*
G01X0016457Y0004858D03*
G54D10*
G01X0016464Y0013503D03*
G01X0016669Y0013503D03*
G54D11*
G01X0016863Y0013382D03*
G01X0016863Y0013177D03*
G01X0016394Y0013094D03*
G01X0016394Y0012890D03*
G54D12*
G01X0019064Y0012991D03*
G36*
G01X0019013Y0013000D02*
G01X0019055Y0013041D01*
G01X0019114Y0012982D01*
G01X0019072Y0012941D01*
G01X0019013Y0013000D01*
G37*
G54D13*
G01X0019037Y0012961D03*
G54D14*
G01X0019008Y0012990D03*
G01X0019433Y0013246D03*
G54D13*
G01X0019404Y0013276D03*
G54D12*
G01X0019377Y0013245D03*
G36*
G01X0019428Y0013237D02*
G01X0019386Y0013195D01*
G01X0019327Y0013254D01*
G01X0019369Y0013296D01*
G01X0019428Y0013237D01*
G37*
G01X0019064Y0013245D03*
G36*
G01X0019073Y0013296D02*
G01X0019115Y0013254D01*
G01X0019056Y0013195D01*
G01X0019014Y0013237D01*
G01X0019073Y0013296D01*
G37*
G54D13*
G01X0019038Y0013276D03*
G54D14*
G01X0019008Y0013246D03*
G54D15*
G01X0019220Y0013118D03*
G36*
G01X0019365Y0013118D02*
G01X0019220Y0012973D01*
G01X0019076Y0013118D01*
G01X0019220Y0013263D01*
G01X0019365Y0013118D01*
G37*
G54D14*
G01X0019433Y0012990D03*
G54D13*
G01X0019404Y0012961D03*
G54D12*
G01X0019377Y0012991D03*
G36*
G01X0019369Y0012941D02*
G01X0019327Y0012982D01*
G01X0019386Y0013041D01*
G01X0019428Y0013000D01*
G01X0019369Y0012941D01*
G37*
G01X0016377Y0012403D03*
G36*
G01X0016428Y0012394D02*
G01X0016386Y0012352D01*
G01X0016327Y0012411D01*
G01X0016369Y0012453D01*
G01X0016428Y0012394D01*
G37*
G54D13*
G01X0016404Y0012433D03*
G54D14*
G01X0016433Y0012404D03*
G01X0016008Y0012148D03*
G54D13*
G01X0016037Y0012118D03*
G54D12*
G01X0016064Y0012148D03*
G36*
G01X0016013Y0012157D02*
G01X0016055Y0012199D01*
G01X0016114Y0012140D01*
G01X0016072Y0012098D01*
G01X0016013Y0012157D01*
G37*
G01X0016377Y0012148D03*
G36*
G01X0016368Y0012098D02*
G01X0016326Y0012140D01*
G01X0016385Y0012199D01*
G01X0016427Y0012157D01*
G01X0016368Y0012098D01*
G37*
G54D13*
G01X0016403Y0012118D03*
G54D14*
G01X0016433Y0012148D03*
G54D15*
G01X0016220Y0012276D03*
G36*
G01X0016076Y0012276D02*
G01X0016220Y0012420D01*
G01X0016365Y0012276D01*
G01X0016220Y0012131D01*
G01X0016076Y0012276D01*
G37*
G54D14*
G01X0016008Y0012404D03*
G54D13*
G01X0016037Y0012433D03*
G54D12*
G01X0016064Y0012403D03*
G36*
G01X0016072Y0012453D02*
G01X0016114Y0012411D01*
G01X0016055Y0012352D01*
G01X0016013Y0012394D01*
G01X0016072Y0012453D01*
G37*
G01X0019369Y0012678D03*
G36*
G01X0019420Y0012670D02*
G01X0019378Y0012628D01*
G01X0019319Y0012687D01*
G01X0019361Y0012729D01*
G01X0019420Y0012670D01*
G37*
G54D13*
G01X0019396Y0012709D03*
G54D14*
G01X0019425Y0012679D03*
G01X0019000Y0012423D03*
G54D13*
G01X0019030Y0012394D03*
G54D12*
G01X0019056Y0012424D03*
G36*
G01X0019006Y0012433D02*
G01X0019047Y0012474D01*
G01X0019106Y0012415D01*
G01X0019065Y0012374D01*
G01X0019006Y0012433D01*
G37*
G01X0019369Y0012424D03*
G36*
G01X0019360Y0012374D02*
G01X0019319Y0012415D01*
G01X0019378Y0012474D01*
G01X0019419Y0012433D01*
G01X0019360Y0012374D01*
G37*
G54D13*
G01X0019395Y0012394D03*
G54D14*
G01X0019425Y0012423D03*
G54D15*
G01X0019213Y0012551D03*
G36*
G01X0019068Y0012551D02*
G01X0019213Y0012696D01*
G01X0019357Y0012551D01*
G01X0019213Y0012406D01*
G01X0019068Y0012551D01*
G37*
G54D14*
G01X0019000Y0012679D03*
G54D13*
G01X0019030Y0012709D03*
G54D12*
G01X0019056Y0012678D03*
G36*
G01X0019065Y0012729D02*
G01X0019106Y0012687D01*
G01X0019047Y0012628D01*
G01X0019006Y0012670D01*
G01X0019065Y0012729D01*
G37*
G54D16*
G01X0018992Y0010226D03*
G01X0018165Y0010226D03*
G01X0018165Y0010876D03*
G01X0018992Y0010876D03*
G54D10*
G01X0017340Y0011835D03*
G01X0017135Y0011835D03*
G54D17*
G01X0019091Y0012197D03*
G01X0019091Y0011976D03*
G01X0019350Y0012114D03*
G01X0019350Y0011894D03*
G01X0016123Y0011950D03*
G01X0016123Y0011729D03*
G01X0016343Y0011949D03*
G01X0016343Y0011728D03*
G01X0019362Y0013441D03*
G01X0019362Y0013661D03*
G01X0019126Y0013441D03*
G01X0019126Y0013661D03*
G54D11*
G01X0018508Y0013480D03*
G01X0018508Y0013276D03*
G54D10*
G01X0019051Y0011390D03*
G01X0019256Y0011390D03*
G01X0017705Y0011110D03*
G01X0017500Y0011110D03*
G01X0017638Y0010728D03*
G01X0017433Y0010728D03*
G54D11*
G01X0019409Y0010390D03*
G01X0019409Y0010185D03*
G01X0019409Y0010583D03*
G01X0019409Y0010787D03*
G01X0016610Y0010988D03*
G01X0016610Y0011193D03*
G01X0016870Y0010984D03*
G01X0016870Y0011189D03*
G01X0016343Y0010988D03*
G01X0016343Y0011193D03*
G01X0017126Y0010992D03*
G01X0017126Y0011197D03*
G54D18*
G01X0017567Y0010453D03*
G01X0017567Y0010098D03*
G01X0016059Y0013042D03*
G01X0016059Y0013397D03*
G54D19*
G01X0017295Y0012724D03*
G01X0017295Y0013098D03*
G01X0017295Y0013472D03*
G01X0018083Y0012724D03*
G01X0018083Y0013472D03*
G01X0018083Y0013098D03*
G54D20*
G01X0017205Y0010252D03*
G01X0017205Y0010508D03*
G01X0017205Y0010764D03*
G01X0016457Y0010252D03*
G01X0016457Y0010764D03*
G54D10*
G01X0016464Y0019409D03*
G01X0016669Y0019409D03*
G54D11*
G01X0016863Y0019287D03*
G01X0016863Y0019083D03*
G01X0016394Y0019000D03*
G01X0016394Y0018795D03*
G54D12*
G01X0019064Y0018896D03*
G36*
G01X0019013Y0018905D02*
G01X0019055Y0018947D01*
G01X0019114Y0018888D01*
G01X0019072Y0018846D01*
G01X0019013Y0018905D01*
G37*
G54D13*
G01X0019037Y0018866D03*
G54D14*
G01X0019008Y0018896D03*
G01X0019433Y0019152D03*
G54D13*
G01X0019404Y0019181D03*
G54D12*
G01X0019377Y0019151D03*
G36*
G01X0019428Y0019142D02*
G01X0019386Y0019100D01*
G01X0019327Y0019159D01*
G01X0019369Y0019201D01*
G01X0019428Y0019142D01*
G37*
G01X0019064Y0019151D03*
G36*
G01X0019073Y0019201D02*
G01X0019115Y0019159D01*
G01X0019056Y0019100D01*
G01X0019014Y0019142D01*
G01X0019073Y0019201D01*
G37*
G54D13*
G01X0019038Y0019181D03*
G54D14*
G01X0019008Y0019152D03*
G54D15*
G01X0019220Y0019024D03*
G36*
G01X0019365Y0019024D02*
G01X0019220Y0018879D01*
G01X0019076Y0019024D01*
G01X0019220Y0019168D01*
G01X0019365Y0019024D01*
G37*
G54D14*
G01X0019433Y0018896D03*
G54D13*
G01X0019404Y0018866D03*
G54D12*
G01X0019377Y0018896D03*
G36*
G01X0019369Y0018846D02*
G01X0019327Y0018888D01*
G01X0019386Y0018947D01*
G01X0019428Y0018905D01*
G01X0019369Y0018846D01*
G37*
G01X0016377Y0018308D03*
G36*
G01X0016428Y0018300D02*
G01X0016386Y0018258D01*
G01X0016327Y0018317D01*
G01X0016369Y0018359D01*
G01X0016428Y0018300D01*
G37*
G54D13*
G01X0016404Y0018339D03*
G54D14*
G01X0016433Y0018309D03*
G01X0016008Y0018053D03*
G54D13*
G01X0016037Y0018024D03*
G54D12*
G01X0016064Y0018054D03*
G36*
G01X0016013Y0018063D02*
G01X0016055Y0018104D01*
G01X0016114Y0018045D01*
G01X0016072Y0018004D01*
G01X0016013Y0018063D01*
G37*
G01X0016377Y0018054D03*
G36*
G01X0016368Y0018004D02*
G01X0016326Y0018045D01*
G01X0016385Y0018104D01*
G01X0016427Y0018063D01*
G01X0016368Y0018004D01*
G37*
G54D13*
G01X0016403Y0018024D03*
G54D14*
G01X0016433Y0018053D03*
G54D15*
G01X0016220Y0018181D03*
G36*
G01X0016076Y0018181D02*
G01X0016220Y0018326D01*
G01X0016365Y0018181D01*
G01X0016220Y0018036D01*
G01X0016076Y0018181D01*
G37*
G54D14*
G01X0016008Y0018309D03*
G54D13*
G01X0016037Y0018339D03*
G54D12*
G01X0016064Y0018308D03*
G36*
G01X0016072Y0018359D02*
G01X0016114Y0018317D01*
G01X0016055Y0018258D01*
G01X0016013Y0018300D01*
G01X0016072Y0018359D01*
G37*
G01X0019369Y0018584D03*
G36*
G01X0019420Y0018575D02*
G01X0019378Y0018533D01*
G01X0019319Y0018592D01*
G01X0019361Y0018634D01*
G01X0019420Y0018575D01*
G37*
G54D13*
G01X0019396Y0018614D03*
G54D14*
G01X0019425Y0018585D03*
G01X0019000Y0018329D03*
G54D13*
G01X0019030Y0018299D03*
G54D12*
G01X0019056Y0018330D03*
G36*
G01X0019006Y0018338D02*
G01X0019047Y0018380D01*
G01X0019106Y0018321D01*
G01X0019065Y0018279D01*
G01X0019006Y0018338D01*
G37*
G01X0019369Y0018330D03*
G36*
G01X0019360Y0018279D02*
G01X0019319Y0018321D01*
G01X0019378Y0018380D01*
G01X0019419Y0018338D01*
G01X0019360Y0018279D01*
G37*
G54D13*
G01X0019395Y0018299D03*
G54D14*
G01X0019425Y0018329D03*
G54D15*
G01X0019213Y0018457D03*
G36*
G01X0019068Y0018457D02*
G01X0019213Y0018601D01*
G01X0019357Y0018457D01*
G01X0019213Y0018312D01*
G01X0019068Y0018457D01*
G37*
G54D14*
G01X0019000Y0018585D03*
G54D13*
G01X0019030Y0018614D03*
G54D12*
G01X0019056Y0018584D03*
G36*
G01X0019065Y0018634D02*
G01X0019106Y0018592D01*
G01X0019047Y0018533D01*
G01X0019006Y0018575D01*
G01X0019065Y0018634D01*
G37*
G54D16*
G01X0018992Y0016132D03*
G01X0018165Y0016132D03*
G01X0018165Y0016781D03*
G01X0018992Y0016781D03*
G54D10*
G01X0017340Y0017740D03*
G01X0017135Y0017740D03*
G54D17*
G01X0019091Y0018102D03*
G01X0019091Y0017882D03*
G01X0019350Y0018020D03*
G01X0019350Y0017799D03*
G01X0016123Y0017855D03*
G01X0016123Y0017635D03*
G01X0016343Y0017854D03*
G01X0016343Y0017634D03*
G01X0019362Y0019346D03*
G01X0019362Y0019567D03*
G01X0019126Y0019346D03*
G01X0019126Y0019567D03*
G54D11*
G01X0018508Y0019386D03*
G01X0018508Y0019181D03*
G54D10*
G01X0019051Y0017295D03*
G01X0019256Y0017295D03*
G01X0017705Y0017016D03*
G01X0017500Y0017016D03*
G01X0017638Y0016634D03*
G01X0017433Y0016634D03*
G54D11*
G01X0019409Y0016295D03*
G01X0019409Y0016091D03*
G01X0019409Y0016488D03*
G01X0019409Y0016693D03*
G01X0016610Y0016894D03*
G01X0016610Y0017098D03*
G01X0016870Y0016890D03*
G01X0016870Y0017094D03*
G01X0016343Y0016894D03*
G01X0016343Y0017098D03*
G01X0017126Y0016898D03*
G01X0017126Y0017102D03*
G54D18*
G01X0017567Y0016358D03*
G01X0017567Y0016004D03*
G01X0016059Y0018948D03*
G01X0016059Y0019302D03*
G54D19*
G01X0017295Y0018630D03*
G01X0017295Y0019004D03*
G01X0017295Y0019378D03*
G01X0018083Y0018630D03*
G01X0018083Y0019378D03*
G01X0018083Y0019004D03*
G54D20*
G01X0017205Y0016157D03*
G01X0017205Y0016413D03*
G01X0017205Y0016669D03*
G01X0016457Y0016157D03*
G01X0016457Y0016669D03*
G54D10*
G01X0016464Y0025314D03*
G01X0016669Y0025314D03*
G54D11*
G01X0016863Y0025193D03*
G01X0016863Y0024988D03*
G01X0016394Y0024906D03*
G01X0016394Y0024701D03*
G54D12*
G01X0019064Y0024802D03*
G36*
G01X0019013Y0024811D02*
G01X0019055Y0024852D01*
G01X0019114Y0024793D01*
G01X0019072Y0024752D01*
G01X0019013Y0024811D01*
G37*
G54D13*
G01X0019037Y0024772D03*
G54D14*
G01X0019008Y0024801D03*
G01X0019433Y0025057D03*
G54D13*
G01X0019404Y0025087D03*
G54D12*
G01X0019377Y0025056D03*
G36*
G01X0019428Y0025048D02*
G01X0019386Y0025006D01*
G01X0019327Y0025065D01*
G01X0019369Y0025107D01*
G01X0019428Y0025048D01*
G37*
G01X0019064Y0025056D03*
G36*
G01X0019073Y0025107D02*
G01X0019115Y0025065D01*
G01X0019056Y0025006D01*
G01X0019014Y0025048D01*
G01X0019073Y0025107D01*
G37*
G54D13*
G01X0019038Y0025087D03*
G54D14*
G01X0019008Y0025057D03*
G54D15*
G01X0019220Y0024929D03*
G36*
G01X0019365Y0024929D02*
G01X0019220Y0024784D01*
G01X0019076Y0024929D01*
G01X0019220Y0025074D01*
G01X0019365Y0024929D01*
G37*
G54D14*
G01X0019433Y0024801D03*
G54D13*
G01X0019404Y0024772D03*
G54D12*
G01X0019377Y0024802D03*
G36*
G01X0019369Y0024752D02*
G01X0019327Y0024793D01*
G01X0019386Y0024852D01*
G01X0019428Y0024811D01*
G01X0019369Y0024752D01*
G37*
G01X0016377Y0024214D03*
G36*
G01X0016428Y0024205D02*
G01X0016386Y0024163D01*
G01X0016327Y0024222D01*
G01X0016369Y0024264D01*
G01X0016428Y0024205D01*
G37*
G54D13*
G01X0016404Y0024244D03*
G54D14*
G01X0016433Y0024215D03*
G01X0016008Y0023959D03*
G54D13*
G01X0016037Y0023929D03*
G54D12*
G01X0016064Y0023959D03*
G36*
G01X0016013Y0023968D02*
G01X0016055Y0024010D01*
G01X0016114Y0023951D01*
G01X0016072Y0023909D01*
G01X0016013Y0023968D01*
G37*
G01X0016377Y0023959D03*
G36*
G01X0016368Y0023909D02*
G01X0016326Y0023951D01*
G01X0016385Y0024010D01*
G01X0016427Y0023968D01*
G01X0016368Y0023909D01*
G37*
G54D13*
G01X0016403Y0023929D03*
G54D14*
G01X0016433Y0023959D03*
G54D15*
G01X0016220Y0024087D03*
G36*
G01X0016076Y0024087D02*
G01X0016220Y0024231D01*
G01X0016365Y0024087D01*
G01X0016220Y0023942D01*
G01X0016076Y0024087D01*
G37*
G54D14*
G01X0016008Y0024215D03*
G54D13*
G01X0016037Y0024244D03*
G54D12*
G01X0016064Y0024214D03*
G36*
G01X0016072Y0024264D02*
G01X0016114Y0024222D01*
G01X0016055Y0024163D01*
G01X0016013Y0024205D01*
G01X0016072Y0024264D01*
G37*
G01X0019369Y0024489D03*
G54D13*
G01X0019396Y0024520D03*
G54D14*
G01X0019425Y0024490D03*
G01X0019000Y0024234D03*
G54D13*
G01X0019030Y0024205D03*
G54D12*
G01X0019056Y0024235D03*
G36*
G01X0019006Y0024244D02*
G01X0019047Y0024285D01*
G01X0019106Y0024226D01*
G01X0019065Y0024185D01*
G01X0019006Y0024244D01*
G37*
G01X0019369Y0024235D03*
G36*
G01X0019360Y0024185D02*
G01X0019319Y0024226D01*
G01X0019378Y0024285D01*
G01X0019419Y0024244D01*
G01X0019360Y0024185D01*
G37*
G54D13*
G01X0019395Y0024205D03*
G54D14*
G01X0019425Y0024234D03*
G54D15*
G01X0019213Y0024362D03*
G36*
G01X0019068Y0024362D02*
G01X0019213Y0024507D01*
G01X0019357Y0024362D01*
G01X0019213Y0024217D01*
G01X0019068Y0024362D01*
G37*
G54D14*
G01X0019000Y0024490D03*
G54D13*
G01X0019030Y0024520D03*
G54D12*
G01X0019056Y0024489D03*
G36*
G01X0019065Y0024540D02*
G01X0019106Y0024498D01*
G01X0019047Y0024439D01*
G01X0019006Y0024481D01*
G01X0019065Y0024540D01*
G37*
G54D16*
G01X0018992Y0022037D03*
G01X0018165Y0022037D03*
G01X0018165Y0022687D03*
G01X0018992Y0022687D03*
G54D10*
G01X0017340Y0023646D03*
G01X0017135Y0023646D03*
G54D17*
G01X0019091Y0024008D03*
G01X0019091Y0023787D03*
G01X0019350Y0023925D03*
G01X0019350Y0023705D03*
G01X0016123Y0023761D03*
G01X0016123Y0023540D03*
G01X0016343Y0023760D03*
G01X0016343Y0023539D03*
G01X0019362Y0025252D03*
G01X0019362Y0025472D03*
G01X0019126Y0025252D03*
G01X0019126Y0025472D03*
G54D11*
G01X0018508Y0025291D03*
G01X0018508Y0025087D03*
G54D10*
G01X0019051Y0023201D03*
G01X0019256Y0023201D03*
G01X0017705Y0022921D03*
G01X0017500Y0022921D03*
G01X0017638Y0022539D03*
G01X0017433Y0022539D03*
G54D11*
G01X0019409Y0022201D03*
G01X0019409Y0021996D03*
G01X0019409Y0022394D03*
G01X0019409Y0022598D03*
G01X0016610Y0022799D03*
G01X0016610Y0023004D03*
G01X0016870Y0022795D03*
G01X0016870Y0023000D03*
G01X0016343Y0022799D03*
G01X0016343Y0023004D03*
G01X0017126Y0022803D03*
G01X0017126Y0023008D03*
G54D18*
G01X0017567Y0022264D03*
G01X0017567Y0021909D03*
G01X0016059Y0024853D03*
G01X0016059Y0025208D03*
G54D19*
G01X0017295Y0024535D03*
G01X0017295Y0024909D03*
G01X0017295Y0025283D03*
G01X0018083Y0024535D03*
G01X0018083Y0025283D03*
G01X0018083Y0024909D03*
G54D20*
G01X0017205Y0022063D03*
G01X0017205Y0022319D03*
G01X0017205Y0022575D03*
G01X0016457Y0022063D03*
G01X0016457Y0022575D03*
G54D10*
G01X0016464Y0031220D03*
G01X0016669Y0031220D03*
G54D11*
G01X0016863Y0031098D03*
G01X0016863Y0030894D03*
G01X0016394Y0030811D03*
G01X0016394Y0030606D03*
G54D12*
G01X0019064Y0030707D03*
G36*
G01X0019013Y0030716D02*
G01X0019055Y0030758D01*
G01X0019114Y0030699D01*
G01X0019072Y0030657D01*
G01X0019013Y0030716D01*
G37*
G54D13*
G01X0019037Y0030677D03*
G54D14*
G01X0019008Y0030707D03*
G01X0019433Y0030963D03*
G54D13*
G01X0019404Y0030992D03*
G54D12*
G01X0019377Y0030962D03*
G36*
G01X0019428Y0030953D02*
G01X0019386Y0030911D01*
G01X0019327Y0030970D01*
G01X0019369Y0031012D01*
G01X0019428Y0030953D01*
G37*
G01X0019064Y0030962D03*
G36*
G01X0019073Y0031012D02*
G01X0019115Y0030970D01*
G01X0019056Y0030911D01*
G01X0019014Y0030953D01*
G01X0019073Y0031012D01*
G37*
G54D13*
G01X0019038Y0030992D03*
G54D14*
G01X0019008Y0030963D03*
G54D15*
G01X0019220Y0030835D03*
G36*
G01X0019365Y0030835D02*
G01X0019220Y0030690D01*
G01X0019076Y0030835D01*
G01X0019220Y0030979D01*
G01X0019365Y0030835D01*
G37*
G54D14*
G01X0019433Y0030707D03*
G54D13*
G01X0019404Y0030677D03*
G54D12*
G01X0019377Y0030707D03*
G36*
G01X0019369Y0030657D02*
G01X0019327Y0030699D01*
G01X0019386Y0030758D01*
G01X0019428Y0030716D01*
G01X0019369Y0030657D01*
G37*
G01X0016377Y0030119D03*
G36*
G01X0016428Y0030111D02*
G01X0016386Y0030069D01*
G01X0016327Y0030128D01*
G01X0016369Y0030170D01*
G01X0016428Y0030111D01*
G37*
G54D13*
G01X0016404Y0030150D03*
G54D14*
G01X0016433Y0030120D03*
G01X0016008Y0029864D03*
G54D13*
G01X0016037Y0029835D03*
G54D12*
G01X0016064Y0029865D03*
G36*
G01X0016013Y0029874D02*
G01X0016055Y0029915D01*
G01X0016114Y0029856D01*
G01X0016072Y0029815D01*
G01X0016013Y0029874D01*
G37*
G01X0016377Y0029865D03*
G36*
G01X0016368Y0029815D02*
G01X0016326Y0029856D01*
G01X0016385Y0029915D01*
G01X0016427Y0029874D01*
G01X0016368Y0029815D01*
G37*
G54D13*
G01X0016403Y0029835D03*
G54D14*
G01X0016433Y0029864D03*
G54D15*
G01X0016220Y0029992D03*
G36*
G01X0016076Y0029992D02*
G01X0016220Y0030137D01*
G01X0016365Y0029992D01*
G01X0016220Y0029847D01*
G01X0016076Y0029992D01*
G37*
G54D14*
G01X0016008Y0030120D03*
G54D13*
G01X0016037Y0030150D03*
G54D12*
G01X0016064Y0030119D03*
G36*
G01X0016072Y0030170D02*
G01X0016114Y0030128D01*
G01X0016055Y0030069D01*
G01X0016013Y0030111D01*
G01X0016072Y0030170D01*
G37*
G01X0019369Y0030395D03*
G36*
G01X0019420Y0030386D02*
G01X0019378Y0030344D01*
G01X0019319Y0030404D01*
G01X0019361Y0030445D01*
G01X0019420Y0030386D01*
G37*
G54D13*
G01X0019396Y0030425D03*
G54D14*
G01X0019425Y0030396D03*
G01X0019000Y0030140D03*
G54D13*
G01X0019030Y0030110D03*
G54D12*
G01X0019056Y0030141D03*
G36*
G01X0019006Y0030149D02*
G01X0019047Y0030191D01*
G01X0019106Y0030132D01*
G01X0019065Y0030090D01*
G01X0019006Y0030149D01*
G37*
G01X0019369Y0030141D03*
G36*
G01X0019360Y0030090D02*
G01X0019319Y0030132D01*
G01X0019378Y0030191D01*
G01X0019419Y0030149D01*
G01X0019360Y0030090D01*
G37*
G54D13*
G01X0019395Y0030110D03*
G54D14*
G01X0019425Y0030140D03*
G54D15*
G01X0019213Y0030268D03*
G36*
G01X0019068Y0030268D02*
G01X0019213Y0030412D01*
G01X0019357Y0030268D01*
G01X0019213Y0030123D01*
G01X0019068Y0030268D01*
G37*
G54D14*
G01X0019000Y0030396D03*
G54D13*
G01X0019030Y0030425D03*
G54D12*
G01X0019056Y0030395D03*
G36*
G01X0019065Y0030445D02*
G01X0019106Y0030404D01*
G01X0019047Y0030344D01*
G01X0019006Y0030386D01*
G01X0019065Y0030445D01*
G37*
G54D16*
G01X0018992Y0027943D03*
G01X0018165Y0027943D03*
G01X0018165Y0028593D03*
G01X0018992Y0028593D03*
G54D10*
G01X0017340Y0029551D03*
G01X0017135Y0029551D03*
G54D17*
G01X0019091Y0029913D03*
G01X0019091Y0029693D03*
G01X0019350Y0029831D03*
G01X0019350Y0029610D03*
G01X0016123Y0029666D03*
G01X0016123Y0029446D03*
G01X0016343Y0029665D03*
G01X0016343Y0029445D03*
G01X0019362Y0031157D03*
G01X0019362Y0031378D03*
G01X0019126Y0031157D03*
G01X0019126Y0031378D03*
G54D11*
G01X0018508Y0031197D03*
G01X0018508Y0030992D03*
G54D10*
G01X0019051Y0029106D03*
G01X0019256Y0029106D03*
G01X0017705Y0028827D03*
G01X0017500Y0028827D03*
G01X0017638Y0028445D03*
G01X0017433Y0028445D03*
G54D11*
G01X0019409Y0028106D03*
G01X0019409Y0027902D03*
G01X0019409Y0028299D03*
G01X0019409Y0028504D03*
G01X0016610Y0028705D03*
G01X0016610Y0028909D03*
G01X0016870Y0028701D03*
G01X0016870Y0028906D03*
G01X0016343Y0028705D03*
G01X0016343Y0028909D03*
G01X0017126Y0028709D03*
G01X0017126Y0028913D03*
G54D18*
G01X0017567Y0028169D03*
G01X0017567Y0027815D03*
G01X0016059Y0030759D03*
G01X0016059Y0031113D03*
G54D19*
G01X0017295Y0030441D03*
G01X0017295Y0030815D03*
G01X0017295Y0031189D03*
G01X0018083Y0030441D03*
G01X0018083Y0031189D03*
G01X0018083Y0030815D03*
G54D20*
G01X0017205Y0027969D03*
G01X0017205Y0028224D03*
G01X0017205Y0028480D03*
G01X0016457Y0027969D03*
G01X0016457Y0028480D03*
G54D10*
G01X0022370Y0007598D03*
G01X0022574Y0007598D03*
G54D11*
G01X0022769Y0007476D03*
G01X0022769Y0007272D03*
G01X0022299Y0007189D03*
G01X0022299Y0006984D03*
G54D12*
G01X0024969Y0007085D03*
G36*
G01X0024919Y0007094D02*
G01X0024961Y0007136D01*
G01X0025020Y0007077D01*
G01X0024978Y0007035D01*
G01X0024919Y0007094D01*
G37*
G54D13*
G01X0024943Y0007055D03*
G54D14*
G01X0024913Y0007085D03*
G01X0025339Y0007341D03*
G54D13*
G01X0025309Y0007370D03*
G54D12*
G01X0025283Y0007340D03*
G36*
G01X0025333Y0007331D02*
G01X0025291Y0007289D01*
G01X0025232Y0007348D01*
G01X0025274Y0007390D01*
G01X0025333Y0007331D01*
G37*
G01X0024970Y0007340D03*
G54D13*
G01X0024943Y0007370D03*
G54D14*
G01X0024913Y0007341D03*
G54D15*
G01X0025126Y0007213D03*
G36*
G01X0025271Y0007213D02*
G01X0025126Y0007068D01*
G01X0024981Y0007213D01*
G01X0025126Y0007357D01*
G01X0025271Y0007213D01*
G37*
G54D14*
G01X0025339Y0007085D03*
G54D13*
G01X0025309Y0007055D03*
G54D12*
G01X0025283Y0007085D03*
G36*
G01X0025274Y0007035D02*
G01X0025232Y0007077D01*
G01X0025291Y0007136D01*
G01X0025333Y0007094D01*
G01X0025274Y0007035D01*
G37*
G01X0022283Y0006497D03*
G36*
G01X0022333Y0006489D02*
G01X0022291Y0006447D01*
G01X0022232Y0006506D01*
G01X0022274Y0006548D01*
G01X0022333Y0006489D01*
G37*
G54D13*
G01X0022309Y0006528D03*
G54D14*
G01X0022339Y0006498D03*
G01X0021913Y0006242D03*
G54D13*
G01X0021943Y0006213D03*
G54D12*
G01X0021969Y0006243D03*
G36*
G01X0021919Y0006252D02*
G01X0021961Y0006293D01*
G01X0022020Y0006234D01*
G01X0021978Y0006193D01*
G01X0021919Y0006252D01*
G37*
G01X0022282Y0006243D03*
G36*
G01X0022274Y0006193D02*
G01X0022232Y0006234D01*
G01X0022291Y0006293D01*
G01X0022333Y0006252D01*
G01X0022274Y0006193D01*
G37*
G54D13*
G01X0022309Y0006213D03*
G54D14*
G01X0022339Y0006242D03*
G54D15*
G01X0022126Y0006370D03*
G36*
G01X0021981Y0006370D02*
G01X0022126Y0006515D01*
G01X0022271Y0006370D01*
G01X0022126Y0006225D01*
G01X0021981Y0006370D01*
G37*
G54D14*
G01X0021913Y0006498D03*
G54D13*
G01X0021943Y0006528D03*
G54D12*
G01X0021969Y0006497D03*
G36*
G01X0021978Y0006548D02*
G01X0022020Y0006506D01*
G01X0021961Y0006447D01*
G01X0021919Y0006489D01*
G01X0021978Y0006548D01*
G37*
G01X0025275Y0006773D03*
G36*
G01X0025325Y0006764D02*
G01X0025283Y0006722D01*
G01X0025224Y0006781D01*
G01X0025266Y0006823D01*
G01X0025325Y0006764D01*
G37*
G54D13*
G01X0025301Y0006803D03*
G54D14*
G01X0025331Y0006774D03*
G01X0024906Y0006518D03*
G54D13*
G01X0024935Y0006488D03*
G54D12*
G01X0024961Y0006519D03*
G36*
G01X0024911Y0006527D02*
G01X0024953Y0006569D01*
G01X0025012Y0006510D01*
G01X0024970Y0006468D01*
G01X0024911Y0006527D01*
G37*
G01X0025274Y0006519D03*
G36*
G01X0025266Y0006468D02*
G01X0025224Y0006510D01*
G01X0025283Y0006569D01*
G01X0025325Y0006527D01*
G01X0025266Y0006468D01*
G37*
G54D13*
G01X0025301Y0006488D03*
G54D14*
G01X0025331Y0006518D03*
G54D15*
G01X0025118Y0006646D03*
G36*
G01X0024973Y0006646D02*
G01X0025118Y0006790D01*
G01X0025263Y0006646D01*
G01X0025118Y0006501D01*
G01X0024973Y0006646D01*
G37*
G54D14*
G01X0024906Y0006774D03*
G54D13*
G01X0024935Y0006803D03*
G54D12*
G01X0024961Y0006773D03*
G36*
G01X0024970Y0006823D02*
G01X0025012Y0006781D01*
G01X0024953Y0006722D01*
G01X0024911Y0006764D01*
G01X0024970Y0006823D01*
G37*
G54D16*
G01X0024898Y0004321D03*
G01X0024071Y0004321D03*
G01X0024071Y0004970D03*
G01X0024898Y0004970D03*
G54D10*
G01X0023246Y0005929D03*
G01X0023041Y0005929D03*
G54D17*
G01X0024996Y0006291D03*
G01X0024996Y0006071D03*
G01X0025256Y0006209D03*
G01X0025256Y0005988D03*
G01X0022028Y0006044D03*
G01X0022028Y0005824D03*
G01X0022248Y0006043D03*
G01X0022248Y0005823D03*
G01X0025268Y0007535D03*
G01X0025268Y0007756D03*
G01X0025031Y0007535D03*
G01X0025031Y0007756D03*
G54D11*
G01X0024413Y0007575D03*
G01X0024413Y0007370D03*
G54D10*
G01X0024957Y0005484D03*
G01X0025161Y0005484D03*
G01X0023610Y0005205D03*
G01X0023406Y0005205D03*
G01X0023543Y0004823D03*
G01X0023339Y0004823D03*
G54D11*
G01X0025315Y0004484D03*
G01X0025315Y0004280D03*
G01X0025315Y0004677D03*
G01X0025315Y0004882D03*
G01X0022516Y0005083D03*
G01X0022516Y0005287D03*
G01X0022776Y0005079D03*
G01X0022776Y0005283D03*
G01X0022248Y0005083D03*
G01X0022248Y0005287D03*
G01X0023031Y0005087D03*
G01X0023031Y0005291D03*
G54D18*
G01X0023472Y0004547D03*
G01X0023472Y0004193D03*
G01X0021965Y0007137D03*
G01X0021965Y0007491D03*
G54D19*
G01X0023201Y0006819D03*
G01X0023201Y0007193D03*
G01X0023201Y0007567D03*
G01X0023988Y0006819D03*
G01X0023988Y0007567D03*
G01X0023988Y0007193D03*
G54D20*
G01X0023110Y0004346D03*
G01X0023110Y0004602D03*
G01X0023110Y0004858D03*
G01X0022362Y0004346D03*
G01X0022362Y0004858D03*
G54D10*
G01X0022370Y0013503D03*
G01X0022574Y0013503D03*
G54D11*
G01X0022769Y0013382D03*
G01X0022769Y0013177D03*
G01X0022299Y0013094D03*
G01X0022299Y0012890D03*
G54D12*
G01X0024969Y0012991D03*
G36*
G01X0024919Y0013000D02*
G01X0024961Y0013041D01*
G01X0025020Y0012982D01*
G01X0024978Y0012941D01*
G01X0024919Y0013000D01*
G37*
G54D13*
G01X0024943Y0012961D03*
G54D14*
G01X0024913Y0012990D03*
G01X0025339Y0013246D03*
G54D13*
G01X0025309Y0013276D03*
G54D12*
G01X0025283Y0013245D03*
G36*
G01X0025333Y0013237D02*
G01X0025291Y0013195D01*
G01X0025232Y0013254D01*
G01X0025274Y0013296D01*
G01X0025333Y0013237D01*
G37*
G01X0024970Y0013245D03*
G36*
G01X0024978Y0013296D02*
G01X0025020Y0013254D01*
G01X0024961Y0013195D01*
G01X0024919Y0013237D01*
G01X0024978Y0013296D01*
G37*
G54D13*
G01X0024943Y0013276D03*
G54D14*
G01X0024913Y0013246D03*
G54D15*
G01X0025126Y0013118D03*
G36*
G01X0025271Y0013118D02*
G01X0025126Y0012973D01*
G01X0024981Y0013118D01*
G01X0025126Y0013263D01*
G01X0025271Y0013118D01*
G37*
G54D14*
G01X0025339Y0012990D03*
G54D13*
G01X0025309Y0012961D03*
G54D12*
G01X0025283Y0012991D03*
G36*
G01X0025274Y0012941D02*
G01X0025232Y0012982D01*
G01X0025291Y0013041D01*
G01X0025333Y0013000D01*
G01X0025274Y0012941D01*
G37*
G01X0022283Y0012403D03*
G36*
G01X0022333Y0012394D02*
G01X0022291Y0012352D01*
G01X0022232Y0012411D01*
G01X0022274Y0012453D01*
G01X0022333Y0012394D01*
G37*
G54D13*
G01X0022309Y0012433D03*
G54D14*
G01X0022339Y0012404D03*
G01X0021913Y0012148D03*
G54D13*
G01X0021943Y0012118D03*
G54D12*
G01X0021969Y0012148D03*
G36*
G01X0021919Y0012157D02*
G01X0021961Y0012199D01*
G01X0022020Y0012140D01*
G01X0021978Y0012098D01*
G01X0021919Y0012157D01*
G37*
G01X0022282Y0012148D03*
G36*
G01X0022274Y0012098D02*
G01X0022232Y0012140D01*
G01X0022291Y0012199D01*
G01X0022333Y0012157D01*
G01X0022274Y0012098D01*
G37*
G54D13*
G01X0022309Y0012118D03*
G54D14*
G01X0022339Y0012148D03*
G54D15*
G01X0022126Y0012276D03*
G36*
G01X0021981Y0012276D02*
G01X0022126Y0012420D01*
G01X0022271Y0012276D01*
G01X0022126Y0012131D01*
G01X0021981Y0012276D01*
G37*
G54D14*
G01X0021913Y0012404D03*
G54D13*
G01X0021943Y0012433D03*
G54D12*
G01X0021969Y0012403D03*
G36*
G01X0021978Y0012453D02*
G01X0022020Y0012411D01*
G01X0021961Y0012352D01*
G01X0021919Y0012394D01*
G01X0021978Y0012453D01*
G37*
G01X0025275Y0012678D03*
G36*
G01X0025325Y0012670D02*
G01X0025283Y0012628D01*
G01X0025224Y0012687D01*
G01X0025266Y0012729D01*
G01X0025325Y0012670D01*
G37*
G54D13*
G01X0025301Y0012709D03*
G54D14*
G01X0025331Y0012679D03*
G01X0024906Y0012423D03*
G54D13*
G01X0024935Y0012394D03*
G54D12*
G01X0024961Y0012424D03*
G36*
G01X0024911Y0012433D02*
G01X0024953Y0012474D01*
G01X0025012Y0012415D01*
G01X0024970Y0012374D01*
G01X0024911Y0012433D01*
G37*
G01X0025274Y0012424D03*
G36*
G01X0025266Y0012374D02*
G01X0025224Y0012415D01*
G01X0025283Y0012474D01*
G01X0025325Y0012433D01*
G01X0025266Y0012374D01*
G37*
G54D13*
G01X0025301Y0012394D03*
G54D14*
G01X0025331Y0012423D03*
G54D15*
G01X0025118Y0012551D03*
G36*
G01X0024973Y0012551D02*
G01X0025118Y0012696D01*
G01X0025263Y0012551D01*
G01X0025118Y0012406D01*
G01X0024973Y0012551D01*
G37*
G54D14*
G01X0024906Y0012679D03*
G54D13*
G01X0024935Y0012709D03*
G54D12*
G01X0024961Y0012678D03*
G36*
G01X0024970Y0012729D02*
G01X0025012Y0012687D01*
G01X0024953Y0012628D01*
G01X0024911Y0012670D01*
G01X0024970Y0012729D01*
G37*
G54D16*
G01X0024898Y0010226D03*
G01X0024071Y0010226D03*
G01X0024071Y0010876D03*
G01X0024898Y0010876D03*
G54D10*
G01X0023246Y0011835D03*
G01X0023041Y0011835D03*
G54D17*
G01X0024996Y0012197D03*
G01X0024996Y0011976D03*
G01X0025256Y0012114D03*
G01X0025256Y0011894D03*
G01X0022028Y0011950D03*
G01X0022028Y0011729D03*
G01X0022248Y0011949D03*
G01X0022248Y0011728D03*
G01X0025268Y0013441D03*
G01X0025268Y0013661D03*
G01X0025031Y0013441D03*
G01X0025031Y0013661D03*
G54D11*
G01X0024413Y0013480D03*
G01X0024413Y0013276D03*
G54D10*
G01X0024957Y0011390D03*
G01X0025161Y0011390D03*
G01X0023610Y0011110D03*
G01X0023406Y0011110D03*
G01X0023543Y0010728D03*
G01X0023339Y0010728D03*
G54D11*
G01X0025315Y0010390D03*
G01X0025315Y0010185D03*
G01X0025315Y0010583D03*
G01X0025315Y0010787D03*
G01X0022516Y0010988D03*
G01X0022516Y0011193D03*
G01X0022776Y0010984D03*
G01X0022776Y0011189D03*
G01X0022248Y0010988D03*
G01X0022248Y0011193D03*
G01X0023031Y0010992D03*
G01X0023031Y0011197D03*
G54D18*
G01X0023472Y0010453D03*
G01X0023472Y0010098D03*
G01X0021965Y0013042D03*
G01X0021965Y0013397D03*
G54D19*
G01X0023201Y0012724D03*
G01X0023201Y0013098D03*
G01X0023201Y0013472D03*
G01X0023988Y0012724D03*
G01X0023988Y0013472D03*
G01X0023988Y0013098D03*
G54D20*
G01X0023110Y0010252D03*
G01X0023110Y0010508D03*
G01X0023110Y0010764D03*
G01X0022362Y0010252D03*
G01X0022362Y0010764D03*
G54D10*
G01X0022370Y0019409D03*
G01X0022574Y0019409D03*
G54D11*
G01X0022769Y0019287D03*
G01X0022769Y0019083D03*
G01X0022299Y0019000D03*
G01X0022299Y0018795D03*
G54D12*
G01X0024969Y0018896D03*
G36*
G01X0024919Y0018905D02*
G01X0024961Y0018947D01*
G01X0025020Y0018888D01*
G01X0024978Y0018846D01*
G01X0024919Y0018905D01*
G37*
G54D13*
G01X0024943Y0018866D03*
G54D14*
G01X0024913Y0018896D03*
G01X0025339Y0019152D03*
G54D13*
G01X0025309Y0019181D03*
G54D12*
G01X0025283Y0019151D03*
G36*
G01X0025333Y0019142D02*
G01X0025291Y0019100D01*
G01X0025232Y0019159D01*
G01X0025274Y0019201D01*
G01X0025333Y0019142D01*
G37*
G01X0024970Y0019151D03*
G36*
G01X0024978Y0019201D02*
G01X0025020Y0019159D01*
G01X0024961Y0019100D01*
G01X0024919Y0019142D01*
G01X0024978Y0019201D01*
G37*
G54D13*
G01X0024943Y0019181D03*
G54D14*
G01X0024913Y0019152D03*
G54D15*
G01X0025126Y0019024D03*
G36*
G01X0025271Y0019024D02*
G01X0025126Y0018879D01*
G01X0024981Y0019024D01*
G01X0025126Y0019168D01*
G01X0025271Y0019024D01*
G37*
G54D14*
G01X0025339Y0018896D03*
G54D13*
G01X0025309Y0018866D03*
G54D12*
G01X0025283Y0018896D03*
G36*
G01X0025274Y0018846D02*
G01X0025232Y0018888D01*
G01X0025291Y0018947D01*
G01X0025333Y0018905D01*
G01X0025274Y0018846D01*
G37*
G01X0022283Y0018308D03*
G36*
G01X0022333Y0018300D02*
G01X0022291Y0018258D01*
G01X0022232Y0018317D01*
G01X0022274Y0018359D01*
G01X0022333Y0018300D01*
G37*
G54D13*
G01X0022309Y0018339D03*
G54D14*
G01X0022339Y0018309D03*
G01X0021913Y0018053D03*
G54D13*
G01X0021943Y0018024D03*
G54D12*
G01X0021969Y0018054D03*
G36*
G01X0021919Y0018063D02*
G01X0021961Y0018104D01*
G01X0022020Y0018045D01*
G01X0021978Y0018004D01*
G01X0021919Y0018063D01*
G37*
G01X0022282Y0018054D03*
G36*
G01X0022274Y0018004D02*
G01X0022232Y0018045D01*
G01X0022291Y0018104D01*
G01X0022333Y0018063D01*
G01X0022274Y0018004D01*
G37*
G54D13*
G01X0022309Y0018024D03*
G54D14*
G01X0022339Y0018053D03*
G54D15*
G01X0022126Y0018181D03*
G36*
G01X0021981Y0018181D02*
G01X0022126Y0018326D01*
G01X0022271Y0018181D01*
G01X0022126Y0018036D01*
G01X0021981Y0018181D01*
G37*
G54D14*
G01X0021913Y0018309D03*
G54D13*
G01X0021943Y0018339D03*
G54D12*
G01X0021969Y0018308D03*
G36*
G01X0021978Y0018359D02*
G01X0022020Y0018317D01*
G01X0021961Y0018258D01*
G01X0021919Y0018300D01*
G01X0021978Y0018359D01*
G37*
G01X0025275Y0018584D03*
G36*
G01X0025325Y0018575D02*
G01X0025283Y0018533D01*
G01X0025224Y0018592D01*
G01X0025266Y0018634D01*
G01X0025325Y0018575D01*
G37*
G54D13*
G01X0025301Y0018614D03*
G54D14*
G01X0025331Y0018585D03*
G01X0024906Y0018329D03*
G54D13*
G01X0024935Y0018299D03*
G54D12*
G01X0024961Y0018330D03*
G36*
G01X0024911Y0018338D02*
G01X0024953Y0018380D01*
G01X0025012Y0018321D01*
G01X0024970Y0018279D01*
G01X0024911Y0018338D01*
G37*
G01X0025274Y0018330D03*
G36*
G01X0025266Y0018279D02*
G01X0025224Y0018321D01*
G01X0025283Y0018380D01*
G01X0025325Y0018338D01*
G01X0025266Y0018279D01*
G37*
G54D13*
G01X0025301Y0018299D03*
G54D14*
G01X0025331Y0018329D03*
G54D15*
G01X0025118Y0018457D03*
G36*
G01X0024973Y0018457D02*
G01X0025118Y0018601D01*
G01X0025263Y0018457D01*
G01X0025118Y0018312D01*
G01X0024973Y0018457D01*
G37*
G54D14*
G01X0024906Y0018585D03*
G54D13*
G01X0024935Y0018614D03*
G54D12*
G01X0024961Y0018584D03*
G36*
G01X0024970Y0018634D02*
G01X0025012Y0018592D01*
G01X0024953Y0018533D01*
G01X0024911Y0018575D01*
G01X0024970Y0018634D01*
G37*
G54D16*
G01X0024898Y0016132D03*
G01X0024071Y0016132D03*
G01X0024071Y0016781D03*
G01X0024898Y0016781D03*
G54D10*
G01X0023246Y0017740D03*
G01X0023041Y0017740D03*
G54D17*
G01X0024996Y0018102D03*
G01X0024996Y0017882D03*
G01X0025256Y0018020D03*
G01X0025256Y0017799D03*
G01X0022028Y0017855D03*
G01X0022028Y0017635D03*
G01X0022248Y0017854D03*
G01X0022248Y0017634D03*
G01X0025268Y0019346D03*
G01X0025268Y0019567D03*
G01X0025031Y0019346D03*
G01X0025031Y0019567D03*
G54D11*
G01X0024413Y0019386D03*
G01X0024413Y0019181D03*
G54D10*
G01X0024957Y0017295D03*
G01X0025161Y0017295D03*
G01X0023610Y0017016D03*
G01X0023406Y0017016D03*
G01X0023543Y0016634D03*
G01X0023339Y0016634D03*
G54D11*
G01X0025315Y0016295D03*
G01X0025315Y0016091D03*
G01X0025315Y0016488D03*
G01X0025315Y0016693D03*
G01X0022516Y0016894D03*
G01X0022516Y0017098D03*
G01X0022776Y0016890D03*
G01X0022776Y0017094D03*
G01X0022248Y0016894D03*
G01X0022248Y0017098D03*
G01X0023031Y0016898D03*
G01X0023031Y0017102D03*
G54D18*
G01X0023472Y0016358D03*
G01X0023472Y0016004D03*
G01X0021965Y0018948D03*
G01X0021965Y0019302D03*
G54D19*
G01X0023201Y0018630D03*
G01X0023201Y0019004D03*
G01X0023201Y0019378D03*
G01X0023988Y0018630D03*
G01X0023988Y0019378D03*
G01X0023988Y0019004D03*
G54D20*
G01X0023110Y0016157D03*
G01X0023110Y0016413D03*
G01X0023110Y0016669D03*
G01X0022362Y0016157D03*
G01X0022362Y0016669D03*
G54D10*
G01X0022370Y0025314D03*
G01X0022574Y0025314D03*
G54D11*
G01X0022769Y0025193D03*
G01X0022769Y0024988D03*
G01X0022299Y0024906D03*
G01X0022299Y0024701D03*
G54D12*
G01X0024969Y0024802D03*
G36*
G01X0024919Y0024811D02*
G01X0024961Y0024852D01*
G01X0025020Y0024793D01*
G01X0024978Y0024752D01*
G01X0024919Y0024811D01*
G37*
G54D13*
G01X0024943Y0024772D03*
G54D14*
G01X0024913Y0024801D03*
G01X0025339Y0025057D03*
G54D13*
G01X0025309Y0025087D03*
G54D12*
G01X0025283Y0025056D03*
G36*
G01X0025333Y0025048D02*
G01X0025291Y0025006D01*
G01X0025232Y0025065D01*
G01X0025274Y0025107D01*
G01X0025333Y0025048D01*
G37*
G01X0024970Y0025056D03*
G54D13*
G01X0024943Y0025087D03*
G54D14*
G01X0024913Y0025057D03*
G54D15*
G01X0025126Y0024929D03*
G36*
G01X0025271Y0024929D02*
G01X0025126Y0024784D01*
G01X0024981Y0024929D01*
G01X0025126Y0025074D01*
G01X0025271Y0024929D01*
G37*
G54D14*
G01X0025339Y0024801D03*
G54D13*
G01X0025309Y0024772D03*
G54D12*
G01X0025283Y0024802D03*
G36*
G01X0025274Y0024752D02*
G01X0025232Y0024793D01*
G01X0025291Y0024852D01*
G01X0025333Y0024811D01*
G01X0025274Y0024752D01*
G37*
G01X0022283Y0024214D03*
G36*
G01X0022333Y0024205D02*
G01X0022291Y0024163D01*
G01X0022232Y0024222D01*
G01X0022274Y0024264D01*
G01X0022333Y0024205D01*
G37*
G54D13*
G01X0022309Y0024244D03*
G54D14*
G01X0022339Y0024215D03*
G01X0021913Y0023959D03*
G54D13*
G01X0021943Y0023929D03*
G54D12*
G01X0021969Y0023959D03*
G36*
G01X0021919Y0023968D02*
G01X0021961Y0024010D01*
G01X0022020Y0023951D01*
G01X0021978Y0023909D01*
G01X0021919Y0023968D01*
G37*
G01X0022282Y0023959D03*
G36*
G01X0022274Y0023909D02*
G01X0022232Y0023951D01*
G01X0022291Y0024010D01*
G01X0022333Y0023968D01*
G01X0022274Y0023909D01*
G37*
G54D13*
G01X0022309Y0023929D03*
G54D14*
G01X0022339Y0023959D03*
G54D15*
G01X0022126Y0024087D03*
G36*
G01X0021981Y0024087D02*
G01X0022126Y0024231D01*
G01X0022271Y0024087D01*
G01X0022126Y0023942D01*
G01X0021981Y0024087D01*
G37*
G54D14*
G01X0021913Y0024215D03*
G54D13*
G01X0021943Y0024244D03*
G54D12*
G01X0021969Y0024214D03*
G36*
G01X0021978Y0024264D02*
G01X0022020Y0024222D01*
G01X0021961Y0024163D01*
G01X0021919Y0024205D01*
G01X0021978Y0024264D01*
G37*
G01X0025275Y0024489D03*
G36*
G01X0025325Y0024481D02*
G01X0025283Y0024439D01*
G01X0025224Y0024498D01*
G01X0025266Y0024540D01*
G01X0025325Y0024481D01*
G37*
G54D13*
G01X0025301Y0024520D03*
G54D14*
G01X0025331Y0024490D03*
G01X0024906Y0024234D03*
G54D13*
G01X0024935Y0024205D03*
G54D12*
G01X0024961Y0024235D03*
G36*
G01X0024911Y0024244D02*
G01X0024953Y0024285D01*
G01X0025012Y0024226D01*
G01X0024970Y0024185D01*
G01X0024911Y0024244D01*
G37*
G01X0025274Y0024235D03*
G36*
G01X0025266Y0024185D02*
G01X0025224Y0024226D01*
G01X0025283Y0024285D01*
G01X0025325Y0024244D01*
G01X0025266Y0024185D01*
G37*
G54D13*
G01X0025301Y0024205D03*
G54D14*
G01X0025331Y0024234D03*
G54D15*
G01X0025118Y0024362D03*
G36*
G01X0024973Y0024362D02*
G01X0025118Y0024507D01*
G01X0025263Y0024362D01*
G01X0025118Y0024217D01*
G01X0024973Y0024362D01*
G37*
G54D14*
G01X0024906Y0024490D03*
G54D13*
G01X0024935Y0024520D03*
G54D12*
G01X0024961Y0024489D03*
G36*
G01X0024970Y0024540D02*
G01X0025012Y0024498D01*
G01X0024953Y0024439D01*
G01X0024911Y0024481D01*
G01X0024970Y0024540D01*
G37*
G54D16*
G01X0024898Y0022037D03*
G01X0024071Y0022037D03*
G01X0024071Y0022687D03*
G01X0024898Y0022687D03*
G54D10*
G01X0023246Y0023646D03*
G01X0023041Y0023646D03*
G54D17*
G01X0024996Y0024008D03*
G01X0024996Y0023787D03*
G01X0025256Y0023925D03*
G01X0025256Y0023705D03*
G01X0022028Y0023761D03*
G01X0022028Y0023540D03*
G01X0022248Y0023760D03*
G01X0022248Y0023539D03*
G01X0025268Y0025252D03*
G01X0025268Y0025472D03*
G01X0025031Y0025252D03*
G01X0025031Y0025472D03*
G54D11*
G01X0024413Y0025291D03*
G01X0024413Y0025087D03*
G54D10*
G01X0024957Y0023201D03*
G01X0025161Y0023201D03*
G01X0023610Y0022921D03*
G01X0023406Y0022921D03*
G01X0023543Y0022539D03*
G01X0023339Y0022539D03*
G54D11*
G01X0025315Y0022201D03*
G01X0025315Y0021996D03*
G01X0025315Y0022394D03*
G01X0025315Y0022598D03*
G01X0022516Y0022799D03*
G01X0022516Y0023004D03*
G01X0022776Y0022795D03*
G01X0022776Y0023000D03*
G01X0022248Y0022799D03*
G01X0022248Y0023004D03*
G01X0023031Y0022803D03*
G01X0023031Y0023008D03*
G54D18*
G01X0023472Y0022264D03*
G01X0023472Y0021909D03*
G01X0021965Y0024853D03*
G01X0021965Y0025208D03*
G54D19*
G01X0023201Y0024535D03*
G01X0023201Y0024909D03*
G01X0023201Y0025283D03*
G01X0023988Y0024535D03*
G01X0023988Y0025283D03*
G01X0023988Y0024909D03*
G54D20*
G01X0023110Y0022063D03*
G01X0023110Y0022319D03*
G01X0023110Y0022575D03*
G01X0022362Y0022063D03*
G01X0022362Y0022575D03*
G54D10*
G01X0022370Y0031220D03*
G01X0022574Y0031220D03*
G54D11*
G01X0022769Y0031098D03*
G01X0022769Y0030894D03*
G01X0022299Y0030811D03*
G01X0022299Y0030606D03*
G54D12*
G01X0024969Y0030707D03*
G36*
G01X0024919Y0030716D02*
G01X0024961Y0030758D01*
G01X0025020Y0030699D01*
G01X0024978Y0030657D01*
G01X0024919Y0030716D01*
G37*
G54D13*
G01X0024943Y0030677D03*
G54D14*
G01X0024913Y0030707D03*
G01X0025339Y0030963D03*
G54D13*
G01X0025309Y0030992D03*
G54D12*
G01X0025283Y0030962D03*
G36*
G01X0025333Y0030953D02*
G01X0025291Y0030911D01*
G01X0025232Y0030970D01*
G01X0025274Y0031012D01*
G01X0025333Y0030953D01*
G37*
G01X0024970Y0030962D03*
G36*
G01X0024978Y0031012D02*
G01X0025020Y0030970D01*
G01X0024961Y0030911D01*
G01X0024919Y0030953D01*
G01X0024978Y0031012D01*
G37*
G54D13*
G01X0024943Y0030992D03*
G54D14*
G01X0024913Y0030963D03*
G54D15*
G01X0025126Y0030835D03*
G36*
G01X0025271Y0030835D02*
G01X0025126Y0030690D01*
G01X0024981Y0030835D01*
G01X0025126Y0030979D01*
G01X0025271Y0030835D01*
G37*
G54D14*
G01X0025339Y0030707D03*
G54D13*
G01X0025309Y0030677D03*
G54D12*
G01X0025283Y0030707D03*
G36*
G01X0025274Y0030657D02*
G01X0025232Y0030699D01*
G01X0025291Y0030758D01*
G01X0025333Y0030716D01*
G01X0025274Y0030657D01*
G37*
G01X0022283Y0030119D03*
G36*
G01X0022333Y0030111D02*
G01X0022291Y0030069D01*
G01X0022232Y0030128D01*
G01X0022274Y0030170D01*
G01X0022333Y0030111D01*
G37*
G54D13*
G01X0022309Y0030150D03*
G54D14*
G01X0022339Y0030120D03*
G01X0021913Y0029864D03*
G54D13*
G01X0021943Y0029835D03*
G54D12*
G01X0021969Y0029865D03*
G36*
G01X0021919Y0029874D02*
G01X0021961Y0029915D01*
G01X0022020Y0029856D01*
G01X0021978Y0029815D01*
G01X0021919Y0029874D01*
G37*
G01X0022282Y0029865D03*
G36*
G01X0022274Y0029815D02*
G01X0022232Y0029856D01*
G01X0022291Y0029915D01*
G01X0022333Y0029874D01*
G01X0022274Y0029815D01*
G37*
G54D13*
G01X0022309Y0029835D03*
G54D14*
G01X0022339Y0029864D03*
G54D15*
G01X0022126Y0029992D03*
G36*
G01X0021981Y0029992D02*
G01X0022126Y0030137D01*
G01X0022271Y0029992D01*
G01X0022126Y0029847D01*
G01X0021981Y0029992D01*
G37*
G54D14*
G01X0021913Y0030120D03*
G54D13*
G01X0021943Y0030150D03*
G54D12*
G01X0021969Y0030119D03*
G36*
G01X0021978Y0030170D02*
G01X0022020Y0030128D01*
G01X0021961Y0030069D01*
G01X0021919Y0030111D01*
G01X0021978Y0030170D01*
G37*
G01X0025275Y0030395D03*
G36*
G01X0025325Y0030386D02*
G01X0025283Y0030344D01*
G01X0025224Y0030404D01*
G01X0025266Y0030445D01*
G01X0025325Y0030386D01*
G37*
G54D13*
G01X0025301Y0030425D03*
G54D14*
G01X0025331Y0030396D03*
G01X0024906Y0030140D03*
G54D13*
G01X0024935Y0030110D03*
G54D12*
G01X0024961Y0030141D03*
G36*
G01X0024911Y0030149D02*
G01X0024953Y0030191D01*
G01X0025012Y0030132D01*
G01X0024970Y0030090D01*
G01X0024911Y0030149D01*
G37*
G01X0025274Y0030141D03*
G36*
G01X0025266Y0030090D02*
G01X0025224Y0030132D01*
G01X0025283Y0030191D01*
G01X0025325Y0030149D01*
G01X0025266Y0030090D01*
G37*
G54D13*
G01X0025301Y0030110D03*
G54D14*
G01X0025331Y0030140D03*
G54D15*
G01X0025118Y0030268D03*
G36*
G01X0024973Y0030268D02*
G01X0025118Y0030412D01*
G01X0025263Y0030268D01*
G01X0025118Y0030123D01*
G01X0024973Y0030268D01*
G37*
G54D14*
G01X0024906Y0030396D03*
G54D13*
G01X0024935Y0030425D03*
G54D12*
G01X0024961Y0030395D03*
G36*
G01X0024970Y0030445D02*
G01X0025012Y0030404D01*
G01X0024953Y0030344D01*
G01X0024911Y0030386D01*
G01X0024970Y0030445D01*
G37*
G54D16*
G01X0024898Y0027943D03*
G01X0024071Y0027943D03*
G01X0024071Y0028593D03*
G01X0024898Y0028593D03*
G54D10*
G01X0023246Y0029551D03*
G01X0023041Y0029551D03*
G54D17*
G01X0024996Y0029913D03*
G01X0024996Y0029693D03*
G01X0025256Y0029831D03*
G01X0025256Y0029610D03*
G01X0022028Y0029666D03*
G01X0022028Y0029446D03*
G01X0022248Y0029665D03*
G01X0022248Y0029445D03*
G01X0025268Y0031157D03*
G01X0025268Y0031378D03*
G01X0025031Y0031157D03*
G01X0025031Y0031378D03*
G54D11*
G01X0024413Y0031197D03*
G01X0024413Y0030992D03*
G54D10*
G01X0024957Y0029106D03*
G01X0025161Y0029106D03*
G01X0023610Y0028827D03*
G01X0023406Y0028827D03*
G01X0023543Y0028445D03*
G01X0023339Y0028445D03*
G54D11*
G01X0025315Y0028106D03*
G01X0025315Y0027902D03*
G01X0025315Y0028299D03*
G01X0025315Y0028504D03*
G01X0022516Y0028705D03*
G01X0022516Y0028909D03*
G01X0022776Y0028701D03*
G01X0022776Y0028906D03*
G01X0022248Y0028705D03*
G01X0022248Y0028909D03*
G01X0023031Y0028709D03*
G01X0023031Y0028913D03*
G54D18*
G01X0023472Y0028169D03*
G01X0023472Y0027815D03*
G01X0021965Y0030759D03*
G01X0021965Y0031113D03*
G54D19*
G01X0023201Y0030441D03*
G01X0023201Y0030815D03*
G01X0023201Y0031189D03*
G01X0023988Y0030441D03*
G01X0023988Y0031189D03*
G01X0023988Y0030815D03*
G54D20*
G01X0023110Y0027969D03*
G01X0023110Y0028224D03*
G01X0023110Y0028480D03*
G01X0022362Y0027969D03*
G01X0022362Y0028480D03*
G54D10*
G01X0028275Y0007598D03*
G01X0028480Y0007598D03*
G54D11*
G01X0028674Y0007476D03*
G01X0028674Y0007272D03*
G01X0028205Y0007189D03*
G01X0028205Y0006984D03*
G54D12*
G01X0030875Y0007085D03*
G36*
G01X0030824Y0007094D02*
G01X0030866Y0007136D01*
G01X0030925Y0007077D01*
G01X0030883Y0007035D01*
G01X0030824Y0007094D01*
G37*
G54D13*
G01X0030848Y0007055D03*
G54D14*
G01X0030819Y0007085D03*
G01X0031244Y0007341D03*
G54D13*
G01X0031215Y0007370D03*
G54D12*
G01X0031188Y0007340D03*
G36*
G01X0031239Y0007331D02*
G01X0031197Y0007289D01*
G01X0031138Y0007348D01*
G01X0031180Y0007390D01*
G01X0031239Y0007331D01*
G37*
G01X0030875Y0007340D03*
G36*
G01X0030884Y0007390D02*
G01X0030926Y0007348D01*
G01X0030867Y0007289D01*
G01X0030825Y0007331D01*
G01X0030884Y0007390D01*
G37*
G54D13*
G01X0030849Y0007370D03*
G54D14*
G01X0030819Y0007341D03*
G54D15*
G01X0031031Y0007213D03*
G36*
G01X0031176Y0007213D02*
G01X0031031Y0007068D01*
G01X0030887Y0007213D01*
G01X0031031Y0007357D01*
G01X0031176Y0007213D01*
G37*
G54D14*
G01X0031244Y0007085D03*
G54D13*
G01X0031215Y0007055D03*
G54D12*
G01X0031188Y0007085D03*
G36*
G01X0031180Y0007035D02*
G01X0031138Y0007077D01*
G01X0031197Y0007136D01*
G01X0031239Y0007094D01*
G01X0031180Y0007035D01*
G37*
G01X0028188Y0006497D03*
G36*
G01X0028239Y0006489D02*
G01X0028197Y0006447D01*
G01X0028138Y0006506D01*
G01X0028180Y0006548D01*
G01X0028239Y0006489D01*
G37*
G54D13*
G01X0028215Y0006528D03*
G54D14*
G01X0028244Y0006498D03*
G01X0027819Y0006242D03*
G54D13*
G01X0027848Y0006213D03*
G54D12*
G01X0027875Y0006243D03*
G36*
G01X0027824Y0006252D02*
G01X0027866Y0006293D01*
G01X0027925Y0006234D01*
G01X0027883Y0006193D01*
G01X0027824Y0006252D01*
G37*
G01X0028188Y0006243D03*
G36*
G01X0028179Y0006193D02*
G01X0028137Y0006234D01*
G01X0028196Y0006293D01*
G01X0028238Y0006252D01*
G01X0028179Y0006193D01*
G37*
G54D13*
G01X0028214Y0006213D03*
G54D14*
G01X0028244Y0006242D03*
G54D15*
G01X0028031Y0006370D03*
G36*
G01X0027887Y0006370D02*
G01X0028031Y0006515D01*
G01X0028176Y0006370D01*
G01X0028031Y0006225D01*
G01X0027887Y0006370D01*
G37*
G54D14*
G01X0027819Y0006498D03*
G54D13*
G01X0027848Y0006528D03*
G54D12*
G01X0027875Y0006497D03*
G36*
G01X0027883Y0006548D02*
G01X0027925Y0006506D01*
G01X0027866Y0006447D01*
G01X0027824Y0006489D01*
G01X0027883Y0006548D01*
G37*
G01X0031180Y0006773D03*
G36*
G01X0031231Y0006764D02*
G01X0031189Y0006722D01*
G01X0031130Y0006781D01*
G01X0031172Y0006823D01*
G01X0031231Y0006764D01*
G37*
G54D13*
G01X0031207Y0006803D03*
G54D14*
G01X0031236Y0006774D03*
G01X0030811Y0006518D03*
G54D13*
G01X0030841Y0006488D03*
G54D12*
G01X0030867Y0006519D03*
G36*
G01X0030817Y0006527D02*
G01X0030858Y0006569D01*
G01X0030917Y0006510D01*
G01X0030876Y0006468D01*
G01X0030817Y0006527D01*
G37*
G01X0031180Y0006519D03*
G36*
G01X0031171Y0006468D02*
G01X0031130Y0006510D01*
G01X0031189Y0006569D01*
G01X0031230Y0006527D01*
G01X0031171Y0006468D01*
G37*
G54D13*
G01X0031206Y0006488D03*
G54D14*
G01X0031236Y0006518D03*
G54D15*
G01X0031024Y0006646D03*
G36*
G01X0030879Y0006646D02*
G01X0031024Y0006790D01*
G01X0031168Y0006646D01*
G01X0031024Y0006501D01*
G01X0030879Y0006646D01*
G37*
G54D14*
G01X0030811Y0006774D03*
G54D13*
G01X0030841Y0006803D03*
G54D12*
G01X0030867Y0006773D03*
G36*
G01X0030876Y0006823D02*
G01X0030917Y0006781D01*
G01X0030858Y0006722D01*
G01X0030817Y0006764D01*
G01X0030876Y0006823D01*
G37*
G54D16*
G01X0030803Y0004321D03*
G01X0029976Y0004321D03*
G01X0029976Y0004970D03*
G01X0030803Y0004970D03*
G54D10*
G01X0029151Y0005929D03*
G01X0028946Y0005929D03*
G54D17*
G01X0030902Y0006291D03*
G01X0030902Y0006071D03*
G01X0031161Y0006209D03*
G01X0031161Y0005988D03*
G01X0027934Y0006044D03*
G01X0027934Y0005824D03*
G01X0028154Y0006043D03*
G01X0028154Y0005823D03*
G01X0031173Y0007535D03*
G01X0031173Y0007756D03*
G01X0030937Y0007535D03*
G01X0030937Y0007756D03*
G54D11*
G01X0030319Y0007575D03*
G01X0030319Y0007370D03*
G54D10*
G01X0030862Y0005484D03*
G01X0031067Y0005484D03*
G01X0029516Y0005205D03*
G01X0029311Y0005205D03*
G01X0029449Y0004823D03*
G01X0029244Y0004823D03*
G54D11*
G01X0031220Y0004484D03*
G01X0031220Y0004280D03*
G01X0031220Y0004677D03*
G01X0031220Y0004882D03*
G01X0028421Y0005083D03*
G01X0028421Y0005287D03*
G01X0028681Y0005079D03*
G01X0028681Y0005283D03*
G01X0028154Y0005083D03*
G01X0028154Y0005287D03*
G01X0028937Y0005087D03*
G01X0028937Y0005291D03*
G54D18*
G01X0029378Y0004547D03*
G01X0029378Y0004193D03*
G01X0027870Y0007137D03*
G01X0027870Y0007491D03*
G54D19*
G01X0029106Y0006819D03*
G01X0029106Y0007193D03*
G01X0029106Y0007567D03*
G01X0029894Y0006819D03*
G01X0029894Y0007567D03*
G01X0029894Y0007193D03*
G54D20*
G01X0029016Y0004346D03*
G01X0029016Y0004602D03*
G01X0029016Y0004858D03*
G01X0028268Y0004346D03*
G01X0028268Y0004858D03*
G54D10*
G01X0028275Y0013503D03*
G01X0028480Y0013503D03*
G54D11*
G01X0028674Y0013382D03*
G01X0028674Y0013177D03*
G01X0028205Y0013094D03*
G01X0028205Y0012890D03*
G54D12*
G01X0030875Y0012991D03*
G36*
G01X0030824Y0013000D02*
G01X0030866Y0013041D01*
G01X0030925Y0012982D01*
G01X0030883Y0012941D01*
G01X0030824Y0013000D01*
G37*
G54D13*
G01X0030848Y0012961D03*
G54D14*
G01X0030819Y0012990D03*
G01X0031244Y0013246D03*
G54D13*
G01X0031215Y0013276D03*
G54D12*
G01X0031188Y0013245D03*
G36*
G01X0031239Y0013237D02*
G01X0031197Y0013195D01*
G01X0031138Y0013254D01*
G01X0031180Y0013296D01*
G01X0031239Y0013237D01*
G37*
G01X0030875Y0013245D03*
G36*
G01X0030884Y0013296D02*
G01X0030926Y0013254D01*
G01X0030867Y0013195D01*
G01X0030825Y0013237D01*
G01X0030884Y0013296D01*
G37*
G54D13*
G01X0030849Y0013276D03*
G54D14*
G01X0030819Y0013246D03*
G54D15*
G01X0031031Y0013118D03*
G36*
G01X0031176Y0013118D02*
G01X0031031Y0012973D01*
G01X0030887Y0013118D01*
G01X0031031Y0013263D01*
G01X0031176Y0013118D01*
G37*
G54D14*
G01X0031244Y0012990D03*
G54D13*
G01X0031215Y0012961D03*
G54D12*
G01X0031188Y0012991D03*
G36*
G01X0031180Y0012941D02*
G01X0031138Y0012982D01*
G01X0031197Y0013041D01*
G01X0031239Y0013000D01*
G01X0031180Y0012941D01*
G37*
G01X0028188Y0012403D03*
G36*
G01X0028239Y0012394D02*
G01X0028197Y0012352D01*
G01X0028138Y0012411D01*
G01X0028180Y0012453D01*
G01X0028239Y0012394D01*
G37*
G54D13*
G01X0028215Y0012433D03*
G54D14*
G01X0028244Y0012404D03*
G01X0027819Y0012148D03*
G54D13*
G01X0027848Y0012118D03*
G54D12*
G01X0027875Y0012148D03*
G36*
G01X0027824Y0012157D02*
G01X0027866Y0012199D01*
G01X0027925Y0012140D01*
G01X0027883Y0012098D01*
G01X0027824Y0012157D01*
G37*
G01X0028188Y0012148D03*
G54D13*
G01X0028214Y0012118D03*
G54D14*
G01X0028244Y0012148D03*
G54D15*
G01X0028031Y0012276D03*
G36*
G01X0027887Y0012276D02*
G01X0028031Y0012420D01*
G01X0028176Y0012276D01*
G01X0028031Y0012131D01*
G01X0027887Y0012276D01*
G37*
G54D14*
G01X0027819Y0012404D03*
G54D13*
G01X0027848Y0012433D03*
G54D12*
G01X0027875Y0012403D03*
G36*
G01X0027883Y0012453D02*
G01X0027925Y0012411D01*
G01X0027866Y0012352D01*
G01X0027824Y0012394D01*
G01X0027883Y0012453D01*
G37*
G01X0031180Y0012678D03*
G36*
G01X0031231Y0012670D02*
G01X0031189Y0012628D01*
G01X0031130Y0012687D01*
G01X0031172Y0012729D01*
G01X0031231Y0012670D01*
G37*
G54D13*
G01X0031207Y0012709D03*
G54D14*
G01X0031236Y0012679D03*
G01X0030811Y0012423D03*
G54D13*
G01X0030841Y0012394D03*
G54D12*
G01X0030867Y0012424D03*
G36*
G01X0030817Y0012433D02*
G01X0030858Y0012474D01*
G01X0030917Y0012415D01*
G01X0030876Y0012374D01*
G01X0030817Y0012433D01*
G37*
G01X0031180Y0012424D03*
G36*
G01X0031171Y0012374D02*
G01X0031130Y0012415D01*
G01X0031189Y0012474D01*
G01X0031230Y0012433D01*
G01X0031171Y0012374D01*
G37*
G54D13*
G01X0031206Y0012394D03*
G54D14*
G01X0031236Y0012423D03*
G54D15*
G01X0031024Y0012551D03*
G36*
G01X0030879Y0012551D02*
G01X0031024Y0012696D01*
G01X0031168Y0012551D01*
G01X0031024Y0012406D01*
G01X0030879Y0012551D01*
G37*
G54D14*
G01X0030811Y0012679D03*
G54D13*
G01X0030841Y0012709D03*
G54D12*
G01X0030867Y0012678D03*
G36*
G01X0030876Y0012729D02*
G01X0030917Y0012687D01*
G01X0030858Y0012628D01*
G01X0030817Y0012670D01*
G01X0030876Y0012729D01*
G37*
G54D16*
G01X0030803Y0010226D03*
G01X0029976Y0010226D03*
G01X0029976Y0010876D03*
G01X0030803Y0010876D03*
G54D10*
G01X0029151Y0011835D03*
G01X0028946Y0011835D03*
G54D17*
G01X0030902Y0012197D03*
G01X0030902Y0011976D03*
G01X0031161Y0012114D03*
G01X0031161Y0011894D03*
G01X0027934Y0011950D03*
G01X0027934Y0011729D03*
G01X0028154Y0011949D03*
G01X0028154Y0011728D03*
G01X0031173Y0013441D03*
G01X0031173Y0013661D03*
G01X0030937Y0013441D03*
G01X0030937Y0013661D03*
G54D11*
G01X0030319Y0013480D03*
G01X0030319Y0013276D03*
G54D10*
G01X0030862Y0011390D03*
G01X0031067Y0011390D03*
G01X0029516Y0011110D03*
G01X0029311Y0011110D03*
G01X0029449Y0010728D03*
G01X0029244Y0010728D03*
G54D11*
G01X0031220Y0010390D03*
G01X0031220Y0010185D03*
G01X0031220Y0010583D03*
G01X0031220Y0010787D03*
G01X0028421Y0010988D03*
G01X0028421Y0011193D03*
G01X0028681Y0010984D03*
G01X0028681Y0011189D03*
G01X0028154Y0010988D03*
G01X0028154Y0011193D03*
G01X0028937Y0010992D03*
G01X0028937Y0011197D03*
G54D18*
G01X0029378Y0010453D03*
G01X0029378Y0010098D03*
G01X0027870Y0013042D03*
G01X0027870Y0013397D03*
G54D19*
G01X0029106Y0012724D03*
G01X0029106Y0013098D03*
G01X0029106Y0013472D03*
G01X0029894Y0012724D03*
G01X0029894Y0013472D03*
G01X0029894Y0013098D03*
G54D20*
G01X0029016Y0010252D03*
G01X0029016Y0010508D03*
G01X0029016Y0010764D03*
G01X0028268Y0010252D03*
G01X0028268Y0010764D03*
G54D10*
G01X0028275Y0019409D03*
G01X0028480Y0019409D03*
G54D11*
G01X0028674Y0019287D03*
G01X0028674Y0019083D03*
G01X0028205Y0019000D03*
G01X0028205Y0018795D03*
G54D12*
G01X0030875Y0018896D03*
G36*
G01X0030824Y0018905D02*
G01X0030866Y0018947D01*
G01X0030925Y0018888D01*
G01X0030883Y0018846D01*
G01X0030824Y0018905D01*
G37*
G54D13*
G01X0030848Y0018866D03*
G54D14*
G01X0030819Y0018896D03*
G01X0031244Y0019152D03*
G54D13*
G01X0031215Y0019181D03*
G54D12*
G01X0031188Y0019151D03*
G36*
G01X0031239Y0019142D02*
G01X0031197Y0019100D01*
G01X0031138Y0019159D01*
G01X0031180Y0019201D01*
G01X0031239Y0019142D01*
G37*
G01X0030875Y0019151D03*
G36*
G01X0030884Y0019201D02*
G01X0030926Y0019159D01*
G01X0030867Y0019100D01*
G01X0030825Y0019142D01*
G01X0030884Y0019201D01*
G37*
G54D13*
G01X0030849Y0019181D03*
G54D14*
G01X0030819Y0019152D03*
G54D15*
G01X0031031Y0019024D03*
G36*
G01X0031176Y0019024D02*
G01X0031031Y0018879D01*
G01X0030887Y0019024D01*
G01X0031031Y0019168D01*
G01X0031176Y0019024D01*
G37*
G54D14*
G01X0031244Y0018896D03*
G54D13*
G01X0031215Y0018866D03*
G54D12*
G01X0031188Y0018896D03*
G36*
G01X0031180Y0018846D02*
G01X0031138Y0018888D01*
G01X0031197Y0018947D01*
G01X0031239Y0018905D01*
G01X0031180Y0018846D01*
G37*
G01X0028188Y0018308D03*
G36*
G01X0028239Y0018300D02*
G01X0028197Y0018258D01*
G01X0028138Y0018317D01*
G01X0028180Y0018359D01*
G01X0028239Y0018300D01*
G37*
G54D13*
G01X0028215Y0018339D03*
G54D14*
G01X0028244Y0018309D03*
G01X0027819Y0018053D03*
G54D13*
G01X0027848Y0018024D03*
G54D12*
G01X0027875Y0018054D03*
G36*
G01X0027824Y0018063D02*
G01X0027866Y0018104D01*
G01X0027925Y0018045D01*
G01X0027883Y0018004D01*
G01X0027824Y0018063D01*
G37*
G01X0028188Y0018054D03*
G36*
G01X0028179Y0018004D02*
G01X0028137Y0018045D01*
G01X0028196Y0018104D01*
G01X0028238Y0018063D01*
G01X0028179Y0018004D01*
G37*
G54D13*
G01X0028214Y0018024D03*
G54D14*
G01X0028244Y0018053D03*
G54D15*
G01X0028031Y0018181D03*
G36*
G01X0027887Y0018181D02*
G01X0028031Y0018326D01*
G01X0028176Y0018181D01*
G01X0028031Y0018036D01*
G01X0027887Y0018181D01*
G37*
G54D14*
G01X0027819Y0018309D03*
G54D13*
G01X0027848Y0018339D03*
G54D12*
G01X0027875Y0018308D03*
G36*
G01X0027883Y0018359D02*
G01X0027925Y0018317D01*
G01X0027866Y0018258D01*
G01X0027824Y0018300D01*
G01X0027883Y0018359D01*
G37*
G01X0031180Y0018584D03*
G36*
G01X0031231Y0018575D02*
G01X0031189Y0018533D01*
G01X0031130Y0018592D01*
G01X0031172Y0018634D01*
G01X0031231Y0018575D01*
G37*
G54D13*
G01X0031207Y0018614D03*
G54D14*
G01X0031236Y0018585D03*
G01X0030811Y0018329D03*
G54D13*
G01X0030841Y0018299D03*
G54D12*
G01X0030867Y0018330D03*
G36*
G01X0030817Y0018338D02*
G01X0030858Y0018380D01*
G01X0030917Y0018321D01*
G01X0030876Y0018279D01*
G01X0030817Y0018338D01*
G37*
G01X0031180Y0018330D03*
G36*
G01X0031171Y0018279D02*
G01X0031130Y0018321D01*
G01X0031189Y0018380D01*
G01X0031230Y0018338D01*
G01X0031171Y0018279D01*
G37*
G54D13*
G01X0031206Y0018299D03*
G54D14*
G01X0031236Y0018329D03*
G54D15*
G01X0031024Y0018457D03*
G36*
G01X0030879Y0018457D02*
G01X0031024Y0018601D01*
G01X0031168Y0018457D01*
G01X0031024Y0018312D01*
G01X0030879Y0018457D01*
G37*
G54D14*
G01X0030811Y0018585D03*
G54D13*
G01X0030841Y0018614D03*
G54D12*
G01X0030867Y0018584D03*
G36*
G01X0030876Y0018634D02*
G01X0030917Y0018592D01*
G01X0030858Y0018533D01*
G01X0030817Y0018575D01*
G01X0030876Y0018634D01*
G37*
G54D16*
G01X0030803Y0016132D03*
G01X0029976Y0016132D03*
G01X0029976Y0016781D03*
G01X0030803Y0016781D03*
G54D10*
G01X0029151Y0017740D03*
G01X0028946Y0017740D03*
G54D17*
G01X0030902Y0018102D03*
G01X0030902Y0017882D03*
G01X0031161Y0018020D03*
G01X0031161Y0017799D03*
G01X0027934Y0017855D03*
G01X0027934Y0017635D03*
G01X0028154Y0017854D03*
G01X0028154Y0017634D03*
G01X0031173Y0019346D03*
G01X0031173Y0019567D03*
G01X0030937Y0019346D03*
G01X0030937Y0019567D03*
G54D11*
G01X0030319Y0019386D03*
G01X0030319Y0019181D03*
G54D10*
G01X0030862Y0017295D03*
G01X0031067Y0017295D03*
G01X0029516Y0017016D03*
G01X0029311Y0017016D03*
G01X0029449Y0016634D03*
G01X0029244Y0016634D03*
G54D11*
G01X0031220Y0016295D03*
G01X0031220Y0016091D03*
G01X0031220Y0016488D03*
G01X0031220Y0016693D03*
G01X0028421Y0016894D03*
G01X0028421Y0017098D03*
G01X0028681Y0016890D03*
G01X0028681Y0017094D03*
G01X0028154Y0016894D03*
G01X0028154Y0017098D03*
G01X0028937Y0016898D03*
G01X0028937Y0017102D03*
G54D18*
G01X0029378Y0016358D03*
G01X0029378Y0016004D03*
G01X0027870Y0018948D03*
G01X0027870Y0019302D03*
G54D19*
G01X0029106Y0018630D03*
G01X0029106Y0019004D03*
G01X0029106Y0019378D03*
G01X0029894Y0018630D03*
G01X0029894Y0019378D03*
G01X0029894Y0019004D03*
G54D20*
G01X0029016Y0016157D03*
G01X0029016Y0016413D03*
G01X0029016Y0016669D03*
G01X0028268Y0016157D03*
G01X0028268Y0016669D03*
G54D10*
G01X0028275Y0025314D03*
G01X0028480Y0025314D03*
G54D11*
G01X0028674Y0025193D03*
G01X0028674Y0024988D03*
G01X0028205Y0024906D03*
G01X0028205Y0024701D03*
G54D12*
G01X0030875Y0024802D03*
G36*
G01X0030824Y0024811D02*
G01X0030866Y0024852D01*
G01X0030925Y0024793D01*
G01X0030883Y0024752D01*
G01X0030824Y0024811D01*
G37*
G54D13*
G01X0030848Y0024772D03*
G54D14*
G01X0030819Y0024801D03*
G01X0031244Y0025057D03*
G54D13*
G01X0031215Y0025087D03*
G54D12*
G01X0031188Y0025056D03*
G36*
G01X0031239Y0025048D02*
G01X0031197Y0025006D01*
G01X0031138Y0025065D01*
G01X0031180Y0025107D01*
G01X0031239Y0025048D01*
G37*
G01X0030875Y0025056D03*
G36*
G01X0030884Y0025107D02*
G01X0030926Y0025065D01*
G01X0030867Y0025006D01*
G01X0030825Y0025048D01*
G01X0030884Y0025107D01*
G37*
G54D13*
G01X0030849Y0025087D03*
G54D14*
G01X0030819Y0025057D03*
G54D15*
G01X0031031Y0024929D03*
G36*
G01X0031176Y0024929D02*
G01X0031031Y0024784D01*
G01X0030887Y0024929D01*
G01X0031031Y0025074D01*
G01X0031176Y0024929D01*
G37*
G54D14*
G01X0031244Y0024801D03*
G54D13*
G01X0031215Y0024772D03*
G54D12*
G01X0031188Y0024802D03*
G36*
G01X0031180Y0024752D02*
G01X0031138Y0024793D01*
G01X0031197Y0024852D01*
G01X0031239Y0024811D01*
G01X0031180Y0024752D01*
G37*
G01X0028188Y0024214D03*
G36*
G01X0028239Y0024205D02*
G01X0028197Y0024163D01*
G01X0028138Y0024222D01*
G01X0028180Y0024264D01*
G01X0028239Y0024205D01*
G37*
G54D13*
G01X0028215Y0024244D03*
G54D14*
G01X0028244Y0024215D03*
G01X0027819Y0023959D03*
G54D13*
G01X0027848Y0023929D03*
G54D12*
G01X0027875Y0023959D03*
G36*
G01X0027824Y0023968D02*
G01X0027866Y0024010D01*
G01X0027925Y0023951D01*
G01X0027883Y0023909D01*
G01X0027824Y0023968D01*
G37*
G01X0028188Y0023959D03*
G36*
G01X0028179Y0023909D02*
G01X0028137Y0023951D01*
G01X0028196Y0024010D01*
G01X0028238Y0023968D01*
G01X0028179Y0023909D01*
G37*
G54D13*
G01X0028214Y0023929D03*
G54D14*
G01X0028244Y0023959D03*
G54D15*
G01X0028031Y0024087D03*
G36*
G01X0027887Y0024087D02*
G01X0028031Y0024231D01*
G01X0028176Y0024087D01*
G01X0028031Y0023942D01*
G01X0027887Y0024087D01*
G37*
G54D14*
G01X0027819Y0024215D03*
G54D13*
G01X0027848Y0024244D03*
G54D12*
G01X0027875Y0024214D03*
G36*
G01X0027883Y0024264D02*
G01X0027925Y0024222D01*
G01X0027866Y0024163D01*
G01X0027824Y0024205D01*
G01X0027883Y0024264D01*
G37*
G01X0031180Y0024489D03*
G36*
G01X0031231Y0024481D02*
G01X0031189Y0024439D01*
G01X0031130Y0024498D01*
G01X0031172Y0024540D01*
G01X0031231Y0024481D01*
G37*
G54D13*
G01X0031207Y0024520D03*
G54D14*
G01X0031236Y0024490D03*
G01X0030811Y0024234D03*
G54D13*
G01X0030841Y0024205D03*
G54D12*
G01X0030867Y0024235D03*
G36*
G01X0030817Y0024244D02*
G01X0030858Y0024285D01*
G01X0030917Y0024226D01*
G01X0030876Y0024185D01*
G01X0030817Y0024244D01*
G37*
G01X0031180Y0024235D03*
G36*
G01X0031171Y0024185D02*
G01X0031130Y0024226D01*
G01X0031189Y0024285D01*
G01X0031230Y0024244D01*
G01X0031171Y0024185D01*
G37*
G54D13*
G01X0031206Y0024205D03*
G54D14*
G01X0031236Y0024234D03*
G54D15*
G01X0031024Y0024362D03*
G36*
G01X0030879Y0024362D02*
G01X0031024Y0024507D01*
G01X0031168Y0024362D01*
G01X0031024Y0024217D01*
G01X0030879Y0024362D01*
G37*
G54D14*
G01X0030811Y0024490D03*
G54D13*
G01X0030841Y0024520D03*
G54D12*
G01X0030867Y0024489D03*
G36*
G01X0030876Y0024540D02*
G01X0030917Y0024498D01*
G01X0030858Y0024439D01*
G01X0030817Y0024481D01*
G01X0030876Y0024540D01*
G37*
G54D16*
G01X0030803Y0022037D03*
G01X0029976Y0022037D03*
G01X0029976Y0022687D03*
G01X0030803Y0022687D03*
G54D10*
G01X0029151Y0023646D03*
G01X0028946Y0023646D03*
G54D17*
G01X0030902Y0024008D03*
G01X0030902Y0023787D03*
G01X0031161Y0023925D03*
G01X0031161Y0023705D03*
G01X0027934Y0023761D03*
G01X0027934Y0023540D03*
G01X0028154Y0023760D03*
G01X0028154Y0023539D03*
G01X0031173Y0025252D03*
G01X0031173Y0025472D03*
G01X0030937Y0025252D03*
G01X0030937Y0025472D03*
G54D11*
G01X0030319Y0025291D03*
G01X0030319Y0025087D03*
G54D10*
G01X0030862Y0023201D03*
G01X0031067Y0023201D03*
G01X0029516Y0022921D03*
G01X0029311Y0022921D03*
G01X0029449Y0022539D03*
G01X0029244Y0022539D03*
G54D11*
G01X0031220Y0022201D03*
G01X0031220Y0021996D03*
G01X0031220Y0022394D03*
G01X0031220Y0022598D03*
G01X0028421Y0022799D03*
G01X0028421Y0023004D03*
G01X0028681Y0022795D03*
G01X0028681Y0023000D03*
G01X0028154Y0022799D03*
G01X0028154Y0023004D03*
G01X0028937Y0022803D03*
G01X0028937Y0023008D03*
G54D18*
G01X0029378Y0022264D03*
G01X0029378Y0021909D03*
G01X0027870Y0024853D03*
G01X0027870Y0025208D03*
G54D19*
G01X0029106Y0024535D03*
G01X0029106Y0024909D03*
G01X0029106Y0025283D03*
G01X0029894Y0024535D03*
G01X0029894Y0025283D03*
G01X0029894Y0024909D03*
G54D20*
G01X0029016Y0022063D03*
G01X0029016Y0022319D03*
G01X0029016Y0022575D03*
G01X0028268Y0022063D03*
G01X0028268Y0022575D03*
G54D10*
G01X0028275Y0031220D03*
G01X0028480Y0031220D03*
G54D11*
G01X0028674Y0031098D03*
G01X0028674Y0030894D03*
G01X0028205Y0030811D03*
G01X0028205Y0030606D03*
G54D12*
G01X0030875Y0030707D03*
G36*
G01X0030824Y0030716D02*
G01X0030866Y0030758D01*
G01X0030925Y0030699D01*
G01X0030883Y0030657D01*
G01X0030824Y0030716D01*
G37*
G54D13*
G01X0030848Y0030677D03*
G54D14*
G01X0030819Y0030707D03*
G01X0031244Y0030963D03*
G54D13*
G01X0031215Y0030992D03*
G54D12*
G01X0031188Y0030962D03*
G36*
G01X0031239Y0030953D02*
G01X0031197Y0030911D01*
G01X0031138Y0030970D01*
G01X0031180Y0031012D01*
G01X0031239Y0030953D01*
G37*
G01X0030875Y0030962D03*
G36*
G01X0030884Y0031012D02*
G01X0030926Y0030970D01*
G01X0030867Y0030911D01*
G01X0030825Y0030953D01*
G01X0030884Y0031012D01*
G37*
G54D13*
G01X0030849Y0030992D03*
G54D14*
G01X0030819Y0030963D03*
G54D15*
G01X0031031Y0030835D03*
G36*
G01X0031176Y0030835D02*
G01X0031031Y0030690D01*
G01X0030887Y0030835D01*
G01X0031031Y0030979D01*
G01X0031176Y0030835D01*
G37*
G54D14*
G01X0031244Y0030707D03*
G54D13*
G01X0031215Y0030677D03*
G54D12*
G01X0031188Y0030707D03*
G36*
G01X0031180Y0030657D02*
G01X0031138Y0030699D01*
G01X0031197Y0030758D01*
G01X0031239Y0030716D01*
G01X0031180Y0030657D01*
G37*
G01X0028188Y0030119D03*
G36*
G01X0028239Y0030111D02*
G01X0028197Y0030069D01*
G01X0028138Y0030128D01*
G01X0028180Y0030170D01*
G01X0028239Y0030111D01*
G37*
G54D13*
G01X0028215Y0030150D03*
G54D14*
G01X0028244Y0030120D03*
G01X0027819Y0029864D03*
G54D13*
G01X0027848Y0029835D03*
G54D12*
G01X0027875Y0029865D03*
G36*
G01X0027824Y0029874D02*
G01X0027866Y0029915D01*
G01X0027925Y0029856D01*
G01X0027883Y0029815D01*
G01X0027824Y0029874D01*
G37*
G01X0028188Y0029865D03*
G54D13*
G01X0028214Y0029835D03*
G54D14*
G01X0028244Y0029864D03*
G54D15*
G01X0028031Y0029992D03*
G36*
G01X0027887Y0029992D02*
G01X0028031Y0030137D01*
G01X0028176Y0029992D01*
G01X0028031Y0029847D01*
G01X0027887Y0029992D01*
G37*
G54D14*
G01X0027819Y0030120D03*
G54D13*
G01X0027848Y0030150D03*
G54D12*
G01X0027875Y0030119D03*
G36*
G01X0027883Y0030170D02*
G01X0027925Y0030128D01*
G01X0027866Y0030069D01*
G01X0027824Y0030111D01*
G01X0027883Y0030170D01*
G37*
G01X0031180Y0030395D03*
G36*
G01X0031231Y0030386D02*
G01X0031189Y0030344D01*
G01X0031130Y0030404D01*
G01X0031172Y0030445D01*
G01X0031231Y0030386D01*
G37*
G54D13*
G01X0031207Y0030425D03*
G54D14*
G01X0031236Y0030396D03*
G01X0030811Y0030140D03*
G54D13*
G01X0030841Y0030110D03*
G54D12*
G01X0030867Y0030141D03*
G36*
G01X0030817Y0030149D02*
G01X0030858Y0030191D01*
G01X0030917Y0030132D01*
G01X0030876Y0030090D01*
G01X0030817Y0030149D01*
G37*
G01X0031180Y0030141D03*
G36*
G01X0031171Y0030090D02*
G01X0031130Y0030132D01*
G01X0031189Y0030191D01*
G01X0031230Y0030149D01*
G01X0031171Y0030090D01*
G37*
G54D13*
G01X0031206Y0030110D03*
G54D14*
G01X0031236Y0030140D03*
G54D15*
G01X0031024Y0030268D03*
G36*
G01X0030879Y0030268D02*
G01X0031024Y0030412D01*
G01X0031168Y0030268D01*
G01X0031024Y0030123D01*
G01X0030879Y0030268D01*
G37*
G54D14*
G01X0030811Y0030396D03*
G54D13*
G01X0030841Y0030425D03*
G54D12*
G01X0030867Y0030395D03*
G36*
G01X0030876Y0030445D02*
G01X0030917Y0030404D01*
G01X0030858Y0030344D01*
G01X0030817Y0030386D01*
G01X0030876Y0030445D01*
G37*
G54D16*
G01X0030803Y0027943D03*
G01X0029976Y0027943D03*
G01X0029976Y0028593D03*
G01X0030803Y0028593D03*
G54D10*
G01X0029151Y0029551D03*
G01X0028946Y0029551D03*
G54D17*
G01X0030902Y0029913D03*
G01X0030902Y0029693D03*
G01X0031161Y0029831D03*
G01X0031161Y0029610D03*
G01X0027934Y0029666D03*
G01X0027934Y0029446D03*
G01X0028154Y0029665D03*
G01X0028154Y0029445D03*
G01X0031173Y0031157D03*
G01X0031173Y0031378D03*
G01X0030937Y0031157D03*
G01X0030937Y0031378D03*
G54D11*
G01X0030319Y0031197D03*
G01X0030319Y0030992D03*
G54D10*
G01X0030862Y0029106D03*
G01X0031067Y0029106D03*
G01X0029516Y0028827D03*
G01X0029311Y0028827D03*
G01X0029449Y0028445D03*
G01X0029244Y0028445D03*
G54D11*
G01X0031220Y0028106D03*
G01X0031220Y0027902D03*
G01X0031220Y0028299D03*
G01X0031220Y0028504D03*
G01X0028421Y0028705D03*
G01X0028421Y0028909D03*
G01X0028681Y0028701D03*
G01X0028681Y0028906D03*
G01X0028154Y0028705D03*
G01X0028154Y0028909D03*
G01X0028937Y0028709D03*
G01X0028937Y0028913D03*
G54D18*
G01X0029378Y0028169D03*
G01X0029378Y0027815D03*
G01X0027870Y0030759D03*
G01X0027870Y0031113D03*
G54D19*
G01X0029106Y0030441D03*
G01X0029106Y0030815D03*
G01X0029106Y0031189D03*
G01X0029894Y0030441D03*
G01X0029894Y0031189D03*
G01X0029894Y0030815D03*
G54D20*
G01X0029016Y0027969D03*
G01X0029016Y0028224D03*
G01X0029016Y0028480D03*
G01X0028268Y0027969D03*
G01X0028268Y0028480D03*
G01X0000000Y0000000D02*
G54D25*
G01X-003937Y0052756D02*
G01X0039370Y0052756D01*
G01X-003937Y-017323D02*
G01X0039370Y-017323D01*
G01X0039370Y-017323D02*
G01X0039370Y0052756D01*
G01X-003937Y-017323D02*
G01X-003937Y0052756D01*
G54D38*
G01X0001969Y0045276D03*
G01X0033465Y0045276D03*
G01X0033465Y-009843D03*
G01X0001969Y-009843D03*
M02*
