G04 This is an RS-274x file exported by *
G04 gerbv version 2.6A *
G04 More information is available about gerbv at *
G04 http://gerbv.geda-project.org/ *
G04 --End of header info--*
%MOIN*%
%FSLAX34Y34*%
%IPPOS*%
G04 --Define apertures--*
%ADD10C,0.0039*%
%ADD11C,0.0004*%
%ADD12R,0.0197X0.0236*%
%ADD13R,0.0236X0.0197*%
%ADD14R,0.0138X0.0118*%
%ADD15R,0.0098X0.0118*%
%ADD16R,0.0512X0.0276*%
%ADD17R,0.0276X0.0512*%
%ADD18C,0.0091*%
%ADD19C,0.0079*%
%ADD20R,0.0118X0.0138*%
%ADD21R,0.0110X0.0169*%
%ADD22R,0.1063X0.0315*%
%ADD23R,0.0295X0.0315*%
%ADD24R,0.0236X0.0157*%
%ADD25R,0.0169X0.0110*%
%ADD26R,0.0222X0.0089*%
%ADD27R,0.0089X0.0222*%
%ADD28C,0.0866*%
%ADD29C,0.1969*%
%ADD30C,0.0094*%
%ADD31R,0.0110X0.0169*%
%ADD32R,0.0169X0.0110*%
%ADD33R,0.0157X0.0236*%
%ADD34C,0.0394*%
%ADD35C,0.0079*%
%AMMACRO36*
1,1,0.011811,0.006590,0.004863*
1,1,0.011811,0.076987,0.004863*
20,1,0.011811,0.006590,0.004863,0.076987,0.004863,0.000000*
1,1,0.011811,0.124700,0.004863*
1,1,0.011811,0.124700,0.110458*
20,1,0.011811,0.124700,0.004863,0.124700,0.110458,0.000000*
1,1,0.011811,0.124700,0.110458*
1,1,0.011811,0.177498,0.110458*
20,1,0.011811,0.124700,0.110458,0.177498,0.110458,0.000000*
1,1,0.011811,0.177498,0.110458*
1,1,0.011811,0.195097,0.092859*
20,1,0.011811,0.177498,0.110458,0.195097,0.092859,0.000000*
1,1,0.011811,0.195097,0.092859*
1,1,0.011811,0.195097,0.075260*
20,1,0.011811,0.195097,0.092859,0.195097,0.075260,0.000000*
1,1,0.011811,0.195097,0.075260*
1,1,0.011811,0.177498,0.057661*
20,1,0.011811,0.195097,0.075260,0.177498,0.057661,0.000000*
1,1,0.011811,0.177498,0.057661*
1,1,0.011811,0.124700,0.057661*
20,1,0.011811,0.177498,0.057661,0.124700,0.057661,0.000000*
1,1,0.011811,0.242811,0.004863*
1,1,0.011811,0.242811,0.092859*
20,1,0.011811,0.242811,0.004863,0.242811,0.092859,0.000000*
1,1,0.011811,0.242811,0.092859*
1,1,0.011811,0.260410,0.110458*
20,1,0.011811,0.242811,0.092859,0.260410,0.110458,0.000000*
1,1,0.011811,0.260410,0.110458*
1,1,0.011811,0.295608,0.110458*
20,1,0.011811,0.260410,0.110458,0.295608,0.110458,0.000000*
1,1,0.011811,0.295608,0.110458*
1,1,0.011811,0.313207,0.092859*
20,1,0.011811,0.295608,0.110458,0.313207,0.092859,0.000000*
1,1,0.011811,0.313207,0.092859*
1,1,0.011811,0.313207,0.004863*
20,1,0.011811,0.313207,0.092859,0.313207,0.004863,0.000000*
1,1,0.011811,0.242811,0.057661*
1,1,0.011811,0.313207,0.057661*
20,1,0.011811,0.242811,0.057661,0.313207,0.057661,0.000000*
1,1,0.011811,0.360921,0.022462*
1,1,0.011811,0.378520,0.004863*
20,1,0.011811,0.360921,0.022462,0.378520,0.004863,0.000000*
1,1,0.011811,0.378520,0.004863*
1,1,0.011811,0.413718,0.004863*
20,1,0.011811,0.378520,0.004863,0.413718,0.004863,0.000000*
1,1,0.011811,0.413718,0.004863*
1,1,0.011811,0.431318,0.022462*
20,1,0.011811,0.413718,0.004863,0.431318,0.022462,0.000000*
1,1,0.011811,0.431318,0.022462*
1,1,0.011811,0.431318,0.040062*
20,1,0.011811,0.431318,0.022462,0.431318,0.040062,0.000000*
1,1,0.011811,0.431318,0.040062*
1,1,0.011811,0.413718,0.057661*
20,1,0.011811,0.431318,0.040062,0.413718,0.057661,0.000000*
1,1,0.011811,0.413718,0.057661*
1,1,0.011811,0.378520,0.057661*
20,1,0.011811,0.413718,0.057661,0.378520,0.057661,0.000000*
1,1,0.011811,0.378520,0.057661*
1,1,0.011811,0.360921,0.075260*
20,1,0.011811,0.378520,0.057661,0.360921,0.075260,0.000000*
1,1,0.011811,0.360921,0.075260*
1,1,0.011811,0.360921,0.092859*
20,1,0.011811,0.360921,0.075260,0.360921,0.092859,0.000000*
1,1,0.011811,0.360921,0.092859*
1,1,0.011811,0.378520,0.110458*
20,1,0.011811,0.360921,0.092859,0.378520,0.110458,0.000000*
1,1,0.011811,0.378520,0.110458*
1,1,0.011811,0.413718,0.110458*
20,1,0.011811,0.378520,0.110458,0.413718,0.110458,0.000000*
1,1,0.011811,0.413718,0.110458*
1,1,0.011811,0.431318,0.092859*
20,1,0.011811,0.413718,0.110458,0.431318,0.092859,0.000000*
1,1,0.011811,0.479031,0.110458*
1,1,0.011811,0.549428,0.110458*
20,1,0.011811,0.479031,0.110458,0.549428,0.110458,0.000000*
1,1,0.011811,0.514230,0.110458*
1,1,0.011811,0.514230,0.004863*
20,1,0.011811,0.514230,0.110458,0.514230,0.004863,0.000000*
1,1,0.011811,0.597141,0.110458*
1,1,0.011811,0.667538,0.110458*
20,1,0.011811,0.597141,0.110458,0.667538,0.110458,0.000000*
1,1,0.011811,0.597141,0.004863*
1,1,0.011811,0.667538,0.004863*
20,1,0.011811,0.597141,0.004863,0.667538,0.004863,0.000000*
1,1,0.011811,0.597141,0.057661*
1,1,0.011811,0.649939,0.057661*
20,1,0.011811,0.597141,0.057661,0.649939,0.057661,0.000000*
1,1,0.011811,0.597141,0.110458*
1,1,0.011811,0.597141,0.004863*
20,1,0.011811,0.597141,0.110458,0.597141,0.004863,0.000000*
1,1,0.011811,0.715252,0.057661*
1,1,0.011811,0.785648,0.057661*
20,1,0.011811,0.715252,0.057661,0.785648,0.057661,0.000000*
1,1,0.011811,0.833362,0.110458*
1,1,0.011811,0.868560,0.004863*
20,1,0.011811,0.833362,0.110458,0.868560,0.004863,0.000000*
1,1,0.011811,0.868560,0.004863*
1,1,0.011811,0.903759,0.110458*
20,1,0.011811,0.868560,0.004863,0.903759,0.110458,0.000000*
1,1,0.011811,0.951472,0.022462*
1,1,0.011811,0.969071,0.004863*
20,1,0.011811,0.951472,0.022462,0.969071,0.004863,0.000000*
1,1,0.011811,0.969071,0.004863*
1,1,0.011811,1.004270,0.004863*
20,1,0.011811,0.969071,0.004863,1.004270,0.004863,0.000000*
1,1,0.011811,1.004270,0.004863*
1,1,0.011811,1.021869,0.022462*
20,1,0.011811,1.004270,0.004863,1.021869,0.022462,0.000000*
1,1,0.011811,1.021869,0.022462*
1,1,0.011811,1.021869,0.040062*
20,1,0.011811,1.021869,0.022462,1.021869,0.040062,0.000000*
1,1,0.011811,1.021869,0.040062*
1,1,0.011811,1.004270,0.057661*
20,1,0.011811,1.021869,0.040062,1.004270,0.057661,0.000000*
1,1,0.011811,1.004270,0.057661*
1,1,0.011811,0.969071,0.057661*
20,1,0.011811,1.004270,0.057661,0.969071,0.057661,0.000000*
1,1,0.011811,0.969071,0.057661*
1,1,0.011811,0.951472,0.075260*
20,1,0.011811,0.969071,0.057661,0.951472,0.075260,0.000000*
1,1,0.011811,0.951472,0.075260*
1,1,0.011811,0.951472,0.092859*
20,1,0.011811,0.951472,0.075260,0.951472,0.092859,0.000000*
1,1,0.011811,0.951472,0.092859*
1,1,0.011811,0.969071,0.110458*
20,1,0.011811,0.951472,0.092859,0.969071,0.110458,0.000000*
1,1,0.011811,0.969071,0.110458*
1,1,0.011811,1.004270,0.110458*
20,1,0.011811,0.969071,0.110458,1.004270,0.110458,0.000000*
1,1,0.011811,1.004270,0.110458*
1,1,0.011811,1.021869,0.092859*
20,1,0.011811,1.004270,0.110458,1.021869,0.092859,0.000000*
1,1,0.011811,1.187693,0.110458*
1,1,0.011811,1.187693,0.004863*
20,1,0.011811,1.187693,0.110458,1.187693,0.004863,0.000000*
1,1,0.011811,1.187693,0.004863*
1,1,0.011811,1.258089,0.004863*
20,1,0.011811,1.187693,0.004863,1.258089,0.004863,0.000000*
1,1,0.011811,1.305803,-0.012736*
1,1,0.011811,1.305803,0.057661*
20,1,0.011811,1.305803,-0.012736,1.305803,0.057661,0.000000*
1,1,0.011811,1.305803,0.057661*
1,1,0.011811,1.323402,0.075260*
20,1,0.011811,1.305803,0.057661,1.323402,0.075260,0.000000*
1,1,0.011811,1.323402,0.075260*
1,1,0.011811,1.358600,0.075260*
20,1,0.011811,1.323402,0.075260,1.358600,0.075260,0.000000*
1,1,0.011811,1.358600,0.075260*
1,1,0.011811,1.376200,0.057661*
20,1,0.011811,1.358600,0.075260,1.376200,0.057661,0.000000*
1,1,0.011811,1.376200,0.057661*
1,1,0.011811,1.376200,0.040062*
20,1,0.011811,1.376200,0.057661,1.376200,0.040062,0.000000*
1,1,0.011811,1.376200,0.040062*
1,1,0.011811,1.358600,0.022462*
20,1,0.011811,1.376200,0.040062,1.358600,0.022462,0.000000*
1,1,0.011811,1.358600,0.022462*
1,1,0.011811,1.305803,0.022462*
20,1,0.011811,1.358600,0.022462,1.305803,0.022462,0.000000*
1,1,0.011811,1.559622,0.110458*
1,1,0.011811,1.594821,0.110458*
20,1,0.011811,1.559622,0.110458,1.594821,0.110458,0.000000*
1,1,0.011811,1.559622,0.004863*
1,1,0.011811,1.594821,0.004863*
20,1,0.011811,1.559622,0.004863,1.594821,0.004863,0.000000*
1,1,0.011811,1.577222,0.110458*
1,1,0.011811,1.577222,0.004863*
20,1,0.011811,1.577222,0.110458,1.577222,0.004863,0.000000*
1,1,0.011811,1.660133,0.004863*
1,1,0.011811,1.660133,0.110458*
20,1,0.011811,1.660133,0.004863,1.660133,0.110458,0.000000*
1,1,0.011811,1.660133,0.110458*
1,1,0.011811,1.695332,0.057661*
20,1,0.011811,1.660133,0.110458,1.695332,0.057661,0.000000*
1,1,0.011811,1.695332,0.057661*
1,1,0.011811,1.730530,0.110458*
20,1,0.011811,1.695332,0.057661,1.730530,0.110458,0.000000*
1,1,0.011811,1.730530,0.110458*
1,1,0.011811,1.730530,0.004863*
20,1,0.011811,1.730530,0.110458,1.730530,0.004863,0.000000*
1,1,0.011811,1.778244,0.004863*
1,1,0.011811,1.778244,0.092859*
20,1,0.011811,1.778244,0.004863,1.778244,0.092859,0.000000*
1,1,0.011811,1.778244,0.092859*
1,1,0.011811,1.795843,0.110458*
20,1,0.011811,1.778244,0.092859,1.795843,0.110458,0.000000*
1,1,0.011811,1.795843,0.110458*
1,1,0.011811,1.831041,0.110458*
20,1,0.011811,1.795843,0.110458,1.831041,0.110458,0.000000*
1,1,0.011811,1.831041,0.110458*
1,1,0.011811,1.848641,0.092859*
20,1,0.011811,1.831041,0.110458,1.848641,0.092859,0.000000*
1,1,0.011811,1.848641,0.092859*
1,1,0.011811,1.848641,0.004863*
20,1,0.011811,1.848641,0.092859,1.848641,0.004863,0.000000*
1,1,0.011811,1.778244,0.057661*
1,1,0.011811,1.848641,0.057661*
20,1,0.011811,1.778244,0.057661,1.848641,0.057661,0.000000*
1,1,0.011811,1.913953,0.110458*
1,1,0.011811,1.966751,0.110458*
20,1,0.011811,1.913953,0.110458,1.966751,0.110458,0.000000*
1,1,0.011811,1.913953,0.110458*
1,1,0.011811,1.896354,0.092859*
20,1,0.011811,1.913953,0.110458,1.896354,0.092859,0.000000*
1,1,0.011811,1.896354,0.092859*
1,1,0.011811,1.896354,0.022462*
20,1,0.011811,1.896354,0.092859,1.896354,0.022462,0.000000*
1,1,0.011811,1.896354,0.022462*
1,1,0.011811,1.913953,0.004863*
20,1,0.011811,1.896354,0.022462,1.913953,0.004863,0.000000*
1,1,0.011811,1.913953,0.004863*
1,1,0.011811,1.966751,0.004863*
20,1,0.011811,1.913953,0.004863,1.966751,0.004863,0.000000*
1,1,0.011811,1.966751,0.004863*
1,1,0.011811,1.966751,0.057661*
20,1,0.011811,1.966751,0.004863,1.966751,0.057661,0.000000*
1,1,0.011811,1.966751,0.057661*
1,1,0.011811,1.949152,0.057661*
20,1,0.011811,1.966751,0.057661,1.949152,0.057661,0.000000*
1,1,0.011811,2.014464,0.110458*
1,1,0.011811,2.084861,0.110458*
20,1,0.011811,2.014464,0.110458,2.084861,0.110458,0.000000*
1,1,0.011811,2.014464,0.004863*
1,1,0.011811,2.084861,0.004863*
20,1,0.011811,2.014464,0.004863,2.084861,0.004863,0.000000*
1,1,0.011811,2.014464,0.057661*
1,1,0.011811,2.067262,0.057661*
20,1,0.011811,2.014464,0.057661,2.067262,0.057661,0.000000*
1,1,0.011811,2.014464,0.110458*
1,1,0.011811,2.014464,0.004863*
20,1,0.011811,2.014464,0.110458,2.014464,0.004863,0.000000*
1,1,0.011811,2.132574,0.110458*
1,1,0.011811,2.185372,0.110458*
20,1,0.011811,2.132574,0.110458,2.185372,0.110458,0.000000*
1,1,0.011811,2.185372,0.110458*
1,1,0.011811,2.202971,0.092859*
20,1,0.011811,2.185372,0.110458,2.202971,0.092859,0.000000*
1,1,0.011811,2.202971,0.092859*
1,1,0.011811,2.202971,0.075260*
20,1,0.011811,2.202971,0.092859,2.202971,0.075260,0.000000*
1,1,0.011811,2.202971,0.075260*
1,1,0.011811,2.185372,0.057661*
20,1,0.011811,2.202971,0.075260,2.185372,0.057661,0.000000*
1,1,0.011811,2.185372,0.057661*
1,1,0.011811,2.202971,0.040062*
20,1,0.011811,2.185372,0.057661,2.202971,0.040062,0.000000*
1,1,0.011811,2.202971,0.040062*
1,1,0.011811,2.202971,0.022462*
20,1,0.011811,2.202971,0.040062,2.202971,0.022462,0.000000*
1,1,0.011811,2.202971,0.022462*
1,1,0.011811,2.185372,0.004863*
20,1,0.011811,2.202971,0.022462,2.185372,0.004863,0.000000*
1,1,0.011811,2.185372,0.004863*
1,1,0.011811,2.132574,0.004863*
20,1,0.011811,2.185372,0.004863,2.132574,0.004863,0.000000*
1,1,0.011811,2.150174,0.004863*
1,1,0.011811,2.150174,0.110458*
20,1,0.011811,2.150174,0.004863,2.150174,0.110458,0.000000*
1,1,0.011811,2.150174,0.057661*
1,1,0.011811,2.185372,0.057661*
20,1,0.011811,2.150174,0.057661,2.185372,0.057661,0.000000*
1,1,0.011811,2.250685,0.022462*
1,1,0.011811,2.250685,0.092859*
20,1,0.011811,2.250685,0.022462,2.250685,0.092859,0.000000*
1,1,0.011811,2.250685,0.092859*
1,1,0.011811,2.268284,0.110458*
20,1,0.011811,2.250685,0.092859,2.268284,0.110458,0.000000*
1,1,0.011811,2.268284,0.110458*
1,1,0.011811,2.303482,0.110458*
20,1,0.011811,2.268284,0.110458,2.303482,0.110458,0.000000*
1,1,0.011811,2.303482,0.110458*
1,1,0.011811,2.321082,0.092859*
20,1,0.011811,2.303482,0.110458,2.321082,0.092859,0.000000*
1,1,0.011811,2.321082,0.092859*
1,1,0.011811,2.321082,0.022462*
20,1,0.011811,2.321082,0.092859,2.321082,0.022462,0.000000*
1,1,0.011811,2.321082,0.022462*
1,1,0.011811,2.303482,0.004863*
20,1,0.011811,2.321082,0.022462,2.303482,0.004863,0.000000*
1,1,0.011811,2.303482,0.004863*
1,1,0.011811,2.268284,0.004863*
20,1,0.011811,2.303482,0.004863,2.268284,0.004863,0.000000*
1,1,0.011811,2.268284,0.004863*
1,1,0.011811,2.250685,0.022462*
20,1,0.011811,2.268284,0.004863,2.250685,0.022462,0.000000*
1,1,0.011811,2.368795,0.004863*
1,1,0.011811,2.368795,0.092859*
20,1,0.011811,2.368795,0.004863,2.368795,0.092859,0.000000*
1,1,0.011811,2.368795,0.092859*
1,1,0.011811,2.386394,0.110458*
20,1,0.011811,2.368795,0.092859,2.386394,0.110458,0.000000*
1,1,0.011811,2.386394,0.110458*
1,1,0.011811,2.421593,0.110458*
20,1,0.011811,2.386394,0.110458,2.421593,0.110458,0.000000*
1,1,0.011811,2.421593,0.110458*
1,1,0.011811,2.439192,0.092859*
20,1,0.011811,2.421593,0.110458,2.439192,0.092859,0.000000*
1,1,0.011811,2.439192,0.092859*
1,1,0.011811,2.439192,0.004863*
20,1,0.011811,2.439192,0.092859,2.439192,0.004863,0.000000*
1,1,0.011811,2.368795,0.057661*
1,1,0.011811,2.439192,0.057661*
20,1,0.011811,2.368795,0.057661,2.439192,0.057661,0.000000*
1,1,0.011811,2.486905,0.004863*
1,1,0.011811,2.486905,0.110458*
20,1,0.011811,2.486905,0.004863,2.486905,0.110458,0.000000*
1,1,0.011811,2.486905,0.110458*
1,1,0.011811,2.539703,0.110458*
20,1,0.011811,2.486905,0.110458,2.539703,0.110458,0.000000*
1,1,0.011811,2.539703,0.110458*
1,1,0.011811,2.557302,0.092859*
20,1,0.011811,2.539703,0.110458,2.557302,0.092859,0.000000*
1,1,0.011811,2.557302,0.092859*
1,1,0.011811,2.557302,0.075260*
20,1,0.011811,2.557302,0.092859,2.557302,0.075260,0.000000*
1,1,0.011811,2.557302,0.075260*
1,1,0.011811,2.539703,0.057661*
20,1,0.011811,2.557302,0.075260,2.539703,0.057661,0.000000*
1,1,0.011811,2.539703,0.057661*
1,1,0.011811,2.486905,0.057661*
20,1,0.011811,2.539703,0.057661,2.486905,0.057661,0.000000*
1,1,0.011811,2.504504,0.057661*
1,1,0.011811,2.557302,0.004863*
20,1,0.011811,2.504504,0.057661,2.557302,0.004863,0.000000*
1,1,0.011811,2.605015,0.110458*
1,1,0.011811,2.657813,0.110458*
20,1,0.011811,2.605015,0.110458,2.657813,0.110458,0.000000*
1,1,0.011811,2.657813,0.110458*
1,1,0.011811,2.675412,0.092859*
20,1,0.011811,2.657813,0.110458,2.675412,0.092859,0.000000*
1,1,0.011811,2.675412,0.092859*
1,1,0.011811,2.675412,0.022462*
20,1,0.011811,2.675412,0.092859,2.675412,0.022462,0.000000*
1,1,0.011811,2.675412,0.022462*
1,1,0.011811,2.657813,0.004863*
20,1,0.011811,2.675412,0.022462,2.657813,0.004863,0.000000*
1,1,0.011811,2.657813,0.004863*
1,1,0.011811,2.605015,0.004863*
20,1,0.011811,2.657813,0.004863,2.605015,0.004863,0.000000*
1,1,0.011811,2.622615,0.004863*
1,1,0.011811,2.622615,0.110458*
20,1,0.011811,2.622615,0.004863,2.622615,0.110458,0.000000*
1,1,0.011811,2.841236,0.110458*
1,1,0.011811,2.876434,0.004863*
20,1,0.011811,2.841236,0.110458,2.876434,0.004863,0.000000*
1,1,0.011811,2.876434,0.004863*
1,1,0.011811,2.911633,0.110458*
20,1,0.011811,2.876434,0.004863,2.911633,0.110458,0.000000*
1,1,0.011811,2.976945,0.092859*
1,1,0.011811,2.994545,0.110458*
20,1,0.011811,2.976945,0.092859,2.994545,0.110458,0.000000*
1,1,0.011811,2.994545,0.110458*
1,1,0.011811,2.994545,0.004863*
20,1,0.011811,2.994545,0.110458,2.994545,0.004863,0.000000*
1,1,0.011811,2.976945,0.004863*
1,1,0.011811,3.012144,0.004863*
20,1,0.011811,2.976945,0.004863,3.012144,0.004863,0.000000*
1,1,0.011811,3.121454,0.013663*
1,1,0.011811,3.195566,0.022462*
1,1,0.011811,3.213166,0.004863*
20,1,0.011811,3.195566,0.022462,3.213166,0.004863,0.000000*
1,1,0.011811,3.213166,0.004863*
1,1,0.011811,3.248364,0.004863*
20,1,0.011811,3.213166,0.004863,3.248364,0.004863,0.000000*
1,1,0.011811,3.248364,0.004863*
1,1,0.011811,3.265963,0.022462*
20,1,0.011811,3.248364,0.004863,3.265963,0.022462,0.000000*
1,1,0.011811,3.265963,0.022462*
1,1,0.011811,3.265963,0.092859*
20,1,0.011811,3.265963,0.022462,3.265963,0.092859,0.000000*
1,1,0.011811,3.265963,0.092859*
1,1,0.011811,3.248364,0.110458*
20,1,0.011811,3.265963,0.092859,3.248364,0.110458,0.000000*
1,1,0.011811,3.248364,0.110458*
1,1,0.011811,3.213166,0.110458*
20,1,0.011811,3.248364,0.110458,3.213166,0.110458,0.000000*
1,1,0.011811,3.213166,0.110458*
1,1,0.011811,3.195566,0.092859*
20,1,0.011811,3.213166,0.110458,3.195566,0.092859,0.000000*
1,1,0.011811,3.195566,0.092859*
1,1,0.011811,3.195566,0.022462*
20,1,0.011811,3.195566,0.092859,3.195566,0.022462,0.000000*
1,1,0.011811,3.195566,0.022462*
1,1,0.011811,3.265963,0.092859*
20,1,0.011811,3.195566,0.022462,3.265963,0.092859,0.000000*
1,1,0.011811,3.431787,0.022462*
1,1,0.011811,3.502184,0.092859*
20,1,0.011811,3.431787,0.022462,3.502184,0.092859,0.000000*
1,1,0.011811,3.720805,0.004863*
1,1,0.011811,3.720805,0.110458*
20,1,0.011811,3.720805,0.004863,3.720805,0.110458,0.000000*
1,1,0.011811,3.720805,0.110458*
1,1,0.011811,3.668007,0.040062*
20,1,0.011811,3.720805,0.110458,3.668007,0.040062,0.000000*
1,1,0.011811,3.668007,0.040062*
1,1,0.011811,3.738404,0.040062*
20,1,0.011811,3.668007,0.040062,3.738404,0.040062,0.000000*
1,1,0.011811,3.786118,0.004863*
1,1,0.011811,3.821316,0.004863*
20,1,0.011811,3.786118,0.004863,3.821316,0.004863,0.000000*
1,1,0.011811,3.821316,0.004863*
1,1,0.011811,3.856514,0.040062*
20,1,0.011811,3.821316,0.004863,3.856514,0.040062,0.000000*
1,1,0.011811,3.856514,0.040062*
1,1,0.011811,3.856514,0.092859*
20,1,0.011811,3.856514,0.040062,3.856514,0.092859,0.000000*
1,1,0.011811,3.856514,0.092859*
1,1,0.011811,3.838915,0.110458*
20,1,0.011811,3.856514,0.092859,3.838915,0.110458,0.000000*
1,1,0.011811,3.838915,0.110458*
1,1,0.011811,3.803717,0.110458*
20,1,0.011811,3.838915,0.110458,3.803717,0.110458,0.000000*
1,1,0.011811,3.803717,0.110458*
1,1,0.011811,3.786118,0.092859*
20,1,0.011811,3.803717,0.110458,3.786118,0.092859,0.000000*
1,1,0.011811,3.786118,0.092859*
1,1,0.011811,3.786118,0.075260*
20,1,0.011811,3.786118,0.092859,3.786118,0.075260,0.000000*
1,1,0.011811,3.786118,0.075260*
1,1,0.011811,3.803717,0.057661*
20,1,0.011811,3.786118,0.075260,3.803717,0.057661,0.000000*
1,1,0.011811,3.803717,0.057661*
1,1,0.011811,3.856514,0.057661*
20,1,0.011811,3.803717,0.057661,3.856514,0.057661,0.000000*
1,1,0.011811,3.904228,0.004863*
1,1,0.011811,3.939426,0.004863*
20,1,0.011811,3.904228,0.004863,3.939426,0.004863,0.000000*
1,1,0.011811,3.939426,0.004863*
1,1,0.011811,3.974625,0.040062*
20,1,0.011811,3.939426,0.004863,3.974625,0.040062,0.000000*
1,1,0.011811,3.974625,0.040062*
1,1,0.011811,3.974625,0.092859*
20,1,0.011811,3.974625,0.040062,3.974625,0.092859,0.000000*
1,1,0.011811,3.974625,0.092859*
1,1,0.011811,3.957026,0.110458*
20,1,0.011811,3.974625,0.092859,3.957026,0.110458,0.000000*
1,1,0.011811,3.957026,0.110458*
1,1,0.011811,3.921827,0.110458*
20,1,0.011811,3.957026,0.110458,3.921827,0.110458,0.000000*
1,1,0.011811,3.921827,0.110458*
1,1,0.011811,3.904228,0.092859*
20,1,0.011811,3.921827,0.110458,3.904228,0.092859,0.000000*
1,1,0.011811,3.904228,0.092859*
1,1,0.011811,3.904228,0.075260*
20,1,0.011811,3.904228,0.092859,3.904228,0.075260,0.000000*
1,1,0.011811,3.904228,0.075260*
1,1,0.011811,3.921827,0.057661*
20,1,0.011811,3.904228,0.075260,3.921827,0.057661,0.000000*
1,1,0.011811,3.921827,0.057661*
1,1,0.011811,3.974625,0.057661*
20,1,0.011811,3.921827,0.057661,3.974625,0.057661,0.000000*
1,1,0.011811,4.039937,0.092859*
1,1,0.011811,4.057537,0.110458*
20,1,0.011811,4.039937,0.092859,4.057537,0.110458,0.000000*
1,1,0.011811,4.057537,0.110458*
1,1,0.011811,4.057537,0.004863*
20,1,0.011811,4.057537,0.110458,4.057537,0.004863,0.000000*
1,1,0.011811,4.039937,0.004863*
1,1,0.011811,4.075136,0.004863*
20,1,0.011811,4.039937,0.004863,4.075136,0.004863,0.000000*
1,1,0.011811,4.140448,0.110458*
1,1,0.011811,4.210845,0.110458*
20,1,0.011811,4.140448,0.110458,4.210845,0.110458,0.000000*
1,1,0.011811,4.210845,0.110458*
1,1,0.011811,4.210845,0.075260*
20,1,0.011811,4.210845,0.110458,4.210845,0.075260,0.000000*
1,1,0.011811,4.210845,0.075260*
1,1,0.011811,4.193246,0.057661*
20,1,0.011811,4.210845,0.075260,4.193246,0.057661,0.000000*
1,1,0.011811,4.193246,0.057661*
1,1,0.011811,4.175647,0.057661*
20,1,0.011811,4.193246,0.057661,4.175647,0.057661,0.000000*
1,1,0.011811,4.193246,0.057661*
1,1,0.011811,4.210845,0.040062*
20,1,0.011811,4.193246,0.057661,4.210845,0.040062,0.000000*
1,1,0.011811,4.210845,0.040062*
1,1,0.011811,4.210845,0.022462*
20,1,0.011811,4.210845,0.040062,4.210845,0.022462,0.000000*
1,1,0.011811,4.210845,0.022462*
1,1,0.011811,4.193246,0.004863*
20,1,0.011811,4.210845,0.022462,4.193246,0.004863,0.000000*
1,1,0.011811,4.193246,0.004863*
1,1,0.011811,4.158048,0.004863*
20,1,0.011811,4.193246,0.004863,4.158048,0.004863,0.000000*
1,1,0.011811,4.158048,0.004863*
1,1,0.011811,4.140448,0.022462*
20,1,0.011811,4.158048,0.004863,4.140448,0.022462,0.000000*
1,1,0.011811,4.311356,0.004863*
1,1,0.011811,4.311356,0.110458*
20,1,0.011811,4.311356,0.004863,4.311356,0.110458,0.000000*
1,1,0.011811,4.311356,0.110458*
1,1,0.011811,4.258559,0.040062*
20,1,0.011811,4.311356,0.110458,4.258559,0.040062,0.000000*
1,1,0.011811,4.258559,0.040062*
1,1,0.011811,4.328955,0.040062*
20,1,0.011811,4.258559,0.040062,4.328955,0.040062,0.000000*
1,1,0.011811,4.376669,0.004863*
1,1,0.011811,4.376669,0.110458*
20,1,0.011811,4.376669,0.004863,4.376669,0.110458,0.000000*
1,1,0.011811,4.376669,0.110458*
1,1,0.011811,4.411867,0.057661*
20,1,0.011811,4.376669,0.110458,4.411867,0.057661,0.000000*
1,1,0.011811,4.411867,0.057661*
1,1,0.011811,4.447066,0.110458*
20,1,0.011811,4.411867,0.057661,4.447066,0.110458,0.000000*
1,1,0.011811,4.447066,0.110458*
1,1,0.011811,4.447066,0.004863*
20,1,0.011811,4.447066,0.110458,4.447066,0.004863,0.000000*
1,1,0.011811,4.494779,0.110458*
1,1,0.011811,4.529978,0.057661*
20,1,0.011811,4.494779,0.110458,4.529978,0.057661,0.000000*
1,1,0.011811,4.529978,0.057661*
1,1,0.011811,4.565176,0.110458*
20,1,0.011811,4.529978,0.057661,4.565176,0.110458,0.000000*
1,1,0.011811,4.529978,0.057661*
1,1,0.011811,4.529978,0.004863*
20,1,0.011811,4.529978,0.057661,4.529978,0.004863,0.000000*
%
%ADD36MACRO36*%
G04 --Start main section--*
G54D11*
G01X-003937Y0052756D02*
G01X0039370Y0052756D01*
G01X-003937Y-017323D02*
G01X0039370Y-017323D01*
G01X0039370Y-017323D02*
G01X0039370Y0052756D01*
G01X-003937Y-017323D02*
G01X-003937Y0052756D01*
G54D29*
G01X0001969Y0045276D03*
G01X0033465Y0045276D03*
G01X0033465Y-009843D03*
G01X0001969Y-009843D03*
G01X0000000Y0000000D02*
G54D30*
G01X0006693Y0006069D03*
G01X0006693Y0005880D03*
G01X0006693Y0005679D03*
G01X0004921Y0005482D03*
G01X0005118Y0005482D03*
G01X0005315Y0005482D03*
G01X0005512Y0005482D03*
G01X0005709Y0005482D03*
G01X0005906Y0005482D03*
G01X0006102Y0005482D03*
G01X0006299Y0005482D03*
G01X0006496Y0005482D03*
G01X0006693Y0005482D03*
G01X0006890Y0005482D03*
G01X0006890Y0005285D03*
G01X0006693Y0005285D03*
G01X0006496Y0005285D03*
G01X0006299Y0005285D03*
G01X0006102Y0005285D03*
G01X0005906Y0005285D03*
G01X0005709Y0005285D03*
G01X0005512Y0005285D03*
G01X0005315Y0005285D03*
G01X0005118Y0005285D03*
G01X0004921Y0005285D03*
G01X0006890Y0005679D03*
G01X0006890Y0005880D03*
G01X0006890Y0006069D03*
G01X0004921Y0006069D03*
G01X0005118Y0006069D03*
G01X0005118Y0005880D03*
G01X0004921Y0005880D03*
G01X0004921Y0005679D03*
G01X0005118Y0005679D03*
G01X0006890Y0006270D03*
G01X0006693Y0006270D03*
G01X0006496Y0006270D03*
G01X0006299Y0006270D03*
G01X0006102Y0006270D03*
G01X0005906Y0006270D03*
G01X0005709Y0006270D03*
G01X0005512Y0006270D03*
G01X0005315Y0006270D03*
G01X0005118Y0006270D03*
G01X0004921Y0006270D03*
G01X0004921Y0006467D03*
G01X0005118Y0006467D03*
G01X0005315Y0006467D03*
G01X0005512Y0006467D03*
G01X0005709Y0006467D03*
G01X0005906Y0006467D03*
G01X0006102Y0006467D03*
G01X0006299Y0006467D03*
G01X0006496Y0006467D03*
G01X0006693Y0006467D03*
G01X0006890Y0006467D03*
G01X0006890Y0006663D03*
G01X0006693Y0006663D03*
G01X0006496Y0006663D03*
G01X0006299Y0006663D03*
G01X0006102Y0006663D03*
G01X0005906Y0006663D03*
G01X0005709Y0006663D03*
G01X0005512Y0006663D03*
G01X0005315Y0006663D03*
G01X0005118Y0006663D03*
G01X0004921Y0006663D03*
G54D31*
G01X0007248Y0005657D03*
G01X0007453Y0005657D03*
G54D32*
G01X0006693Y0004827D03*
G01X0006693Y0004622D03*
G01X0006969Y0004827D03*
G01X0006969Y0004622D03*
G54D31*
G01X0004539Y0006354D03*
G01X0004335Y0006354D03*
G01X0004547Y0006835D03*
G01X0004343Y0006835D03*
G54D32*
G01X0007288Y0006530D03*
G01X0007288Y0006734D03*
G54D31*
G01X0005992Y0007102D03*
G01X0005787Y0007102D03*
G54D32*
G01X0004974Y0007092D03*
G01X0004974Y0007296D03*
G01X0006417Y0004827D03*
G01X0006417Y0004622D03*
G54D31*
G01X0006864Y0007139D03*
G01X0007069Y0007139D03*
G54D32*
G01X0004500Y0005571D03*
G01X0004500Y0005776D03*
G54D33*
G01X0004567Y0006091D03*
G01X0004213Y0006091D03*
G01X0005224Y0007150D03*
G01X0005579Y0007150D03*
G01X0004588Y0007142D03*
G01X0004233Y0007142D03*
G54D30*
G01X0006693Y0011974D03*
G01X0006693Y0011785D03*
G01X0006693Y0011585D03*
G01X0004921Y0011388D03*
G01X0005118Y0011388D03*
G01X0005315Y0011388D03*
G01X0005512Y0011388D03*
G01X0005709Y0011388D03*
G01X0005906Y0011388D03*
G01X0006102Y0011388D03*
G01X0006299Y0011388D03*
G01X0006496Y0011388D03*
G01X0006693Y0011388D03*
G01X0006890Y0011388D03*
G01X0006890Y0011191D03*
G01X0006693Y0011191D03*
G01X0006496Y0011191D03*
G01X0006299Y0011191D03*
G01X0006102Y0011191D03*
G01X0005906Y0011191D03*
G01X0005709Y0011191D03*
G01X0005512Y0011191D03*
G01X0005315Y0011191D03*
G01X0005118Y0011191D03*
G01X0004921Y0011191D03*
G01X0006890Y0011585D03*
G01X0006890Y0011785D03*
G01X0006890Y0011974D03*
G01X0004921Y0011974D03*
G01X0005118Y0011974D03*
G01X0005118Y0011785D03*
G01X0004921Y0011785D03*
G01X0004921Y0011585D03*
G01X0005118Y0011585D03*
G01X0006890Y0012175D03*
G01X0006693Y0012175D03*
G01X0006496Y0012175D03*
G01X0006299Y0012175D03*
G01X0006102Y0012175D03*
G01X0005906Y0012175D03*
G01X0005709Y0012175D03*
G01X0005512Y0012175D03*
G01X0005315Y0012175D03*
G01X0005118Y0012175D03*
G01X0004921Y0012175D03*
G01X0004921Y0012372D03*
G01X0005118Y0012372D03*
G01X0005315Y0012372D03*
G01X0005512Y0012372D03*
G01X0005709Y0012372D03*
G01X0005906Y0012372D03*
G01X0006102Y0012372D03*
G01X0006299Y0012372D03*
G01X0006496Y0012372D03*
G01X0006693Y0012372D03*
G01X0006890Y0012372D03*
G01X0006890Y0012569D03*
G01X0006693Y0012569D03*
G01X0006496Y0012569D03*
G01X0006299Y0012569D03*
G01X0006102Y0012569D03*
G01X0005906Y0012569D03*
G01X0005709Y0012569D03*
G01X0005512Y0012569D03*
G01X0005315Y0012569D03*
G01X0005118Y0012569D03*
G01X0004921Y0012569D03*
G54D31*
G01X0007248Y0011563D03*
G01X0007453Y0011563D03*
G54D32*
G01X0006693Y0010732D03*
G01X0006693Y0010528D03*
G01X0006969Y0010732D03*
G01X0006969Y0010528D03*
G54D31*
G01X0004539Y0012260D03*
G01X0004335Y0012260D03*
G01X0004547Y0012740D03*
G01X0004343Y0012740D03*
G54D32*
G01X0007288Y0012435D03*
G01X0007288Y0012640D03*
G54D31*
G01X0005992Y0013008D03*
G01X0005787Y0013008D03*
G54D32*
G01X0004974Y0012997D03*
G01X0004974Y0013202D03*
G01X0006417Y0010732D03*
G01X0006417Y0010528D03*
G54D31*
G01X0006864Y0013045D03*
G01X0007069Y0013045D03*
G54D32*
G01X0004500Y0011476D03*
G01X0004500Y0011681D03*
G54D33*
G01X0004567Y0011996D03*
G01X0004213Y0011996D03*
G01X0005224Y0013055D03*
G01X0005579Y0013055D03*
G01X0004588Y0013047D03*
G01X0004233Y0013047D03*
G54D30*
G01X0006693Y0017880D03*
G01X0006693Y0017691D03*
G01X0006693Y0017490D03*
G01X0004921Y0017293D03*
G01X0005118Y0017293D03*
G01X0005315Y0017293D03*
G01X0005512Y0017293D03*
G01X0005709Y0017293D03*
G01X0005906Y0017293D03*
G01X0006102Y0017293D03*
G01X0006299Y0017293D03*
G01X0006496Y0017293D03*
G01X0006693Y0017293D03*
G01X0006890Y0017293D03*
G01X0006890Y0017096D03*
G01X0006693Y0017096D03*
G01X0006496Y0017096D03*
G01X0006299Y0017096D03*
G01X0006102Y0017096D03*
G01X0005906Y0017096D03*
G01X0005709Y0017096D03*
G01X0005512Y0017096D03*
G01X0005315Y0017096D03*
G01X0005118Y0017096D03*
G01X0004921Y0017096D03*
G01X0006890Y0017490D03*
G01X0006890Y0017691D03*
G01X0006890Y0017880D03*
G01X0004921Y0017880D03*
G01X0005118Y0017880D03*
G01X0005118Y0017691D03*
G01X0004921Y0017691D03*
G01X0004921Y0017490D03*
G01X0005118Y0017490D03*
G01X0006890Y0018081D03*
G01X0006693Y0018081D03*
G01X0006496Y0018081D03*
G01X0006299Y0018081D03*
G01X0006102Y0018081D03*
G01X0005906Y0018081D03*
G01X0005709Y0018081D03*
G01X0005512Y0018081D03*
G01X0005315Y0018081D03*
G01X0005118Y0018081D03*
G01X0004921Y0018081D03*
G01X0004921Y0018278D03*
G01X0005118Y0018278D03*
G01X0005315Y0018278D03*
G01X0005512Y0018278D03*
G01X0005709Y0018278D03*
G01X0005906Y0018278D03*
G01X0006102Y0018278D03*
G01X0006299Y0018278D03*
G01X0006496Y0018278D03*
G01X0006693Y0018278D03*
G01X0006890Y0018278D03*
G01X0006890Y0018474D03*
G01X0006693Y0018474D03*
G01X0006496Y0018474D03*
G01X0006299Y0018474D03*
G01X0006102Y0018474D03*
G01X0005906Y0018474D03*
G01X0005709Y0018474D03*
G01X0005512Y0018474D03*
G01X0005315Y0018474D03*
G01X0005118Y0018474D03*
G01X0004921Y0018474D03*
G54D31*
G01X0007248Y0017469D03*
G01X0007453Y0017469D03*
G54D32*
G01X0006693Y0016638D03*
G01X0006693Y0016433D03*
G01X0006969Y0016638D03*
G01X0006969Y0016433D03*
G54D31*
G01X0004539Y0018165D03*
G01X0004335Y0018165D03*
G01X0004547Y0018646D03*
G01X0004343Y0018646D03*
G54D32*
G01X0007288Y0018341D03*
G01X0007288Y0018545D03*
G54D31*
G01X0005992Y0018913D03*
G01X0005787Y0018913D03*
G54D32*
G01X0004974Y0018903D03*
G01X0004974Y0019107D03*
G01X0006417Y0016638D03*
G01X0006417Y0016433D03*
G54D31*
G01X0006864Y0018950D03*
G01X0007069Y0018950D03*
G54D32*
G01X0004500Y0017382D03*
G01X0004500Y0017587D03*
G54D33*
G01X0004567Y0017902D03*
G01X0004213Y0017902D03*
G01X0005224Y0018961D03*
G01X0005579Y0018961D03*
G01X0004588Y0018953D03*
G01X0004233Y0018953D03*
G54D30*
G01X0006693Y0023785D03*
G01X0006693Y0023596D03*
G01X0006693Y0023396D03*
G01X0004921Y0023199D03*
G01X0005118Y0023199D03*
G01X0005315Y0023199D03*
G01X0005512Y0023199D03*
G01X0005709Y0023199D03*
G01X0005906Y0023199D03*
G01X0006102Y0023199D03*
G01X0006299Y0023199D03*
G01X0006496Y0023199D03*
G01X0006693Y0023199D03*
G01X0006890Y0023199D03*
G01X0006890Y0023002D03*
G01X0006693Y0023002D03*
G01X0006496Y0023002D03*
G01X0006299Y0023002D03*
G01X0006102Y0023002D03*
G01X0005906Y0023002D03*
G01X0005709Y0023002D03*
G01X0005512Y0023002D03*
G01X0005315Y0023002D03*
G01X0005118Y0023002D03*
G01X0004921Y0023002D03*
G01X0006890Y0023396D03*
G01X0006890Y0023596D03*
G01X0006890Y0023785D03*
G01X0004921Y0023785D03*
G01X0005118Y0023785D03*
G01X0005118Y0023596D03*
G01X0004921Y0023596D03*
G01X0004921Y0023396D03*
G01X0005118Y0023396D03*
G01X0006890Y0023986D03*
G01X0006693Y0023986D03*
G01X0006496Y0023986D03*
G01X0006299Y0023986D03*
G01X0006102Y0023986D03*
G01X0005906Y0023986D03*
G01X0005709Y0023986D03*
G01X0005512Y0023986D03*
G01X0005315Y0023986D03*
G01X0005118Y0023986D03*
G01X0004921Y0023986D03*
G01X0004921Y0024183D03*
G01X0005118Y0024183D03*
G01X0005315Y0024183D03*
G01X0005512Y0024183D03*
G01X0005709Y0024183D03*
G01X0005906Y0024183D03*
G01X0006102Y0024183D03*
G01X0006299Y0024183D03*
G01X0006496Y0024183D03*
G01X0006693Y0024183D03*
G01X0006890Y0024183D03*
G01X0006890Y0024380D03*
G01X0006693Y0024380D03*
G01X0006496Y0024380D03*
G01X0006299Y0024380D03*
G01X0006102Y0024380D03*
G01X0005906Y0024380D03*
G01X0005709Y0024380D03*
G01X0005512Y0024380D03*
G01X0005315Y0024380D03*
G01X0005118Y0024380D03*
G01X0004921Y0024380D03*
G54D31*
G01X0007248Y0023374D03*
G01X0007453Y0023374D03*
G54D32*
G01X0006693Y0022543D03*
G01X0006693Y0022339D03*
G01X0006969Y0022543D03*
G01X0006969Y0022339D03*
G54D31*
G01X0004539Y0024071D03*
G01X0004335Y0024071D03*
G01X0004547Y0024551D03*
G01X0004343Y0024551D03*
G54D32*
G01X0007288Y0024246D03*
G01X0007288Y0024451D03*
G54D31*
G01X0005992Y0024819D03*
G01X0005787Y0024819D03*
G54D32*
G01X0004974Y0024808D03*
G01X0004974Y0025013D03*
G01X0006417Y0022543D03*
G01X0006417Y0022339D03*
G54D31*
G01X0006864Y0024856D03*
G01X0007069Y0024856D03*
G54D32*
G01X0004500Y0023287D03*
G01X0004500Y0023492D03*
G54D33*
G01X0004567Y0023807D03*
G01X0004213Y0023807D03*
G01X0005224Y0024866D03*
G01X0005579Y0024866D03*
G01X0004588Y0024858D03*
G01X0004233Y0024858D03*
G54D30*
G01X0006693Y0029691D03*
G01X0006693Y0029502D03*
G01X0006693Y0029301D03*
G01X0004921Y0029104D03*
G01X0005118Y0029104D03*
G01X0005315Y0029104D03*
G01X0005512Y0029104D03*
G01X0005709Y0029104D03*
G01X0005906Y0029104D03*
G01X0006102Y0029104D03*
G01X0006299Y0029104D03*
G01X0006496Y0029104D03*
G01X0006693Y0029104D03*
G01X0006890Y0029104D03*
G01X0006890Y0028907D03*
G01X0006693Y0028907D03*
G01X0006496Y0028907D03*
G01X0006299Y0028907D03*
G01X0006102Y0028907D03*
G01X0005906Y0028907D03*
G01X0005709Y0028907D03*
G01X0005512Y0028907D03*
G01X0005315Y0028907D03*
G01X0005118Y0028907D03*
G01X0004921Y0028907D03*
G01X0006890Y0029301D03*
G01X0006890Y0029502D03*
G01X0006890Y0029691D03*
G01X0004921Y0029691D03*
G01X0005118Y0029691D03*
G01X0005118Y0029502D03*
G01X0004921Y0029502D03*
G01X0004921Y0029301D03*
G01X0005118Y0029301D03*
G01X0006890Y0029892D03*
G01X0006693Y0029892D03*
G01X0006496Y0029892D03*
G01X0006299Y0029892D03*
G01X0006102Y0029892D03*
G01X0005906Y0029892D03*
G01X0005709Y0029892D03*
G01X0005512Y0029892D03*
G01X0005315Y0029892D03*
G01X0005118Y0029892D03*
G01X0004921Y0029892D03*
G01X0004921Y0030089D03*
G01X0005118Y0030089D03*
G01X0005315Y0030089D03*
G01X0005512Y0030089D03*
G01X0005709Y0030089D03*
G01X0005906Y0030089D03*
G01X0006102Y0030089D03*
G01X0006299Y0030089D03*
G01X0006496Y0030089D03*
G01X0006693Y0030089D03*
G01X0006890Y0030089D03*
G01X0006890Y0030285D03*
G01X0006693Y0030285D03*
G01X0006496Y0030285D03*
G01X0006299Y0030285D03*
G01X0006102Y0030285D03*
G01X0005906Y0030285D03*
G01X0005709Y0030285D03*
G01X0005512Y0030285D03*
G01X0005315Y0030285D03*
G01X0005118Y0030285D03*
G01X0004921Y0030285D03*
G54D31*
G01X0007248Y0029280D03*
G01X0007453Y0029280D03*
G54D32*
G01X0006693Y0028449D03*
G01X0006693Y0028244D03*
G01X0006969Y0028449D03*
G01X0006969Y0028244D03*
G54D31*
G01X0004539Y0029976D03*
G01X0004335Y0029976D03*
G01X0004547Y0030457D03*
G01X0004343Y0030457D03*
G54D32*
G01X0007288Y0030152D03*
G01X0007288Y0030356D03*
G54D31*
G01X0005992Y0030724D03*
G01X0005787Y0030724D03*
G54D32*
G01X0004974Y0030714D03*
G01X0004974Y0030918D03*
G01X0006417Y0028449D03*
G01X0006417Y0028244D03*
G54D31*
G01X0006864Y0030761D03*
G01X0007069Y0030761D03*
G54D32*
G01X0004500Y0029193D03*
G01X0004500Y0029398D03*
G54D33*
G01X0004567Y0029713D03*
G01X0004213Y0029713D03*
G01X0005224Y0030772D03*
G01X0005579Y0030772D03*
G01X0004588Y0030764D03*
G01X0004233Y0030764D03*
G54D30*
G01X0012598Y0006069D03*
G01X0012598Y0005880D03*
G01X0012598Y0005679D03*
G01X0010827Y0005482D03*
G01X0011024Y0005482D03*
G01X0011220Y0005482D03*
G01X0011417Y0005482D03*
G01X0011614Y0005482D03*
G01X0011811Y0005482D03*
G01X0012008Y0005482D03*
G01X0012205Y0005482D03*
G01X0012402Y0005482D03*
G01X0012598Y0005482D03*
G01X0012795Y0005482D03*
G01X0012795Y0005285D03*
G01X0012598Y0005285D03*
G01X0012402Y0005285D03*
G01X0012205Y0005285D03*
G01X0012008Y0005285D03*
G01X0011811Y0005285D03*
G01X0011614Y0005285D03*
G01X0011417Y0005285D03*
G01X0011220Y0005285D03*
G01X0011024Y0005285D03*
G01X0010827Y0005285D03*
G01X0012795Y0005679D03*
G01X0012795Y0005880D03*
G01X0012795Y0006069D03*
G01X0010827Y0006069D03*
G01X0011024Y0006069D03*
G01X0011024Y0005880D03*
G01X0010827Y0005880D03*
G01X0010827Y0005679D03*
G01X0011024Y0005679D03*
G01X0012795Y0006270D03*
G01X0012598Y0006270D03*
G01X0012402Y0006270D03*
G01X0012205Y0006270D03*
G01X0012008Y0006270D03*
G01X0011811Y0006270D03*
G01X0011614Y0006270D03*
G01X0011417Y0006270D03*
G01X0011220Y0006270D03*
G01X0011024Y0006270D03*
G01X0010827Y0006270D03*
G01X0010827Y0006467D03*
G01X0011024Y0006467D03*
G01X0011220Y0006467D03*
G01X0011417Y0006467D03*
G01X0011614Y0006467D03*
G01X0011811Y0006467D03*
G01X0012008Y0006467D03*
G01X0012205Y0006467D03*
G01X0012402Y0006467D03*
G01X0012598Y0006467D03*
G01X0012795Y0006467D03*
G01X0012795Y0006663D03*
G01X0012598Y0006663D03*
G01X0012402Y0006663D03*
G01X0012205Y0006663D03*
G01X0012008Y0006663D03*
G01X0011811Y0006663D03*
G01X0011614Y0006663D03*
G01X0011417Y0006663D03*
G01X0011220Y0006663D03*
G01X0011024Y0006663D03*
G01X0010827Y0006663D03*
G54D31*
G01X0013154Y0005657D03*
G01X0013358Y0005657D03*
G54D32*
G01X0012598Y0004827D03*
G01X0012598Y0004622D03*
G01X0012874Y0004827D03*
G01X0012874Y0004622D03*
G54D31*
G01X0010445Y0006354D03*
G01X0010240Y0006354D03*
G01X0010453Y0006835D03*
G01X0010248Y0006835D03*
G54D32*
G01X0013194Y0006530D03*
G01X0013194Y0006734D03*
G54D31*
G01X0011898Y0007102D03*
G01X0011693Y0007102D03*
G54D32*
G01X0010880Y0007092D03*
G01X0010880Y0007296D03*
G01X0012323Y0004827D03*
G01X0012323Y0004622D03*
G54D31*
G01X0012770Y0007139D03*
G01X0012975Y0007139D03*
G54D32*
G01X0010406Y0005571D03*
G01X0010406Y0005776D03*
G54D33*
G01X0010472Y0006091D03*
G01X0010118Y0006091D03*
G01X0011130Y0007150D03*
G01X0011484Y0007150D03*
G01X0010493Y0007142D03*
G01X0010139Y0007142D03*
G54D30*
G01X0012598Y0011974D03*
G01X0012598Y0011785D03*
G01X0012598Y0011585D03*
G01X0010827Y0011388D03*
G01X0011024Y0011388D03*
G01X0011220Y0011388D03*
G01X0011417Y0011388D03*
G01X0011614Y0011388D03*
G01X0011811Y0011388D03*
G01X0012008Y0011388D03*
G01X0012205Y0011388D03*
G01X0012402Y0011388D03*
G01X0012598Y0011388D03*
G01X0012795Y0011388D03*
G01X0012795Y0011191D03*
G01X0012598Y0011191D03*
G01X0012402Y0011191D03*
G01X0012205Y0011191D03*
G01X0012008Y0011191D03*
G01X0011811Y0011191D03*
G01X0011614Y0011191D03*
G01X0011417Y0011191D03*
G01X0011220Y0011191D03*
G01X0011024Y0011191D03*
G01X0010827Y0011191D03*
G01X0012795Y0011585D03*
G01X0012795Y0011785D03*
G01X0012795Y0011974D03*
G01X0010827Y0011974D03*
G01X0011024Y0011974D03*
G01X0011024Y0011785D03*
G01X0010827Y0011785D03*
G01X0010827Y0011585D03*
G01X0011024Y0011585D03*
G01X0012795Y0012175D03*
G01X0012598Y0012175D03*
G01X0012402Y0012175D03*
G01X0012205Y0012175D03*
G01X0012008Y0012175D03*
G01X0011811Y0012175D03*
G01X0011614Y0012175D03*
G01X0011417Y0012175D03*
G01X0011220Y0012175D03*
G01X0011024Y0012175D03*
G01X0010827Y0012175D03*
G01X0010827Y0012372D03*
G01X0011024Y0012372D03*
G01X0011220Y0012372D03*
G01X0011417Y0012372D03*
G01X0011614Y0012372D03*
G01X0011811Y0012372D03*
G01X0012008Y0012372D03*
G01X0012205Y0012372D03*
G01X0012402Y0012372D03*
G01X0012598Y0012372D03*
G01X0012795Y0012372D03*
G01X0012795Y0012569D03*
G01X0012598Y0012569D03*
G01X0012402Y0012569D03*
G01X0012205Y0012569D03*
G01X0012008Y0012569D03*
G01X0011811Y0012569D03*
G01X0011614Y0012569D03*
G01X0011417Y0012569D03*
G01X0011220Y0012569D03*
G01X0011024Y0012569D03*
G01X0010827Y0012569D03*
G54D31*
G01X0013154Y0011563D03*
G01X0013358Y0011563D03*
G54D32*
G01X0012598Y0010732D03*
G01X0012598Y0010528D03*
G01X0012874Y0010732D03*
G01X0012874Y0010528D03*
G54D31*
G01X0010445Y0012260D03*
G01X0010240Y0012260D03*
G01X0010453Y0012740D03*
G01X0010248Y0012740D03*
G54D32*
G01X0013194Y0012435D03*
G01X0013194Y0012640D03*
G54D31*
G01X0011898Y0013008D03*
G01X0011693Y0013008D03*
G54D32*
G01X0010880Y0012997D03*
G01X0010880Y0013202D03*
G01X0012323Y0010732D03*
G01X0012323Y0010528D03*
G54D31*
G01X0012770Y0013045D03*
G01X0012975Y0013045D03*
G54D32*
G01X0010406Y0011476D03*
G01X0010406Y0011681D03*
G54D33*
G01X0010472Y0011996D03*
G01X0010118Y0011996D03*
G01X0011130Y0013055D03*
G01X0011484Y0013055D03*
G01X0010493Y0013047D03*
G01X0010139Y0013047D03*
G54D30*
G01X0012598Y0017880D03*
G01X0012598Y0017691D03*
G01X0012598Y0017490D03*
G01X0010827Y0017293D03*
G01X0011024Y0017293D03*
G01X0011220Y0017293D03*
G01X0011417Y0017293D03*
G01X0011614Y0017293D03*
G01X0011811Y0017293D03*
G01X0012008Y0017293D03*
G01X0012205Y0017293D03*
G01X0012402Y0017293D03*
G01X0012598Y0017293D03*
G01X0012795Y0017293D03*
G01X0012795Y0017096D03*
G01X0012598Y0017096D03*
G01X0012402Y0017096D03*
G01X0012205Y0017096D03*
G01X0012008Y0017096D03*
G01X0011811Y0017096D03*
G01X0011614Y0017096D03*
G01X0011417Y0017096D03*
G01X0011220Y0017096D03*
G01X0011024Y0017096D03*
G01X0010827Y0017096D03*
G01X0012795Y0017490D03*
G01X0012795Y0017691D03*
G01X0012795Y0017880D03*
G01X0010827Y0017880D03*
G01X0011024Y0017880D03*
G01X0011024Y0017691D03*
G01X0010827Y0017691D03*
G01X0010827Y0017490D03*
G01X0011024Y0017490D03*
G01X0012795Y0018081D03*
G01X0012598Y0018081D03*
G01X0012402Y0018081D03*
G01X0012205Y0018081D03*
G01X0012008Y0018081D03*
G01X0011811Y0018081D03*
G01X0011614Y0018081D03*
G01X0011417Y0018081D03*
G01X0011220Y0018081D03*
G01X0011024Y0018081D03*
G01X0010827Y0018081D03*
G01X0010827Y0018278D03*
G01X0011024Y0018278D03*
G01X0011220Y0018278D03*
G01X0011417Y0018278D03*
G01X0011614Y0018278D03*
G01X0011811Y0018278D03*
G01X0012008Y0018278D03*
G01X0012205Y0018278D03*
G01X0012402Y0018278D03*
G01X0012598Y0018278D03*
G01X0012795Y0018278D03*
G01X0012795Y0018474D03*
G01X0012598Y0018474D03*
G01X0012402Y0018474D03*
G01X0012205Y0018474D03*
G01X0012008Y0018474D03*
G01X0011811Y0018474D03*
G01X0011614Y0018474D03*
G01X0011417Y0018474D03*
G01X0011220Y0018474D03*
G01X0011024Y0018474D03*
G01X0010827Y0018474D03*
G54D31*
G01X0013154Y0017469D03*
G01X0013358Y0017469D03*
G54D32*
G01X0012598Y0016638D03*
G01X0012598Y0016433D03*
G01X0012874Y0016638D03*
G01X0012874Y0016433D03*
G54D31*
G01X0010445Y0018165D03*
G01X0010240Y0018165D03*
G01X0010453Y0018646D03*
G01X0010248Y0018646D03*
G54D32*
G01X0013194Y0018341D03*
G01X0013194Y0018545D03*
G54D31*
G01X0011898Y0018913D03*
G01X0011693Y0018913D03*
G54D32*
G01X0010880Y0018903D03*
G01X0010880Y0019107D03*
G01X0012323Y0016638D03*
G01X0012323Y0016433D03*
G54D31*
G01X0012770Y0018950D03*
G01X0012975Y0018950D03*
G54D32*
G01X0010406Y0017382D03*
G01X0010406Y0017587D03*
G54D33*
G01X0010472Y0017902D03*
G01X0010118Y0017902D03*
G01X0011130Y0018961D03*
G01X0011484Y0018961D03*
G01X0010493Y0018953D03*
G01X0010139Y0018953D03*
G54D30*
G01X0012598Y0023785D03*
G01X0012598Y0023596D03*
G01X0012598Y0023396D03*
G01X0010827Y0023199D03*
G01X0011024Y0023199D03*
G01X0011220Y0023199D03*
G01X0011417Y0023199D03*
G01X0011614Y0023199D03*
G01X0011811Y0023199D03*
G01X0012008Y0023199D03*
G01X0012205Y0023199D03*
G01X0012402Y0023199D03*
G01X0012598Y0023199D03*
G01X0012795Y0023199D03*
G01X0012795Y0023002D03*
G01X0012598Y0023002D03*
G01X0012402Y0023002D03*
G01X0012205Y0023002D03*
G01X0012008Y0023002D03*
G01X0011811Y0023002D03*
G01X0011614Y0023002D03*
G01X0011417Y0023002D03*
G01X0011220Y0023002D03*
G01X0011024Y0023002D03*
G01X0010827Y0023002D03*
G01X0012795Y0023396D03*
G01X0012795Y0023596D03*
G01X0012795Y0023785D03*
G01X0010827Y0023785D03*
G01X0011024Y0023785D03*
G01X0011024Y0023596D03*
G01X0010827Y0023596D03*
G01X0010827Y0023396D03*
G01X0011024Y0023396D03*
G01X0012795Y0023986D03*
G01X0012598Y0023986D03*
G01X0012402Y0023986D03*
G01X0012205Y0023986D03*
G01X0012008Y0023986D03*
G01X0011811Y0023986D03*
G01X0011614Y0023986D03*
G01X0011417Y0023986D03*
G01X0011220Y0023986D03*
G01X0011024Y0023986D03*
G01X0010827Y0023986D03*
G01X0010827Y0024183D03*
G01X0011024Y0024183D03*
G01X0011220Y0024183D03*
G01X0011417Y0024183D03*
G01X0011614Y0024183D03*
G01X0011811Y0024183D03*
G01X0012008Y0024183D03*
G01X0012205Y0024183D03*
G01X0012402Y0024183D03*
G01X0012598Y0024183D03*
G01X0012795Y0024183D03*
G01X0012795Y0024380D03*
G01X0012598Y0024380D03*
G01X0012402Y0024380D03*
G01X0012205Y0024380D03*
G01X0012008Y0024380D03*
G01X0011811Y0024380D03*
G01X0011614Y0024380D03*
G01X0011417Y0024380D03*
G01X0011220Y0024380D03*
G01X0011024Y0024380D03*
G01X0010827Y0024380D03*
G54D31*
G01X0013154Y0023374D03*
G01X0013358Y0023374D03*
G54D32*
G01X0012598Y0022543D03*
G01X0012598Y0022339D03*
G01X0012874Y0022543D03*
G01X0012874Y0022339D03*
G54D31*
G01X0010445Y0024071D03*
G01X0010240Y0024071D03*
G01X0010453Y0024551D03*
G01X0010248Y0024551D03*
G54D32*
G01X0013194Y0024246D03*
G01X0013194Y0024451D03*
G54D31*
G01X0011898Y0024819D03*
G01X0011693Y0024819D03*
G54D32*
G01X0010880Y0024808D03*
G01X0010880Y0025013D03*
G01X0012323Y0022543D03*
G01X0012323Y0022339D03*
G54D31*
G01X0012770Y0024856D03*
G01X0012975Y0024856D03*
G54D32*
G01X0010406Y0023287D03*
G01X0010406Y0023492D03*
G54D33*
G01X0010472Y0023807D03*
G01X0010118Y0023807D03*
G01X0011130Y0024866D03*
G01X0011484Y0024866D03*
G01X0010493Y0024858D03*
G01X0010139Y0024858D03*
G54D30*
G01X0012598Y0029691D03*
G01X0012598Y0029502D03*
G01X0012598Y0029301D03*
G01X0010827Y0029104D03*
G01X0011024Y0029104D03*
G01X0011220Y0029104D03*
G01X0011417Y0029104D03*
G01X0011614Y0029104D03*
G01X0011811Y0029104D03*
G01X0012008Y0029104D03*
G01X0012205Y0029104D03*
G01X0012402Y0029104D03*
G01X0012598Y0029104D03*
G01X0012795Y0029104D03*
G01X0012795Y0028907D03*
G01X0012598Y0028907D03*
G01X0012402Y0028907D03*
G01X0012205Y0028907D03*
G01X0012008Y0028907D03*
G01X0011811Y0028907D03*
G01X0011614Y0028907D03*
G01X0011417Y0028907D03*
G01X0011220Y0028907D03*
G01X0011024Y0028907D03*
G01X0010827Y0028907D03*
G01X0012795Y0029301D03*
G01X0012795Y0029502D03*
G01X0012795Y0029691D03*
G01X0010827Y0029691D03*
G01X0011024Y0029691D03*
G01X0011024Y0029502D03*
G01X0010827Y0029502D03*
G01X0010827Y0029301D03*
G01X0011024Y0029301D03*
G01X0012795Y0029892D03*
G01X0012598Y0029892D03*
G01X0012402Y0029892D03*
G01X0012205Y0029892D03*
G01X0012008Y0029892D03*
G01X0011811Y0029892D03*
G01X0011614Y0029892D03*
G01X0011417Y0029892D03*
G01X0011220Y0029892D03*
G01X0011024Y0029892D03*
G01X0010827Y0029892D03*
G01X0010827Y0030089D03*
G01X0011024Y0030089D03*
G01X0011220Y0030089D03*
G01X0011417Y0030089D03*
G01X0011614Y0030089D03*
G01X0011811Y0030089D03*
G01X0012008Y0030089D03*
G01X0012205Y0030089D03*
G01X0012402Y0030089D03*
G01X0012598Y0030089D03*
G01X0012795Y0030089D03*
G01X0012795Y0030285D03*
G01X0012598Y0030285D03*
G01X0012402Y0030285D03*
G01X0012205Y0030285D03*
G01X0012008Y0030285D03*
G01X0011811Y0030285D03*
G01X0011614Y0030285D03*
G01X0011417Y0030285D03*
G01X0011220Y0030285D03*
G01X0011024Y0030285D03*
G01X0010827Y0030285D03*
G54D31*
G01X0013154Y0029280D03*
G01X0013358Y0029280D03*
G54D32*
G01X0012598Y0028449D03*
G01X0012598Y0028244D03*
G01X0012874Y0028449D03*
G01X0012874Y0028244D03*
G54D31*
G01X0010445Y0029976D03*
G01X0010240Y0029976D03*
G01X0010453Y0030457D03*
G01X0010248Y0030457D03*
G54D32*
G01X0013194Y0030152D03*
G01X0013194Y0030356D03*
G54D31*
G01X0011898Y0030724D03*
G01X0011693Y0030724D03*
G54D32*
G01X0010880Y0030714D03*
G01X0010880Y0030918D03*
G01X0012323Y0028449D03*
G01X0012323Y0028244D03*
G54D31*
G01X0012770Y0030761D03*
G01X0012975Y0030761D03*
G54D32*
G01X0010406Y0029193D03*
G01X0010406Y0029398D03*
G54D33*
G01X0010472Y0029713D03*
G01X0010118Y0029713D03*
G01X0011130Y0030772D03*
G01X0011484Y0030772D03*
G01X0010493Y0030764D03*
G01X0010139Y0030764D03*
G54D30*
G01X0018504Y0006069D03*
G01X0018504Y0005880D03*
G01X0018504Y0005679D03*
G01X0016732Y0005482D03*
G01X0016929Y0005482D03*
G01X0017126Y0005482D03*
G01X0017323Y0005482D03*
G01X0017520Y0005482D03*
G01X0017717Y0005482D03*
G01X0017913Y0005482D03*
G01X0018110Y0005482D03*
G01X0018307Y0005482D03*
G01X0018504Y0005482D03*
G01X0018701Y0005482D03*
G01X0018701Y0005285D03*
G01X0018504Y0005285D03*
G01X0018307Y0005285D03*
G01X0018110Y0005285D03*
G01X0017913Y0005285D03*
G01X0017717Y0005285D03*
G01X0017520Y0005285D03*
G01X0017323Y0005285D03*
G01X0017126Y0005285D03*
G01X0016929Y0005285D03*
G01X0016732Y0005285D03*
G01X0018701Y0005679D03*
G01X0018701Y0005880D03*
G01X0018701Y0006069D03*
G01X0016732Y0006069D03*
G01X0016929Y0006069D03*
G01X0016929Y0005880D03*
G01X0016732Y0005880D03*
G01X0016732Y0005679D03*
G01X0016929Y0005679D03*
G01X0018701Y0006270D03*
G01X0018504Y0006270D03*
G01X0018307Y0006270D03*
G01X0018110Y0006270D03*
G01X0017913Y0006270D03*
G01X0017717Y0006270D03*
G01X0017520Y0006270D03*
G01X0017323Y0006270D03*
G01X0017126Y0006270D03*
G01X0016929Y0006270D03*
G01X0016732Y0006270D03*
G01X0016732Y0006467D03*
G01X0016929Y0006467D03*
G01X0017126Y0006467D03*
G01X0017323Y0006467D03*
G01X0017520Y0006467D03*
G01X0017717Y0006467D03*
G01X0017913Y0006467D03*
G01X0018110Y0006467D03*
G01X0018307Y0006467D03*
G01X0018504Y0006467D03*
G01X0018701Y0006467D03*
G01X0018701Y0006663D03*
G01X0018504Y0006663D03*
G01X0018307Y0006663D03*
G01X0018110Y0006663D03*
G01X0017913Y0006663D03*
G01X0017717Y0006663D03*
G01X0017520Y0006663D03*
G01X0017323Y0006663D03*
G01X0017126Y0006663D03*
G01X0016929Y0006663D03*
G01X0016732Y0006663D03*
G54D31*
G01X0019059Y0005657D03*
G01X0019264Y0005657D03*
G54D32*
G01X0018504Y0004827D03*
G01X0018504Y0004622D03*
G01X0018780Y0004827D03*
G01X0018780Y0004622D03*
G54D31*
G01X0016350Y0006354D03*
G01X0016146Y0006354D03*
G01X0016358Y0006835D03*
G01X0016154Y0006835D03*
G54D32*
G01X0019099Y0006530D03*
G01X0019099Y0006734D03*
G54D31*
G01X0017803Y0007102D03*
G01X0017598Y0007102D03*
G54D32*
G01X0016785Y0007092D03*
G01X0016785Y0007296D03*
G01X0018228Y0004827D03*
G01X0018228Y0004622D03*
G54D31*
G01X0018675Y0007139D03*
G01X0018880Y0007139D03*
G54D32*
G01X0016311Y0005571D03*
G01X0016311Y0005776D03*
G54D33*
G01X0016378Y0006091D03*
G01X0016024Y0006091D03*
G01X0017035Y0007150D03*
G01X0017390Y0007150D03*
G01X0016399Y0007142D03*
G01X0016044Y0007142D03*
G54D30*
G01X0018504Y0011974D03*
G01X0018504Y0011785D03*
G01X0018504Y0011585D03*
G01X0016732Y0011388D03*
G01X0016929Y0011388D03*
G01X0017126Y0011388D03*
G01X0017323Y0011388D03*
G01X0017520Y0011388D03*
G01X0017717Y0011388D03*
G01X0017913Y0011388D03*
G01X0018110Y0011388D03*
G01X0018307Y0011388D03*
G01X0018504Y0011388D03*
G01X0018701Y0011388D03*
G01X0018701Y0011191D03*
G01X0018504Y0011191D03*
G01X0018307Y0011191D03*
G01X0018110Y0011191D03*
G01X0017913Y0011191D03*
G01X0017717Y0011191D03*
G01X0017520Y0011191D03*
G01X0017323Y0011191D03*
G01X0017126Y0011191D03*
G01X0016929Y0011191D03*
G01X0016732Y0011191D03*
G01X0018701Y0011585D03*
G01X0018701Y0011785D03*
G01X0018701Y0011974D03*
G01X0016732Y0011974D03*
G01X0016929Y0011974D03*
G01X0016929Y0011785D03*
G01X0016732Y0011785D03*
G01X0016732Y0011585D03*
G01X0016929Y0011585D03*
G01X0018701Y0012175D03*
G01X0018504Y0012175D03*
G01X0018307Y0012175D03*
G01X0018110Y0012175D03*
G01X0017913Y0012175D03*
G01X0017717Y0012175D03*
G01X0017520Y0012175D03*
G01X0017323Y0012175D03*
G01X0017126Y0012175D03*
G01X0016929Y0012175D03*
G01X0016732Y0012175D03*
G01X0016732Y0012372D03*
G01X0016929Y0012372D03*
G01X0017126Y0012372D03*
G01X0017323Y0012372D03*
G01X0017520Y0012372D03*
G01X0017717Y0012372D03*
G01X0017913Y0012372D03*
G01X0018110Y0012372D03*
G01X0018307Y0012372D03*
G01X0018504Y0012372D03*
G01X0018701Y0012372D03*
G01X0018701Y0012569D03*
G01X0018504Y0012569D03*
G01X0018307Y0012569D03*
G01X0018110Y0012569D03*
G01X0017913Y0012569D03*
G01X0017717Y0012569D03*
G01X0017520Y0012569D03*
G01X0017323Y0012569D03*
G01X0017126Y0012569D03*
G01X0016929Y0012569D03*
G01X0016732Y0012569D03*
G54D31*
G01X0019059Y0011563D03*
G01X0019264Y0011563D03*
G54D32*
G01X0018504Y0010732D03*
G01X0018504Y0010528D03*
G01X0018780Y0010732D03*
G01X0018780Y0010528D03*
G54D31*
G01X0016350Y0012260D03*
G01X0016146Y0012260D03*
G01X0016358Y0012740D03*
G01X0016154Y0012740D03*
G54D32*
G01X0019099Y0012435D03*
G01X0019099Y0012640D03*
G54D31*
G01X0017803Y0013008D03*
G01X0017598Y0013008D03*
G54D32*
G01X0016785Y0012997D03*
G01X0016785Y0013202D03*
G01X0018228Y0010732D03*
G01X0018228Y0010528D03*
G54D31*
G01X0018675Y0013045D03*
G01X0018880Y0013045D03*
G54D32*
G01X0016311Y0011476D03*
G01X0016311Y0011681D03*
G54D33*
G01X0016378Y0011996D03*
G01X0016024Y0011996D03*
G01X0017035Y0013055D03*
G01X0017390Y0013055D03*
G01X0016399Y0013047D03*
G01X0016044Y0013047D03*
G54D30*
G01X0018504Y0017880D03*
G01X0018504Y0017691D03*
G01X0018504Y0017490D03*
G01X0016732Y0017293D03*
G01X0016929Y0017293D03*
G01X0017126Y0017293D03*
G01X0017323Y0017293D03*
G01X0017520Y0017293D03*
G01X0017717Y0017293D03*
G01X0017913Y0017293D03*
G01X0018110Y0017293D03*
G01X0018307Y0017293D03*
G01X0018504Y0017293D03*
G01X0018701Y0017293D03*
G01X0018701Y0017096D03*
G01X0018504Y0017096D03*
G01X0018307Y0017096D03*
G01X0018110Y0017096D03*
G01X0017913Y0017096D03*
G01X0017717Y0017096D03*
G01X0017520Y0017096D03*
G01X0017323Y0017096D03*
G01X0017126Y0017096D03*
G01X0016929Y0017096D03*
G01X0016732Y0017096D03*
G01X0018701Y0017490D03*
G01X0018701Y0017691D03*
G01X0018701Y0017880D03*
G01X0016732Y0017880D03*
G01X0016929Y0017880D03*
G01X0016929Y0017691D03*
G01X0016732Y0017691D03*
G01X0016732Y0017490D03*
G01X0016929Y0017490D03*
G01X0018701Y0018081D03*
G01X0018504Y0018081D03*
G01X0018307Y0018081D03*
G01X0018110Y0018081D03*
G01X0017913Y0018081D03*
G01X0017717Y0018081D03*
G01X0017520Y0018081D03*
G01X0017323Y0018081D03*
G01X0017126Y0018081D03*
G01X0016929Y0018081D03*
G01X0016732Y0018081D03*
G01X0016732Y0018278D03*
G01X0016929Y0018278D03*
G01X0017126Y0018278D03*
G01X0017323Y0018278D03*
G01X0017520Y0018278D03*
G01X0017717Y0018278D03*
G01X0017913Y0018278D03*
G01X0018110Y0018278D03*
G01X0018307Y0018278D03*
G01X0018504Y0018278D03*
G01X0018701Y0018278D03*
G01X0018701Y0018474D03*
G01X0018504Y0018474D03*
G01X0018307Y0018474D03*
G01X0018110Y0018474D03*
G01X0017913Y0018474D03*
G01X0017717Y0018474D03*
G01X0017520Y0018474D03*
G01X0017323Y0018474D03*
G01X0017126Y0018474D03*
G01X0016929Y0018474D03*
G01X0016732Y0018474D03*
G54D31*
G01X0019059Y0017469D03*
G01X0019264Y0017469D03*
G54D32*
G01X0018504Y0016638D03*
G01X0018504Y0016433D03*
G01X0018780Y0016638D03*
G01X0018780Y0016433D03*
G54D31*
G01X0016350Y0018165D03*
G01X0016146Y0018165D03*
G01X0016358Y0018646D03*
G01X0016154Y0018646D03*
G54D32*
G01X0019099Y0018341D03*
G01X0019099Y0018545D03*
G54D31*
G01X0017803Y0018913D03*
G01X0017598Y0018913D03*
G54D32*
G01X0016785Y0018903D03*
G01X0016785Y0019107D03*
G01X0018228Y0016638D03*
G01X0018228Y0016433D03*
G54D31*
G01X0018675Y0018950D03*
G01X0018880Y0018950D03*
G54D32*
G01X0016311Y0017382D03*
G01X0016311Y0017587D03*
G54D33*
G01X0016378Y0017902D03*
G01X0016024Y0017902D03*
G01X0017035Y0018961D03*
G01X0017390Y0018961D03*
G01X0016399Y0018953D03*
G01X0016044Y0018953D03*
G54D30*
G01X0018504Y0023785D03*
G01X0018504Y0023596D03*
G01X0018504Y0023396D03*
G01X0016732Y0023199D03*
G01X0016929Y0023199D03*
G01X0017126Y0023199D03*
G01X0017323Y0023199D03*
G01X0017520Y0023199D03*
G01X0017717Y0023199D03*
G01X0017913Y0023199D03*
G01X0018110Y0023199D03*
G01X0018307Y0023199D03*
G01X0018504Y0023199D03*
G01X0018701Y0023199D03*
G01X0018701Y0023002D03*
G01X0018504Y0023002D03*
G01X0018307Y0023002D03*
G01X0018110Y0023002D03*
G01X0017913Y0023002D03*
G01X0017717Y0023002D03*
G01X0017520Y0023002D03*
G01X0017323Y0023002D03*
G01X0017126Y0023002D03*
G01X0016929Y0023002D03*
G01X0016732Y0023002D03*
G01X0018701Y0023396D03*
G01X0018701Y0023596D03*
G01X0018701Y0023785D03*
G01X0016732Y0023785D03*
G01X0016929Y0023785D03*
G01X0016929Y0023596D03*
G01X0016732Y0023596D03*
G01X0016732Y0023396D03*
G01X0016929Y0023396D03*
G01X0018701Y0023986D03*
G01X0018504Y0023986D03*
G01X0018307Y0023986D03*
G01X0018110Y0023986D03*
G01X0017913Y0023986D03*
G01X0017717Y0023986D03*
G01X0017520Y0023986D03*
G01X0017323Y0023986D03*
G01X0017126Y0023986D03*
G01X0016929Y0023986D03*
G01X0016732Y0023986D03*
G01X0016732Y0024183D03*
G01X0016929Y0024183D03*
G01X0017126Y0024183D03*
G01X0017323Y0024183D03*
G01X0017520Y0024183D03*
G01X0017717Y0024183D03*
G01X0017913Y0024183D03*
G01X0018110Y0024183D03*
G01X0018307Y0024183D03*
G01X0018504Y0024183D03*
G01X0018701Y0024183D03*
G01X0018701Y0024380D03*
G01X0018504Y0024380D03*
G01X0018307Y0024380D03*
G01X0018110Y0024380D03*
G01X0017913Y0024380D03*
G01X0017717Y0024380D03*
G01X0017520Y0024380D03*
G01X0017323Y0024380D03*
G01X0017126Y0024380D03*
G01X0016929Y0024380D03*
G01X0016732Y0024380D03*
G54D31*
G01X0019059Y0023374D03*
G01X0019264Y0023374D03*
G54D32*
G01X0018504Y0022543D03*
G01X0018504Y0022339D03*
G01X0018780Y0022543D03*
G01X0018780Y0022339D03*
G54D31*
G01X0016350Y0024071D03*
G01X0016146Y0024071D03*
G01X0016358Y0024551D03*
G01X0016154Y0024551D03*
G54D32*
G01X0019099Y0024246D03*
G01X0019099Y0024451D03*
G54D31*
G01X0017803Y0024819D03*
G01X0017598Y0024819D03*
G54D32*
G01X0016785Y0024808D03*
G01X0016785Y0025013D03*
G01X0018228Y0022543D03*
G01X0018228Y0022339D03*
G54D31*
G01X0018675Y0024856D03*
G01X0018880Y0024856D03*
G54D32*
G01X0016311Y0023287D03*
G01X0016311Y0023492D03*
G54D33*
G01X0016378Y0023807D03*
G01X0016024Y0023807D03*
G01X0017035Y0024866D03*
G01X0017390Y0024866D03*
G01X0016399Y0024858D03*
G01X0016044Y0024858D03*
G54D30*
G01X0018504Y0029691D03*
G01X0018504Y0029502D03*
G01X0018504Y0029301D03*
G01X0016732Y0029104D03*
G01X0016929Y0029104D03*
G01X0017126Y0029104D03*
G01X0017323Y0029104D03*
G01X0017520Y0029104D03*
G01X0017717Y0029104D03*
G01X0017913Y0029104D03*
G01X0018110Y0029104D03*
G01X0018307Y0029104D03*
G01X0018504Y0029104D03*
G01X0018701Y0029104D03*
G01X0018701Y0028907D03*
G01X0018504Y0028907D03*
G01X0018307Y0028907D03*
G01X0018110Y0028907D03*
G01X0017913Y0028907D03*
G01X0017717Y0028907D03*
G01X0017520Y0028907D03*
G01X0017323Y0028907D03*
G01X0017126Y0028907D03*
G01X0016929Y0028907D03*
G01X0016732Y0028907D03*
G01X0018701Y0029301D03*
G01X0018701Y0029502D03*
G01X0018701Y0029691D03*
G01X0016732Y0029691D03*
G01X0016929Y0029691D03*
G01X0016929Y0029502D03*
G01X0016732Y0029502D03*
G01X0016732Y0029301D03*
G01X0016929Y0029301D03*
G01X0018701Y0029892D03*
G01X0018504Y0029892D03*
G01X0018307Y0029892D03*
G01X0018110Y0029892D03*
G01X0017913Y0029892D03*
G01X0017717Y0029892D03*
G01X0017520Y0029892D03*
G01X0017323Y0029892D03*
G01X0017126Y0029892D03*
G01X0016929Y0029892D03*
G01X0016732Y0029892D03*
G01X0016732Y0030089D03*
G01X0016929Y0030089D03*
G01X0017126Y0030089D03*
G01X0017323Y0030089D03*
G01X0017520Y0030089D03*
G01X0017717Y0030089D03*
G01X0017913Y0030089D03*
G01X0018110Y0030089D03*
G01X0018307Y0030089D03*
G01X0018504Y0030089D03*
G01X0018701Y0030089D03*
G01X0018701Y0030285D03*
G01X0018504Y0030285D03*
G01X0018307Y0030285D03*
G01X0018110Y0030285D03*
G01X0017913Y0030285D03*
G01X0017717Y0030285D03*
G01X0017520Y0030285D03*
G01X0017323Y0030285D03*
G01X0017126Y0030285D03*
G01X0016929Y0030285D03*
G01X0016732Y0030285D03*
G54D31*
G01X0019059Y0029280D03*
G01X0019264Y0029280D03*
G54D32*
G01X0018504Y0028449D03*
G01X0018504Y0028244D03*
G01X0018780Y0028449D03*
G01X0018780Y0028244D03*
G54D31*
G01X0016350Y0029976D03*
G01X0016146Y0029976D03*
G01X0016358Y0030457D03*
G01X0016154Y0030457D03*
G54D32*
G01X0019099Y0030152D03*
G01X0019099Y0030356D03*
G54D31*
G01X0017803Y0030724D03*
G01X0017598Y0030724D03*
G54D32*
G01X0016785Y0030714D03*
G01X0016785Y0030918D03*
G01X0018228Y0028449D03*
G01X0018228Y0028244D03*
G54D31*
G01X0018675Y0030761D03*
G01X0018880Y0030761D03*
G54D32*
G01X0016311Y0029193D03*
G01X0016311Y0029398D03*
G54D33*
G01X0016378Y0029713D03*
G01X0016024Y0029713D03*
G01X0017035Y0030772D03*
G01X0017390Y0030772D03*
G01X0016399Y0030764D03*
G01X0016044Y0030764D03*
G54D30*
G01X0024409Y0006069D03*
G01X0024409Y0005880D03*
G01X0024409Y0005679D03*
G01X0022638Y0005482D03*
G01X0022835Y0005482D03*
G01X0023031Y0005482D03*
G01X0023228Y0005482D03*
G01X0023425Y0005482D03*
G01X0023622Y0005482D03*
G01X0023819Y0005482D03*
G01X0024016Y0005482D03*
G01X0024213Y0005482D03*
G01X0024409Y0005482D03*
G01X0024606Y0005482D03*
G01X0024606Y0005285D03*
G01X0024409Y0005285D03*
G01X0024213Y0005285D03*
G01X0024016Y0005285D03*
G01X0023819Y0005285D03*
G01X0023622Y0005285D03*
G01X0023425Y0005285D03*
G01X0023228Y0005285D03*
G01X0023031Y0005285D03*
G01X0022835Y0005285D03*
G01X0022638Y0005285D03*
G01X0024606Y0005679D03*
G01X0024606Y0005880D03*
G01X0024606Y0006069D03*
G01X0022638Y0006069D03*
G01X0022835Y0006069D03*
G01X0022835Y0005880D03*
G01X0022638Y0005880D03*
G01X0022638Y0005679D03*
G01X0022835Y0005679D03*
G01X0024606Y0006270D03*
G01X0024409Y0006270D03*
G01X0024213Y0006270D03*
G01X0024016Y0006270D03*
G01X0023819Y0006270D03*
G01X0023622Y0006270D03*
G01X0023425Y0006270D03*
G01X0023228Y0006270D03*
G01X0023031Y0006270D03*
G01X0022835Y0006270D03*
G01X0022638Y0006270D03*
G01X0022638Y0006467D03*
G01X0022835Y0006467D03*
G01X0023031Y0006467D03*
G01X0023228Y0006467D03*
G01X0023425Y0006467D03*
G01X0023622Y0006467D03*
G01X0023819Y0006467D03*
G01X0024016Y0006467D03*
G01X0024213Y0006467D03*
G01X0024409Y0006467D03*
G01X0024606Y0006467D03*
G01X0024606Y0006663D03*
G01X0024409Y0006663D03*
G01X0024213Y0006663D03*
G01X0024016Y0006663D03*
G01X0023819Y0006663D03*
G01X0023622Y0006663D03*
G01X0023425Y0006663D03*
G01X0023228Y0006663D03*
G01X0023031Y0006663D03*
G01X0022835Y0006663D03*
G01X0022638Y0006663D03*
G54D31*
G01X0024965Y0005657D03*
G01X0025169Y0005657D03*
G54D32*
G01X0024409Y0004827D03*
G01X0024409Y0004622D03*
G01X0024685Y0004827D03*
G01X0024685Y0004622D03*
G54D31*
G01X0022256Y0006354D03*
G01X0022051Y0006354D03*
G01X0022264Y0006835D03*
G01X0022059Y0006835D03*
G54D32*
G01X0025005Y0006530D03*
G01X0025005Y0006734D03*
G54D31*
G01X0023709Y0007102D03*
G01X0023504Y0007102D03*
G54D32*
G01X0022691Y0007092D03*
G01X0022691Y0007296D03*
G01X0024134Y0004827D03*
G01X0024134Y0004622D03*
G54D31*
G01X0024581Y0007139D03*
G01X0024786Y0007139D03*
G54D32*
G01X0022217Y0005571D03*
G01X0022217Y0005776D03*
G54D33*
G01X0022283Y0006091D03*
G01X0021929Y0006091D03*
G01X0022941Y0007150D03*
G01X0023295Y0007150D03*
G01X0022304Y0007142D03*
G01X0021950Y0007142D03*
G54D30*
G01X0024409Y0011974D03*
G01X0024409Y0011785D03*
G01X0024409Y0011585D03*
G01X0022638Y0011388D03*
G01X0022835Y0011388D03*
G01X0023031Y0011388D03*
G01X0023228Y0011388D03*
G01X0023425Y0011388D03*
G01X0023622Y0011388D03*
G01X0023819Y0011388D03*
G01X0024016Y0011388D03*
G01X0024213Y0011388D03*
G01X0024409Y0011388D03*
G01X0024606Y0011388D03*
G01X0024606Y0011191D03*
G01X0024409Y0011191D03*
G01X0024213Y0011191D03*
G01X0024016Y0011191D03*
G01X0023819Y0011191D03*
G01X0023622Y0011191D03*
G01X0023425Y0011191D03*
G01X0023228Y0011191D03*
G01X0023031Y0011191D03*
G01X0022835Y0011191D03*
G01X0022638Y0011191D03*
G01X0024606Y0011585D03*
G01X0024606Y0011785D03*
G01X0024606Y0011974D03*
G01X0022638Y0011974D03*
G01X0022835Y0011974D03*
G01X0022835Y0011785D03*
G01X0022638Y0011785D03*
G01X0022638Y0011585D03*
G01X0022835Y0011585D03*
G01X0024606Y0012175D03*
G01X0024409Y0012175D03*
G01X0024213Y0012175D03*
G01X0024016Y0012175D03*
G01X0023819Y0012175D03*
G01X0023622Y0012175D03*
G01X0023425Y0012175D03*
G01X0023228Y0012175D03*
G01X0023031Y0012175D03*
G01X0022835Y0012175D03*
G01X0022638Y0012175D03*
G01X0022638Y0012372D03*
G01X0022835Y0012372D03*
G01X0023031Y0012372D03*
G01X0023228Y0012372D03*
G01X0023425Y0012372D03*
G01X0023622Y0012372D03*
G01X0023819Y0012372D03*
G01X0024016Y0012372D03*
G01X0024213Y0012372D03*
G01X0024409Y0012372D03*
G01X0024606Y0012372D03*
G01X0024606Y0012569D03*
G01X0024409Y0012569D03*
G01X0024213Y0012569D03*
G01X0024016Y0012569D03*
G01X0023819Y0012569D03*
G01X0023622Y0012569D03*
G01X0023425Y0012569D03*
G01X0023228Y0012569D03*
G01X0023031Y0012569D03*
G01X0022835Y0012569D03*
G01X0022638Y0012569D03*
G54D31*
G01X0024965Y0011563D03*
G01X0025169Y0011563D03*
G54D32*
G01X0024409Y0010732D03*
G01X0024409Y0010528D03*
G01X0024685Y0010732D03*
G01X0024685Y0010528D03*
G54D31*
G01X0022256Y0012260D03*
G01X0022051Y0012260D03*
G01X0022264Y0012740D03*
G01X0022059Y0012740D03*
G54D32*
G01X0025005Y0012435D03*
G01X0025005Y0012640D03*
G54D31*
G01X0023709Y0013008D03*
G01X0023504Y0013008D03*
G54D32*
G01X0022691Y0012997D03*
G01X0022691Y0013202D03*
G01X0024134Y0010732D03*
G01X0024134Y0010528D03*
G54D31*
G01X0024581Y0013045D03*
G01X0024786Y0013045D03*
G54D32*
G01X0022217Y0011476D03*
G01X0022217Y0011681D03*
G54D33*
G01X0022283Y0011996D03*
G01X0021929Y0011996D03*
G01X0022941Y0013055D03*
G01X0023295Y0013055D03*
G01X0022304Y0013047D03*
G01X0021950Y0013047D03*
G54D30*
G01X0024409Y0017880D03*
G01X0024409Y0017691D03*
G01X0024409Y0017490D03*
G01X0022638Y0017293D03*
G01X0022835Y0017293D03*
G01X0023031Y0017293D03*
G01X0023228Y0017293D03*
G01X0023425Y0017293D03*
G01X0023622Y0017293D03*
G01X0023819Y0017293D03*
G01X0024016Y0017293D03*
G01X0024213Y0017293D03*
G01X0024409Y0017293D03*
G01X0024606Y0017293D03*
G01X0024606Y0017096D03*
G01X0024409Y0017096D03*
G01X0024213Y0017096D03*
G01X0024016Y0017096D03*
G01X0023819Y0017096D03*
G01X0023622Y0017096D03*
G01X0023425Y0017096D03*
G01X0023228Y0017096D03*
G01X0023031Y0017096D03*
G01X0022835Y0017096D03*
G01X0022638Y0017096D03*
G01X0024606Y0017490D03*
G01X0024606Y0017691D03*
G01X0024606Y0017880D03*
G01X0022638Y0017880D03*
G01X0022835Y0017880D03*
G01X0022835Y0017691D03*
G01X0022638Y0017691D03*
G01X0022638Y0017490D03*
G01X0022835Y0017490D03*
G01X0024606Y0018081D03*
G01X0024409Y0018081D03*
G01X0024213Y0018081D03*
G01X0024016Y0018081D03*
G01X0023819Y0018081D03*
G01X0023622Y0018081D03*
G01X0023425Y0018081D03*
G01X0023228Y0018081D03*
G01X0023031Y0018081D03*
G01X0022835Y0018081D03*
G01X0022638Y0018081D03*
G01X0022638Y0018278D03*
G01X0022835Y0018278D03*
G01X0023031Y0018278D03*
G01X0023228Y0018278D03*
G01X0023425Y0018278D03*
G01X0023622Y0018278D03*
G01X0023819Y0018278D03*
G01X0024016Y0018278D03*
G01X0024213Y0018278D03*
G01X0024409Y0018278D03*
G01X0024606Y0018278D03*
G01X0024606Y0018474D03*
G01X0024409Y0018474D03*
G01X0024213Y0018474D03*
G01X0024016Y0018474D03*
G01X0023819Y0018474D03*
G01X0023622Y0018474D03*
G01X0023425Y0018474D03*
G01X0023228Y0018474D03*
G01X0023031Y0018474D03*
G01X0022835Y0018474D03*
G01X0022638Y0018474D03*
G54D31*
G01X0024965Y0017469D03*
G01X0025169Y0017469D03*
G54D32*
G01X0024409Y0016638D03*
G01X0024409Y0016433D03*
G01X0024685Y0016638D03*
G01X0024685Y0016433D03*
G54D31*
G01X0022256Y0018165D03*
G01X0022051Y0018165D03*
G01X0022264Y0018646D03*
G01X0022059Y0018646D03*
G54D32*
G01X0025005Y0018341D03*
G01X0025005Y0018545D03*
G54D31*
G01X0023709Y0018913D03*
G01X0023504Y0018913D03*
G54D32*
G01X0022691Y0018903D03*
G01X0022691Y0019107D03*
G01X0024134Y0016638D03*
G01X0024134Y0016433D03*
G54D31*
G01X0024581Y0018950D03*
G01X0024786Y0018950D03*
G54D32*
G01X0022217Y0017382D03*
G01X0022217Y0017587D03*
G54D33*
G01X0022283Y0017902D03*
G01X0021929Y0017902D03*
G01X0022941Y0018961D03*
G01X0023295Y0018961D03*
G01X0022304Y0018953D03*
G01X0021950Y0018953D03*
G54D30*
G01X0024409Y0023785D03*
G01X0024409Y0023596D03*
G01X0024409Y0023396D03*
G01X0022638Y0023199D03*
G01X0022835Y0023199D03*
G01X0023031Y0023199D03*
G01X0023228Y0023199D03*
G01X0023425Y0023199D03*
G01X0023622Y0023199D03*
G01X0023819Y0023199D03*
G01X0024016Y0023199D03*
G01X0024213Y0023199D03*
G01X0024409Y0023199D03*
G01X0024606Y0023199D03*
G01X0024606Y0023002D03*
G01X0024409Y0023002D03*
G01X0024213Y0023002D03*
G01X0024016Y0023002D03*
G01X0023819Y0023002D03*
G01X0023622Y0023002D03*
G01X0023425Y0023002D03*
G01X0023228Y0023002D03*
G01X0023031Y0023002D03*
G01X0022835Y0023002D03*
G01X0022638Y0023002D03*
G01X0024606Y0023396D03*
G01X0024606Y0023596D03*
G01X0024606Y0023785D03*
G01X0022638Y0023785D03*
G01X0022835Y0023785D03*
G01X0022835Y0023596D03*
G01X0022638Y0023596D03*
G01X0022638Y0023396D03*
G01X0022835Y0023396D03*
G01X0024606Y0023986D03*
G01X0024409Y0023986D03*
G01X0024213Y0023986D03*
G01X0024016Y0023986D03*
G01X0023819Y0023986D03*
G01X0023622Y0023986D03*
G01X0023425Y0023986D03*
G01X0023228Y0023986D03*
G01X0023031Y0023986D03*
G01X0022835Y0023986D03*
G01X0022638Y0023986D03*
G01X0022638Y0024183D03*
G01X0022835Y0024183D03*
G01X0023031Y0024183D03*
G01X0023228Y0024183D03*
G01X0023425Y0024183D03*
G01X0023622Y0024183D03*
G01X0023819Y0024183D03*
G01X0024016Y0024183D03*
G01X0024213Y0024183D03*
G01X0024409Y0024183D03*
G01X0024606Y0024183D03*
G01X0024606Y0024380D03*
G01X0024409Y0024380D03*
G01X0024213Y0024380D03*
G01X0024016Y0024380D03*
G01X0023819Y0024380D03*
G01X0023622Y0024380D03*
G01X0023425Y0024380D03*
G01X0023228Y0024380D03*
G01X0023031Y0024380D03*
G01X0022835Y0024380D03*
G01X0022638Y0024380D03*
G54D31*
G01X0024965Y0023374D03*
G01X0025169Y0023374D03*
G54D32*
G01X0024409Y0022543D03*
G01X0024409Y0022339D03*
G01X0024685Y0022543D03*
G01X0024685Y0022339D03*
G54D31*
G01X0022256Y0024071D03*
G01X0022051Y0024071D03*
G01X0022264Y0024551D03*
G01X0022059Y0024551D03*
G54D32*
G01X0025005Y0024246D03*
G01X0025005Y0024451D03*
G54D31*
G01X0023709Y0024819D03*
G01X0023504Y0024819D03*
G54D32*
G01X0022691Y0024808D03*
G01X0022691Y0025013D03*
G01X0024134Y0022543D03*
G01X0024134Y0022339D03*
G54D31*
G01X0024581Y0024856D03*
G01X0024786Y0024856D03*
G54D32*
G01X0022217Y0023287D03*
G01X0022217Y0023492D03*
G54D33*
G01X0022283Y0023807D03*
G01X0021929Y0023807D03*
G01X0022941Y0024866D03*
G01X0023295Y0024866D03*
G01X0022304Y0024858D03*
G01X0021950Y0024858D03*
G54D30*
G01X0024409Y0029691D03*
G01X0024409Y0029502D03*
G01X0024409Y0029301D03*
G01X0022638Y0029104D03*
G01X0022835Y0029104D03*
G01X0023031Y0029104D03*
G01X0023228Y0029104D03*
G01X0023425Y0029104D03*
G01X0023622Y0029104D03*
G01X0023819Y0029104D03*
G01X0024016Y0029104D03*
G01X0024213Y0029104D03*
G01X0024409Y0029104D03*
G01X0024606Y0029104D03*
G01X0024606Y0028907D03*
G01X0024409Y0028907D03*
G01X0024213Y0028907D03*
G01X0024016Y0028907D03*
G01X0023819Y0028907D03*
G01X0023622Y0028907D03*
G01X0023425Y0028907D03*
G01X0023228Y0028907D03*
G01X0023031Y0028907D03*
G01X0022835Y0028907D03*
G01X0022638Y0028907D03*
G01X0024606Y0029301D03*
G01X0024606Y0029502D03*
G01X0024606Y0029691D03*
G01X0022638Y0029691D03*
G01X0022835Y0029691D03*
G01X0022835Y0029502D03*
G01X0022638Y0029502D03*
G01X0022638Y0029301D03*
G01X0022835Y0029301D03*
G01X0024606Y0029892D03*
G01X0024409Y0029892D03*
G01X0024213Y0029892D03*
G01X0024016Y0029892D03*
G01X0023819Y0029892D03*
G01X0023622Y0029892D03*
G01X0023425Y0029892D03*
G01X0023228Y0029892D03*
G01X0023031Y0029892D03*
G01X0022835Y0029892D03*
G01X0022638Y0029892D03*
G01X0022638Y0030089D03*
G01X0022835Y0030089D03*
G01X0023031Y0030089D03*
G01X0023228Y0030089D03*
G01X0023425Y0030089D03*
G01X0023622Y0030089D03*
G01X0023819Y0030089D03*
G01X0024016Y0030089D03*
G01X0024213Y0030089D03*
G01X0024409Y0030089D03*
G01X0024606Y0030089D03*
G01X0024606Y0030285D03*
G01X0024409Y0030285D03*
G01X0024213Y0030285D03*
G01X0024016Y0030285D03*
G01X0023819Y0030285D03*
G01X0023622Y0030285D03*
G01X0023425Y0030285D03*
G01X0023228Y0030285D03*
G01X0023031Y0030285D03*
G01X0022835Y0030285D03*
G01X0022638Y0030285D03*
G54D31*
G01X0024965Y0029280D03*
G01X0025169Y0029280D03*
G54D32*
G01X0024409Y0028449D03*
G01X0024409Y0028244D03*
G01X0024685Y0028449D03*
G01X0024685Y0028244D03*
G54D31*
G01X0022256Y0029976D03*
G01X0022051Y0029976D03*
G01X0022264Y0030457D03*
G01X0022059Y0030457D03*
G54D32*
G01X0025005Y0030152D03*
G01X0025005Y0030356D03*
G54D31*
G01X0023709Y0030724D03*
G01X0023504Y0030724D03*
G54D32*
G01X0022691Y0030714D03*
G01X0022691Y0030918D03*
G01X0024134Y0028449D03*
G01X0024134Y0028244D03*
G54D31*
G01X0024581Y0030761D03*
G01X0024786Y0030761D03*
G54D32*
G01X0022217Y0029193D03*
G01X0022217Y0029398D03*
G54D33*
G01X0022283Y0029713D03*
G01X0021929Y0029713D03*
G01X0022941Y0030772D03*
G01X0023295Y0030772D03*
G01X0022304Y0030764D03*
G01X0021950Y0030764D03*
G54D30*
G01X0030315Y0006069D03*
G01X0030315Y0005880D03*
G01X0030315Y0005679D03*
G01X0028543Y0005482D03*
G01X0028740Y0005482D03*
G01X0028937Y0005482D03*
G01X0029134Y0005482D03*
G01X0029331Y0005482D03*
G01X0029528Y0005482D03*
G01X0029724Y0005482D03*
G01X0029921Y0005482D03*
G01X0030118Y0005482D03*
G01X0030315Y0005482D03*
G01X0030512Y0005482D03*
G01X0030512Y0005285D03*
G01X0030315Y0005285D03*
G01X0030118Y0005285D03*
G01X0029921Y0005285D03*
G01X0029724Y0005285D03*
G01X0029528Y0005285D03*
G01X0029331Y0005285D03*
G01X0029134Y0005285D03*
G01X0028937Y0005285D03*
G01X0028740Y0005285D03*
G01X0028543Y0005285D03*
G01X0030512Y0005679D03*
G01X0030512Y0005880D03*
G01X0030512Y0006069D03*
G01X0028543Y0006069D03*
G01X0028740Y0006069D03*
G01X0028740Y0005880D03*
G01X0028543Y0005880D03*
G01X0028543Y0005679D03*
G01X0028740Y0005679D03*
G01X0030512Y0006270D03*
G01X0030315Y0006270D03*
G01X0030118Y0006270D03*
G01X0029921Y0006270D03*
G01X0029724Y0006270D03*
G01X0029528Y0006270D03*
G01X0029331Y0006270D03*
G01X0029134Y0006270D03*
G01X0028937Y0006270D03*
G01X0028740Y0006270D03*
G01X0028543Y0006270D03*
G01X0028543Y0006467D03*
G01X0028740Y0006467D03*
G01X0028937Y0006467D03*
G01X0029134Y0006467D03*
G01X0029331Y0006467D03*
G01X0029528Y0006467D03*
G01X0029724Y0006467D03*
G01X0029921Y0006467D03*
G01X0030118Y0006467D03*
G01X0030315Y0006467D03*
G01X0030512Y0006467D03*
G01X0030512Y0006663D03*
G01X0030315Y0006663D03*
G01X0030118Y0006663D03*
G01X0029921Y0006663D03*
G01X0029724Y0006663D03*
G01X0029528Y0006663D03*
G01X0029331Y0006663D03*
G01X0029134Y0006663D03*
G01X0028937Y0006663D03*
G01X0028740Y0006663D03*
G01X0028543Y0006663D03*
G54D31*
G01X0030870Y0005657D03*
G01X0031075Y0005657D03*
G54D32*
G01X0030315Y0004827D03*
G01X0030315Y0004622D03*
G01X0030591Y0004827D03*
G01X0030591Y0004622D03*
G54D31*
G01X0028161Y0006354D03*
G01X0027957Y0006354D03*
G01X0028169Y0006835D03*
G01X0027965Y0006835D03*
G54D32*
G01X0030910Y0006530D03*
G01X0030910Y0006734D03*
G54D31*
G01X0029614Y0007102D03*
G01X0029409Y0007102D03*
G54D32*
G01X0028596Y0007092D03*
G01X0028596Y0007296D03*
G01X0030039Y0004827D03*
G01X0030039Y0004622D03*
G54D31*
G01X0030486Y0007139D03*
G01X0030691Y0007139D03*
G54D32*
G01X0028122Y0005571D03*
G01X0028122Y0005776D03*
G54D33*
G01X0028189Y0006091D03*
G01X0027835Y0006091D03*
G01X0028846Y0007150D03*
G01X0029201Y0007150D03*
G01X0028210Y0007142D03*
G01X0027855Y0007142D03*
G54D30*
G01X0030315Y0011974D03*
G01X0030315Y0011785D03*
G01X0030315Y0011585D03*
G01X0028543Y0011388D03*
G01X0028740Y0011388D03*
G01X0028937Y0011388D03*
G01X0029134Y0011388D03*
G01X0029331Y0011388D03*
G01X0029528Y0011388D03*
G01X0029724Y0011388D03*
G01X0029921Y0011388D03*
G01X0030118Y0011388D03*
G01X0030315Y0011388D03*
G01X0030512Y0011388D03*
G01X0030512Y0011191D03*
G01X0030315Y0011191D03*
G01X0030118Y0011191D03*
G01X0029921Y0011191D03*
G01X0029724Y0011191D03*
G01X0029528Y0011191D03*
G01X0029331Y0011191D03*
G01X0029134Y0011191D03*
G01X0028937Y0011191D03*
G01X0028740Y0011191D03*
G01X0028543Y0011191D03*
G01X0030512Y0011585D03*
G01X0030512Y0011785D03*
G01X0030512Y0011974D03*
G01X0028543Y0011974D03*
G01X0028740Y0011974D03*
G01X0028740Y0011785D03*
G01X0028543Y0011785D03*
G01X0028543Y0011585D03*
G01X0028740Y0011585D03*
G01X0030512Y0012175D03*
G01X0030315Y0012175D03*
G01X0030118Y0012175D03*
G01X0029921Y0012175D03*
G01X0029724Y0012175D03*
G01X0029528Y0012175D03*
G01X0029331Y0012175D03*
G01X0029134Y0012175D03*
G01X0028937Y0012175D03*
G01X0028740Y0012175D03*
G01X0028543Y0012175D03*
G01X0028543Y0012372D03*
G01X0028740Y0012372D03*
G01X0028937Y0012372D03*
G01X0029134Y0012372D03*
G01X0029331Y0012372D03*
G01X0029528Y0012372D03*
G01X0029724Y0012372D03*
G01X0029921Y0012372D03*
G01X0030118Y0012372D03*
G01X0030315Y0012372D03*
G01X0030512Y0012372D03*
G01X0030512Y0012569D03*
G01X0030315Y0012569D03*
G01X0030118Y0012569D03*
G01X0029921Y0012569D03*
G01X0029724Y0012569D03*
G01X0029528Y0012569D03*
G01X0029331Y0012569D03*
G01X0029134Y0012569D03*
G01X0028937Y0012569D03*
G01X0028740Y0012569D03*
G01X0028543Y0012569D03*
G54D31*
G01X0030870Y0011563D03*
G01X0031075Y0011563D03*
G54D32*
G01X0030315Y0010732D03*
G01X0030315Y0010528D03*
G01X0030591Y0010732D03*
G01X0030591Y0010528D03*
G54D31*
G01X0028161Y0012260D03*
G01X0027957Y0012260D03*
G01X0028169Y0012740D03*
G01X0027965Y0012740D03*
G54D32*
G01X0030910Y0012435D03*
G01X0030910Y0012640D03*
G54D31*
G01X0029614Y0013008D03*
G01X0029409Y0013008D03*
G54D32*
G01X0028596Y0012997D03*
G01X0028596Y0013202D03*
G01X0030039Y0010732D03*
G01X0030039Y0010528D03*
G54D31*
G01X0030486Y0013045D03*
G01X0030691Y0013045D03*
G54D32*
G01X0028122Y0011476D03*
G01X0028122Y0011681D03*
G54D33*
G01X0028189Y0011996D03*
G01X0027835Y0011996D03*
G01X0028846Y0013055D03*
G01X0029201Y0013055D03*
G01X0028210Y0013047D03*
G01X0027855Y0013047D03*
G54D30*
G01X0030315Y0017880D03*
G01X0030315Y0017691D03*
G01X0030315Y0017490D03*
G01X0028543Y0017293D03*
G01X0028740Y0017293D03*
G01X0028937Y0017293D03*
G01X0029134Y0017293D03*
G01X0029331Y0017293D03*
G01X0029528Y0017293D03*
G01X0029724Y0017293D03*
G01X0029921Y0017293D03*
G01X0030118Y0017293D03*
G01X0030315Y0017293D03*
G01X0030512Y0017293D03*
G01X0030512Y0017096D03*
G01X0030315Y0017096D03*
G01X0030118Y0017096D03*
G01X0029921Y0017096D03*
G01X0029724Y0017096D03*
G01X0029528Y0017096D03*
G01X0029331Y0017096D03*
G01X0029134Y0017096D03*
G01X0028937Y0017096D03*
G01X0028740Y0017096D03*
G01X0028543Y0017096D03*
G01X0030512Y0017490D03*
G01X0030512Y0017691D03*
G01X0030512Y0017880D03*
G01X0028543Y0017880D03*
G01X0028740Y0017880D03*
G01X0028740Y0017691D03*
G01X0028543Y0017691D03*
G01X0028543Y0017490D03*
G01X0028740Y0017490D03*
G01X0030512Y0018081D03*
G01X0030315Y0018081D03*
G01X0030118Y0018081D03*
G01X0029921Y0018081D03*
G01X0029724Y0018081D03*
G01X0029528Y0018081D03*
G01X0029331Y0018081D03*
G01X0029134Y0018081D03*
G01X0028937Y0018081D03*
G01X0028740Y0018081D03*
G01X0028543Y0018081D03*
G01X0028543Y0018278D03*
G01X0028740Y0018278D03*
G01X0028937Y0018278D03*
G01X0029134Y0018278D03*
G01X0029331Y0018278D03*
G01X0029528Y0018278D03*
G01X0029724Y0018278D03*
G01X0029921Y0018278D03*
G01X0030118Y0018278D03*
G01X0030315Y0018278D03*
G01X0030512Y0018278D03*
G01X0030512Y0018474D03*
G01X0030315Y0018474D03*
G01X0030118Y0018474D03*
G01X0029921Y0018474D03*
G01X0029724Y0018474D03*
G01X0029528Y0018474D03*
G01X0029331Y0018474D03*
G01X0029134Y0018474D03*
G01X0028937Y0018474D03*
G01X0028740Y0018474D03*
G01X0028543Y0018474D03*
G54D31*
G01X0030870Y0017469D03*
G01X0031075Y0017469D03*
G54D32*
G01X0030315Y0016638D03*
G01X0030315Y0016433D03*
G01X0030591Y0016638D03*
G01X0030591Y0016433D03*
G54D31*
G01X0028161Y0018165D03*
G01X0027957Y0018165D03*
G01X0028169Y0018646D03*
G01X0027965Y0018646D03*
G54D32*
G01X0030910Y0018341D03*
G01X0030910Y0018545D03*
G54D31*
G01X0029614Y0018913D03*
G01X0029409Y0018913D03*
G54D32*
G01X0028596Y0018903D03*
G01X0028596Y0019107D03*
G01X0030039Y0016638D03*
G01X0030039Y0016433D03*
G54D31*
G01X0030486Y0018950D03*
G01X0030691Y0018950D03*
G54D32*
G01X0028122Y0017382D03*
G01X0028122Y0017587D03*
G54D33*
G01X0028189Y0017902D03*
G01X0027835Y0017902D03*
G01X0028846Y0018961D03*
G01X0029201Y0018961D03*
G01X0028210Y0018953D03*
G01X0027855Y0018953D03*
G54D30*
G01X0030315Y0023785D03*
G01X0030315Y0023596D03*
G01X0030315Y0023396D03*
G01X0028543Y0023199D03*
G01X0028740Y0023199D03*
G01X0028937Y0023199D03*
G01X0029134Y0023199D03*
G01X0029331Y0023199D03*
G01X0029528Y0023199D03*
G01X0029724Y0023199D03*
G01X0029921Y0023199D03*
G01X0030118Y0023199D03*
G01X0030315Y0023199D03*
G01X0030512Y0023199D03*
G01X0030512Y0023002D03*
G01X0030315Y0023002D03*
G01X0030118Y0023002D03*
G01X0029921Y0023002D03*
G01X0029724Y0023002D03*
G01X0029528Y0023002D03*
G01X0029331Y0023002D03*
G01X0029134Y0023002D03*
G01X0028937Y0023002D03*
G01X0028740Y0023002D03*
G01X0028543Y0023002D03*
G01X0030512Y0023396D03*
G01X0030512Y0023596D03*
G01X0030512Y0023785D03*
G01X0028543Y0023785D03*
G01X0028740Y0023785D03*
G01X0028740Y0023596D03*
G01X0028543Y0023596D03*
G01X0028543Y0023396D03*
G01X0028740Y0023396D03*
G01X0030512Y0023986D03*
G01X0030315Y0023986D03*
G01X0030118Y0023986D03*
G01X0029921Y0023986D03*
G01X0029724Y0023986D03*
G01X0029528Y0023986D03*
G01X0029331Y0023986D03*
G01X0029134Y0023986D03*
G01X0028937Y0023986D03*
G01X0028740Y0023986D03*
G01X0028543Y0023986D03*
G01X0028543Y0024183D03*
G01X0028740Y0024183D03*
G01X0028937Y0024183D03*
G01X0029134Y0024183D03*
G01X0029331Y0024183D03*
G01X0029528Y0024183D03*
G01X0029724Y0024183D03*
G01X0029921Y0024183D03*
G01X0030118Y0024183D03*
G01X0030315Y0024183D03*
G01X0030512Y0024183D03*
G01X0030512Y0024380D03*
G01X0030315Y0024380D03*
G01X0030118Y0024380D03*
G01X0029921Y0024380D03*
G01X0029724Y0024380D03*
G01X0029528Y0024380D03*
G01X0029331Y0024380D03*
G01X0029134Y0024380D03*
G01X0028937Y0024380D03*
G01X0028740Y0024380D03*
G01X0028543Y0024380D03*
G54D31*
G01X0030870Y0023374D03*
G01X0031075Y0023374D03*
G54D32*
G01X0030315Y0022543D03*
G01X0030315Y0022339D03*
G01X0030591Y0022543D03*
G01X0030591Y0022339D03*
G54D31*
G01X0028161Y0024071D03*
G01X0027957Y0024071D03*
G01X0028169Y0024551D03*
G01X0027965Y0024551D03*
G54D32*
G01X0030910Y0024246D03*
G01X0030910Y0024451D03*
G54D31*
G01X0029614Y0024819D03*
G01X0029409Y0024819D03*
G54D32*
G01X0028596Y0024808D03*
G01X0028596Y0025013D03*
G01X0030039Y0022543D03*
G01X0030039Y0022339D03*
G54D31*
G01X0030486Y0024856D03*
G01X0030691Y0024856D03*
G54D32*
G01X0028122Y0023287D03*
G01X0028122Y0023492D03*
G54D33*
G01X0028189Y0023807D03*
G01X0027835Y0023807D03*
G01X0028846Y0024866D03*
G01X0029201Y0024866D03*
G01X0028210Y0024858D03*
G01X0027855Y0024858D03*
G54D30*
G01X0030315Y0029691D03*
G01X0030315Y0029502D03*
G01X0030315Y0029301D03*
G01X0028543Y0029104D03*
G01X0028740Y0029104D03*
G01X0028937Y0029104D03*
G01X0029134Y0029104D03*
G01X0029331Y0029104D03*
G01X0029528Y0029104D03*
G01X0029724Y0029104D03*
G01X0029921Y0029104D03*
G01X0030118Y0029104D03*
G01X0030315Y0029104D03*
G01X0030512Y0029104D03*
G01X0030512Y0028907D03*
G01X0030315Y0028907D03*
G01X0030118Y0028907D03*
G01X0029921Y0028907D03*
G01X0029724Y0028907D03*
G01X0029528Y0028907D03*
G01X0029331Y0028907D03*
G01X0029134Y0028907D03*
G01X0028937Y0028907D03*
G01X0028740Y0028907D03*
G01X0028543Y0028907D03*
G01X0030512Y0029301D03*
G01X0030512Y0029502D03*
G01X0030512Y0029691D03*
G01X0028543Y0029691D03*
G01X0028740Y0029691D03*
G01X0028740Y0029502D03*
G01X0028543Y0029502D03*
G01X0028543Y0029301D03*
G01X0028740Y0029301D03*
G01X0030512Y0029892D03*
G01X0030315Y0029892D03*
G01X0030118Y0029892D03*
G01X0029921Y0029892D03*
G01X0029724Y0029892D03*
G01X0029528Y0029892D03*
G01X0029331Y0029892D03*
G01X0029134Y0029892D03*
G01X0028937Y0029892D03*
G01X0028740Y0029892D03*
G01X0028543Y0029892D03*
G01X0028543Y0030089D03*
G01X0028740Y0030089D03*
G01X0028937Y0030089D03*
G01X0029134Y0030089D03*
G01X0029331Y0030089D03*
G01X0029528Y0030089D03*
G01X0029724Y0030089D03*
G01X0029921Y0030089D03*
G01X0030118Y0030089D03*
G01X0030315Y0030089D03*
G01X0030512Y0030089D03*
G01X0030512Y0030285D03*
G01X0030315Y0030285D03*
G01X0030118Y0030285D03*
G01X0029921Y0030285D03*
G01X0029724Y0030285D03*
G01X0029528Y0030285D03*
G01X0029331Y0030285D03*
G01X0029134Y0030285D03*
G01X0028937Y0030285D03*
G01X0028740Y0030285D03*
G01X0028543Y0030285D03*
G54D31*
G01X0030870Y0029280D03*
G01X0031075Y0029280D03*
G54D32*
G01X0030315Y0028449D03*
G01X0030315Y0028244D03*
G01X0030591Y0028449D03*
G01X0030591Y0028244D03*
G54D31*
G01X0028161Y0029976D03*
G01X0027957Y0029976D03*
G01X0028169Y0030457D03*
G01X0027965Y0030457D03*
G54D32*
G01X0030910Y0030152D03*
G01X0030910Y0030356D03*
G54D31*
G01X0029614Y0030724D03*
G01X0029409Y0030724D03*
G54D32*
G01X0028596Y0030714D03*
G01X0028596Y0030918D03*
G01X0030039Y0028449D03*
G01X0030039Y0028244D03*
G54D31*
G01X0030486Y0030761D03*
G01X0030691Y0030761D03*
G54D32*
G01X0028122Y0029193D03*
G01X0028122Y0029398D03*
G54D33*
G01X0028189Y0029713D03*
G01X0027835Y0029713D03*
G01X0028846Y0030772D03*
G01X0029201Y0030772D03*
G01X0028210Y0030764D03*
G01X0027855Y0030764D03*
M02*
